<svg width="1024" height="354" viewBox="0 0 1024 354" fill="none" xmlns="http://www.w3.org/2000/svg">
<path d="M612.769 0H627.847C630.368 1.07866 640.871 1.64176 644.548 2.3388C656.068 4.52244 666.075 8.11473 676.607 13.1983C706.671 27.7997 729.72 53.7268 740.705 85.297C752.145 117.504 750.085 152.968 734.992 183.632C719.577 215.421 693.351 237.089 660.26 248.544C652.749 251.181 644.965 252.96 637.054 253.846C620.766 255.8 604.298 255.147 587.868 255.21C582.933 255.23 569.853 255.49 565.66 255.042C563.535 254.802 561.47 254.197 559.551 253.253C555.351 251.219 552.156 247.564 550.704 243.127C549.199 238.436 549.62 233.337 551.875 228.957C557.821 217.461 572.491 220.179 583.059 219.882C604.309 219.281 628.501 222.147 648.926 215.52C672.297 207.833 691.699 191.246 702.927 169.351C725.873 124.226 707.535 68.195 662.318 45.3654C640.611 34.4678 615.496 32.521 592.369 39.9437C565.666 48.7461 544.633 68.4707 534.52 94.7066C527.396 113.184 528.205 128.627 528.219 147.948L528.251 191.93L528.266 301.903C528.268 308.732 529.043 338.546 527.034 342.619C517.571 361.808 492.536 355.753 493.222 331.803C493.643 317.083 493.189 299.962 493.205 285.978L493.22 200.489L493.196 148.434C493.191 137.374 492.874 123.404 494.048 112.635C495.777 97.8944 500.062 83.5684 506.71 70.2998C524.387 34.4491 562.314 6.45611 602.015 1.74356C605.072 1.38077 609.838 1.00935 612.622 0.0517338L612.769 0Z" fill="white"/>
<path d="M119.664 0H134.747L134.888 0.056416C137.99 1.26808 145.948 1.40582 149.784 2.06666C154.334 2.85032 158.171 3.7709 162.633 5.05733C198.403 15.442 227.867 40.912 243.321 74.8075C249.207 88.0063 252.17 99.9266 253.913 114.267C254.544 119.694 254.92 125.148 255.043 130.611C255.988 165.567 254.691 201.199 255.029 236.2C255.218 255.904 230.501 262.326 221.648 245.317C218.935 239.954 219.858 220.356 219.873 212.994L219.885 157.69C219.897 144.311 220.433 127.962 218.554 114.952C214.257 83.2727 193.79 56.1108 164.528 43.251C141.84 33.3303 116.123 32.923 93.1333 42.1202C71.4742 50.7002 52.2871 68.892 43.0433 90.3347C33.0481 112.935 32.5542 138.605 41.6727 161.574C53.1244 190.296 78.9344 212.637 109.95 218.248C127.901 221.497 147.832 219.211 166.069 219.873C172.875 220.073 180.285 219.19 186.853 221.205C201.754 225.737 202.156 248.991 187.395 253.74C178.446 256.618 163.881 254.919 154.299 255.143C124.979 255.828 100.391 255.584 73.2225 242.898C37.0328 226.003 9.28647 191.146 2.56894 151.493C2.05401 148.391 1.04659 140.645 0 138.339V114.527C0.510635 113.877 3.93796 95.7871 4.75491 92.844C6.98156 85.0083 9.92734 77.3951 13.5546 70.1016C29.1558 38.5509 59.2865 14.709 92.9283 4.66097C100.928 2.27162 114.892 1.64643 119.52 0.0505494L119.664 0Z" fill="white"/>
<path d="M887.781 0H904.339C907.247 1.2098 915.49 1.73227 919.044 2.20128C923.543 2.80584 927.992 3.73329 932.356 4.97645C976.635 17.7176 1013.4 57.9049 1021.26 103.461C1021.69 105.971 1023.31 118.04 1024 119.628V241.799C1018.18 253.579 1006.11 260.355 994.374 250.481C986.802 244.114 988.971 223.468 988.976 213.306L989.022 164.313C989.044 140.029 990.939 113.839 981.136 91.1302C971.411 68.8517 953.343 51.2743 930.806 42.1718C907.896 32.9628 882.251 33.3117 859.599 43.1407C830.328 55.9013 809.727 82.8837 805.125 114.488C803.569 125.561 804.137 143.53 804.149 155.282L804.205 212.138C804.214 222.618 807.402 250.531 793.624 253.827C765.797 260.485 768.881 234.218 768.888 216.454L768.884 176.964C768.881 141.555 765.377 106.34 780.863 73.9171C799.512 34.8699 835.154 7.56421 878.004 1.70215C880.739 1.32778 885.241 0.99371 887.646 0.054299L887.781 0Z" fill="white"/>
<path d="M256.148 0H264.491C276.098 5.78704 277.801 12.808 283.496 23.8916L298.554 53.4839L345.003 143.121L361.515 174.9C365.411 182.5 369.961 192.034 374.267 199.199L440.388 70.6776C447.529 56.5857 454.758 42.5383 462.075 28.5369C465.63 21.6264 469.251 14.1276 473.248 7.47814C475.615 3.54147 480.478 2.14206 483.159 0H491.411C505.87 8.96804 508.554 14.8779 500.128 31.5632C495.525 40.6793 490.518 49.9748 485.791 59.0558L451.794 124.864L408.296 209.187C402.278 220.768 396.375 232.535 390.289 244.081C388.746 247.007 385.947 250.582 383.112 252.391C379.278 254.797 374.639 255.56 370.236 254.508C363.484 252.941 360.009 248.559 356.831 242.692C351.234 232.354 345.998 221.802 340.661 211.326L310.236 152.423L264.089 63.0302C260.314 55.5346 256.445 48.0872 252.482 40.6892C250.015 36.0335 246.929 31.0017 245.043 26.1254C239.621 12.1121 245.502 6.59623 256.148 0Z" fill="white"/>
</svg>
