<svg width="1024" height="501" viewBox="0 0 1024 501" fill="none" xmlns="http://www.w3.org/2000/svg">
<g clip-path="url(#clip0_1090_27891)">
<path d="M1024 0H0V501H1024V0Z" fill="#E42919"/>
<path d="M331.107 333.061C324.711 333.061 319.536 327.89 319.536 321.497V249.154C319.536 215.644 292.258 188.34 258.696 188.34C225.172 188.34 197.857 215.607 197.857 249.154C197.857 282.666 225.135 309.969 258.696 309.969H293.922C300.318 309.969 305.49 315.142 305.49 321.536C305.49 327.926 300.318 333.099 293.922 333.099H258.696C212.42 333.099 174.755 295.45 174.755 249.193C174.755 202.934 212.42 165.285 258.696 165.285C304.975 165.285 342.676 202.897 342.676 249.154V321.497C342.676 327.89 337.501 333.061 331.107 333.061Z" fill="white"/>
<path d="M511.223 398.086C504.829 398.086 499.654 392.915 499.654 386.522V249.152C499.654 202.895 537.319 165.246 583.596 165.246C629.873 165.246 667.538 202.895 667.538 249.152C667.538 295.412 629.873 333.059 583.596 333.059H548.37C541.976 333.059 536.801 327.888 536.801 321.495C536.801 315.104 541.976 309.931 548.37 309.931H583.596C617.122 309.931 644.398 282.664 644.398 249.116C644.398 215.605 617.122 188.301 583.596 188.301C550.07 188.301 522.794 215.568 522.794 249.116V386.486C522.755 392.915 517.58 398.086 511.223 398.086Z" fill="white"/>
<path d="M837.75 333.059C831.357 333.059 826.181 327.888 826.181 321.495V249.152C826.181 215.642 798.903 188.338 765.341 188.338C731.817 188.338 704.5 215.605 704.5 249.152V321.495C704.5 327.888 699.325 333.059 692.932 333.059C686.538 333.059 681.363 327.888 681.363 321.495V249.152C681.363 202.895 719.028 165.246 765.305 165.246C811.582 165.246 849.247 202.895 849.247 249.152V321.495C849.283 327.888 844.107 333.059 837.75 333.059Z" fill="white"/>
<path d="M421.147 333.062C416.821 333.062 412.866 330.661 410.871 326.818L336.095 182.096C333.177 176.443 335.395 169.46 341.05 166.541C346.705 163.622 353.69 165.839 356.611 171.492L421.147 296.336L485.683 171.492C488.604 165.839 495.59 163.585 501.245 166.541C506.899 169.46 509.154 176.443 506.197 182.096L431.385 326.818C429.426 330.661 425.471 333.062 421.147 333.062Z" fill="white"/>
</g>
<defs>
<clipPath id="clip0_1090_27891">
<rect width="1024" height="501" fill="white"/>
</clipPath>
</defs>
</svg>
