<svg width="1895" height="498" viewBox="0 0 1895 498" fill="none" xmlns="http://www.w3.org/2000/svg">
<path d="M510.224 415.083H540.776V407.849H518.271V401.417H539.979V394.182H518.271V388.563H540.776V381.328H510.224V415.099V415.083ZM582.51 391.776C582.51 386.01 577.839 381.328 572.083 381.318H551.547V415.083H559.589V402.214H565.625L575.276 415.083H584.927L575.021 401.818C579.37 400.552 582.521 396.542 582.521 391.776H582.51ZM571.26 394.984H559.589V388.547H571.26C573.026 388.547 574.453 389.99 574.453 391.766C574.453 393.542 573.026 394.969 571.26 394.984ZM499.813 429.563V422.318H469.266V456.083H499.813V448.849H477.292V442.417H499.005V435.182H477.292V429.563H499.813ZM420.271 391.188C420.271 385.755 415.87 381.344 410.443 381.344H387.302V415.12H410.828C416.474 415.12 421.057 410.516 421.057 404.865C421.057 401.984 419.875 399.385 417.958 397.516C419.396 395.807 420.26 393.594 420.26 391.188H420.271ZM395.359 388.573H409.422C410.979 388.573 412.24 389.833 412.24 391.391C412.24 392.948 410.979 394.208 409.422 394.208H395.359V388.573ZM409.833 407.875H395.359V401.443H409.833C411.609 401.443 413.042 402.885 413.042 404.661C413.042 406.438 411.609 407.875 409.833 407.875ZM442.432 381.318L425.547 415.083H434.182L436.911 409.458H455.802L458.521 415.083H467.151L450.271 381.318H442.432ZM440.411 402.214L446.344 389.953L452.276 402.214H440.411ZM480.51 403.297V415.083H488.552V403.297L505.682 381.302H496.005L484.542 396.682L473.073 381.302H463.396L480.526 403.297H480.51ZM502.208 474.589C502.208 468.839 497.563 464.167 491.823 464.125H469.266V497.896H477.307V485.036H486.547L496.198 497.896H505.849L495.708 484.292C499.531 482.734 502.208 478.979 502.208 474.604V474.589ZM490.984 477.792H477.307V471.37H490.984C492.75 471.385 494.177 472.828 494.177 474.589C494.177 476.354 492.75 477.781 490.984 477.792ZM492.401 300.073H469.266V333.854H492.786C498.438 333.854 503.031 329.25 503.031 323.599C503.031 320.719 501.849 318.115 499.932 316.25C501.37 314.542 502.234 312.328 502.234 309.922C502.234 304.49 497.833 300.073 492.401 300.073ZM477.307 307.307H491.375C492.927 307.307 494.193 308.568 494.193 310.125C494.193 311.682 492.927 312.943 491.375 312.943H477.307V307.307ZM491.786 326.609H477.292V320.177H491.786C493.563 320.177 494.99 321.62 494.99 323.391C494.99 325.167 493.563 326.609 491.786 326.609ZM472.365 374.073L475.094 368.448H493.984L496.698 374.073H505.333L488.453 340.302H480.625L463.745 374.073H472.38H472.365ZM484.542 348.953L490.474 361.214H478.604L484.542 348.953ZM334.594 54.1146H334.359L334.271 54.3333L259.719 247.547L179.484 54.1146H167.333L92.7083 247.547L12.474 54.1146H0L86.6979 263.115H99.0521L173.578 69.9531L253.62 262.896L253.714 263.104H266.068L266.156 262.885L346.536 54.5625L346.714 54.099H334.594V54.1146ZM1788.36 188.99V181.719H1757.82V215.49H1788.36V208.255H1765.84V201.849H1787.57V194.578H1765.84V188.979H1788.36V188.99ZM484.578 36.25C417.786 36.25 363.583 90.4531 363.583 157.245C363.583 224.031 417.786 278.234 484.578 278.234C551.365 278.234 605.573 224.031 605.573 157.245C605.573 90.4531 551.365 36.25 484.578 36.25ZM484.578 267.042C423.979 267.042 374.781 217.958 374.781 157.245C374.781 96.5313 423.964 47.5625 484.578 47.5625C545.188 47.5625 594.375 96.6458 594.375 157.245C594.375 217.844 545.188 267.042 484.578 267.042ZM1790.78 234.031C1790.78 228.24 1786.13 223.568 1780.38 223.531H1757.82V257.313H1765.85V244.432H1775.1L1784.76 257.313H1794.42L1784.25 243.698C1788.06 242.141 1790.79 238.396 1790.79 234.021L1790.78 234.031ZM1779.53 237.234H1765.84V230.776H1779.53C1781.29 230.792 1782.72 232.229 1782.72 234.047C1782.72 235.859 1781.29 237.208 1779.53 237.25V237.234ZM1708.8 150.589C1708.8 145.12 1704.4 140.734 1698.98 140.708H1675.82V174.516H1699.34C1704.99 174.516 1709.57 169.896 1709.57 164.229C1709.57 161.375 1708.4 158.76 1706.5 156.922C1707.91 155.224 1708.8 153.01 1708.8 150.589ZM1683.88 147.964H1697.9C1699.5 147.964 1700.73 149.266 1700.73 150.807C1700.73 152.354 1699.5 153.578 1697.9 153.578H1683.88V147.964ZM1698.35 167.271H1683.88V160.849H1698.35C1700.11 160.849 1701.57 162.276 1701.57 164.078C1701.57 165.88 1700.11 167.281 1698.35 167.281V167.271ZM1730.95 140.719L1714.06 174.5H1722.69L1725.42 168.875H1744.31L1747.05 174.5H1755.68L1738.77 140.719H1730.95ZM1728.94 161.62L1734.86 149.344L1740.79 161.62H1728.94ZM1799.04 174.5H1829.58V167.255H1807.07V160.807H1828.79V153.578H1807.07V147.927H1829.58V140.719H1799.04V174.5ZM1773.16 36.25C1706.32 36.25 1652.14 90.4271 1652.14 157.255C1652.14 224.083 1706.31 278.25 1773.16 278.25C1840.01 278.25 1894.14 224.073 1894.14 157.255C1894.14 90.4427 1839.96 36.25 1773.16 36.25ZM1773.16 267.026C1712.52 267.026 1663.36 217.88 1663.36 157.255C1663.36 96.6302 1712.52 47.4844 1773.16 47.4844C1833.8 47.4844 1882.93 96.6458 1882.93 157.255C1882.93 217.87 1833.77 267.026 1773.16 267.026ZM1864.3 161.219C1868.66 159.948 1871.81 155.943 1871.81 151.156C1871.81 145.406 1867.14 140.719 1861.36 140.719H1840.82V174.5H1848.86V161.62H1854.92L1864.57 174.5H1874.24L1864.3 161.234V161.219ZM1860.56 154.375H1848.88V147.927H1860.56C1862.34 147.938 1863.76 149.396 1863.76 151.156C1863.76 152.922 1862.34 154.375 1860.56 154.375ZM1769.03 174.5H1777.08V162.714L1794.24 140.719H1784.57L1773.08 156.083L1761.61 140.719H1751.93L1769.04 162.714V174.5H1769.03ZM1763.61 127.839H1782.52L1785.24 133.464H1793.89L1776.98 99.6927H1769.15L1752.23 133.464H1760.9L1763.6 127.839H1763.61ZM1773.08 108.354L1779.02 120.604H1767.14L1773.09 108.354H1773.08ZM784.526 251.38L672.516 54.1146H660.313V263.115H671.833V76.2708L777.922 263.115H791.099L897.344 76.25V263.115H908.865V54.1146H896.661L784.51 251.38H784.526ZM1415.11 247.906L1226.58 54.1146H1212.18V262.422H1223.7V67.6771L1413.82 263.104H1426.63V54.1146H1415.11V247.906ZM968.74 263.115H1162.49V251.599H980.271V160.63H1144.46V149.109H980.271V65.474H1162.49V53.9583H968.74V263.13V263.115ZM1791.57 82.9531C1791.57 80.0833 1790.39 77.4844 1788.45 75.6042C1789.91 73.9063 1790.79 71.7031 1790.79 69.2865C1790.79 63.8802 1786.39 59.4271 1780.94 59.4271H1757.82V93.1979H1781.33C1786.98 93.1823 1791.59 88.599 1791.59 82.9375L1791.57 82.9531ZM1765.84 66.6875H1779.92C1781.47 66.6875 1782.73 67.9323 1782.73 69.5052C1782.73 71.0729 1781.48 72.3229 1779.92 72.3229H1765.84V66.6875ZM1765.84 85.9896V79.5573H1780.34C1782.13 79.5573 1783.54 80.9844 1783.54 82.7708C1783.54 84.5625 1782.13 85.9896 1780.34 85.9896H1765.84ZM1533.72 314.5H1544.93V0H1533.72V314.5Z" fill="white"/>
</svg>
