<svg width="1024" height="269" viewBox="0 0 1024 269" fill="none" xmlns="http://www.w3.org/2000/svg">
<g clip-path="url(#clip0_1087_28208)">
<path d="M275.709 224.212H292.219V220.304H280.058V216.83H291.788V212.922H280.058V209.886H292.219V205.978H275.709V224.22V224.212ZM314.771 211.622C314.771 208.507 312.247 205.978 309.136 205.973H298.039V224.212H302.385V217.26H305.646L310.862 224.212H316.077L310.724 217.046C313.074 216.362 314.777 214.196 314.777 211.622H314.771ZM308.691 213.355H302.385V209.878H308.691C309.646 209.878 310.417 210.657 310.417 211.617C310.417 212.576 309.646 213.347 308.691 213.355ZM270.084 232.033V228.12H253.577V246.358H270.084V242.451H257.914V238.976H269.647V235.068H257.914V232.033H270.084ZM227.102 211.304C227.102 208.37 224.723 205.987 221.791 205.987H209.286V224.231H221.999C225.05 224.231 227.526 221.745 227.526 218.692C227.526 217.136 226.888 215.732 225.852 214.722C226.629 213.799 227.096 212.604 227.096 211.304H227.102ZM213.64 209.892H221.239C222.08 209.892 222.762 210.572 222.762 211.414C222.762 212.255 222.08 212.936 221.239 212.936H213.64V209.892ZM221.461 220.318H213.64V216.844H221.461C222.421 216.844 223.195 217.623 223.195 218.582C223.195 219.542 222.421 220.318 221.461 220.318ZM239.077 205.973L229.953 224.212H234.619L236.093 221.173H246.301L247.771 224.212H252.434L243.313 205.973H239.077ZM237.985 217.26L241.191 210.637L244.396 217.26H237.985ZM259.653 217.845V224.212H263.999V217.845L273.255 205.964H268.026L261.832 214.272L255.634 205.964H250.405L259.662 217.845H259.653ZM271.378 256.354C271.378 253.248 268.868 250.725 265.766 250.702H253.577V268.944H257.922V261.997H262.915L268.13 268.944H273.345L267.865 261.595C269.931 260.754 271.378 258.726 271.378 256.362V256.354ZM265.313 258.084H257.922V254.616H265.313C266.267 254.624 267.038 255.403 267.038 256.354C267.038 257.308 266.267 258.078 265.313 258.084ZM266.078 162.088H253.577V180.335H266.286C269.341 180.335 271.823 177.848 271.823 174.795C271.823 173.24 271.184 171.833 270.148 170.826C270.925 169.903 271.392 168.707 271.392 167.408C271.392 164.474 269.014 162.088 266.078 162.088ZM257.922 165.995H265.524C266.363 165.995 267.047 166.676 267.047 167.517C267.047 168.358 266.363 169.039 265.524 169.039H257.922V165.995ZM265.746 176.421H257.914V172.947H265.746C266.706 172.947 267.477 173.726 267.477 174.683C267.477 175.642 266.706 176.421 265.746 176.421ZM255.252 202.06L256.726 199.021H266.934L268.4 202.06H273.066L263.945 183.818H259.715L250.594 202.06H255.26H255.252ZM261.832 188.491L265.037 195.114H258.623L261.832 188.491ZM180.804 29.2306H180.677L180.63 29.3487L140.344 133.715L96.9877 29.2306H90.4216L50.0967 133.715L6.74057 29.2306H0L46.8489 142.124H53.5247L93.7962 37.7859L137.048 142.006L137.099 142.118H143.775L143.823 142L187.257 29.4725L187.354 29.2222H180.804V29.2306ZM966.375 102.085V98.1575H949.872V116.399H966.375V112.491H954.206V109.031H965.948V105.103H954.206V102.079H966.375V102.085ZM261.851 19.5808C225.759 19.5808 196.469 48.8592 196.469 84.9376C196.469 121.013 225.759 150.291 261.851 150.291C297.941 150.291 327.233 121.013 327.233 84.9376C327.233 48.8592 297.941 19.5808 261.851 19.5808ZM261.851 144.246C229.105 144.246 202.52 117.732 202.52 84.9376C202.52 52.1424 229.097 25.6914 261.851 25.6914C294.603 25.6914 321.182 52.2043 321.182 84.9376C321.182 117.671 294.603 144.246 261.851 144.246ZM967.683 126.414C967.683 123.286 965.17 120.763 962.063 120.743H949.872V138.99H954.211V132.033H959.21L964.43 138.99H969.65L964.154 131.636C966.213 130.795 967.688 128.772 967.688 126.409L967.683 126.414ZM961.604 128.144H954.206V124.656H961.604C962.555 124.665 963.327 125.441 963.327 126.423C963.327 127.402 962.555 128.13 961.604 128.153V128.144ZM923.383 81.3423C923.383 78.3881 921.006 76.019 918.077 76.0049H905.562V94.2667H918.271C921.324 94.2667 923.799 91.7711 923.799 88.71C923.799 87.1684 923.167 85.7559 922.14 84.7631C922.902 83.8459 923.383 82.65 923.383 81.3423ZM909.917 79.9243H917.493C918.358 79.9243 919.022 80.6276 919.022 81.46C919.022 82.2956 918.358 82.9568 917.493 82.9568H909.917V79.9243ZM917.736 90.3532H909.917V86.8843H917.736C918.687 86.8843 919.476 87.6551 919.476 88.6285C919.476 89.6019 918.687 90.3586 917.736 90.3586V90.3532ZM935.352 76.0109L926.226 94.258H930.889L932.364 91.2196H942.572L944.052 94.258H948.716L939.578 76.0109H935.352ZM934.266 87.3008L937.465 80.6697L940.67 87.3008H934.266ZM972.146 94.258H988.649V90.3446H976.485V86.8616H988.222V82.9568H976.485V79.9043H988.649V76.0109H972.146V94.258ZM958.161 19.5808C922.043 19.5808 892.766 48.8452 892.766 84.943C892.766 121.041 922.038 150.3 958.161 150.3C994.285 150.3 1023.54 121.035 1023.54 84.943C1023.54 48.8536 994.258 19.5808 958.161 19.5808ZM958.161 144.237C925.393 144.237 898.829 117.69 898.829 84.943C898.829 52.1958 925.393 25.6492 958.161 25.6492C990.929 25.6492 1017.48 52.2043 1017.48 84.943C1017.48 117.685 990.913 144.237 958.161 144.237ZM1007.41 87.0842C1009.77 86.3976 1011.47 84.2343 1011.47 81.6485C1011.47 78.5426 1008.95 76.0109 1005.82 76.0109H994.723V94.258H999.067V87.3008H1002.34L1007.56 94.258H1012.78L1007.41 87.0923V87.0842ZM1005.39 83.3873H999.078V79.9043H1005.39C1006.35 79.9103 1007.12 80.6978 1007.12 81.6485C1007.12 82.6025 1006.35 83.3873 1005.39 83.3873ZM955.93 94.258H960.28V87.8917L969.552 76.0109H964.327L958.118 84.3099L951.92 76.0109H946.689L955.935 87.8917V94.258H955.93ZM953.001 69.0536H963.219L964.689 72.092H969.363L960.226 53.8501H955.995L946.851 72.092H951.536L952.995 69.0536H953.001ZM958.118 58.5286L961.328 65.1455H954.908L958.124 58.5286H958.118ZM423.934 135.786L363.407 29.2306H356.813V142.124H363.038V41.1985L420.365 142.124H427.486L484.897 41.1873V142.124H491.123V29.2306H484.528L423.925 135.786H423.934ZM764.682 133.909L662.806 29.2306H655.025V141.75H661.25V36.5565L763.985 142.118H770.907V29.2306H764.682V133.909ZM523.477 142.124H628.174V135.904H529.708V86.766H618.431V80.5428H529.708V35.3665H628.174V29.1462H523.477V142.132V142.124ZM968.11 44.808C968.11 43.2578 967.472 41.854 966.424 40.8384C967.213 39.9213 967.688 38.7312 967.688 37.4258C967.688 34.5056 965.31 32.1002 962.365 32.1002H949.872V50.3418H962.576C965.629 50.3334 968.12 47.8577 968.12 44.7996L968.11 44.808ZM954.206 36.022H961.814C962.652 36.022 963.333 36.6944 963.333 37.544C963.333 38.3908 962.657 39.066 961.814 39.066H954.206V36.022ZM954.206 46.4482V42.9737H962.041C963.008 42.9737 963.77 43.7446 963.77 44.7095C963.77 45.6773 963.008 46.4482 962.041 46.4482H954.206ZM828.775 169.881H834.833V0H828.775V169.881Z" fill="white"/>
</g>
<defs>
<clipPath id="clip0_1087_28208">
<rect width="1024" height="269" fill="white"/>
</clipPath>
</defs>
</svg>
