<svg width="1024" height="1024" viewBox="0 0 1024 1024" fill="none" xmlns="http://www.w3.org/2000/svg">
<g clip-path="url(#clip0_1087_28222)">
<path d="M483.707 152.254H542.991C549.728 152.254 555.117 146.865 555.117 140.128C555.117 133.391 549.728 128.001 542.991 128.001H483.707V152.254ZM483.707 208.844H544.338C552.422 208.844 557.812 203.454 557.812 195.37C557.812 187.286 552.422 181.896 544.338 181.896H483.707V208.844ZM579.37 165.728C587.454 173.812 592.843 184.591 592.843 196.717C592.843 220.97 573.98 239.833 549.728 239.833H451.37V98.3594H548.38C571.285 98.3594 590.149 117.223 590.149 140.128C588.801 149.559 584.759 158.991 579.37 165.728ZM602.275 408.254H565.896L555.117 384.001H475.622L464.843 408.254H428.464L498.528 266.78H530.864L602.275 408.254ZM514.696 303.159L490.443 354.359H538.949L514.696 303.159ZM563.201 439.244H603.622L532.212 530.865V580.717H498.528V530.865L427.117 439.244H467.538L516.043 503.917L563.201 439.244ZM750.485 439.244V470.233H656.17V494.486H747.791V525.475H656.17V552.423H750.485V583.412H622.485V439.244H750.485ZM854.233 526.823H828.633V580.717H794.949V439.244H881.18C905.433 439.244 924.296 459.454 924.296 483.707C924.296 503.917 910.822 520.086 893.307 525.475L935.075 580.717H894.654L854.233 526.823ZM878.485 468.886H829.98V495.833H878.485C886.57 495.833 891.959 489.096 891.959 482.359C891.959 475.623 885.222 468.886 878.485 468.886ZM441.938 580.717H405.559L394.78 556.465H315.285L304.507 580.717H268.128L339.538 439.244H371.875L441.938 580.717ZM354.359 475.623L330.107 526.823H379.959L354.359 475.623ZM140.128 493.138H199.412C206.149 493.138 211.538 487.749 211.538 481.012C211.538 474.275 206.149 468.886 199.412 468.886H140.128V493.138ZM140.128 549.728H200.759C208.843 549.728 214.233 544.338 214.233 536.254C214.233 528.17 208.843 522.78 200.759 522.78H140.128V549.728ZM235.791 506.612C243.875 514.696 249.264 525.475 249.264 537.602C249.264 561.854 230.401 580.717 206.149 580.717H106.443V439.244H203.454C226.359 439.244 245.222 458.107 245.222 481.012C245.222 490.444 241.18 499.875 235.791 506.612ZM579.37 610.359V641.349H485.054V665.602H576.675V696.591H485.054V723.538H579.37V754.528H451.37V610.359H579.37ZM555.117 829.98C555.117 821.896 549.728 816.507 541.643 816.507H483.707V843.454H541.643C549.728 843.454 555.117 838.065 555.117 829.98ZM450.022 928.338V786.865H544.338C568.591 786.865 587.454 807.075 587.454 831.328C587.454 850.191 576.675 865.012 560.506 871.749L603.622 928.338H563.201L522.78 874.444H483.707V928.338H450.022Z" fill="#10384F"/>
<path d="M1025.35 479.663C1009.18 212.884 786.864 0 514.696 0C242.527 0 20.2114 212.884 4.04297 479.663C4.04297 490.442 5.39034 501.221 6.73771 512C17.5167 600.926 51.2009 683.116 102.401 751.832C195.369 878.484 344.927 960.674 514.696 960.674C277.559 960.674 83.5377 776.084 67.3693 544.337C66.0219 533.558 66.0219 522.779 66.0219 512C66.0219 501.221 66.0219 490.442 67.3693 479.663C83.5377 247.916 277.559 63.3263 514.696 63.3263C684.464 63.3263 834.022 145.516 926.99 272.168C978.19 340.884 1011.87 423.074 1022.65 512C1024 522.779 1025.35 533.558 1025.35 542.989C1025.35 532.211 1026.7 521.432 1026.7 510.653C1026.7 501.221 1026.7 490.442 1025.35 479.663Z" fill="#89D329"/>
<path d="M4.04268 544.339C20.2111 811.118 242.527 1024 514.695 1024C786.864 1024 1009.18 811.118 1025.35 544.339C1025.35 533.56 1024 522.781 1022.65 512.002C1011.87 423.075 978.19 340.886 926.99 272.17C834.022 145.518 684.464 63.3281 514.695 63.3281C751.832 63.3281 945.853 247.918 962.022 479.665C963.369 490.444 963.369 501.223 963.369 512.002C963.369 522.781 963.369 533.56 962.022 544.339C945.853 777.433 751.832 960.676 514.695 960.676C344.927 960.676 195.369 878.486 102.401 751.833C51.2006 683.118 17.5164 600.928 6.73742 512.002C5.39005 501.223 4.04268 490.444 4.04268 481.012C4.04268 491.791 2.69531 502.57 2.69531 513.349C2.69531 522.781 2.69531 533.56 4.04268 544.339Z" fill="#00BCFF"/>
</g>
<defs>
<clipPath id="clip0_1087_28222">
<rect width="1024" height="1024" fill="white"/>
</clipPath>
</defs>
</svg>
