<svg width="1024" height="394" viewBox="0 0 1024 394" fill="none" xmlns="http://www.w3.org/2000/svg">
<path d="M388.172 194.004C388.172 232.375 376.8 269.884 355.489 301.788C334.181 333.691 303.892 358.557 268.457 373.242C233.021 387.926 194.028 391.767 156.41 384.282C118.791 376.796 84.2365 358.319 57.1151 331.187C29.9936 304.055 11.5236 269.487 4.04083 231.853C-3.44196 194.22 0.398483 155.212 15.0765 119.762C29.7545 84.3127 54.6109 54.0133 86.5023 32.6957C118.394 11.3782 155.888 0 194.244 0C219.71 0 244.929 5.01808 268.457 14.7677C291.986 24.5174 313.364 38.8077 331.372 56.8227C349.38 74.8376 363.666 96.2246 373.411 119.762C383.156 143.3 388.172 168.528 388.172 194.004Z" fill="white"/>
<path d="M630.953 339.01H523.915C520.827 339.012 517.773 338.393 514.929 337.187C512.085 335.983 509.514 334.219 507.367 331.999C505.22 329.78 503.542 327.151 502.431 324.27C501.321 321.387 500.801 318.311 500.903 315.225V73.3638C500.864 70.3345 501.434 67.3281 502.578 64.5228C503.722 61.7175 505.417 59.1705 507.562 57.0329C509.708 54.895 512.262 53.2098 515.071 52.0771C517.88 50.9443 520.887 50.3872 523.915 50.4386H623.983C678.982 50.4386 711.924 82.4385 711.924 123.99C711.924 165.543 686.239 181.303 677.263 184.264C691.109 187.799 728.825 203.369 728.825 256.384C728.825 301.47 692.445 339.01 630.953 339.01ZM621.978 92.8503H547.309V165.638H621.978C651.578 165.638 665.518 149.208 665.518 129.244C665.518 109.28 652.438 92.8503 621.978 92.8503ZM632.577 207.476H547.309V296.121H632.577C666.76 296.121 682.419 273.959 682.419 251.894C682.419 229.828 666.95 207.668 632.577 207.668V207.476ZM861.739 338.82H791.176C788.071 338.886 784.983 338.318 782.102 337.154C779.222 335.989 776.607 334.251 774.418 332.043C772.23 329.836 770.515 327.208 769.374 324.316C768.232 321.425 767.691 318.332 767.783 315.225V73.3638C767.781 70.3126 768.389 67.292 769.571 64.479C770.752 61.666 772.484 59.1171 774.663 56.982C776.841 54.8468 779.425 53.1682 782.261 52.0447C785.096 50.921 788.127 50.375 791.176 50.4386H862.216C958.466 50.4386 1012.13 114.629 1012.13 194.677C1012.13 274.724 957.892 339.01 862.216 339.01L861.739 338.82ZM859.352 92.8503H814.57V296.121H859.352C927.528 296.121 965.531 255.81 965.531 194.294C965.531 132.778 928.006 92.8503 859.352 92.8503Z" fill="#044ED7"/>
<path d="M111.144 184.367L1.90978 221.717C0.646459 212.729 0.00836143 203.664 8.3585e-05 194.588C-0.0253818 167.222 5.76824 140.164 16.9964 115.209L111.526 182.074C112.099 182.552 112.385 182.935 112.385 183.316C112.385 183.699 111.812 184.367 111.144 184.558V184.367ZM192.688 1.15625C156.026 1.1982 120.143 11.7388 89.2781 31.5322L168.626 115.591C169.198 116.164 169.581 116.451 170.058 116.451C170.535 116.451 171.013 116.451 171.203 115.209C171.873 109.86 192.688 1.15625 192.688 1.15625ZM131.769 140.618C131.836 140.303 131.836 139.978 131.769 139.663L88.0367 32.2964C57.3459 52.2755 32.9192 80.5195 17.5692 113.777L129.763 141.573H130.718C130.852 141.587 130.986 141.572 131.113 141.53C131.24 141.488 131.357 141.42 131.456 141.33C131.555 141.24 131.634 141.13 131.688 141.007C131.742 140.885 131.769 140.752 131.769 140.618ZM275.568 184.367L384.898 221.717C386.13 212.726 386.736 203.662 386.713 194.588C386.768 167.23 381.007 140.171 369.812 115.209L275.187 182.074C274.613 182.552 274.326 182.935 274.326 183.316C274.326 183.699 274.996 184.176 275.568 184.367ZM215.508 115.209C215.508 116.164 216.272 116.451 216.749 116.451C217.227 116.451 217.609 116.451 218.087 115.591L297.53 31.5322C266.654 11.7632 230.778 1.22479 194.12 1.15625C194.12 1.15625 214.553 109.86 215.508 115.209ZM255.994 141.669H256.948L369.143 113.872C353.794 80.615 329.367 52.371 298.676 32.3919C298.676 32.3919 255.422 139.281 255.135 139.758C255.116 140.077 255.116 140.395 255.135 140.714C255.134 140.951 255.22 141.181 255.379 141.357C255.538 141.534 255.757 141.645 255.994 141.669Z" fill="#FF6E00"/>
<path d="M193.368 388.007C239.574 387.921 284.225 371.3 319.249 341.15C354.274 310.999 377.36 269.309 384.336 223.613L312.245 233.739C311.81 233.734 311.388 233.886 311.054 234.166C310.721 234.447 310.499 234.838 310.431 235.268C303.227 256.049 290.635 274.545 273.942 288.861C257.25 303.178 237.055 312.801 215.425 316.747C225.816 311.691 234.188 303.26 239.17 292.83C244.153 282.4 245.455 270.588 242.862 259.322C240.269 248.057 233.934 238.004 224.893 230.805C215.85 223.607 204.636 219.688 193.081 219.688C181.526 219.688 170.31 223.607 161.269 230.805C152.227 238.004 145.893 248.057 143.299 259.322C140.706 270.588 142.007 282.4 146.991 292.83C151.974 303.26 160.346 311.691 170.737 316.747C149.228 312.694 129.172 303.02 112.605 288.712C96.037 274.402 83.5461 255.964 76.3986 235.268C76.3126 234.845 76.0866 234.466 75.7574 234.187C75.428 233.909 75.0146 233.752 74.5844 233.739L2.20703 223.613C9.16388 269.317 32.2451 311.02 67.2738 341.173C102.302 371.327 146.964 387.941 193.176 388.007" fill="#FF6E00"/>
</svg>
