<svg width="1024" height="243" viewBox="0 0 1024 243" fill="none" xmlns="http://www.w3.org/2000/svg">
<g clip-path="url(#clip0_1087_28215)">
<path d="M980.319 1.42969H1017.56V75.7591H980.319V1.42969ZM915.871 38.5944L913.723 39.3091C913.723 39.3091 926.612 50.0297 926.612 50.7444C927.328 51.4591 928.045 51.4591 927.329 53.6032C926.612 55.7473 925.896 57.8915 925.896 57.8915C925.896 57.8915 937.354 55.7473 938.786 55.0326C940.218 55.0326 940.934 55.0326 940.934 56.462C940.934 57.8914 940.218 70.0415 940.218 70.0415H943.798C943.798 70.0415 943.082 57.1767 943.082 56.462C943.082 55.0326 943.798 55.0326 945.231 55.0326C946.663 55.0326 958.12 57.8915 958.12 57.8915C958.12 57.8915 957.404 55.0326 956.688 53.6032C955.972 51.4591 956.688 51.4591 957.404 50.7444C958.12 50.0297 970.294 39.3091 970.294 39.3091L968.145 38.5944C966.713 37.8797 967.429 37.165 967.429 36.4503C967.429 35.7356 969.577 28.5885 969.577 28.5885C969.577 28.5885 963.849 30.0179 963.133 30.0179C962.417 30.0179 961.701 30.0179 961.701 29.3032C961.701 28.5885 960.268 25.7297 960.268 25.7297C960.268 25.7297 953.824 32.8767 953.108 33.5915C951.675 35.0209 950.243 33.5915 950.959 32.162C950.959 30.7326 954.54 15.7238 954.54 15.7238C954.54 15.7238 950.959 17.8679 949.527 18.5826C948.095 19.2973 947.379 19.2973 947.379 17.8679C946.663 16.4385 942.366 8.57674 942.366 7.86204C942.366 7.86204 938.07 16.4385 937.354 17.8679C936.638 19.2973 935.922 19.2973 935.206 18.5826C933.773 17.8679 930.193 15.7238 930.193 15.7238C930.193 15.7238 933.773 30.7326 933.773 32.162C933.773 33.5915 933.057 34.3062 931.625 33.5915L924.464 25.7297C924.464 25.7297 923.748 27.8738 923.032 28.5885C923.032 29.3032 922.316 30.0179 921.6 29.3032C920.168 29.3032 914.439 27.8738 914.439 27.8738C914.439 27.8738 916.587 35.0209 917.303 35.7356C917.303 36.4503 917.303 37.8797 915.871 38.5944ZM867.894 1.42969H905.13V75.7591H867.894V1.42969Z" fill="#FF0000"/>
<path d="M1025.43 224.417C1022.57 230.849 1016.84 232.993 1013.26 232.993C1008.96 232.993 996.072 232.279 996.072 198.687C996.072 198.687 996.072 130.79 996.072 126.502C996.072 104.346 978.886 86.4785 934.489 86.4785C886.511 86.4785 885.795 110.064 885.795 115.781C885.079 122.214 888.66 129.361 900.833 129.361C911.574 129.361 914.439 117.211 915.871 112.923C917.303 107.92 918.019 93.6256 937.353 93.6256C953.823 93.6256 963.848 107.92 964.564 128.646C964.564 132.22 964.564 134.364 964.564 136.508C964.564 137.937 964.564 138.652 964.564 140.081V140.796C963.132 147.943 959.552 151.517 953.107 154.376C944.514 158.664 919.451 162.237 916.587 162.952C906.562 165.096 878.634 172.243 879.351 201.546C880.067 230.134 908.71 240.14 928.76 239.426C948.094 238.711 959.552 230.849 964.564 226.561C967.429 224.417 967.429 224.417 969.577 227.276C972.441 230.134 981.75 239.426 1003.95 239.426C1026.86 239.426 1029.73 228.705 1031.16 225.131C1031.88 222.987 1026.86 220.843 1025.43 224.417ZM935.921 232.279C915.871 232.279 910.858 215.84 910.858 207.264C910.858 199.402 915.155 182.964 935.205 171.529C935.205 171.529 944.514 165.811 962.416 158.664C963.132 158.664 963.848 158.664 963.848 158.664C963.848 158.664 964.564 159.379 964.564 160.093V160.808V161.523V191.54C964.564 215.126 953.107 232.279 935.921 232.279ZM870.041 231.564C867.177 230.849 849.275 232.993 849.275 178.676C849.275 124.358 849.275 7.86088 849.275 7.86088C849.275 5.71676 849.275 -0.000884053 842.83 -0.000884053C836.385 -0.000884053 793.42 2.14323 790.556 2.85794C787.692 2.85794 785.544 6.43147 790.556 6.43147C795.569 7.14617 818.483 8.57559 818.483 46.455C818.483 65.0373 818.483 83.6197 818.483 97.1991C818.483 97.9138 818.483 98.6285 818.483 98.6285C818.483 100.058 818.483 100.773 817.767 101.487C817.767 101.487 817.767 101.487 817.767 102.202C817.051 102.917 816.335 102.202 814.187 100.773C810.606 97.9138 794.137 87.9079 773.37 87.9079C739.714 87.9079 698.181 112.208 698.181 162.237C698.181 215.84 736.134 241.57 775.518 241.57C794.853 241.57 808.458 232.993 813.471 230.134C819.199 226.561 818.483 227.276 819.199 232.279C819.916 235.852 819.199 242.999 829.225 242.284C839.966 240.855 865.745 237.996 870.757 237.281C875.77 235.137 874.338 232.279 870.041 231.564ZM781.247 233.708C749.739 233.708 733.269 196.543 733.269 160.808C733.269 121.499 755.468 95.055 779.099 96.4844C809.89 98.6285 817.767 122.929 818.483 166.526C818.483 169.384 818.483 172.243 818.483 175.817C817.767 218.699 799.865 233.708 781.247 233.708ZM697.465 224.417C694.601 230.849 688.872 232.993 685.292 232.993C680.995 232.993 668.106 232.279 668.106 198.687C668.106 198.687 668.106 130.79 668.106 126.502C668.106 104.346 650.92 86.4785 606.523 86.4785C558.545 86.4785 557.829 110.064 557.829 115.781C557.113 122.214 560.693 129.361 572.867 129.361C583.608 129.361 586.472 117.211 587.904 112.923C589.336 107.92 590.053 93.6256 609.387 93.6256C625.857 93.6256 636.598 107.92 636.598 129.361V130.076C636.598 130.79 636.598 131.505 636.598 131.505V133.649C636.598 134.364 636.598 135.793 636.598 136.508C635.882 147.229 633.018 150.802 624.425 155.09C615.832 159.379 590.769 162.952 587.904 163.667C577.879 165.811 549.952 172.958 550.668 202.261C551.384 230.849 580.027 240.855 600.078 240.14C619.412 239.426 630.869 231.564 635.882 227.276C638.746 225.131 638.746 225.131 640.895 227.99C643.759 230.849 653.068 240.14 675.267 240.14C698.181 240.14 701.046 229.42 702.478 225.846C703.91 222.987 699.613 220.843 697.465 224.417ZM608.671 232.279C588.62 232.279 583.608 215.84 583.608 207.264C583.608 199.402 587.904 182.964 607.955 171.529C607.955 171.529 617.264 165.811 635.166 158.664C635.882 158.664 636.598 158.664 636.598 158.664V159.379C636.598 160.093 636.598 160.808 636.598 162.237V161.523C636.598 161.523 636.598 161.523 636.598 162.237V192.255C636.598 215.126 625.141 232.279 608.671 232.279ZM539.927 231.564C534.198 230.134 524.173 223.702 524.173 192.255V135.079C524.173 121.499 525.605 86.4785 471.899 86.4785C443.971 86.4785 428.218 100.773 426.785 101.487C424.637 103.631 423.205 104.346 422.489 100.773C421.773 97.9138 420.341 93.6256 419.625 90.7668C418.908 88.6226 417.476 86.4785 412.464 87.1932C407.451 87.9079 375.943 92.9109 370.215 94.3403C365.202 95.7697 366.634 97.9138 370.215 98.6285C373.795 99.3432 390.981 100.773 390.981 130.076C390.981 159.379 390.981 191.54 390.981 191.54C390.981 227.276 383.82 230.134 377.376 232.279C368.783 234.423 373.079 237.281 376.66 237.281C376.66 237.281 440.391 237.281 441.823 237.281C446.12 237.281 448.268 232.993 439.675 231.564C431.082 230.134 423.205 225.131 423.205 197.258C423.205 194.399 423.205 163.667 423.205 157.949C423.205 142.94 419.625 97.1991 461.157 96.4844C490.517 95.7697 493.381 120.07 493.381 135.793V196.543C493.381 221.558 486.22 229.42 477.627 230.849C469.75 232.279 471.183 235.852 475.479 235.852C476.911 235.852 542.075 235.852 542.075 235.852C545.655 237.281 549.236 233.708 539.927 231.564ZM365.918 224.417C363.054 230.849 357.325 232.993 353.745 232.993C349.448 232.993 336.559 232.279 336.559 198.687C336.559 198.687 336.559 130.79 336.559 126.502C336.559 104.346 319.373 86.4785 274.976 86.4785C226.998 86.4785 226.282 110.064 226.282 115.781C225.566 122.214 229.146 129.361 241.32 129.361C252.061 129.361 254.925 117.211 256.357 112.923C257.79 107.92 258.506 93.6256 277.84 93.6256C294.31 93.6256 304.335 107.92 305.051 128.646C305.051 132.22 305.051 134.364 305.051 136.508C305.051 137.937 305.051 139.367 304.335 140.081V140.796C302.903 147.943 299.322 151.517 292.878 154.376C284.285 158.664 259.222 162.237 256.357 162.952C246.332 165.096 218.405 172.243 219.121 201.546C219.837 230.134 248.481 240.14 268.531 239.426C287.865 238.711 299.322 230.849 304.335 226.561C307.199 224.417 307.199 224.417 309.348 227.276C312.212 230.134 321.521 239.426 343.72 239.426C366.634 239.426 369.499 228.705 370.931 225.131C372.363 222.987 367.35 220.843 365.918 224.417ZM276.408 232.279C256.357 232.279 251.345 215.84 251.345 207.264C251.345 198.687 255.641 182.964 275.692 171.529C275.692 171.529 285.001 165.811 302.903 158.664C303.619 158.664 304.335 158.664 304.335 158.664C304.335 158.664 305.051 159.379 305.051 160.093C305.051 160.093 305.051 160.808 305.051 161.523V162.237V192.255C305.051 215.126 293.594 232.279 276.408 232.279ZM207.664 170.099C200.503 192.97 186.897 230.134 137.488 231.564C85.9295 232.279 55.1379 197.258 53.7057 132.22C51.5574 62.8932 81.633 10.005 128.178 8.57559C180.453 7.86088 199.071 70.0403 199.787 79.3315C200.503 86.4785 209.812 85.7638 209.812 78.6168C209.812 75.0432 205.515 13.5785 204.083 6.43147C202.651 -0.71559 196.922 2.14323 195.49 5.00206C194.774 7.14617 196.206 2.85794 193.342 9.29029C190.478 15.7226 182.601 12.1491 179.736 11.4344C171.143 7.86088 154.674 -0.71559 128.178 -0.000884053C67.3113 1.42853 5.01198 46.455 6.44415 125.073C7.87632 201.546 69.4595 244.429 126.746 243.714C179.02 242.999 208.38 210.123 216.973 172.243C219.837 162.952 210.528 160.808 207.664 170.099Z" fill="black"/>
</g>
<defs>
<clipPath id="clip0_1087_28215">
<rect width="1024" height="243" fill="white"/>
</clipPath>
</defs>
</svg>
