<svg xmlns="http://www.w3.org/2000/svg" xml:space="preserve" fill-rule="evenodd" stroke-linejoin="round" stroke-miterlimit="2" clip-rule="evenodd" viewBox="165 170 1360 450">
  <path fill="#fff" fill-rule="nonzero" d="M424.208 320.657v108.908H315.296l108.912-108.908Z"/>
  <path fill="#fff" d="M297.775 194.207H188.867v108.908h108.908z"/>
  <path fill="#fff" fill-rule="nonzero" d="M315.297 194.207h108.912v108.908L315.297 194.207Z"/>
  <path fill="#ff5200" fill-rule="nonzero" d="M293.599 395.953c11.516-27.783-1.682-59.637-29.472-71.148-27.77-11.511-59.633 1.684-71.143 29.473-11.517 27.783 1.682 59.637 29.467 71.146 27.792 11.507 59.656-1.683 71.148-29.471"/>
  <path fill="#fff" fill-rule="nonzero" d="M585.116 353.257c0 24.067 15.671 37.58 34.067 37.58 18.392 0 27.58-12.16 30.554-22.45l31.634 10.537c-5.946 22.179-26.771 44.875-62.188 44.875-39.2 0-70.025-29.742-70.025-70.563 0-40.82 30.283-70.562 68.942-70.562 36.229 0 56.783 22.445 62.458 44.875l-32.175 10.804c-3.242-11.075-11.617-22.446-29.47-22.446-17.855 0-33.797 13.262-33.797 37.308v.042Z"/>
  <path fill="#fff" d="M697.041 224.02H733v195.745H697.04z"/>
  <path fill="#fff" fill-rule="nonzero" d="M760.558 286.745h35.958v133.02h-35.958v-133.02Zm17.854-65.967c12.43 0 22.18 9.996 22.18 22.446 0 12.45-9.73 21.904-22.18 21.904s-22.179-9.996-22.179-21.904c0-11.909 10-22.446 22.18-22.446M860.075 419.765h-35.959v-133.02h34.88v16.504c8.104-13.78 24.066-20.017 38.387-20.017 32.983 0 48.117 23.53 48.117 52.73v83.803H909.54v-77.587c0-14.863-7.296-26.5-24.608-26.5-15.67 0-24.88 12.158-24.88 27.579v76.508h.022ZM997.145 353.257c0 24.067 15.671 37.58 34.067 37.58 18.392 0 27.58-12.16 30.55-22.45l31.638 10.537c-5.946 22.179-26.771 44.875-62.188 44.875-39.2 0-70.025-29.742-70.025-70.563 0-40.82 30.283-70.562 68.942-70.562 36.229 0 56.783 22.445 62.458 44.875l-32.175 10.804c-3.242-11.075-11.617-22.446-29.47-22.446-17.855 0-33.797 13.262-33.797 37.308v.042ZM1182.875 365.974v-5.946l-30.013 4.596c-9.187 1.35-16.483 6.483-16.483 16.75 0 7.837 5.675 15.404 17.312 15.404 15.134 0 29.204-7.296 29.204-30.825l-.02.02Zm-42.713-22.717 32.717-4.863c7.562-1.083 9.996-4.866 9.996-9.458 0-9.458-7.296-17.292-22.446-17.292-15.154 0-24.338 9.996-25.421 21.638l-31.904-6.758c2.162-20.825 21.366-43.792 57.054-43.792 42.17 0 57.862 23.8 57.862 50.567v65.429c0 7.029.813 16.504 1.621 21.1h-32.983c-.813-3.517-1.35-10.809-1.35-15.942-6.758 10.538-19.475 19.742-39.2 19.742-28.392 0-45.683-19.204-45.683-40.009 0-23.8 17.583-37.037 39.737-40.279v-.083ZM1262.916 375.974c.808 10.537 8.646 20.287 24.338 20.287 11.887 0 17.583-6.217 17.583-13.262 0-5.946-4.054-10.809-14.32-12.971l-17.584-4.05c-25.688-5.675-37.304-21.096-37.304-39.742 0-23.796 21.095-43.52 49.754-43.52 37.85 0 50.57 24.066 52.191 38.387l-30.012 6.754c-1.083-7.833-6.754-17.854-21.908-17.854-9.459 0-17.021 5.675-17.021 13.241 0 6.484 4.862 10.538 12.158 11.888l18.933 4.054c26.23 5.404 39.471 21.367 39.471 40.821 0 21.633-16.775 43.792-51.65 43.792-40.008 0-53.812-25.959-55.433-41.092l30.825-6.754-.02.02ZM1442.429 338.124c-.542-13.259-9.188-26.23-29.742-26.23-18.667 0-28.933 14.071-29.742 26.23h59.484Zm33.525 43.52c-6.755 22.988-27.85 42.175-60.567 42.175-36.496 0-68.67-26.233-68.67-71.104 0-42.441 31.362-70.025 65.428-70.025 41.092 0 65.7 26.234 65.7 68.942 0 5.133-.541 10.537-.541 11.08h-95.171c.812 17.582 15.67 30.282 33.525 30.282 16.775 0 25.958-8.375 30.283-20.287l30.013 8.917v.02Z"/>
  <text x="243.291" y="5627.13" fill="#fff" font-family="&quot;CircularXX-Medium&quot;,&quot;CircularXX&quot;,sans-serif" font-size="77.083" font-weight="500" transform="matrix(1 0 0 1 -59.47 -5036.02)">m<tspan x="308.041px 350.976px 390.366px 430.989px 447.33px 472.999px 511.695px 545.226px 571.049px 589.164px 605.505px 649.52px 690.143px 707.872px 725.524px 764.914px 805.537px 832.285px 848.626px 892.949px 934.651px 973.347px 991.076px 1008.73px 1034.55px 1074.71px 1092.83px 1109.17px 1170.53px 1188.18px 1229.96px 1246.3px 1272.12px 1315.06px 1358.61px 1399.23px 1425.06px 1466.84px 1507.46px" y="5627.13px 5627.13px 5627.13px 5627.13px 5627.13px 5627.13px 5627.13px 5627.13px 5627.13px 5627.13px 5627.13px 5627.13px 5627.13px 5627.13px 5627.13px 5627.13px 5627.13px 5627.13px 5627.13px 5627.13px 5627.13px 5627.13px 5627.13px 5627.13px 5627.13px 5627.13px 5627.13px 5627.13px 5627.13px 5627.13px 5627.13px 5627.13px 5627.13px 5627.13px 5627.13px 5627.13px 5627.13px 5627.13px 5627.13px">ove fast. deliver quality. win together</tspan></text>
</svg>
