<?xml version="1.0" encoding="utf-8" ?><svg xmlns="http://www.w3.org/2000/svg" xmlns:xlink="http://www.w3.org/1999/xlink" width="1664" height="784" viewBox="0 0 1664 784"><path fill="#166058" d="M0 0L1664 0L1664 784L0 784L0 0Z"/><path fill="#FAFBF8" d="M1401.18 280.49C1406.18 280.032 1411.19 279.943 1416.2 280.225C1461.97 282.886 1477.13 319.07 1474.64 359.991L1379.16 360.012C1379.66 362.475 1380.35 366.66 1381.32 368.836C1393.74 396.722 1430.83 398.711 1443.3 369.884L1459.46 374.881C1464.42 376.254 1468.56 377.305 1473.32 379.333C1464.29 402.211 1450.48 415.408 1425.77 419.911C1333.23 436.774 1311.53 296.08 1401.18 280.49Z"/><path fill="#166058" d="M1403.79 309.675C1424.8 307.665 1435.98 314.478 1440.09 335.456L1417.41 335.438L1379.93 335.446C1383.38 320.634 1389.24 313.894 1403.79 309.675Z"/><path fill="#FAFBF8" d="M1148.22 280.548C1164.52 278.698 1184.63 280.946 1197.93 291.464C1217.89 307.262 1215.31 331.227 1215.45 353.969C1215.57 374.924 1214.45 396.282 1216.95 417.23L1184 417.261C1183.04 411.997 1182.91 406.905 1182.64 401.57C1161.61 427.814 1122.55 428.113 1103.12 400.292C1102.97 400.035 1102.83 399.775 1102.68 399.512C1097.48 389.944 1096.34 377.721 1099.82 367.506C1107.91 343.747 1135.29 340.447 1156.55 337.734C1166.09 336.517 1184.24 335.445 1179.41 321.545C1178.58 319.153 1177.66 317.033 1175.75 315.255C1164.13 304.192 1141.86 307.917 1134.57 322.289C1133.49 324.41 1132.74 328.144 1132.21 330.489C1121.77 328.511 1110.81 325.966 1100.38 323.716C1105.07 297.929 1123.07 284.351 1148.22 280.548Z"/><path fill="#166058" d="M1177.77 357.791L1179.47 357.869C1179.59 358.108 1179.71 358.348 1179.83 358.588C1183.35 385.844 1161.98 400.185 1140.48 391.548C1134.77 386.787 1129.87 377.612 1135.29 370.945C1144.17 360.043 1164.66 359.607 1177.77 357.791Z"/><path fill="#FAFBF8" d="M185.923 191.39C221.863 190.924 258.882 191.384 294.911 191.387L294.912 300.443L185.942 300.449L185.923 191.39Z"/><path fill="#FAFBF8" d="M891.377 280.581C892.67 280.515 893.964 280.482 895.259 280.482C907.32 280.498 919.573 284.046 928.179 292.852C945.623 310.704 942.742 337.675 942.732 360.634L942.683 417.109L906.734 417.143L906.84 364.405C906.863 345.412 911.283 314.922 884.98 313.2C876.218 312.627 871.284 314.398 864.698 320.029C854.7 331.653 857.128 352.174 857.154 366.799L857.245 417.106L821.346 417.131L821.344 283.992L856.293 283.973L856.297 300.055C856.669 299.554 857.048 299.06 857.435 298.571C866.981 286.302 876.346 282.43 891.377 280.581Z"/><path fill="#FAFBF8" d="M605.888 280.512C640.576 277.792 666.556 290.724 677.75 324.834L645.68 335.572C639.628 319.751 628.318 310.554 610.641 313.639C601.807 315.198 593.978 320.261 588.933 327.678C577.248 344.695 580.541 371.063 598.33 382.851C605.469 387.681 614.259 389.419 622.699 387.667C637.004 384.721 640.842 376.518 647.443 366.253L649.544 366.458C658.179 369.772 669.564 373.203 678.522 376.184C664.468 420.654 612.047 434.154 575.557 408.617C560.582 397.997 550.476 381.831 547.489 363.719C540.359 322.473 564.525 287.566 605.888 280.512Z"/><path fill="#FAFBF8" d="M1018.12 280.546C1053 277.537 1078.49 291.025 1089.92 324.856L1057.75 335.597C1052.85 321.013 1042.04 312.14 1026.16 313.266C1017.24 313.838 1008.94 318.006 1003.15 324.814C983.508 347.881 997.843 391.978 1032.18 388.051C1041.46 386.955 1049.78 381.828 1054.93 374.038C1056.76 371.291 1057.52 368.952 1059.69 366.209L1061.48 366.414C1070.88 369.801 1081.22 373.037 1090.75 376.227C1075.61 420.825 1023.91 434.63 987.082 408.183C972.154 397.343 962.2 380.967 959.45 362.726C953.02 322.011 977.061 287.057 1018.12 280.546Z"/><path fill="#FAFBF8" d="M1274.92 280.511C1303.75 278.219 1328.31 287.626 1334.98 318.28C1325.49 320.718 1314.56 322.918 1304.91 325.098C1303.21 319.574 1302.6 316.183 1297.81 312.329C1292.94 308.475 1286.72 306.769 1280.56 307.602C1274.22 308.404 1264.62 313.238 1265.83 321.145C1267 329.946 1279.54 333.827 1287.78 334.635C1324.1 338.189 1350.64 366.603 1328.44 401.751C1320.78 413.879 1306.47 418.718 1291.93 420.854C1260.91 422.535 1236.56 412.135 1229.24 379.971C1239.5 377.857 1249.73 375.599 1259.93 373.198C1261.75 380.483 1262.69 383.811 1269.22 388.865C1278.8 396.283 1303.14 396.069 1301.93 379.391C1301.01 370.086 1287.58 367.052 1280.12 365.552C1261.27 361.762 1237.89 354.196 1233.75 332.319C1231.72 321.25 1234.11 309.826 1240.42 300.501C1248.85 288.144 1260.85 283.218 1274.92 280.511Z"/><path fill="#FE5200" d="M237.117 318.084C267.023 316.299 292.752 339.011 294.689 368.905C296.627 398.8 274.044 424.642 244.158 426.731C214.056 428.835 187.984 406.056 186.033 375.945C184.082 345.835 206.995 319.882 237.117 318.084Z"/><path fill="#FAFBF8" d="M694.138 221.125L730.275 221.134L730.277 417.112L694.136 417.133L694.138 221.125Z"/><path fill="#FAFBF8" d="M420.754 318.439C421.996 321.014 421.38 415.945 421.367 426.976L313.925 427.007L313.38 426.401C314.734 423.673 336.913 402.338 340.976 398.273L420.754 318.439Z"/><path fill="#FAFBF8" d="M312.551 191.569C346.349 190.331 387.048 191.364 421.36 191.393L421.328 299.591C419.105 299.038 320.343 199.375 312.551 191.569Z"/><path fill="#FAFBF8" d="M762.898 283.926L793.767 283.966C793.77 299.473 794.743 414.096 792.929 416.757L790.766 417.114L757.751 417.146C757.773 375.174 756.477 326.61 757.885 285.25C759.418 283.564 759.957 284.103 762.898 283.926Z"/><path fill="#FAFBF8" d="M1271.99 550.178C1277.22 550.252 1279.22 551.689 1283.77 553.633C1283.95 553.709 1285.94 550.69 1289.42 550.067C1291.87 550.718 1291.02 550.213 1292.77 551.89C1294.12 559.95 1293.14 567.554 1293.6 575.249C1294.74 594.352 1286.61 611.209 1264.84 602.313C1259.45 600.112 1257.57 595.954 1255.67 590.663C1258.64 589.825 1260.35 589.205 1263.43 589.194C1272.32 600.029 1284.54 600.905 1284.18 583.289C1280.8 583.328 1277.74 586.187 1274.43 586.876C1266.36 588.553 1258.11 580.675 1256.45 573.278C1255.3 568.15 1256.26 562.776 1259.12 558.366C1262.54 553.041 1266.13 551.514 1271.99 550.178Z"/><path fill="#166058" d="M1272.27 558.152C1273.76 558.093 1275.25 558.214 1276.7 558.512C1286.86 560.533 1287.27 573.497 1277.17 579.357C1264.23 579.604 1260.48 565.203 1272.27 558.152Z"/><path fill="#FAFBF8" d="M773.941 218.181C786.173 217.227 796.848 226.403 797.739 238.639C798.63 250.875 789.399 261.501 777.158 262.33C765.005 263.153 754.471 254.003 753.586 241.855C752.701 229.708 761.798 219.128 773.941 218.181Z"/><path fill="#FAFBF8" d="M575.206 532.728C577.882 532.676 581.305 532.363 583.697 533.35C584.713 540.737 584.197 579.288 583.85 588.156C581.739 589.495 578.053 589.112 575.738 588.359L574.998 585.698C567.652 585.9 571.139 591.82 557.142 588.284C550.983 584.65 547.45 580.232 546.482 572.941C545.691 567.12 547.251 561.225 550.817 556.557C557.359 548.153 567.279 548.069 575.213 554.566L575.206 532.728Z"/><path fill="#166058" d="M562.876 558.073C577.688 558.067 579.407 574.151 567.93 581.574C553.169 581.61 550.926 565.129 562.876 558.073Z"/><path fill="#FAFBF8" d="M803.55 550.232C811.825 549.596 810.989 551.239 818.497 554.069L819.336 551.056C821.374 550.556 824.241 551.04 826.423 551.252C828.368 553.415 827.568 596.97 827.55 603.322C825.008 603.445 821.061 603.929 818.938 602.854L818.486 601.234C818.514 598.33 818.962 587.688 817.746 585.797C813.03 588.688 807.215 591.775 801.922 588.979C784.712 579.891 785.176 557.417 803.55 550.232Z"/><path fill="#166058" d="M805.891 558.187C821.154 558.07 822.999 574.648 810.851 581.682C796.943 581.539 794.142 565.316 805.891 558.187Z"/><path fill="#FAFBF8" d="M263.606 550.543C274.325 547.957 285.097 554.606 287.588 565.347C290.079 576.087 283.335 586.799 272.572 589.195C261.942 591.562 251.391 584.92 248.931 574.312C246.47 563.705 253.02 553.096 263.606 550.543Z"/><path fill="#166058" d="M265.533 558.102C281.296 558.305 283.123 574.857 270.59 581.749C256.371 581.748 252.858 565.709 265.533 558.102Z"/><path fill="#FAFBF8" d="M1227.94 550.535C1238.63 547.972 1249.37 554.59 1251.88 565.292C1254.39 575.994 1247.72 586.698 1237.01 589.161C1226.37 591.608 1215.75 584.994 1213.25 574.362C1210.75 563.731 1217.32 553.081 1227.94 550.535Z"/><path fill="#166058" d="M1230 558.081C1245.2 558.278 1247.52 574.222 1235.02 581.735C1220.66 581.834 1217.11 565.382 1230 558.081Z"/><path fill="#FAFBF8" d="M202.313 550.155C212.356 549.556 215.627 555.325 217.415 555.094C220.287 554.722 222.822 549.808 230.533 549.803C233.429 549.8 236.112 550.731 238.169 552.811C245.512 560.235 243.025 578.835 242.886 588.663C241.991 588.7 237.391 588.802 236.8 588.776C229.041 586.816 238.125 564.57 232.315 560.295C224.031 554.201 217.842 562.241 219.175 570.458C219.416 571.943 219.232 577.725 219.264 579.673C219.395 582.234 219.722 584.926 219.057 587.373C201.43 599.769 218.03 557.147 203.798 557.465C191.892 557.731 195.253 580.692 195.332 588.656L186.264 588.754C186.25 584.375 185.689 553.726 186.957 551.424C189.689 550.771 190.643 550.359 193.372 551.06C194.287 552.543 194.311 552.603 195.791 553.459C198.404 552.764 200.027 551.579 202.313 550.155Z"/><path fill="#FAFBF8" d="M1048.24 550.977L1057.96 550.944C1060.33 559.009 1062.91 568.661 1065.8 576.429L1074.41 550.929L1083.79 550.994L1092.67 576.852C1094.29 570.656 1097.73 557.032 1100.19 551.778C1102.32 550.519 1106.5 550.913 1109.2 550.937L1105.49 562.821L1097.18 588.74L1088.15 588.734L1078.9 561.98C1075.78 570.428 1072.77 580.101 1069.9 588.719L1060.55 588.789L1048.24 550.977Z"/><path fill="#FAFBF8" d="M1313.91 550.117C1331.42 549.441 1334.94 556.075 1336.79 572.309C1331.19 572.31 1311.84 571.181 1308.9 573.698L1309.15 575.601C1311.5 578.79 1312.77 579.668 1316.42 581.243C1324.34 584.66 1325.27 577.264 1329.44 575.757C1331.24 576.341 1332.9 576.949 1334.67 577.608L1335.11 578.928C1331.36 588.543 1322.47 592.363 1312.84 588.785C1307.63 586.801 1303.43 582.8 1301.2 577.686C1295.74 565.165 1302.04 555.045 1313.91 550.117Z"/><path fill="#166058" d="M1316.25 557.251C1320.8 557.708 1325.8 558.902 1326.71 564.121C1324.59 566.041 1324.94 565.431 1321.33 565.541C1317.02 565.684 1313.05 566.431 1309.76 563.83L1309.82 562.045C1312.01 559.347 1313.14 558.91 1316.25 557.251Z"/><path fill="#FAFBF8" d="M1421.94 550.145C1433.04 549.339 1445.93 555.273 1445.03 568.571C1444.37 578.299 1419.42 566.614 1417.63 575.076C1421.21 585.126 1431.63 583.496 1436.75 575.415C1440.11 576.609 1441.84 576.511 1443.38 578.969C1441.31 587.757 1429.15 592.094 1420.79 588.847C1415.77 586.866 1411.74 582.975 1409.58 578.028C1404.18 565.702 1410.21 555.192 1421.94 550.145Z"/><path fill="#166058" d="M1424.21 557.281C1428.94 557.594 1433.91 558.878 1435.04 564.141C1433.12 565.976 1433.55 565.411 1430.2 565.545C1425.89 565.697 1421.38 566.485 1418.12 563.737L1418.16 562.086C1420.12 559.45 1421.34 558.939 1424.21 557.281Z"/><path fill="#FAFBF8" d="M719.957 550.13C730.29 549.359 737.265 552.001 741.735 562.379C743.001 565.319 743.466 568.185 742.042 571.161C738.545 573.8 721.864 571.847 715.777 572.373L715.228 573.872C719.066 584.989 728.643 584.375 734.726 575.451C737.001 576.159 738.509 576.636 740.712 577.593L741.117 579.234C737.042 588.747 728.665 592.428 718.918 588.749C713.731 586.75 709.555 582.764 707.317 577.676C701.92 565.24 708.238 555.116 719.957 550.13Z"/><path fill="#166058" d="M722.265 557.269C726.469 557.417 732.905 559.349 732.737 564.394C730.611 565.994 730.623 565.459 727.391 565.54C723.387 565.692 718.815 566.448 715.864 563.802L715.969 562.067C718.121 559.407 719.231 558.95 722.265 557.269Z"/><path fill="#FAFBF8" d="M604.577 550.119C621.81 549.071 626.071 556.444 627.268 572.307C621.903 572.388 603.795 571.299 600.207 572.984L599.956 574.624C603.514 584.796 613.493 583.948 619.334 575.477C622.562 576.606 624.442 576.525 625.896 578.864C623.62 587.802 612.164 592.098 603.666 588.962C598.364 586.961 594.114 582.875 591.905 577.656C586.654 565.292 592.9 555.039 604.577 550.119Z"/><path fill="#166058" d="M606.938 557.258C611.276 557.511 616.835 559.155 617.422 564.118C615.265 566.036 615.634 565.428 612.016 565.543C607.982 565.695 603.438 566.45 600.455 563.797L600.552 562.049C602.719 559.366 603.859 558.918 606.938 557.258Z"/><path fill="#FAFBF8" d="M345.39 550.117C362.66 549.049 366.716 556.528 368.228 572.274C361.855 572.375 346.254 571.545 341.256 572.693L340.581 574.094C343.752 584.8 354.151 584.024 360.153 575.492C362.672 576.226 363.668 576.437 365.955 577.776C368.865 584.734 353.445 592.531 344.072 588.913C338.957 586.887 334.88 582.875 332.773 577.793C327.549 565.43 333.643 555.028 345.39 550.117Z"/><path fill="#166058" d="M347.782 557.255C352.335 557.708 357.312 558.905 358.22 564.117C356.084 566.033 356.436 565.424 352.828 565.543C348.544 565.684 344.551 566.426 341.28 563.837L341.33 562.049C343.509 559.347 344.67 558.904 347.782 557.255Z"/><path fill="#FAFBF8" d="M425.741 550.16C450.323 548.475 448.619 568.999 446.279 587.742C444.761 589.517 445.549 588.966 443.039 589.647C440.471 588.989 440.023 588.377 438.248 586.435L437.724 585.854C429.544 585.921 428.866 596.647 415.581 584.588C406.386 564.479 436.438 569.112 437.175 561.209C435.48 558.708 435.155 558.476 432.563 556.903C426.223 556.447 427.457 559.527 421.996 563.374C419.605 563.651 418.542 563.995 416.489 562.65C413.165 556.214 420.88 552.238 425.741 550.16Z"/><path fill="#166058" d="M432.24 572.181C434.624 571.704 435.835 571.571 437.49 573.145C437.715 578.714 433.957 581.362 429.202 583.217C426.121 582.503 424.683 581.877 423.051 579.108C422.998 573.357 427.613 572.752 432.24 572.181Z"/><path fill="#FAFBF8" d="M887.238 550.207C909.218 548.265 909.199 561.776 908.684 579.538C908.595 582.629 908.525 585.418 907.531 588.382C905.081 588.784 903.084 589.333 900.723 588.594C900.444 587.277 900.443 586.661 899.55 585.641C889.34 586.986 889.632 595.853 877.372 584.59C868.191 566.309 894.575 568.171 898.964 562.804C898.801 559.177 894.123 555.464 891.024 557.049C885.949 559.644 887.144 563.34 880.441 563.81C877.931 562.81 878.738 563.521 877.425 561.123C877.457 554.714 881.974 552.602 887.238 550.207Z"/><path fill="#166058" d="M894.148 572.121C897.405 571.817 896.787 571.371 899.121 572.82C899.867 578.03 896 581.14 891.629 583.067C888.345 582.601 886.827 582.226 884.895 579.423C884.691 573.386 889.174 572.728 894.148 572.121Z"/><path fill="#FAFBF8" d="M1368.31 532.778C1370.98 532.625 1373.27 532.24 1375.68 533.373C1379.1 537.225 1377.46 547.529 1377.45 553.798C1405.64 537.924 1402.08 572.092 1401.89 588.636L1392.76 588.763L1392.76 569.314C1392.81 567.242 1392.81 562.85 1391.14 561.417C1374.09 546.783 1377.34 580.561 1377.45 588.627L1368.32 588.757L1368.31 532.778Z"/><path fill="#FAFBF8" d="M844.913 550.948C845.024 559.692 840.63 586.293 856.338 581.111C863.723 575.655 858.082 558.68 860.706 551.69C862.282 550.533 867.035 550.927 869.307 550.943L869.299 561.799C869.267 570.757 869.336 579.715 869.505 588.672C864.197 588.892 862.082 588.673 856.838 588.008L857.619 587.478C837.038 599.35 833.928 571.57 835.681 558.671C835.946 556.721 835.743 553.086 835.77 550.958L844.913 550.948Z"/><path fill="#FAFBF8" d="M1148 550.074C1148.63 550.06 1149.25 550.052 1149.88 550.049C1169.83 549.941 1165.19 574.427 1165.04 588.709C1162.02 588.852 1159.88 589.154 1157 588.195C1150.81 579.989 1165.4 558.31 1145.42 558.193C1137.94 564.645 1140.52 578.984 1140.64 588.702L1131.45 588.646C1131.55 581.38 1130.31 556.811 1132.28 551.744C1134.98 550.872 1135.6 550.567 1138.47 550.785C1139.08 551.733 1139.61 552.473 1140.28 553.386C1142.44 553.667 1145.91 551.251 1148 550.074Z"/><path fill="#FAFBF8" d="M1004.43 550.922L1014.07 550.982L1001.35 579.065L990.086 603.821L980.376 603.784L989.473 584.214L973.372 550.97L983.664 550.932C986.989 558.71 990.855 566.778 994.407 574.501L1004.43 550.922Z"/><path fill="#FAFBF8" d="M463.114 550.102C469.939 549.853 475.837 550.653 480.849 556.002C481.787 558.647 481.718 557.5 480.936 560.378C474.301 564.292 468.716 554.311 462.524 558.544C461.802 561.431 461.723 560.299 462.593 562.921C468.822 568.674 489.09 566.756 480.183 583.296C477.91 587.517 474.79 588.544 470.417 589.808C464.146 590.035 456.654 588.091 453.038 582.583C452.489 579.293 452.333 580.597 453.493 577.601C460.012 574.817 467.821 586.899 472.512 580.98C472.631 580.172 473.063 578.623 472.973 577.858C472.805 576.421 455.889 569.927 452.997 564.306C452.132 562.625 452.039 560.989 452.649 559.21C453.997 555.282 459.591 551.841 463.114 550.102Z"/><path fill="#FAFBF8" d="M405.08 532.286C407.554 532.159 411.148 532.48 412.835 534.474C413.04 539.701 403.535 541.401 402.582 546.637C403.913 554.13 406.774 548.559 410.794 552.055C414.955 561.68 405.987 557.789 403.265 559.982C402.161 565.058 402.785 582.366 402.842 588.739L393.492 588.718C393.43 583.112 394.473 563.105 392.545 559.225C390.565 558.966 389.983 558.845 388.096 558.198C386.579 556.226 386.78 554.783 386.71 552.332C388.532 549.649 387.839 551.45 391.576 550.602C395.981 549.602 392.917 542.119 395.458 538.183C397.978 534.278 400.801 533.453 405.08 532.286Z"/><path fill="#FAFBF8" d="M664.399 550.997L674.34 550.97L684.222 577.489C687.491 569.564 690.939 559.184 693.931 550.964L703.493 550.986L699.502 561.176L688.739 588.723L679.662 588.783L664.399 550.997Z"/><path fill="#FAFBF8" d="M289.799 550.974L299.737 550.987C302.984 559.813 306.284 568.618 309.636 577.404C312.95 568.983 316.18 559.529 319.31 550.961L328.805 550.952L325.345 559.966L314.115 588.732L305.028 588.788L289.799 550.974Z"/><path fill="#FAFBF8" d="M1193.42 539.446C1196.47 539.239 1197.8 538.981 1200.68 540.035C1202.34 542.168 1201.29 543.844 1200.87 547.429C1203.75 554.133 1205.17 549.299 1209.17 551.883C1210.03 554.475 1209.57 555.444 1208.91 558.091C1207.17 558.463 1205.91 558.852 1204.23 559.378C1199.23 563.491 1201.23 573.787 1202.67 579.368C1202.95 580.452 1207.02 581.321 1208.28 581.703C1210.09 584.379 1209.43 584.834 1209.41 588.739C1182.96 591.007 1197.06 568.887 1191.73 559.326C1188.36 558.863 1187.08 559.357 1185.36 556.623C1185.25 548.613 1187.67 552.785 1192.33 547.992C1193.82 545.367 1193.47 542.477 1193.42 539.446Z"/><path fill="#FAFBF8" d="M1346.31 539.453C1349.4 539.247 1350.56 539.033 1353.49 539.971C1355.34 542.326 1353.87 543.379 1353.86 547.863C1356.93 553.983 1357.89 549.536 1362.09 551.692C1363.08 554.112 1362.59 555.41 1362.06 557.98C1360.28 558.417 1358.81 558.918 1357.09 559.495C1352.15 563.971 1354.16 573.208 1355.38 579.062C1355.66 580.416 1359.93 581.247 1361.41 581.761C1363.07 584.381 1362.46 584.96 1362.45 588.625C1335.59 591.742 1350.5 567.238 1344.22 559.08C1341.98 558.967 1340.76 559.157 1339 557.823C1335.09 546.656 1346.83 556.545 1346.31 539.453Z"/><path fill="#FAFBF8" d="M492.191 539.447C494.93 539.326 496.444 539.127 499.105 539.853C501.524 542.507 499.223 543.114 499.979 547.3C501.197 554.039 504.05 549.174 507.793 552C508.683 554.556 508.249 555.497 507.615 558.125L503.28 559.221C498.761 563.412 499.143 575.085 501.666 579.925C503.639 580.749 504.963 581.164 506.971 581.761C508.686 584.341 508.067 585.273 508.043 588.857C481.654 590.616 495.89 568.912 490.542 559.325C488.506 559.048 487.227 558.804 485.233 558.312C481.117 551.841 487.537 550.974 490.752 548.318C492.526 546.853 492.218 541.876 492.191 539.447Z"/><path fill="#FAFBF8" d="M955.594 539.45C958.532 539.313 959.505 539.224 962.392 539.745C965.425 542.58 962.446 543.901 963.196 547.342C964.551 553.561 967.968 549.461 971.806 552.223C972.45 554.541 971.909 555.856 971.327 558.148C969.5 558.76 968.321 558.963 966.465 559.306C961.627 563.868 963.403 572.942 964.841 578.917C965.181 580.329 969.134 581.283 970.633 581.738C972.402 584.394 971.758 584.865 971.767 588.686C947.184 591.325 958.406 572.548 954.092 559.418C952.157 558.798 951.396 558.736 949.368 558.527C944.933 552.373 951.106 551.074 954.341 548.247C956.047 546.756 955.642 541.893 955.594 539.45Z"/><path fill="#FAFBF8" d="M633.257 532.732C636.092 532.693 639.805 532.301 642.149 533.65C643.262 542.305 642.481 578.129 642.451 588.732L633.262 588.685L633.257 532.732Z"/><path fill="#FAFBF8" d="M916.51 532.765C919.432 532.662 922.267 532.327 924.946 533.469C926.446 537.291 925.645 581.198 925.614 588.736L916.514 588.772L916.51 532.765Z"/><path fill="#FAFBF8" d="M748.657 550.958C751.164 550.883 754.773 550.56 757.039 551.339L757.586 554.864L758.323 555.3C761.789 552.095 765.157 548.738 770.04 551.789C773.501 557.411 770.02 560.754 764.243 561.083C758.837 561.39 758.415 565.942 757.885 570.301L757.898 588.704L748.674 588.675L748.657 550.958Z"/><path fill="#FAFBF8" d="M1450.82 550.957C1453.97 550.858 1455.83 550.794 1458.95 551.153C1459.38 552.557 1459.84 553.953 1460.33 555.341C1464.08 551.502 1466.62 549.52 1471.98 551.811C1474.02 554.133 1473.53 552.998 1473.81 556.09C1469.31 566.044 1462.77 554.621 1459.96 569.423L1459.97 588.704C1457.11 588.776 1453.76 588.647 1450.85 588.611L1450.82 550.957Z"/><path fill="#FAFBF8" d="M1113.86 550.946C1116.62 550.877 1120.5 550.481 1122.5 552.13C1123.46 560.606 1122.84 579.471 1122.77 588.734C1119.64 588.83 1118.23 588.792 1115.11 588.435C1112.83 585.941 1113.83 556.477 1113.86 550.946Z"/><path fill="#FAFBF8" d="M934.374 550.944C937.193 550.879 940.98 550.497 942.985 552.097C943.934 560.782 943.318 579.303 943.253 588.732C940.508 588.805 936.794 589.175 934.704 587.65C933.7 579.956 934.316 559.603 934.374 550.944Z"/><path fill="#FAFBF8" d="M650.982 550.95C653.538 550.887 657.944 550.485 659.599 552.051C660.547 560.913 659.954 579.165 659.897 588.739C657.182 588.775 653.263 589.26 651.312 587.667C650.356 580.883 650.943 558.866 650.982 550.95Z"/><path fill="#FAFBF8" d="M516.018 577.235C518.066 576.18 520.529 576.336 522.427 577.641C524.326 578.947 525.353 581.19 525.101 583.48C524.849 585.77 523.359 587.736 521.222 588.598C518.122 589.848 514.587 588.44 513.195 585.401C511.803 582.362 513.046 578.766 516.018 577.235Z"/><path fill="#FAFBF8" d="M1019.8 577.238C1021.85 576.182 1024.32 576.342 1026.22 577.652C1028.12 578.963 1029.14 581.212 1028.88 583.504C1028.62 585.796 1027.12 587.758 1024.97 588.61C1021.87 589.841 1018.35 588.422 1016.97 585.386C1015.59 582.349 1016.84 578.764 1019.8 577.238Z"/><path fill="#FAFBF8" d="M936.336 532.574C939.234 531.206 942.693 532.446 944.063 535.344C945.432 538.241 944.195 541.7 941.298 543.072C938.398 544.445 934.934 543.206 933.563 540.306C932.192 537.405 933.434 533.942 936.336 532.574Z"/><path fill="#FAFBF8" d="M1115.83 532.557C1118.75 531.204 1122.21 532.48 1123.55 535.402C1124.89 538.324 1123.6 541.779 1120.67 543.108C1117.76 544.429 1114.33 543.149 1113 540.243C1111.66 537.338 1112.93 533.901 1115.83 532.557Z"/><path fill="#FAFBF8" d="M653.115 532.547C656.033 531.212 659.481 532.498 660.811 535.418C662.141 538.338 660.85 541.783 657.928 543.109C655.012 544.432 651.576 543.144 650.249 540.23C648.921 537.317 650.204 533.879 653.115 532.547Z"/></svg>