<svg width="1024" height="339" viewBox="0 0 1024 339" fill="none" xmlns="http://www.w3.org/2000/svg">
<g clip-path="url(#clip0_1087_28210)">
<path d="M195.168 113.496V195.54H113.164L195.168 113.496Z" fill="white"/>
<path fill-rule="evenodd" clip-rule="evenodd" d="M99.972 18.2344H17.9707V100.278H99.972V18.2344Z" fill="white"/>
<path d="M113.164 18.2344H195.168V100.278L113.164 18.2344Z" fill="white"/>
<path d="M96.8274 170.217C105.498 149.287 95.561 125.29 74.6367 116.619C53.7276 107.947 29.7366 117.887 21.0702 138.822C12.3986 159.751 22.3367 183.748 43.2571 192.418C64.1829 201.087 88.1746 191.15 96.8274 170.217Z" fill="#FF5200"/>
<path d="M316.322 138.055C316.322 156.186 328.122 166.366 341.973 166.366C355.821 166.366 362.739 157.205 364.978 149.453L388.797 157.391C384.32 174.099 368.64 191.197 341.973 191.197C312.457 191.197 289.248 168.791 289.248 138.04C289.248 107.288 312.049 84.8828 341.157 84.8828C368.436 84.8828 383.912 101.791 388.184 118.689L363.959 126.828C361.518 118.484 355.212 109.918 341.769 109.918C328.326 109.918 316.322 119.909 316.322 138.024V138.055Z" fill="white"/>
<path fill-rule="evenodd" clip-rule="evenodd" d="M400.596 40.6953H427.671V188.157H400.596L400.596 40.6953Z" fill="white"/>
<path d="M448.421 87.949H475.495V188.157H448.421V87.949ZM461.864 38.2539C471.223 38.2539 478.564 45.7842 478.564 55.1632C478.564 64.5422 471.238 71.6642 461.864 71.6642C452.489 71.6642 445.164 64.1339 445.164 55.1632C445.164 46.1918 452.694 38.2539 461.864 38.2539M523.351 188.157H496.276V87.949H522.539V100.382C528.64 90.0011 540.659 85.3026 551.442 85.3026C576.276 85.3026 587.671 103.029 587.671 125.026V188.157H560.595V129.709C560.595 118.512 555.102 109.745 542.067 109.745C530.268 109.745 523.334 118.904 523.334 130.521V188.157H523.35H523.351ZM626.557 138.055C626.557 156.185 638.356 166.365 652.207 166.365C666.055 166.365 672.973 157.204 675.209 149.453L699.031 157.391C694.554 174.099 678.874 191.196 652.207 191.196C622.692 191.196 599.482 168.791 599.482 138.039C599.482 107.288 622.284 84.8822 651.392 84.8822C678.67 84.8822 694.146 101.791 698.419 118.688L674.193 126.827C671.752 118.484 665.446 109.918 652.004 109.918C638.56 109.918 626.557 119.908 626.557 138.023V138.055ZM766.4 147.635V143.156L743.802 146.618C736.885 147.635 731.392 151.502 731.392 159.236C731.392 165.14 735.665 170.841 744.427 170.841C755.822 170.841 766.415 165.344 766.415 147.619L766.4 147.634V147.635ZM734.24 130.521L758.874 126.858C764.568 126.042 766.4 123.192 766.4 119.733C766.4 112.608 760.907 106.706 749.5 106.706C738.09 106.706 731.175 114.237 730.359 123.007L706.338 117.916C707.965 102.228 722.425 84.9259 749.296 84.9259C781.047 84.9259 792.863 102.855 792.863 123.02V172.31C792.863 177.605 793.475 184.743 794.083 188.205H769.249C768.637 185.555 768.232 180.062 768.232 176.195C763.144 184.134 753.569 191.068 738.717 191.068C717.34 191.068 704.32 176.601 704.32 160.927C704.32 142.998 717.559 133.026 734.24 130.584V130.521ZM826.667 155.168C827.275 163.106 833.177 170.451 844.992 170.451C853.942 170.451 858.231 165.768 858.231 160.46C858.231 155.981 855.178 152.318 847.448 150.689L834.209 147.638C814.867 143.363 806.121 131.746 806.121 117.699C806.121 99.7726 822.004 84.9139 843.583 84.9139C872.082 84.9139 881.659 103.044 882.88 113.832L860.282 118.92C859.467 113.019 855.197 105.47 843.787 105.47C836.665 105.47 830.971 109.745 830.971 115.445C830.971 120.33 834.632 123.384 840.125 124.401L854.381 127.455C874.13 131.526 884.1 143.551 884.1 158.206C884.1 174.503 871.47 191.196 845.211 191.196C815.087 191.196 804.694 171.641 803.473 160.24L826.682 155.152L826.667 155.167L826.667 155.168ZM961.829 126.655C961.421 116.666 954.911 106.895 939.435 106.895C925.38 106.895 917.65 117.495 917.041 126.655H961.829ZM987.072 159.44C981.985 176.757 966.102 191.211 941.468 191.211C913.989 191.211 889.764 171.449 889.764 137.646C889.764 105.674 913.378 84.8943 939.027 84.8943C969.967 84.8943 988.495 104.657 988.495 136.831C988.495 140.697 988.088 144.768 988.088 145.178H916.43C917.041 158.423 928.228 167.99 941.672 167.99C954.303 167.99 961.217 161.681 964.474 152.707L987.072 159.425V159.44Z" fill="white"/>
<path d="M20.0845 334.168V292.123H26.3256V298.692H26.8731C27.749 296.448 29.1633 294.705 31.1159 293.464C33.0685 292.205 35.4135 291.575 38.1508 291.575C40.9246 291.575 43.2331 292.205 45.0762 293.464C46.9376 294.705 48.3884 296.448 49.4286 298.692H49.8666C50.9432 296.521 52.5583 294.796 54.7116 293.519C56.865 292.223 59.4472 291.575 62.4582 291.575C66.2175 291.575 69.2924 292.752 71.683 295.106C74.0736 297.442 75.2689 301.083 75.2689 306.028V334.168H68.8088V306.028C68.8088 302.926 67.9603 300.709 66.2631 299.377C64.566 298.044 62.5677 297.378 60.2684 297.378C57.3121 297.378 55.0219 298.273 53.3977 300.061C51.7736 301.831 50.9615 304.076 50.9615 306.795V334.168H44.3919V305.371C44.3919 302.981 43.6163 301.055 42.0652 299.596C40.514 298.117 38.5158 297.378 36.0705 297.378C34.3916 297.378 32.8222 297.825 31.3623 298.72C29.9206 299.614 28.7527 300.855 27.8585 302.442C26.9825 304.012 26.5446 305.828 26.5446 307.89V334.168H20.0845ZM104.161 335.044C100.366 335.044 97.0352 334.141 94.1701 332.334C91.3233 330.527 89.0969 328 87.4911 324.752C85.9034 321.503 85.1096 317.708 85.1096 313.364C85.1096 308.985 85.9034 305.161 87.4911 301.895C89.0969 298.628 91.3233 296.092 94.1701 294.285C97.0352 292.479 100.366 291.575 104.161 291.575C107.957 291.575 111.278 292.479 114.125 294.285C116.99 296.092 119.217 298.628 120.804 301.895C122.41 305.161 123.213 308.985 123.213 313.364C123.213 317.708 122.41 321.503 120.804 324.752C119.217 328 116.99 330.527 114.125 332.334C111.278 334.141 107.957 335.044 104.161 335.044ZM104.161 329.241C107.045 329.241 109.417 328.502 111.278 327.024C113.14 325.545 114.518 323.602 115.412 321.193C116.306 318.784 116.753 316.175 116.753 313.364C116.753 310.554 116.306 307.935 115.412 305.508C114.518 303.081 113.14 301.119 111.278 299.623C109.417 298.127 107.045 297.378 104.161 297.378C101.278 297.378 98.9057 298.127 97.0443 299.623C95.1829 301.119 93.8051 303.081 92.911 305.508C92.0168 307.935 91.5697 310.554 91.5697 313.364C91.5697 316.175 92.0168 318.784 92.911 321.193C93.8051 323.602 95.1829 325.545 97.0443 327.024C98.9057 328.502 101.278 329.241 104.161 329.241ZM165.95 292.123L150.402 334.168H143.832L128.284 292.123H135.292L146.898 325.628H147.336L158.942 292.123H165.95ZM190.599 335.044C186.548 335.044 183.053 334.15 180.115 332.361C177.195 330.555 174.942 328.036 173.354 324.806C171.785 321.558 171 317.781 171 313.474C171 309.167 171.785 305.371 173.354 302.087C174.942 298.784 177.15 296.21 179.978 294.367C182.825 292.506 186.146 291.575 189.942 291.575C192.132 291.575 194.295 291.94 196.43 292.67C198.565 293.4 200.508 294.586 202.26 296.229C204.012 297.853 205.408 300.006 206.448 302.689C207.488 305.371 208.009 308.674 208.009 312.598V315.335H175.599V309.751H201.439C201.439 307.379 200.964 305.262 200.016 303.4C199.085 301.539 197.753 300.07 196.019 298.993C194.304 297.917 192.278 297.378 189.942 297.378C187.369 297.378 185.143 298.017 183.263 299.294C181.402 300.554 179.969 302.196 178.966 304.222C177.962 306.247 177.46 308.419 177.46 310.736V314.459C177.46 317.635 178.007 320.326 179.102 322.534C180.216 324.724 181.758 326.394 183.728 327.544C185.699 328.675 187.99 329.241 190.599 329.241C192.296 329.241 193.829 329.004 195.198 328.529C196.585 328.036 197.78 327.306 198.784 326.339C199.787 325.354 200.563 324.131 201.11 322.671L207.352 324.423C206.695 326.54 205.591 328.401 204.039 330.007C202.488 331.595 200.572 332.836 198.291 333.73C196.01 334.606 193.446 335.044 190.599 335.044ZM258.238 292.123V297.597H235.573V292.123H258.238ZM242.362 334.168V286.32C242.362 283.911 242.928 281.903 244.059 280.297C245.19 278.692 246.66 277.487 248.466 276.684C250.273 275.881 252.18 275.48 254.187 275.48C255.775 275.48 257.07 275.608 258.074 275.863C259.078 276.118 259.826 276.356 260.319 276.575L258.457 282.159C258.129 282.049 257.673 281.912 257.089 281.748C256.523 281.584 255.775 281.502 254.844 281.502C252.709 281.502 251.167 282.04 250.218 283.117C249.287 284.194 248.822 285.772 248.822 287.852V334.168H242.362ZM278.46 335.153C275.796 335.153 273.378 334.652 271.206 333.648C269.035 332.626 267.31 331.157 266.033 329.241C264.756 327.306 264.117 324.971 264.117 322.233C264.117 319.824 264.591 317.872 265.54 316.375C266.489 314.861 267.757 313.675 269.345 312.817C270.933 311.959 272.685 311.32 274.601 310.901C276.535 310.463 278.479 310.116 280.431 309.861C282.986 309.532 285.057 309.286 286.645 309.121C288.251 308.939 289.419 308.638 290.149 308.218C290.897 307.798 291.271 307.068 291.271 306.028V305.809C291.271 303.108 290.532 301.01 289.054 299.513C287.594 298.017 285.377 297.269 282.402 297.269C279.318 297.269 276.9 297.944 275.148 299.294C273.396 300.645 272.165 302.087 271.453 303.619L265.321 301.43C266.416 298.875 267.876 296.886 269.701 295.462C271.544 294.021 273.551 293.017 275.723 292.451C277.913 291.867 280.066 291.575 282.183 291.575C283.534 291.575 285.085 291.739 286.837 292.068C288.607 292.378 290.313 293.026 291.955 294.011C293.616 294.997 294.994 296.484 296.089 298.473C297.184 300.462 297.731 303.127 297.731 306.466V334.168H291.271V328.474H290.943C290.505 329.387 289.775 330.363 288.753 331.403C287.731 332.443 286.371 333.329 284.674 334.058C282.977 334.788 280.906 335.153 278.46 335.153ZM279.446 329.35C282.001 329.35 284.154 328.848 285.906 327.845C287.676 326.841 289.008 325.545 289.902 323.958C290.815 322.37 291.271 320.7 291.271 318.948V313.036C290.997 313.364 290.395 313.665 289.464 313.939C288.552 314.195 287.494 314.423 286.289 314.623C285.103 314.806 283.944 314.97 282.813 315.116C281.7 315.244 280.796 315.353 280.103 315.445C278.424 315.664 276.854 316.02 275.395 316.512C273.953 316.987 272.785 317.708 271.891 318.675C271.015 319.624 270.577 320.919 270.577 322.562C270.577 324.806 271.407 326.503 273.068 327.653C274.747 328.785 276.873 329.35 279.446 329.35ZM339.304 301.539L333.501 303.181C333.136 302.214 332.598 301.274 331.886 300.362C331.193 299.431 330.244 298.665 329.039 298.063C327.835 297.46 326.293 297.159 324.413 297.159C321.84 297.159 319.696 297.752 317.98 298.939C316.283 300.107 315.435 301.594 315.435 303.4C315.435 305.006 316.019 306.275 317.187 307.205C318.355 308.136 320.179 308.912 322.661 309.532L328.902 311.065C332.662 311.977 335.463 313.373 337.306 315.253C339.149 317.114 340.071 319.514 340.071 322.452C340.071 324.861 339.377 327.014 337.99 328.912C336.622 330.81 334.705 332.307 332.242 333.402C329.778 334.496 326.913 335.044 323.647 335.044C319.358 335.044 315.809 334.113 312.999 332.252C310.188 330.39 308.409 327.671 307.661 324.095L313.792 322.562C314.376 324.825 315.48 326.522 317.104 327.653C318.747 328.785 320.891 329.35 323.537 329.35C326.548 329.35 328.939 328.712 330.709 327.434C332.497 326.138 333.392 324.587 333.392 322.781C333.392 321.321 332.881 320.098 331.859 319.113C330.837 318.109 329.267 317.361 327.15 316.868L320.143 315.226C316.292 314.313 313.464 312.899 311.657 310.983C309.869 309.048 308.975 306.631 308.975 303.729C308.975 301.357 309.641 299.258 310.973 297.433C312.323 295.608 314.157 294.176 316.475 293.136C318.811 292.095 321.457 291.575 324.413 291.575C328.574 291.575 331.84 292.488 334.213 294.313C336.603 296.137 338.3 298.546 339.304 301.539ZM368.08 292.123V297.597H346.291V292.123H368.08ZM352.642 282.049H359.102V322.124C359.102 323.949 359.366 325.317 359.896 326.23C360.443 327.124 361.137 327.726 361.976 328.036C362.834 328.328 363.737 328.474 364.686 328.474C365.398 328.474 365.982 328.438 366.438 328.365C366.894 328.274 367.259 328.201 367.533 328.146L368.847 333.949C368.409 334.113 367.797 334.277 367.013 334.442C366.228 334.624 365.233 334.715 364.029 334.715C362.204 334.715 360.416 334.323 358.664 333.538C356.93 332.754 355.489 331.558 354.339 329.952C353.207 328.347 352.642 326.321 352.642 323.876V282.049ZM382.506 334.606C381.156 334.606 379.997 334.122 379.03 333.155C378.062 332.188 377.579 331.029 377.579 329.679C377.579 328.328 378.062 327.17 379.03 326.202C379.997 325.235 381.156 324.752 382.506 324.752C383.856 324.752 385.015 325.235 385.982 326.202C386.95 327.17 387.433 328.328 387.433 329.679C387.433 330.573 387.205 331.394 386.749 332.142C386.311 332.891 385.718 333.493 384.97 333.949C384.24 334.387 383.418 334.606 382.506 334.606ZM436.582 335.044C433.078 335.044 429.985 334.159 427.302 332.389C424.62 330.6 422.521 328.082 421.006 324.834C419.492 321.567 418.734 317.708 418.734 313.255C418.734 308.839 419.492 305.006 421.006 301.758C422.521 298.51 424.629 296.001 427.33 294.23C430.03 292.46 433.151 291.575 436.691 291.575C439.429 291.575 441.591 292.031 443.179 292.944C444.785 293.838 446.007 294.86 446.847 296.01C447.704 297.141 448.371 298.072 448.845 298.802H449.392V278.108H455.853V334.168H449.611V327.708H448.845C448.371 328.474 447.695 329.442 446.819 330.609C445.943 331.759 444.693 332.79 443.069 333.703C441.445 334.597 439.283 335.044 436.582 335.044ZM437.458 329.241C440.049 329.241 442.239 328.566 444.027 327.215C445.816 325.847 447.175 323.958 448.106 321.549C449.037 319.122 449.502 316.321 449.502 313.145C449.502 310.007 449.046 307.26 448.133 304.906C447.221 302.534 445.87 300.691 444.082 299.377C442.294 298.044 440.086 297.378 437.458 297.378C434.72 297.378 432.439 298.081 430.614 299.486C428.808 300.873 427.448 302.762 426.536 305.152C425.642 307.525 425.195 310.189 425.195 313.145C425.195 316.138 425.651 318.857 426.563 321.303C427.494 323.73 428.863 325.664 430.669 327.106C432.494 328.529 434.757 329.241 437.458 329.241ZM486.209 335.044C482.158 335.044 478.664 334.15 475.725 332.361C472.806 330.555 470.552 328.036 468.964 324.806C467.395 321.558 466.61 317.781 466.61 313.474C466.61 309.167 467.395 305.371 468.964 302.087C470.552 298.784 472.76 296.21 475.589 294.367C478.435 292.506 481.757 291.575 485.552 291.575C487.742 291.575 489.905 291.94 492.04 292.67C494.175 293.4 496.119 294.586 497.87 296.229C499.622 297.853 501.018 300.006 502.059 302.689C503.099 305.371 503.619 308.674 503.619 312.598V315.335H471.209V309.751H497.049C497.049 307.379 496.575 305.262 495.626 303.4C494.695 301.539 493.363 300.07 491.629 298.993C489.914 297.917 487.888 297.378 485.552 297.378C482.979 297.378 480.753 298.017 478.873 299.294C477.012 300.554 475.579 302.196 474.576 304.222C473.572 306.247 473.07 308.419 473.07 310.736V314.459C473.07 317.635 473.618 320.326 474.713 322.534C475.826 324.724 477.368 326.394 479.339 327.544C481.31 328.675 483.6 329.241 486.209 329.241C487.907 329.241 489.439 329.004 490.808 328.529C492.195 328.036 493.39 327.306 494.394 326.339C495.398 325.354 496.173 324.131 496.721 322.671L502.962 324.423C502.305 326.54 501.201 328.401 499.65 330.007C498.099 331.595 496.182 332.836 493.901 333.73C491.62 334.606 489.056 335.044 486.209 335.044ZM519.906 278.108V334.168H513.446V278.108H519.906ZM531.738 334.168V292.123H538.198V334.168H531.738ZM535.023 285.115C533.764 285.115 532.678 284.686 531.765 283.829C530.871 282.971 530.424 281.94 530.424 280.735C530.424 279.531 530.871 278.5 531.765 277.642C532.678 276.785 533.764 276.356 535.023 276.356C536.282 276.356 537.359 276.785 538.253 277.642C539.165 278.5 539.621 279.531 539.621 280.735C539.621 281.94 539.165 282.971 538.253 283.829C537.359 284.686 536.282 285.115 535.023 285.115ZM584.411 292.123L568.863 334.168H562.293L546.745 292.123H553.753L565.359 325.628H565.797L577.403 292.123H584.411ZM609.061 335.044C605.009 335.044 601.515 334.15 598.577 332.361C595.657 330.555 593.403 328.036 591.815 324.806C590.246 321.558 589.461 317.781 589.461 313.474C589.461 309.167 590.246 305.371 591.815 302.087C593.403 298.784 595.611 296.21 598.44 294.367C601.287 292.506 604.608 291.575 608.404 291.575C610.593 291.575 612.756 291.94 614.891 292.67C617.026 293.4 618.97 294.586 620.721 296.229C622.473 297.853 623.869 300.006 624.91 302.689C625.95 305.371 626.47 308.674 626.47 312.598V315.335H594.06V309.751H619.9C619.9 307.379 619.426 305.262 618.477 303.4C617.546 301.539 616.214 300.07 614.48 298.993C612.765 297.917 610.739 297.378 608.404 297.378C605.83 297.378 603.604 298.017 601.724 299.294C599.863 300.554 598.431 302.196 597.427 304.222C596.423 306.247 595.921 308.419 595.921 310.736V314.459C595.921 317.635 596.469 320.326 597.564 322.534C598.677 324.724 600.219 326.394 602.19 327.544C604.161 328.675 606.451 329.241 609.061 329.241C610.758 329.241 612.291 329.004 613.659 328.529C615.046 328.036 616.241 327.306 617.245 326.339C618.249 325.354 619.024 324.131 619.572 322.671L625.813 324.423C625.156 326.54 624.052 328.401 622.501 330.007C620.95 331.595 619.033 332.836 616.752 333.73C614.471 334.606 611.907 335.044 609.061 335.044ZM636.297 334.168V292.123H642.538V298.473H642.976C643.742 296.393 645.129 294.705 647.137 293.409C649.144 292.114 651.407 291.466 653.925 291.466C654.4 291.466 654.993 291.475 655.704 291.493C656.416 291.511 656.954 291.539 657.319 291.575V298.145C657.1 298.09 656.599 298.008 655.814 297.898C655.047 297.771 654.235 297.707 653.378 297.707C651.334 297.707 649.509 298.136 647.903 298.993C646.315 299.833 645.056 301.001 644.126 302.497C643.213 303.975 642.757 305.663 642.757 307.561V334.168H636.297ZM715.344 349.935V327.708H714.796C714.322 328.474 713.647 329.442 712.771 330.609C711.895 331.759 710.645 332.79 709.021 333.703C707.397 334.597 705.234 335.044 702.533 335.044C699.029 335.044 695.936 334.159 693.254 332.389C690.571 330.6 688.473 328.082 686.958 324.834C685.443 321.567 684.686 317.708 684.686 313.255C684.686 308.839 685.443 305.006 686.958 301.758C688.473 298.51 690.58 296.001 693.281 294.23C695.982 292.46 699.102 291.575 702.643 291.575C705.38 291.575 707.543 292.031 709.13 292.944C710.736 293.838 711.959 294.86 712.798 296.01C713.656 297.141 714.322 298.072 714.796 298.802H715.563V292.123H721.804V349.935H715.344ZM703.409 329.241C706.001 329.241 708.19 328.566 709.979 327.215C711.767 325.847 713.127 323.958 714.057 321.549C714.988 319.122 715.453 316.321 715.453 313.145C715.453 310.007 714.997 307.26 714.085 304.906C713.172 302.534 711.822 300.691 710.033 299.377C708.245 298.044 706.037 297.378 703.409 297.378C700.672 297.378 698.391 298.081 696.566 299.486C694.759 300.873 693.4 302.762 692.487 305.152C691.593 307.525 691.146 310.189 691.146 313.145C691.146 316.138 691.602 318.857 692.515 321.303C693.445 323.73 694.814 325.664 696.621 327.106C698.445 328.529 700.708 329.241 703.409 329.241ZM760.126 316.978V292.123H766.587V334.168H760.126V327.051H759.688C758.703 329.186 757.17 331.002 755.09 332.498C753.009 333.976 750.382 334.715 747.206 334.715C744.578 334.715 742.243 334.141 740.199 332.991C738.155 331.823 736.549 330.071 735.381 327.735C734.213 325.381 733.629 322.416 733.629 318.839V292.123H740.089V318.401C740.089 321.467 740.947 323.912 742.662 325.737C744.396 327.562 746.604 328.474 749.287 328.474C750.893 328.474 752.526 328.064 754.186 327.243C755.865 326.421 757.271 325.162 758.402 323.465C759.552 321.768 760.126 319.605 760.126 316.978ZM790.791 335.153C788.127 335.153 785.709 334.652 783.537 333.648C781.366 332.626 779.641 331.157 778.364 329.241C777.086 327.306 776.448 324.971 776.448 322.233C776.448 319.824 776.922 317.872 777.871 316.375C778.82 314.861 780.088 313.675 781.676 312.817C783.264 311.959 785.016 311.32 786.932 310.901C788.866 310.463 790.81 310.116 792.762 309.861C795.317 309.532 797.388 309.286 798.976 309.121C800.582 308.939 801.75 308.638 802.48 308.218C803.228 307.798 803.602 307.068 803.602 306.028V305.809C803.602 303.108 802.863 301.01 801.385 299.513C799.925 298.017 797.708 297.269 794.733 297.269C791.649 297.269 789.231 297.944 787.479 299.294C785.727 300.645 784.495 302.087 783.784 303.619L777.652 301.43C778.747 298.875 780.207 296.886 782.032 295.462C783.875 294.021 785.882 293.017 788.054 292.451C790.244 291.867 792.397 291.575 794.514 291.575C795.864 291.575 797.416 291.739 799.168 292.068C800.938 292.378 802.644 293.026 804.286 294.011C805.947 294.997 807.325 296.484 808.42 298.473C809.515 300.462 810.062 303.127 810.062 306.466V334.168H803.602V328.474H803.273C802.836 329.387 802.106 330.363 801.084 331.403C800.062 332.443 798.702 333.329 797.005 334.058C795.308 334.788 793.237 335.153 790.791 335.153ZM791.777 329.35C794.332 329.35 796.485 328.848 798.237 327.845C800.007 326.841 801.339 325.545 802.233 323.958C803.146 322.37 803.602 320.7 803.602 318.948V313.036C803.328 313.364 802.726 313.665 801.795 313.939C800.883 314.195 799.824 314.423 798.62 314.623C797.434 314.806 796.275 314.97 795.144 315.116C794.03 315.244 793.127 315.353 792.434 315.445C790.755 315.664 789.185 316.02 787.725 316.512C786.284 316.987 785.116 317.708 784.222 318.675C783.346 319.624 782.908 320.919 782.908 322.562C782.908 324.806 783.738 326.503 785.399 327.653C787.078 328.785 789.204 329.35 791.777 329.35ZM828.313 278.108V334.168H821.853V278.108H828.313ZM840.145 334.168V292.123H846.605V334.168H840.145ZM843.43 285.115C842.171 285.115 841.085 284.686 840.173 283.829C839.278 282.971 838.831 281.94 838.831 280.735C838.831 279.531 839.278 278.5 840.173 277.642C841.085 276.785 842.171 276.356 843.43 276.356C844.689 276.356 845.766 276.785 846.66 277.642C847.572 278.5 848.029 279.531 848.029 280.735C848.029 281.94 847.572 282.971 846.66 283.829C845.766 284.686 844.689 285.115 843.43 285.115ZM876.723 292.123V297.597H854.934V292.123H876.723ZM861.284 282.049H867.744V322.124C867.744 323.949 868.009 325.317 868.538 326.23C869.086 327.124 869.779 327.726 870.618 328.036C871.476 328.328 872.379 328.474 873.328 328.474C874.04 328.474 874.624 328.438 875.08 328.365C875.537 328.274 875.902 328.201 876.175 328.146L877.489 333.949C877.051 334.113 876.44 334.277 875.655 334.442C874.87 334.624 873.876 334.715 872.671 334.715C870.847 334.715 869.058 334.323 867.306 333.538C865.573 332.754 864.131 331.558 862.981 329.952C861.85 328.347 861.284 326.321 861.284 323.876V282.049ZM890.601 349.935C889.506 349.935 888.53 349.844 887.672 349.661C886.814 349.497 886.221 349.333 885.893 349.168L887.535 343.475C889.105 343.876 890.491 344.022 891.696 343.913C892.9 343.803 893.968 343.265 894.899 342.298C895.847 341.349 896.714 339.807 897.499 337.672L898.703 334.387L883.155 292.123H890.163L901.769 325.628H902.207L913.813 292.123H920.821L902.974 340.3C902.171 342.471 901.176 344.269 899.99 345.692C898.804 347.134 897.426 348.201 895.857 348.895C894.305 349.588 892.554 349.935 890.601 349.935ZM931.421 334.606C930.071 334.606 928.912 334.122 927.945 333.155C926.978 332.188 926.494 331.029 926.494 329.679C926.494 328.328 926.978 327.17 927.945 326.202C928.912 325.235 930.071 324.752 931.421 324.752C932.772 324.752 933.93 325.235 934.898 326.202C935.865 327.17 936.348 328.328 936.348 329.679C936.348 330.573 936.12 331.394 935.664 332.142C935.226 332.891 934.633 333.493 933.885 333.949C933.155 334.387 932.334 334.606 931.421 334.606ZM29.6104 427.168L16.7997 385.123H23.5883L32.6762 417.314H33.1141L42.0926 385.123H48.9906L57.8595 417.204H58.2975L67.3854 385.123H74.174L61.3633 427.168H55.0127L45.8153 394.868H45.1584L35.961 427.168H29.6104ZM82.7144 427.168V385.123H89.1745V427.168H82.7144ZM85.9992 378.115C84.74 378.115 83.6542 377.686 82.7418 376.829C81.8476 375.971 81.4005 374.94 81.4005 373.735C81.4005 372.531 81.8476 371.5 82.7418 370.642C83.6542 369.785 84.74 369.356 85.9992 369.356C87.2584 369.356 88.3351 369.785 89.2293 370.642C90.1417 371.5 90.5979 372.531 90.5979 373.735C90.5979 374.94 90.1417 375.971 89.2293 376.829C88.3351 377.686 87.2584 378.115 85.9992 378.115ZM107.467 401.875V427.168H101.007V385.123H107.248V391.692H107.795C108.781 389.557 110.277 387.842 112.284 386.546C114.292 385.232 116.883 384.575 120.058 384.575C122.905 384.575 125.396 385.159 127.531 386.327C129.666 387.477 131.327 389.229 132.513 391.583C133.699 393.919 134.292 396.875 134.292 400.452V427.168H127.832V400.89C127.832 397.587 126.975 395.014 125.259 393.17C123.544 391.309 121.19 390.378 118.197 390.378C116.135 390.378 114.292 390.825 112.668 391.72C111.062 392.614 109.793 393.919 108.863 395.634C107.932 397.349 107.467 399.43 107.467 401.875ZM186.062 385.123V390.597H164.273V385.123H186.062ZM170.624 375.049H177.084V415.124C177.084 416.949 177.348 418.317 177.877 419.23C178.425 420.124 179.118 420.726 179.958 421.036C180.816 421.328 181.719 421.474 182.668 421.474C183.379 421.474 183.963 421.438 184.42 421.365C184.876 421.274 185.241 421.201 185.515 421.146L186.828 426.949C186.391 427.113 185.779 427.277 184.994 427.442C184.21 427.624 183.215 427.715 182.011 427.715C180.186 427.715 178.398 427.323 176.646 426.538C174.912 425.754 173.47 424.558 172.321 422.952C171.189 421.347 170.624 419.321 170.624 416.876V375.049ZM212.409 428.044C208.613 428.044 205.283 427.141 202.418 425.334C199.571 423.527 197.344 421 195.738 417.752C194.151 414.503 193.357 410.708 193.357 406.364C193.357 401.985 194.151 398.161 195.738 394.895C197.344 391.628 199.571 389.092 202.418 387.285C205.283 385.479 208.613 384.575 212.409 384.575C216.205 384.575 219.526 385.479 222.373 387.285C225.238 389.092 227.464 391.628 229.052 394.895C230.658 398.161 231.461 401.985 231.461 406.364C231.461 410.708 230.658 414.503 229.052 417.752C227.464 421 225.238 423.527 222.373 425.334C219.526 427.141 216.205 428.044 212.409 428.044ZM212.409 422.241C215.292 422.241 217.664 421.502 219.526 420.024C221.387 418.545 222.765 416.602 223.659 414.193C224.553 411.784 225 409.175 225 406.364C225 403.554 224.553 400.935 223.659 398.508C222.765 396.081 221.387 394.119 219.526 392.623C217.664 391.127 215.292 390.378 212.409 390.378C209.525 390.378 207.153 391.127 205.292 392.623C203.43 394.119 202.053 396.081 201.158 398.508C200.264 400.935 199.817 403.554 199.817 406.364C199.817 409.175 200.264 411.784 201.158 414.193C202.053 416.602 203.43 418.545 205.292 420.024C207.153 421.502 209.525 422.241 212.409 422.241ZM258.293 443.811C255.173 443.811 252.49 443.409 250.245 442.606C248.001 441.822 246.13 440.782 244.634 439.486C243.156 438.209 241.979 436.84 241.103 435.38L246.249 431.767C246.833 432.533 247.572 433.409 248.466 434.395C249.36 435.398 250.583 436.265 252.134 436.995C253.704 437.743 255.757 438.117 258.293 438.117C261.687 438.117 264.489 437.296 266.697 435.654C268.905 434.011 270.009 431.438 270.009 427.934V419.394H269.461C268.987 420.16 268.312 421.109 267.436 422.241C266.578 423.354 265.337 424.349 263.713 425.224C262.107 426.082 259.936 426.511 257.198 426.511C253.804 426.511 250.756 425.708 248.056 424.102C245.373 422.496 243.247 420.16 241.678 417.095C240.126 414.029 239.351 410.306 239.351 405.926C239.351 401.62 240.108 397.869 241.623 394.676C243.137 391.464 245.245 388.982 247.946 387.23C250.647 385.46 253.767 384.575 257.308 384.575C260.045 384.575 262.217 385.031 263.823 385.944C265.447 386.838 266.688 387.86 267.545 389.01C268.421 390.141 269.096 391.072 269.571 391.802H270.228V385.123H276.469V428.372C276.469 431.986 275.648 434.924 274.005 437.187C272.381 439.468 270.191 441.137 267.436 442.196C264.698 443.273 261.651 443.811 258.293 443.811ZM258.074 420.708C260.665 420.708 262.855 420.115 264.644 418.929C266.432 417.742 267.792 416.036 268.722 413.81C269.653 411.583 270.118 408.919 270.118 405.817C270.118 402.788 269.662 400.114 268.75 397.796C267.837 395.479 266.487 393.663 264.698 392.349C262.91 391.035 260.702 390.378 258.074 390.378C255.337 390.378 253.056 391.072 251.231 392.459C249.424 393.846 248.065 395.707 247.152 398.043C246.258 400.379 245.811 402.97 245.811 405.817C245.811 408.737 246.267 411.319 247.18 413.563C248.11 415.79 249.479 417.542 251.286 418.819C253.11 420.078 255.373 420.708 258.074 420.708ZM305.923 428.044C301.871 428.044 298.377 427.15 295.439 425.361C292.519 423.555 290.265 421.036 288.677 417.806C287.108 414.558 286.323 410.781 286.323 406.474C286.323 402.167 287.108 398.371 288.677 395.087C290.265 391.784 292.473 389.21 295.302 387.367C298.149 385.506 301.47 384.575 305.266 384.575C307.455 384.575 309.618 384.94 311.753 385.67C313.888 386.4 315.832 387.586 317.584 389.229C319.335 390.853 320.731 393.006 321.772 395.689C322.812 398.371 323.332 401.674 323.332 405.598V408.335H290.922V402.751H316.762C316.762 400.379 316.288 398.262 315.339 396.4C314.408 394.539 313.076 393.07 311.342 391.993C309.627 390.917 307.601 390.378 305.266 390.378C302.693 390.378 300.466 391.017 298.587 392.294C296.725 393.554 295.293 395.196 294.289 397.222C293.285 399.247 292.783 401.419 292.783 403.736V407.459C292.783 410.635 293.331 413.326 294.426 415.534C295.539 417.724 297.081 419.394 299.052 420.544C301.023 421.675 303.313 422.241 305.923 422.241C307.62 422.241 309.153 422.004 310.521 421.529C311.908 421.036 313.103 420.306 314.107 419.339C315.111 418.354 315.886 417.131 316.434 415.671L322.675 417.423C322.018 419.54 320.914 421.401 319.363 423.007C317.812 424.595 315.896 425.836 313.614 426.73C311.333 427.606 308.769 428.044 305.923 428.044ZM351.444 385.123V390.597H329.655V385.123H351.444ZM336.006 375.049H342.466V415.124C342.466 416.949 342.73 418.317 343.26 419.23C343.807 420.124 344.501 420.726 345.34 421.036C346.198 421.328 347.101 421.474 348.05 421.474C348.762 421.474 349.346 421.438 349.802 421.365C350.258 421.274 350.623 421.201 350.897 421.146L352.211 426.949C351.773 427.113 351.161 427.277 350.377 427.442C349.592 427.624 348.597 427.715 347.393 427.715C345.568 427.715 343.78 427.323 342.028 426.538C340.294 425.754 338.853 424.558 337.703 422.952C336.571 421.347 336.006 419.321 336.006 416.876V375.049ZM368.525 401.875V427.168H362.065V371.108H368.525V391.692H369.073C370.058 389.521 371.536 387.796 373.507 386.519C375.496 385.223 378.142 384.575 381.445 384.575C384.31 384.575 386.82 385.15 388.973 386.3C391.126 387.431 392.796 389.174 393.982 391.528C395.187 393.864 395.789 396.838 395.789 400.452V427.168H389.329V400.89C389.329 397.55 388.462 394.968 386.728 393.143C385.013 391.3 382.631 390.378 379.584 390.378C377.467 390.378 375.569 390.825 373.89 391.72C372.23 392.614 370.916 393.919 369.949 395.634C369 397.349 368.525 399.43 368.525 401.875ZM425.236 428.044C421.184 428.044 417.69 427.15 414.752 425.361C411.832 423.555 409.578 421.036 407.99 417.806C406.421 414.558 405.636 410.781 405.636 406.474C405.636 402.167 406.421 398.371 407.99 395.087C409.578 391.784 411.786 389.21 414.615 387.367C417.462 385.506 420.783 384.575 424.579 384.575C426.768 384.575 428.931 384.94 431.066 385.67C433.201 386.4 435.145 387.586 436.897 389.229C438.648 390.853 440.044 393.006 441.085 395.689C442.125 398.371 442.645 401.674 442.645 405.598V408.335H410.235V402.751H436.075C436.075 400.379 435.601 398.262 434.652 396.4C433.721 394.539 432.389 393.07 430.655 391.993C428.94 390.917 426.914 390.378 424.579 390.378C422.006 390.378 419.779 391.017 417.9 392.294C416.038 393.554 414.606 395.196 413.602 397.222C412.598 399.247 412.096 401.419 412.096 403.736V407.459C412.096 410.635 412.644 413.326 413.739 415.534C414.852 417.724 416.394 419.394 418.365 420.544C420.336 421.675 422.626 422.241 425.236 422.241C426.933 422.241 428.466 422.004 429.834 421.529C431.221 421.036 432.416 420.306 433.42 419.339C434.424 418.354 435.199 417.131 435.747 415.671L441.988 417.423C441.331 419.54 440.227 421.401 438.676 423.007C437.125 424.595 435.209 425.836 432.927 426.73C430.646 427.606 428.082 428.044 425.236 428.044ZM452.472 427.168V385.123H458.713V391.473H459.151C459.917 389.393 461.304 387.705 463.312 386.409C465.319 385.114 467.582 384.466 470.1 384.466C470.575 384.466 471.168 384.475 471.88 384.493C472.591 384.511 473.13 384.539 473.495 384.575V391.145C473.276 391.09 472.774 391.008 471.989 390.898C471.223 390.771 470.411 390.707 469.553 390.707C467.509 390.707 465.684 391.136 464.078 391.993C462.491 392.833 461.231 394.001 460.301 395.497C459.388 396.975 458.932 398.663 458.932 400.561V427.168H452.472Z" fill="white"/>
</g>
<defs>
<clipPath id="clip0_1087_28210">
<rect width="1024" height="339" fill="white"/>
</clipPath>
</defs>
</svg>
