<svg width="1024" height="1024" viewBox="0 0 1024 1024" fill="none" xmlns="http://www.w3.org/2000/svg">
<path d="M499.049 0L486.087 1.14446L460.192 2.34917L434.302 5.84283L421.382 8.22815L408.413 10.5773L396.637 12.9687L383.717 16.5105L360.171 23.546L336.625 30.6296L313.079 40.0565L290.732 50.6278L268.384 62.3556L257.711 68.2888L247.182 74.1737L236.556 81.2092L225.979 87.0942L205.981 102.412L196.5 109.442L185.97 116.525L168.315 132.988L150.655 150.648L141.228 158.877L132.994 168.303L124.765 176.538L116.483 185.964L102.364 205.963L87.052 225.973L74.1798 247.176L68.2466 257.795L62.3556 268.372L50.5856 290.72L40.0083 313.067L31.7801 336.613L23.546 360.159L16.4623 383.699L10.5773 408.443L5.83681 434.333L2.29497 460.222L1.15051 486.111L0 512V524.921L1.14446 537.889L2.29497 564.929L5.83681 589.667L8.23417 602.636L10.5773 615.557L12.9687 627.333L16.4623 640.253L23.546 663.841L31.7801 688.538L40.0083 710.885L50.5856 734.479L62.3556 755.628L68.2466 767.404L74.1798 777.975L81.2153 788.552L87.052 797.979L102.364 817.983L109.448 828.561L116.483 837.987L132.994 856.841L150.655 874.502L158.889 882.73L168.315 890.964L176.544 899.192L185.97 907.475L205.975 922.787L225.979 936.906L247.182 949.826L257.711 955.711L268.384 962.795L290.732 973.372L313.079 983.944L336.631 993.37L360.171 1001.6L383.723 1007.49L408.413 1013.37L434.302 1018.07L460.192 1021.61L486.087 1024H533.179L553.177 1022.8L573.235 1020.46L583.764 1019.26L593.191 1018.07L613.189 1014.57L632.049 1009.83L652.053 1005.15L670.865 999.261L688.574 992.178L707.379 985.142L724.986 978.059L742.695 969.83L760.308 960.404L776.812 951.019L793.329 940.448L808.593 929.822L823.91 918.052L839.174 906.276L853.293 893.307L867.46 880.387L881.58 866.268L894.548 853.299L907.469 837.987L919.239 822.724L929.864 807.406L941.592 792.094L951.019 775.632L961.596 757.977L969.873 741.466L978.107 723.805L986.335 706.15L993.37 687.339H921.588L932.207 712.084L821.561 873.303H216.558L97.6715 725.052L358.972 50.6278L507.278 403.751L648.553 47.092L783.896 363.695H1002.79L995.756 344.841L988.678 324.885L981.643 306.031L972.21 288.376L963.982 269.523L953.356 251.862L942.779 235.4L932.201 218.937L919.233 202.427L913.348 194.193L907.463 185.964L894.542 170.653L880.423 156.533L866.256 142.414L850.992 128.301L835.674 115.333L820.411 103.605L803.846 91.7865L787.39 80.0105L769.729 69.4874L752.116 60.0124L734.461 50.6278L715.607 42.3996L696.796 34.1233L687.369 30.6296L677.984 27.0396L657.932 21.1968L637.934 15.3118L617.924 10.5773L596.721 7.08366L576.723 3.54184L555.52 2.34315L533.173 0H499.049ZM469.624 719.119H753.272L608.503 368.435L469.624 719.119ZM178.893 719.119H462.589L317.819 368.435L178.893 719.119ZM795.624 391.933L805.099 413.136H1014.57L1009.88 391.933H795.624ZM816.827 441.368L825.103 462.571H1021.65L1019.31 441.368H816.827ZM838.03 490.803L846.306 512H1024V490.797H838.03V490.803ZM858.028 540.281L867.46 561.435H1021.66L1024 540.281H858.034H858.028ZM879.231 589.673L888.657 610.87H1014.57L1018.12 589.667H879.231V589.673ZM900.433 639.102L909.812 659.101H1002.8L1008.69 639.102H900.433Z" fill="#E50113"/>
</svg>
