<?xml version="1.0" encoding="utf-8" ?><svg xmlns="http://www.w3.org/2000/svg" xmlns:xlink="http://www.w3.org/1999/xlink" width="500" height="500" viewBox="0 0 500 500"><path fill="#002A63" d="M195.234 223.264C195.165 220.688 194.433 217.033 196.474 215.061C199.559 212.079 205.058 213.412 207.26 216.757C207.064 219.917 207.471 219.066 207.974 221.756C208.016 221.979 207.55 224.828 207.664 226.224C206.001 226.29 204.461 226.118 203.978 227.996C204.155 228.664 204.018 228.732 204.468 228.96C206.125 229.799 208.959 229.627 210.58 230.157C212.708 230.853 216.385 234.496 218.734 233.88C222.34 232.934 223.436 225.834 225.73 224.719L225.644 224.201L227.059 223.793C228.138 223.645 229.376 223.278 230.445 223C231.327 222.996 232.208 222.963 233.087 222.9L233.465 223.288C231.608 224.95 229.318 225.521 227.407 226.709C226.129 227.504 225.378 232.183 225.023 233.878C224.977 234.978 224.475 236.478 224.004 237.471C221.54 242.659 215.069 240.572 213.179 241.223C213.289 242.778 213.724 246.22 213.498 247.692C213.435 248.102 212.212 248.49 211.742 248.638L211.533 248.703C211.328 249.726 213.183 251.827 213.698 253.874C215.376 260.54 218.761 268.634 220.084 275.248L220.154 275.601C221.208 275.523 222.368 275.357 223.427 275.229C223.2 277.305 223.253 278.982 223.288 281.056C217.971 280.918 211.927 280.982 206.62 281.112L206.723 275.536C207.986 275.502 209.171 275.952 209.947 274.967C210.023 274.199 210.137 273.841 209.8 273.149C208.876 272.82 202.167 272.869 201.48 273.337C201.036 274.281 201.037 274.338 200.93 275.391C201.843 276.007 202.492 275.161 203.693 275.814C204.063 276.542 204.017 280.03 204.047 281.074C199.936 280.869 194.909 280.977 190.762 281.044C190.737 279.458 190.44 276.719 191.287 275.578C192.372 275.475 192.881 275.796 193.641 275.155C194.373 272.671 198.496 259.912 198.478 258.428C198.242 258.294 197.361 257.742 197.323 257.557C196.752 254.762 198.464 250.179 196.444 247.864C195.525 247.499 194.179 247.703 192.962 247.624C190.649 249.077 188.063 250.221 185.495 249.006C179.818 246.32 184.945 240.13 187.195 237.282C189.953 233.791 190.764 232.013 194.816 230.493C194.622 230.228 194.435 229.958 194.255 229.684C192.671 227.254 192.273 224.722 195.234 223.264ZM196.652 224.546C196.15 225.692 195.9 227.071 196.533 228.211C196.871 227.692 197.204 227.168 197.531 226.641C197.499 225.531 197.335 225.652 196.652 224.546ZM203.016 268.01L205.943 268.011C206.889 268.014 207.342 268.161 208.078 267.747C207.802 266.669 206.047 260.389 205.541 259.911C204.555 262.451 203.879 265.393 203.016 268.01Z"/><path fill="#114078" d="M230.445 223C231.327 222.996 232.208 222.963 233.087 222.9L233.465 223.288C231.608 224.95 229.318 225.521 227.407 226.709C226.129 227.504 225.378 232.183 225.023 233.878C224.558 229.988 224.647 228.787 226.888 225.619L226.783 225.357L226.33 225.819L226.033 225.792L226.277 225.091L225.73 224.719L225.644 224.201L227.059 223.793C228.138 223.645 229.376 223.278 230.445 223Z"/><path fill="#05376E" d="M195.234 223.264C195.897 224.28 195.917 223.693 196.652 224.546C196.15 225.692 195.9 227.071 196.533 228.211C196.452 229.729 195.068 229.712 194.816 230.493C194.622 230.228 194.435 229.958 194.255 229.684C192.671 227.254 192.273 224.722 195.234 223.264Z"/><path fill="#002A63" d="M119.597 260.068C126.226 259.879 129.349 262.39 131.325 268.556C133.289 262.613 136.966 259.075 143.794 260.552C144.692 260.746 145.657 261.969 146.641 261.957C147.705 259.932 150.301 260.454 152.295 260.519C152.225 263.685 152.272 266.719 152.156 269.932C150.233 269.983 148.156 269.944 146.219 269.944C145.76 268.309 145.369 265.958 143.342 265.723C141.252 265.481 140.319 268.783 140.292 270.314C140.251 272.555 140.623 273.27 142.074 274.821C145.5 276.031 146.574 275.018 149.483 273.21C150.554 274.728 151.677 276.209 152.849 277.651C150.43 279.638 149.325 280.241 146.399 281.162C141.42 282.459 135.23 281.303 132.789 276.333C132.269 275.276 131.791 273.682 131.034 272.849C126.465 273.038 121.892 273.058 117.322 272.908C120.579 277.585 122.986 276.543 127.558 274.254C128.847 275.506 130.671 276.614 130.453 278.426C129.327 280.15 126.331 281.104 124.369 281.531C118.111 282.913 111.033 280.323 109.855 273.328C108.587 265.797 112.001 261.134 119.597 260.068ZM121.938 268.864C123.018 268.859 122.895 269.031 123.627 268.527C124.051 266.389 121.649 265.742 119.986 265.733C118.938 266.282 118.829 266.389 118.064 267.294C117.629 269.324 120.605 268.884 121.938 268.864Z"/><path fill="#002A63" d="M337.65 252.498C343.794 252.664 350.173 252.084 356.232 252.766C359.619 253.147 362.591 255.303 362.896 258.776C363.225 262.513 362.367 263.791 359.501 265.719C364.69 268.711 365.896 273.048 362.617 278.267C361.081 279.743 358.726 280.791 356.636 280.773C352.335 280.736 341.556 281.819 337.827 280.736C337.548 279.55 337.297 276.408 338.281 275.627C338.95 275.616 339.425 275.69 339.979 275.339C340.24 273.545 340.201 259.945 339.688 258.28C339.126 258.153 338.96 258.099 338.422 257.89C337.28 256.499 337.613 254.345 337.65 252.498ZM353.818 275.03C354.935 273.56 355.931 271.33 354.175 269.889C352.447 268.471 350.645 268.715 348.555 268.704C348.622 270.836 348.731 273.687 348.537 275.796C350.206 275.601 352.314 275.537 353.818 275.03ZM348.505 264.025C350.287 263.969 351.261 263.951 353.007 263.526C354.004 261.814 354.234 259.271 352.088 258.433C351.039 258.023 349.712 258.024 348.595 257.956C348.59 259.979 348.56 262.002 348.505 264.025Z"/><path fill="#002A63" d="M70.9375 260.321C74.2109 259.964 75.6317 260.28 78.321 262.165L78.6092 262.37C79.3689 262.269 80.7232 261.223 81.5915 260.728C83.2012 259.809 85.9622 260.073 87.6889 260.502C94.1599 262.112 91.6358 273.15 92.6578 275.033C93.0761 275.174 93.6671 275.327 93.9415 275.652C94.5769 276.404 94.5018 279.968 94.5302 281.013C91.3187 280.938 87.0296 280.884 83.8853 281.134C84.0748 277.239 84.0554 272.918 83.9245 269.005C83.8817 267.728 83.4654 266.653 82.2211 266.208C80.1152 266.602 80.4885 268.283 80.3689 270.069C80.2532 271.797 79.9289 274.037 81.1384 275.362C81.7723 275.472 82.0787 275.448 82.563 275.852C82.9136 276.923 82.7716 279.728 82.7987 281.084L80.1224 281.022C77.4055 281.023 74.7701 280.974 72.0634 281.242C72.3486 277.483 72.1922 273.621 72.2406 269.85C72.2625 268.152 71.0631 264.457 69.0913 266.887C68.8341 268.523 68.4102 274.012 69.1077 275.405C69.895 275.972 69.6019 275.802 70.7064 275.863C71.5758 277.05 71.1288 279.557 71.0125 281.13C67.5332 280.883 62.4003 281.043 58.8253 281.116C58.8568 280.219 58.7182 276.186 59.3079 275.564C59.487 275.375 59.9911 275.814 60.63 275.099C60.6345 272.965 60.7691 268.614 60.4041 266.683C60.0555 266.366 59.6797 266.124 59.2776 265.879C58.8583 264.587 58.846 262.137 58.7777 260.677C60.6713 260.552 64.6401 260.455 66.6066 260.796C67.2888 260.914 66.8811 262.123 67.688 262.593C68.7235 261.74 69.6939 260.861 70.9375 260.321Z"/><path fill="#002A63" d="M417.686 250.478C421.025 250.396 424.646 250.466 428.019 250.452C427.939 257.122 427.907 268.204 428.076 275.246C428.179 275.374 428.283 275.501 428.387 275.629C429.026 275.534 429.281 275.43 429.894 275.614C430.225 276.745 429.995 279.294 430.214 281.045C427.261 280.996 423.33 281.205 420.525 280.929C418.965 279.613 418.15 280.707 416.153 281.422C400.303 282.823 401.243 254.899 419.555 261.233C419.563 260.33 419.607 259.212 419.55 258.335C419.363 255.489 418.941 256.546 418.009 255.696C417.599 254.287 417.714 252.051 417.686 250.478ZM417.898 275.274C420.524 272.362 420.687 265.57 415.796 265.688C413.268 268.586 412.913 276.676 417.898 275.274Z"/><path fill="#002A63" d="M154.261 250.318C157.321 250.525 161.169 250.463 164.255 250.444C164.235 254.456 164.255 258.469 164.314 262.48C166.341 260.265 168.739 259.971 171.609 259.957C180.327 259.912 176.588 273.654 178.044 275.459C178.751 275.556 178.795 275.525 179.426 275.829C179.702 276.615 179.637 279.932 179.672 281.061C176.605 280.912 171.911 280.951 168.877 281.143C168.833 278.893 168.848 276.642 168.921 274.393C168.909 272.175 169.384 266.152 166.285 266.056C163.503 267.427 164.015 272.934 164.261 275.523L167.255 275.554C167.206 277.366 167.249 279.277 167.262 281.098C163.04 280.942 158.46 281.017 154.228 281.053C154.201 280.533 154.178 280.012 154.159 279.492C154.084 277.415 154.031 276.593 155.545 275.051C156.102 272.932 156.213 257.516 155.523 256.177C154.987 256.058 154.869 256.035 154.366 255.824C154.096 254.815 153.886 251.256 154.261 250.318Z"/><path fill="#002A63" d="M10.9784 252.499L35.5351 252.482C35.474 255.603 35.4809 258.726 35.5559 261.847C33.0417 261.728 30.7818 261.738 28.2746 261.76C28.1903 260.618 28.1266 259.475 28.0836 258.33C25.9453 258.14 24.112 258.02 21.9673 257.96C22.1058 260.078 22.0522 262.725 22.066 264.885C24.4708 264.718 27.1697 265.005 29.7993 264.823L29.8792 270.179L29.7568 270.366C28.9475 270.764 23.2863 270.51 21.9915 270.484C22.0876 272.018 22.0532 273.983 22.0674 275.553C23.4078 275.508 24.8701 275.525 26.2219 275.514L26.2712 281.076C21.1951 281.01 16.1185 280.995 11.0421 281.033C11.0046 279.571 10.666 276.588 11.4588 275.631C11.9841 275.545 12.2797 275.501 12.8044 275.486L13.2273 275.476C13.5724 274.977 13.308 260.378 13.3055 258.349L12.9761 258.057C12.2214 258.08 11.8279 258.166 11.1535 257.826C10.8656 256.721 10.972 253.794 10.9784 252.499Z"/><path fill="#002A63" d="M273.203 260.095C276.26 260.187 278.742 260.618 281.293 262.613C285.633 266.008 286.424 273.708 282.827 277.896C280.682 280.395 277.739 281.42 274.516 281.637C271.329 281.539 268.894 281.287 266.242 279.209C260.382 274.618 261.111 264.723 267.958 261.419C269.942 260.461 271.076 260.312 273.203 260.095ZM274.327 276.133C277.564 273.702 277.591 266.828 273.261 265.416C270.15 268.115 269.57 275.371 274.327 276.133Z"/><path fill="#002A63" d="M375.846 260.074C378.717 260.195 381.249 260.629 383.668 262.349C388.359 265.66 389.018 273.384 385.487 277.742C383.366 280.36 380.579 281.381 377.346 281.652C374.529 281.591 372.274 281.386 369.798 279.822C367.485 278.376 365.876 276.036 365.354 273.359C363.855 265.677 368.476 261.031 375.846 260.074ZM377.096 276.2C380.168 273.58 380.48 266.888 375.993 265.426C373.011 268.124 372.095 275.191 377.096 276.2Z"/><path fill="#002A63" d="M440.967 260.102C444.304 260.036 447.903 260.875 450.09 263.589C452.502 266.583 452.044 269.458 451.652 272.964C447.35 273.076 442.807 273.002 438.487 272.999C441.316 277.517 444.436 276.517 448.543 274.085C449.414 275.191 450.582 276.36 451.56 277.397C451.878 278.181 451.866 277.799 451.64 278.58C450.109 280.359 446.329 281.427 443.797 281.813C433 283.459 426.962 271.922 433.035 263.567C434.784 261.161 437.943 260.386 440.967 260.102ZM438.492 268.772C439.799 268.843 442.245 269.041 443.439 268.907C444.468 268.743 444.309 268.937 444.857 268.326C444.69 266.003 442.514 265.664 440.633 265.773C439.626 266.727 439.201 267.588 438.492 268.772Z"/><path fill="#002A63" d="M46.1606 260.082C49.4556 259.841 53.428 260.825 55.5259 263.522C57.7878 266.431 57.5173 269.641 57.1382 273.04C54.9959 273.019 45.6932 272.654 44.4317 273.449L44.4364 273.98C46.5316 277.384 51.3479 275.585 54.0126 274.068L56.5202 277.048C56.7756 277.468 57.2485 278.362 56.7692 278.76C52.6785 282.156 45.0429 282.827 40.7382 280.004C38.3425 278.4 36.7242 275.87 36.2729 273.023C35.0794 265.857 39.0026 260.951 46.1606 260.082ZM43.781 268.762C45.0831 268.682 46.2505 268.589 47.5595 268.638C48.7406 268.562 49.0252 268.733 49.9156 268.13C50.362 266.348 48.2767 265.75 46.8644 265.701C45.1199 266.491 44.8494 267.126 43.781 268.762Z"/><path fill="#002A63" d="M476.942 260.097C478.353 260.159 481.348 261.064 482.158 260.986C484.368 260.773 486.295 260.454 488.699 260.493C488.711 263.094 488.699 265.694 488.663 268.295C487.184 268.208 485.751 268.265 484.271 268.297C486.42 270.174 488.665 271.397 489.089 274.413C489.892 280.139 483.064 282.878 478.453 281.019C477.527 280.646 475.995 279.332 475.369 279.396L474.854 280.353L474.82 280.76C474.181 281.139 470.795 281.105 469.785 281.149C469.726 278.599 469.689 276.048 469.672 273.497C471.555 273.423 473.374 273.478 475.254 273.52C476.457 275.235 478.012 276.697 480.546 275.737C480.929 275.592 480.852 275.452 480.964 275.048C479.737 272.936 470.661 273.077 470.092 267.774C469.509 262.346 471.954 260.62 476.942 260.097ZM482.661 268.128L482.986 267.64C482.515 266.021 480.087 265.327 478.545 265.229L478.223 266.125C479.075 267.677 480.99 267.809 482.661 268.128Z"/><path fill="#002A63" d="M313.663 260.102C316.879 260.271 316.946 260.985 319.669 262L320.168 260.886C321.185 260.174 324.055 260.479 325.484 260.509L325.512 268.212C321.32 267.738 320.806 269.432 318.248 265.713C317.778 265.029 315.066 265.072 314.307 266.41C315.667 268.458 324.909 268.908 325.706 273.637C326.558 278.7 323.966 280.383 319.623 281.516C318.282 281.541 316.316 281.453 314.989 281.068C314.233 280.849 312.933 279.527 312.264 279.426C312.208 280.191 312.292 280.243 311.944 280.884C310.688 281.181 307.936 281.075 306.517 281.068C306.458 278.449 306.452 275.83 306.499 273.211C308.273 273.213 310.15 273.405 311.926 273.552C312.367 274.092 312.998 274.927 313.596 275.273C314.555 275.827 317.173 276.543 317.745 275.291C316.506 272.897 307.218 273.099 306.765 267.397C306.353 262.215 308.965 260.609 313.663 260.102Z"/><path fill="#002A63" d="M293.086 260.09C296.058 260.318 296.182 260.621 298.799 262.185C299.711 261.915 298.715 261.79 299.499 260.713C300.954 260.36 303.037 260.467 304.59 260.476C304.733 263.25 304.754 265.506 304.72 268.277C302.878 268.289 301.036 268.266 299.194 268.206C298.383 266.256 296.139 264.189 294.144 265.786L294.091 266.325C296.098 269.008 303.697 268.3 305.09 274.089C305.425 275.506 305.15 276.999 304.332 278.203C302.902 280.348 301.078 281.007 298.742 281.523C297.657 281.534 296.785 281.552 295.707 281.34C294.435 281.09 292.438 279.579 291.393 279.61L290.971 280.802C290.109 281.218 286.877 281.059 285.75 281.053C285.539 278.219 285.633 276.303 285.784 273.507L291.203 273.5C292.596 275.05 293.62 276.271 296.032 275.886C296.684 275.782 296.791 275.527 297.015 275.044C295.639 272.722 287.008 273.769 286.009 267.385C285.734 265.73 286.188 264.036 287.253 262.739C288.858 260.79 290.756 260.363 293.086 260.09Z"/><path fill="#002A63" d="M231.89 260.306C236.586 259.815 236.249 261.585 238.588 261.998C239.637 259.754 242.015 260.463 244.253 260.475C244.334 263.568 244.241 266.939 244.213 270.052C242.32 269.957 240.187 270.012 238.273 270.021C237.963 268.981 237.456 266.581 236.454 266.178C231.736 264.279 230.704 274.739 235.258 275.393C237.425 275.705 238.898 274.808 240.676 273.689C242.428 273.876 243.886 276.309 244.857 277.649C242.812 279.346 241.052 280.383 238.376 281.144C227.456 284.246 219.664 273.893 225.177 264.263C226.501 261.951 229.254 260.786 231.89 260.306Z"/><path fill="#002A63" d="M104.71 254.547C105.75 255.506 104.837 259.574 105.499 260.614C106.677 260.566 107.854 260.527 109.032 260.495L109.024 266.089L105.047 265.972C105.008 268.32 104.815 273.708 105.305 275.756C106.382 276.415 108.089 275.854 109.362 275.586C108.511 280.721 110.635 281.616 104.123 281.741C103.323 281.706 102.525 281.634 101.732 281.526C95.0337 280.591 98.529 267.836 97.2242 266.087C96.4663 266.034 96.1424 266.081 95.5051 265.662C94.8375 263.986 94.2569 261.867 96.2357 260.875C98.6009 259.689 96.9759 259.015 97.6016 257.377C99.225 255.937 102.533 255.192 104.71 254.547Z"/><path fill="#002A63" d="M467.373 259.523C468.392 259.51 468.006 259.334 468.677 259.809C469.504 261.603 468.924 265.137 468.728 267.213C464.184 267.284 462.315 269.412 463.086 274.154C463.437 276.314 463.962 274.892 464.999 275.893C465.331 277.34 465.263 279.537 465.277 281.086C461.783 280.994 456.499 281.235 453.376 280.937C453.34 280.3 453.185 277.543 453.331 277.166C453.91 275.672 455.469 274.757 455.314 272.661C455.19 270.984 455.696 267.266 454.617 266.099C452.513 265.319 453.323 262.537 453.46 260.504C455.611 260.514 458.689 260.247 460.801 260.632C461.402 260.741 461.829 261.711 462.139 262.291L462.302 262.603L462.706 262.473C464.003 260.556 464.767 260.138 467.035 259.6L467.373 259.523Z"/><path fill="#002A63" d="M260.194 259.566C261.294 259.503 260.907 259.311 261.542 259.843C262.001 261.712 261.686 264.991 261.57 267.037C260.11 267.262 258.74 267.401 257.418 268.084C255.761 268.941 255.271 274.141 256.086 275.41C256.612 275.485 257.02 275.553 257.541 275.663C258.047 276.441 258.02 279.944 258.066 281.055C254.307 280.993 249.779 281.164 246.172 280.938C246.094 277.26 245.625 277.575 247.825 274.813C248.008 273.125 248.311 267.611 247.524 266.272C246.86 266.108 246.836 266.137 246.269 265.775C245.857 264.354 246.365 262.685 245.893 260.464C248.255 260.565 251.248 260.281 253.599 260.581C254.198 260.657 254.749 261.952 255.094 262.597C255.748 262.339 256.455 261.189 256.915 260.57C258.261 260.048 258.75 259.859 260.194 259.566Z"/><path fill="#002A63" d="M402.771 259.516C403.18 259.488 404.137 259.427 404.234 259.986C404.549 261.812 404.572 264.678 404.235 266.465C403.703 268.178 401.386 267.383 400.022 267.979C398.176 268.784 397.973 273.432 398.832 274.903C401.204 275.991 400.658 278.685 400.703 281.062C397.01 280.917 393.004 281.004 389.284 281.02C388.772 280.367 388.713 276.329 389.298 275.642C389.451 275.463 390.078 275.751 390.724 275C390.767 273.12 391.129 267.637 390.37 266.207C389.694 266.013 389.742 266.029 389.246 265.526C388.622 263.793 388.853 262.406 388.912 260.535C391.566 260.534 394.221 260.548 396.875 260.577C397.189 261.401 397.503 262.425 397.79 263.276C399.511 260.616 399.819 260.37 402.771 259.516Z"/><path fill="#114078" d="M230.006 207.88C230.469 207.946 231.68 208.131 232.093 208.099C234.911 207.88 235.146 206.584 237.439 208.68C238.146 209.703 238.364 210.429 238.607 211.671C238.439 213.75 238.333 213.584 236.572 215.235C236.023 215.252 236.263 215.334 235.847 215.01L235.586 214.175L235.136 214.11C234.951 214.297 233.528 215.858 233.548 215.842C233.263 216.252 233.068 216.572 232.805 216.997C233.044 218.506 233.001 216.941 234.071 218.093C233.99 218.755 234.139 218.471 233.682 218.99C233.329 218.96 232.977 218.934 232.735 218.823C231.856 218.421 231.572 220.351 230.216 220.586C228.981 219.699 228.916 217.375 228.728 215.948C227.273 215.862 226.57 216.083 225.789 214.824C225.742 213.772 226.029 213.301 226.422 212.291C226.112 209.765 228.025 208.874 230.006 207.88Z"/><path fill="#05376E" d="M226.422 212.291C229.342 210.893 228.405 213.925 231.683 212.409C232.766 212.833 232.65 213.807 232.728 214.882C232.995 215.197 233.274 215.538 233.548 215.842C233.263 216.252 233.068 216.572 232.805 216.997C233.044 218.506 233.001 216.941 234.071 218.093C233.99 218.755 234.139 218.471 233.682 218.99C233.329 218.96 232.977 218.934 232.735 218.823C231.856 218.421 231.572 220.351 230.216 220.586C228.981 219.699 228.916 217.375 228.728 215.948C227.273 215.862 226.57 216.083 225.789 214.824C225.742 213.772 226.029 213.301 226.422 212.291Z"/><path fill="#114078" d="M218.363 215.688C218.081 213.756 218.143 212.724 219.075 210.211C219.717 208.478 222.972 203.038 225.532 206.752C225.765 207.089 225.446 208.172 225.194 208.629C224.095 209.509 223.144 209.32 221.774 209.204L221.407 209.17L221.273 209.477L221.737 210C221.733 210.617 220.335 211.492 219.526 212.342C219.223 213.489 219.394 213.326 219.747 214.656L218.686 214.459C218.575 214.87 218.465 215.274 218.363 215.688Z"/><path fill="#114078" d="M218.363 215.688C218.465 215.274 218.575 214.87 218.686 214.459L219.747 214.656C220.84 214.957 222.678 215.703 223.371 216.626C223.881 218.406 222.773 219.213 221.629 220.466L220.741 221.034C219.298 219.31 218.852 217.797 218.363 215.688Z"/><path fill="#A1ADC3" fill-opacity="0.98823529" d="M235.847 215.01C236.263 215.334 236.023 215.252 236.572 215.235C238.333 213.584 238.439 213.75 238.607 211.671C239.472 217.302 238.611 220.27 233.465 223.288L233.087 222.9C232.208 222.963 231.327 222.996 230.445 223C230.68 222.953 230.914 222.903 231.148 222.851C234.381 222.116 238.682 218.986 237.718 215.221L237.438 215.111C236.919 215.568 236.569 215.869 236.009 216.288L235.786 216.052L235.847 215.01Z"/><path fill="#A1ADC3" fill-opacity="0.95686275" d="M230.006 207.88C231.294 207.802 233.153 207.862 234.17 207.221L234.372 206.757C233.228 204.375 228.809 205.41 226.274 204.607C227.032 204.219 228.409 204.27 229.28 204.275C232.863 204.296 235.661 205.401 237.439 208.68C235.146 206.584 234.911 207.88 232.093 208.099C231.68 208.131 230.469 207.946 230.006 207.88Z"/><path fill="#020302" fill-opacity="0.3137255" d="M225.489 216.794L226.19 217.09C226.67 217.769 227.082 220.763 227.391 221.956C224.698 220.773 225.073 219.315 225.489 216.794Z"/><path fill="#A1ADC3" fill-opacity="0.98039216" d="M220.741 221.034L221.629 220.466C223.575 222.583 224.347 222.816 227.059 223.793L225.644 224.201C223.721 222.808 222.85 223.455 220.741 221.034Z"/><path fill="#020302" fill-opacity="0.1882353" d="M70.2705 270.679L70.6077 270.567L70.8404 270.829L70.6349 272.273C70.1771 271.641 70.3289 271.599 70.2705 270.679Z"/></svg>