<svg width="479" height="78" viewBox="0 0 479 78" fill="none" xmlns="http://www.w3.org/2000/svg">
<path d="M184.298 18.9937C184.229 16.4177 183.497 12.7627 185.538 10.7907C188.623 7.80865 194.122 9.14165 196.324 12.4867C196.128 15.6467 196.535 14.7956 197.038 17.4856C197.08 17.7086 196.614 20.5576 196.728 21.9536C195.065 22.0196 193.525 21.8476 193.042 23.7256C193.219 24.3936 193.082 24.4617 193.532 24.6897C195.189 25.5287 198.023 25.3566 199.644 25.8866C201.772 26.5826 205.449 30.2257 207.798 29.6097C211.404 28.6637 212.5 21.5636 214.794 20.4486L214.708 19.9307L216.123 19.5226C217.202 19.3746 218.44 19.0076 219.509 18.7296C220.391 18.7256 221.272 18.6926 222.151 18.6296L222.529 19.0176C220.672 20.6796 218.382 21.2506 216.471 22.4386C215.193 23.2336 214.442 27.9127 214.087 29.6077C214.041 30.7077 213.539 32.2076 213.068 33.2006C210.604 38.3886 204.133 36.3017 202.243 36.9527C202.353 38.5077 202.788 41.9496 202.562 43.4216C202.499 43.8316 201.276 44.2196 200.806 44.3676L200.597 44.4327C200.392 45.4557 202.247 47.5566 202.762 49.6036C204.44 56.2696 207.825 64.3636 209.148 70.9776L209.218 71.3307C210.272 71.2527 211.432 71.0867 212.491 70.9587C212.264 73.0347 212.317 74.7116 212.352 76.7856C207.035 76.6476 200.991 76.7116 195.684 76.8416L195.787 71.2657C197.05 71.2317 198.235 71.6817 199.011 70.6967C199.087 69.9287 199.201 69.5706 198.864 68.8786C197.94 68.5496 191.231 68.5987 190.544 69.0667C190.1 70.0107 190.101 70.0676 189.994 71.1206C190.907 71.7366 191.556 70.8906 192.757 71.5436C193.127 72.2716 193.081 75.7596 193.111 76.8036C189 76.5986 183.973 76.7067 179.826 76.7737C179.801 75.1877 179.504 72.4487 180.351 71.3077C181.436 71.2047 181.945 71.5256 182.705 70.8846C183.437 68.4006 187.56 55.6417 187.542 54.1577C187.306 54.0237 186.425 53.4717 186.387 53.2867C185.816 50.4917 187.528 45.9086 185.508 43.5936C184.589 43.2286 183.243 43.4326 182.026 43.3536C179.713 44.8066 177.127 45.9506 174.559 44.7356C168.882 42.0496 174.009 35.8596 176.259 33.0116C179.017 29.5206 179.828 27.7426 183.88 26.2226C183.686 25.9576 183.499 25.6877 183.319 25.4137C181.735 22.9837 181.337 20.4517 184.298 18.9937ZM185.716 20.2757C185.214 21.4217 184.964 22.8006 185.597 23.9406C185.935 23.4216 186.268 22.8977 186.595 22.3707C186.563 21.2607 186.399 21.3817 185.716 20.2757ZM192.08 63.7397L195.007 63.7406C195.953 63.7436 196.406 63.8907 197.142 63.4767C196.866 62.3987 195.111 56.1187 194.605 55.6407C193.619 58.1807 192.943 61.1227 192.08 63.7397Z" fill="#FFFFFF"/>
<path d="M219.507 18.7299C220.389 18.7259 221.27 18.6929 222.149 18.6299L222.527 19.0179C220.67 20.6799 218.38 21.2509 216.469 22.4389C215.191 23.2339 214.44 27.9129 214.085 29.6079C213.62 25.7179 213.709 24.5169 215.95 21.3489L215.845 21.0869L215.392 21.5489L215.095 21.5219L215.339 20.8209L214.792 20.4489L214.706 19.9309L216.121 19.5229C217.2 19.3749 218.438 19.0079 219.507 18.7299Z" fill="#FFFFFF"/>
<path d="M184.295 18.9932C184.958 20.0092 184.978 19.4222 185.713 20.2752C185.211 21.4212 184.961 22.8002 185.594 23.9402C185.513 25.4582 184.129 25.4412 183.877 26.2222C183.683 25.9572 183.496 25.6872 183.316 25.4132C181.732 22.9832 181.334 20.4512 184.295 18.9932Z" fill="#FFFFFF"/>
<path d="M108.657 55.798C115.286 55.609 118.409 58.12 120.385 64.286C122.349 58.343 126.026 54.805 132.854 56.282C133.752 56.476 134.717 57.699 135.701 57.687C136.765 55.662 139.361 56.184 141.355 56.249C141.285 59.415 141.332 62.449 141.216 65.662C139.293 65.713 137.216 65.674 135.279 65.674C134.82 64.039 134.429 61.688 132.402 61.453C130.312 61.211 129.379 64.513 129.352 66.044C129.311 68.285 129.683 69 131.134 70.551C134.56 71.761 135.634 70.748 138.543 68.94C139.614 70.458 140.737 71.939 141.909 73.381C139.49 75.368 138.385 75.971 135.459 76.892C130.48 78.189 124.29 77.033 121.849 72.063C121.329 71.006 120.851 69.412 120.094 68.579C115.525 68.768 110.952 68.788 106.382 68.638C109.639 73.315 112.046 72.273 116.618 69.984C117.907 71.236 119.731 72.344 119.513 74.156C118.387 75.88 115.391 76.834 113.429 77.261C107.171 78.643 100.093 76.053 98.9151 69.058C97.6471 61.527 101.061 56.864 108.657 55.798ZM110.998 64.594C112.078 64.589 111.955 64.761 112.687 64.257C113.111 62.119 110.709 61.472 109.046 61.463C107.998 62.012 107.889 62.119 107.124 63.024C106.689 65.054 109.665 64.614 110.998 64.594Z" fill="#FFFFFF"/>
<path d="M326.714 48.2275C332.858 48.3935 339.237 47.8135 345.296 48.4955C348.683 48.8765 351.655 51.0325 351.96 54.5055C352.289 58.2425 351.431 59.5205 348.565 61.4485C353.754 64.4405 354.96 68.7775 351.681 73.9965C350.145 75.4725 347.79 76.5205 345.7 76.5025C341.399 76.4655 330.62 77.5485 326.891 76.4655C326.612 75.2795 326.361 72.1375 327.345 71.3565C328.014 71.3455 328.489 71.4195 329.043 71.0685C329.304 69.2745 329.265 55.6745 328.752 54.0095C328.19 53.8825 328.024 53.8285 327.486 53.6195C326.344 52.2285 326.677 50.0745 326.714 48.2275ZM342.882 70.7595C343.999 69.2895 344.995 67.0595 343.239 65.6185C341.511 64.2005 339.709 64.4445 337.619 64.4335C337.686 66.5655 337.795 69.4165 337.601 71.5255C339.27 71.3305 341.378 71.2665 342.882 70.7595ZM337.569 59.7545C339.351 59.6985 340.325 59.6805 342.071 59.2555C343.068 57.5435 343.298 55.0005 341.152 54.1625C340.103 53.7525 338.776 53.7535 337.659 53.6855C337.654 55.7085 337.624 57.7315 337.569 59.7545Z" fill="#FFFFFF"/>
<path d="M60.0036 56.0505C63.277 55.6935 64.6978 56.0095 67.3871 57.8945L67.6753 58.0995C68.435 57.9985 69.7893 56.9525 70.6576 56.4575C72.2673 55.5385 75.0283 55.8025 76.755 56.2315C83.226 57.8415 80.7019 68.8795 81.7239 70.7625C82.1422 70.9035 82.7331 71.0565 83.0075 71.3815C83.6429 72.1335 83.5678 75.6975 83.5962 76.7425C80.3847 76.6675 76.0957 76.6135 72.9514 76.8635C73.1409 72.9685 73.1215 68.6475 72.9906 64.7345C72.9478 63.4575 72.5315 62.3825 71.2872 61.9375C69.1813 62.3315 69.5545 64.0125 69.4349 65.7985C69.3192 67.5265 68.9949 69.7665 70.2044 71.0915C70.8383 71.2015 71.1448 71.1775 71.6291 71.5815C71.9797 72.6525 71.8376 75.4575 71.8647 76.8135L69.1884 76.7515C66.4715 76.7525 63.8362 76.7035 61.1295 76.9715C61.4147 73.2125 61.2583 69.3505 61.3067 65.5795C61.3286 63.8815 60.1292 60.1865 58.1574 62.6165C57.9002 64.2525 57.4762 69.7415 58.1737 71.1345C58.961 71.7015 58.6679 71.5315 59.7724 71.5925C60.6418 72.7795 60.1948 75.2865 60.0785 76.8595C56.5992 76.6125 51.4663 76.7725 47.8913 76.8455C47.9228 75.9485 47.7843 71.9155 48.374 71.2935C48.5531 71.1045 49.0572 71.5435 49.6961 70.8285C49.7006 68.6945 49.8352 64.3435 49.4701 62.4125C49.1215 62.0955 48.7458 61.8535 48.3437 61.6085C47.9244 60.3165 47.9121 57.8665 47.8438 56.4065C49.7373 56.2815 53.7061 56.1845 55.6726 56.5255C56.3548 56.6435 55.9472 57.8524 56.7541 58.3224C57.7896 57.4694 58.76 56.5905 60.0036 56.0505Z" fill="#FFFFFF"/>
<path d="M406.749 46.2076C410.088 46.1256 413.709 46.1956 417.082 46.1816C417.002 52.8516 416.97 63.9336 417.139 70.9756C417.242 71.1036 417.346 71.2306 417.45 71.3586C418.089 71.2636 418.344 71.1596 418.957 71.3436C419.288 72.4746 419.058 75.0236 419.277 76.7746C416.324 76.7256 412.393 76.9346 409.588 76.6586C408.028 75.3426 407.213 76.4366 405.216 77.1516C389.366 78.5526 390.306 50.6286 408.618 56.9626C408.626 56.0596 408.67 54.9416 408.613 54.0646C408.426 51.2186 408.004 52.2756 407.072 51.4256C406.662 50.0166 406.777 47.7806 406.749 46.2076ZM406.961 71.0036C409.587 68.0916 409.75 61.2996 404.859 61.4176C402.331 64.3156 401.976 72.4056 406.961 71.0036Z" fill="#FFFFFF"/>
<path d="M143.32 46.0479C146.38 46.2549 150.228 46.1929 153.314 46.1739C153.294 50.1859 153.314 54.1989 153.373 58.2099C155.4 55.9949 157.798 55.7009 160.668 55.6869C169.386 55.6419 165.647 69.3839 167.103 71.1889C167.81 71.2859 167.854 71.2549 168.485 71.5589C168.761 72.3449 168.696 75.6619 168.731 76.7909C165.664 76.6419 160.97 76.6809 157.936 76.8729C157.892 74.6229 157.907 72.3719 157.98 70.1229C157.968 67.9049 158.443 61.8819 155.344 61.7859C152.562 63.1569 153.074 68.6639 153.32 71.2529L156.314 71.2838C156.265 73.0958 156.308 75.0069 156.321 76.8279C152.099 76.6719 147.519 76.7469 143.287 76.7829C143.26 76.2629 143.237 75.7419 143.218 75.2219C143.143 73.1449 143.09 72.3229 144.604 70.7809C145.161 68.6619 145.272 53.2459 144.582 51.9069C144.046 51.7879 143.928 51.7649 143.425 51.5539C143.155 50.5449 142.945 46.9859 143.32 46.0479Z" fill="#FFFFFF"/>
<path d="M0.0400212 48.2289L24.5967 48.2119C24.5356 51.3329 24.5425 54.4559 24.6175 57.5769C22.1033 57.4579 19.8434 57.4679 17.3362 57.4899C17.2519 56.3479 17.1882 55.2049 17.1452 54.0599C15.0069 53.8699 13.1736 53.7499 11.0289 53.6899C11.1674 55.8079 11.1138 58.4549 11.1276 60.6149C13.5324 60.4479 16.2313 60.7349 18.8609 60.5529L18.9408 65.9089L18.8184 66.0959C18.0091 66.4939 12.3479 66.2399 11.0531 66.2139C11.1492 67.7479 11.1148 69.7129 11.129 71.2829C12.4694 71.2379 13.9317 71.2549 15.2835 71.2439L15.3328 76.8059C10.2567 76.7399 5.18012 76.7249 0.103721 76.7629C0.0662209 75.3009 -0.272379 72.3179 0.520421 71.3609C1.04572 71.2749 1.34132 71.2309 1.86602 71.2159L2.28892 71.2059C2.63402 70.7069 2.36962 56.1079 2.36712 54.0789L2.03772 53.7869C1.28302 53.8099 0.889521 53.8959 0.215121 53.5559C-0.0727794 52.4509 0.0336212 49.5239 0.0400212 48.2289Z" fill="#FFFFFF"/>
<path d="M262.264 55.8242C265.321 55.9162 267.803 56.3472 270.354 58.3422C274.694 61.7372 275.485 69.4372 271.888 73.6252C269.743 76.1242 266.8 77.1492 263.577 77.3662C260.39 77.2682 257.955 77.0162 255.303 74.9382C249.443 70.3472 250.172 60.4522 257.019 57.1482C259.003 56.1902 260.137 56.0412 262.264 55.8242ZM263.388 71.8622C266.625 69.4312 266.652 62.5572 262.322 61.1452C259.211 63.8442 258.631 71.1002 263.388 71.8622Z" fill="#FFFFFF"/>
<path d="M364.907 55.8037C367.778 55.9247 370.31 56.3587 372.729 58.0787C377.42 61.3897 378.079 69.1137 374.548 73.4717C372.427 76.0897 369.64 77.1107 366.407 77.3817C363.59 77.3207 361.335 77.1157 358.859 75.5517C356.546 74.1057 354.937 71.7657 354.415 69.0887C352.916 61.4067 357.537 56.7607 364.907 55.8037ZM366.157 71.9297C369.229 69.3097 369.541 62.6177 365.054 61.1557C362.072 63.8537 361.156 70.9207 366.157 71.9297Z" fill="#FFFFFF"/>
<path d="M430.027 55.8317C433.364 55.7657 436.963 56.6047 439.15 59.3187C441.562 62.3127 441.104 65.1877 440.712 68.6937C436.41 68.8057 431.867 68.7317 427.547 68.7287C430.376 73.2467 433.496 72.2467 437.603 69.8147C438.474 70.9207 439.642 72.0897 440.62 73.1267C440.938 73.9107 440.926 73.5287 440.7 74.3097C439.169 76.0887 435.389 77.1567 432.857 77.5427C422.06 79.1887 416.022 67.6517 422.095 59.2967C423.844 56.8907 427.003 56.1157 430.027 55.8317ZM427.552 64.5017C428.859 64.5727 431.305 64.7707 432.499 64.6367C433.528 64.4727 433.369 64.6667 433.917 64.0557C433.75 61.7327 431.574 61.3937 429.693 61.5027C428.686 62.4567 428.261 63.3177 427.552 64.5017Z" fill="#FFFFFF"/>
<path d="M35.2246 55.8115C38.5196 55.5705 42.492 56.5545 44.5899 59.2515C46.8518 62.1605 46.5813 65.3705 46.2022 68.7695C44.0599 68.7485 34.7572 68.3835 33.4957 69.1785L33.5004 69.7095C35.5956 73.1135 40.4119 71.3145 43.0766 69.7975L45.5842 72.7775C45.8396 73.1975 46.3125 74.0915 45.8332 74.4895C41.7425 77.8855 34.1069 78.5565 29.8022 75.7335C27.4065 74.1295 25.7882 71.5995 25.3369 68.7525C24.1434 61.5865 28.0666 56.6805 35.2246 55.8115ZM32.845 64.4915C34.1471 64.4115 35.3145 64.3185 36.6235 64.3675C37.8046 64.2915 38.0892 64.4625 38.9796 63.8595C39.426 62.0775 37.3407 61.4795 35.9284 61.4305C34.1839 62.2205 33.9134 62.8555 32.845 64.4915Z" fill="#FFFFFF"/>
<path d="M466.004 55.8262C467.415 55.8882 470.41 56.7932 471.22 56.7152C473.43 56.5022 475.357 56.1832 477.761 56.2222C477.773 58.8232 477.761 61.4232 477.725 64.0242C476.246 63.9372 474.813 63.9942 473.333 64.0262C475.482 65.9032 477.727 67.1262 478.151 70.1422C478.954 75.8682 472.126 78.6072 467.515 76.7482C466.589 76.3752 465.057 75.0612 464.431 75.1252L463.916 76.0822L463.882 76.4892C463.243 76.8682 459.857 76.8342 458.847 76.8782C458.788 74.3282 458.751 71.7772 458.734 69.2262C460.617 69.1522 462.436 69.2072 464.316 69.2492C465.519 70.9642 467.074 72.4262 469.608 71.4662C469.991 71.3212 469.914 71.1812 470.026 70.7772C468.799 68.6652 459.723 68.8062 459.154 63.5032C458.571 58.0752 461.016 56.3492 466.004 55.8262ZM471.723 63.8572L472.048 63.3692C471.577 61.7502 469.149 61.0562 467.607 60.9582L467.285 61.8542C468.137 63.4062 470.052 63.5382 471.723 63.8572Z" fill="#FFFFFF"/>
<path d="M302.727 55.8311C305.943 56.0001 306.01 56.7141 308.733 57.7291L309.232 56.6151C310.249 55.9031 313.119 56.2081 314.548 56.2381L314.576 63.9411C310.384 63.4671 309.87 65.1611 307.312 61.4421C306.842 60.7581 304.13 60.8011 303.371 62.1391C304.731 64.1871 313.973 64.6371 314.77 69.3661C315.622 74.4291 313.03 76.1121 308.687 77.2451C307.346 77.2701 305.38 77.1821 304.053 76.7971C303.297 76.5781 301.997 75.2561 301.328 75.1551C301.272 75.9201 301.356 75.9721 301.008 76.6131C299.752 76.9101 297 76.8041 295.581 76.7971C295.522 74.1781 295.516 71.5591 295.563 68.9401C297.337 68.9421 299.214 69.1341 300.99 69.2811C301.431 69.8211 302.062 70.6561 302.66 71.0021C303.619 71.5561 306.237 72.2721 306.809 71.0201C305.57 68.626 296.282 68.8281 295.829 63.1261C295.417 57.9441 298.029 56.3381 302.727 55.8311Z" fill="#FFFFFF"/>
<path d="M282.146 55.8193C285.118 56.0473 285.242 56.3503 287.859 57.9143C288.771 57.6443 287.775 57.5194 288.559 56.4424C290.014 56.0894 292.097 56.1964 293.65 56.2054C293.793 58.9794 293.814 61.2353 293.78 64.0063C291.938 64.0183 290.096 63.9953 288.254 63.9353C287.443 61.9853 285.199 59.9184 283.204 61.5154L283.151 62.0544C285.158 64.7374 292.757 64.0293 294.15 69.8183C294.485 71.2353 294.21 72.7283 293.392 73.9323C291.962 76.0773 290.138 76.7363 287.802 77.2523C286.717 77.2633 285.845 77.2813 284.767 77.0693C283.495 76.8193 281.498 75.3083 280.453 75.3393L280.031 76.5313C279.169 76.9473 275.937 76.7883 274.81 76.7823C274.599 73.9483 274.693 72.0323 274.844 69.2363L280.263 69.2293C281.656 70.7793 282.68 72.0003 285.092 71.6153C285.744 71.5113 285.851 71.2563 286.075 70.7733C284.699 68.4513 276.068 69.4983 275.069 63.1143C274.794 61.4593 275.248 59.7654 276.313 58.4684C277.918 56.5194 279.816 56.0923 282.146 55.8193Z" fill="#FFFFFF"/>
<path d="M220.951 56.0355C225.647 55.5445 225.31 57.3145 227.649 57.7275C228.698 55.4835 231.076 56.1925 233.314 56.2045C233.395 59.2975 233.302 62.6685 233.274 65.7815C231.381 65.6865 229.248 65.7415 227.334 65.7505C227.024 64.7105 226.517 62.3105 225.515 61.9075C220.797 60.0085 219.765 70.4685 224.319 71.1225C226.486 71.4345 227.959 70.5375 229.737 69.4185C231.489 69.6055 232.947 72.0385 233.918 73.3785C231.873 75.0755 230.113 76.1125 227.437 76.8735C216.517 79.9755 208.725 69.6225 214.238 59.9925C215.562 57.6805 218.315 56.5155 220.951 56.0355Z" fill="#FFFFFF"/>
<path d="M93.7703 50.2764C94.8103 51.2354 93.8973 55.3034 94.5593 56.3434C95.7373 56.2954 96.9143 56.2564 98.0923 56.2244L98.0843 61.8184L94.1073 61.7014C94.0683 64.0494 93.8753 69.4374 94.3653 71.4854C95.4423 72.1444 97.1493 71.5834 98.4223 71.3154C97.5713 76.4504 99.6953 77.3454 93.1833 77.4704C92.3833 77.4354 91.5853 77.3634 90.7923 77.2554C84.094 76.3204 87.5893 63.5654 86.2845 61.8164C85.5266 61.7634 85.2027 61.8104 84.5654 61.3914C83.8978 59.7154 83.3172 57.5964 85.296 56.6044C87.6612 55.4184 86.0362 54.7444 86.6619 53.1064C88.2853 51.6664 91.5933 50.9214 93.7703 50.2764Z" fill="#FFFFFF"/>
<path d="M456.438 55.2525C457.457 55.2395 457.071 55.0634 457.742 55.5384C458.569 57.3324 457.989 60.8665 457.793 62.9425C453.249 63.0135 451.38 65.1414 452.151 69.8834C452.502 72.0434 453.027 70.6215 454.064 71.6225C454.396 73.0695 454.328 75.2665 454.342 76.8155C450.848 76.7235 445.564 76.9645 442.441 76.6665C442.405 76.0295 442.25 73.2724 442.396 72.8954C442.975 71.4014 444.534 70.4865 444.379 68.3905C444.255 66.7135 444.761 62.9955 443.682 61.8285C441.578 61.0485 442.388 58.2665 442.525 56.2335C444.676 56.2435 447.754 55.9764 449.866 56.3614C450.467 56.4704 450.894 57.4404 451.204 58.0204L451.367 58.3325L451.771 58.2024C453.068 56.2854 453.832 55.8675 456.1 55.3295L456.438 55.2525Z" fill="#FFFFFF"/>
<path d="M249.254 55.2958C250.354 55.2328 249.967 55.0408 250.602 55.5728C251.061 57.4418 250.746 60.7208 250.63 62.7668C249.17 62.9918 247.8 63.1308 246.478 63.8138C244.821 64.6708 244.331 69.8708 245.146 71.1398C245.672 71.2148 246.08 71.2828 246.601 71.3928C247.107 72.1708 247.08 75.6738 247.126 76.7848C243.367 76.7228 238.839 76.8938 235.232 76.6678C235.154 72.9898 234.685 73.3048 236.885 70.5428C237.068 68.8548 237.371 63.3408 236.584 62.0018C235.92 61.8378 235.896 61.8668 235.329 61.5048C234.917 60.0838 235.425 58.4148 234.953 56.1938C237.315 56.2948 240.308 56.0108 242.659 56.3108C243.258 56.3868 243.809 57.6818 244.154 58.3268C244.808 58.0688 245.515 56.9188 245.975 56.2998C247.321 55.7778 247.81 55.5888 249.254 55.2958Z" fill="#FFFFFF"/>
<path d="M391.832 55.2456C392.241 55.2176 393.198 55.1566 393.295 55.7156C393.61 57.5416 393.633 60.4076 393.296 62.1946C392.764 63.9076 390.447 63.1126 389.083 63.7086C387.237 64.5136 387.034 69.1616 387.893 70.6326C390.265 71.7206 389.719 74.4146 389.764 76.7916C386.071 76.6466 382.065 76.7336 378.345 76.7496C377.833 76.0966 377.774 72.0586 378.359 71.3716C378.512 71.1926 379.139 71.4806 379.785 70.7296C379.828 68.8496 380.19 63.3666 379.431 61.9366C378.755 61.7426 378.803 61.7586 378.307 61.2556C377.683 59.5226 377.914 58.1356 377.973 56.2646C380.627 56.2636 383.282 56.2776 385.936 56.3066C386.25 57.1306 386.564 58.1546 386.851 59.0056C388.572 56.3456 388.88 56.0996 391.832 55.2456Z" fill="#FFFFFF"/>
<path d="M219.066 3.60908C219.529 3.67508 220.74 3.86008 221.153 3.82808C223.971 3.60908 224.206 2.31307 226.499 4.40907C227.206 5.43207 227.424 6.15808 227.667 7.40008C227.499 9.47908 227.393 9.31308 225.632 10.9641C225.083 10.9811 225.323 11.0631 224.907 10.7391L224.646 9.90408L224.196 9.83908C224.011 10.0261 222.588 11.5871 222.608 11.5711C222.323 11.9811 222.128 12.3011 221.865 12.7261C222.104 14.2351 222.061 12.6701 223.131 13.8221C223.05 14.4841 223.199 14.2001 222.742 14.7191C222.389 14.6891 222.037 14.6631 221.795 14.5521C220.916 14.1501 220.632 16.0801 219.276 16.3151C218.041 15.4281 217.976 13.1041 217.788 11.6771C216.333 11.5911 215.63 11.8121 214.849 10.5531C214.802 9.50108 215.089 9.03008 215.482 8.02008C215.172 5.49408 217.085 4.60308 219.066 3.60908Z" fill="#FFFFFF"/>
<path d="M215.482 8.02069C218.402 6.62269 217.465 9.65469 220.743 8.13868C221.826 8.56268 221.71 9.53669 221.788 10.6117C222.055 10.9267 222.334 11.2677 222.608 11.5717C222.323 11.9817 222.128 12.3017 221.865 12.7267C222.104 14.2357 222.061 12.6707 223.131 13.8227C223.05 14.4847 223.199 14.2007 222.742 14.7197C222.389 14.6897 222.037 14.6637 221.795 14.5527C220.916 14.1507 220.632 16.0807 219.276 16.3157C218.041 15.4287 217.976 13.1047 217.788 11.6777C216.333 11.5917 215.63 11.8127 214.849 10.5537C214.802 9.50169 215.089 9.03069 215.482 8.02069Z" fill="#FFFFFF"/>
<path d="M207.429 11.4175C207.147 9.48546 207.209 8.45346 208.141 5.94046C208.783 4.20746 212.038 -1.23254 214.598 2.48146C214.831 2.81846 214.512 3.90146 214.26 4.35846C213.161 5.23846 212.21 5.04945 210.84 4.93345L210.473 4.89946L210.339 5.20646L210.803 5.72946C210.799 6.34646 209.401 7.22145 208.592 8.07145C208.289 9.21845 208.46 9.05546 208.813 10.3855L207.752 10.1885C207.641 10.5995 207.531 11.0035 207.429 11.4175Z" fill="#FFFFFF"/>
<path d="M207.422 11.4175C207.524 11.0035 207.634 10.5995 207.745 10.1885L208.806 10.3855C209.899 10.6865 211.737 11.4325 212.43 12.3555C212.94 14.1355 211.832 14.9425 210.688 16.1955L209.8 16.7635C208.357 15.0395 207.911 13.5265 207.422 11.4175Z" fill="#FFFFFF"/>
<path d="M224.91 10.7394C225.326 11.0634 225.086 10.9814 225.635 10.9644C227.396 9.31339 227.502 9.47939 227.67 7.40039C228.535 13.0314 227.674 15.9994 222.528 19.0174L222.15 18.6294C221.271 18.6924 220.39 18.7254 219.508 18.7294C219.743 18.6824 219.977 18.6324 220.211 18.5804C223.444 17.8454 227.745 14.7154 226.781 10.9504L226.501 10.8404C225.982 11.2974 225.632 11.5984 225.072 12.0174L224.849 11.7814L224.91 10.7394Z" fill="#FFFFFF" fill-opacity="0.988235"/>
<path d="M219.068 3.60986C220.356 3.53186 222.215 3.59185 223.232 2.95085L223.434 2.48686C222.29 0.104862 217.871 1.13985 215.336 0.336853C216.094 -0.0511473 217.471 -0.000148021 218.342 0.00485198C221.925 0.025852 224.723 1.13085 226.501 4.40985C224.208 2.31385 223.973 3.60986 221.155 3.82886C220.742 3.86086 219.531 3.67586 219.068 3.60986Z" fill="#FFFFFF" fill-opacity="0.956863"/>
<path d="M214.55 12.5234L215.251 12.8194C215.731 13.4984 216.143 16.4924 216.452 17.6854C213.759 16.5024 214.134 15.0444 214.55 12.5234Z" fill="#FFFFFF" fill-opacity="0.313726"/>
<path d="M209.805 16.7633L210.693 16.1953C212.639 18.3123 213.411 18.5453 216.123 19.5223L214.708 19.9303C212.785 18.5373 211.914 19.1843 209.805 16.7633Z" fill="#FFFFFF" fill-opacity="0.980392"/>
<path d="M59.3359 66.4089L59.6731 66.2969L59.9058 66.5589L59.7003 68.0029C59.2425 67.3709 59.3943 67.3289 59.3359 66.4089Z" fill="#FFFFFF" fill-opacity="0.188235"/>
</svg>
