<svg width="1024" height="167" viewBox="0 0 1024 167" fill="none" xmlns="http://www.w3.org/2000/svg">
<path d="M393.989 40.665C393.841 35.1497 392.277 27.3243 396.64 23.1021C403.235 16.7175 414.991 19.5715 419.698 26.7333C419.279 33.499 420.149 31.6767 421.224 37.4361C421.314 37.9135 420.318 44.0133 420.562 47.0022C417.006 47.1435 413.714 46.7753 412.682 50.7961C413.06 52.2263 412.767 52.3721 413.729 52.8603C417.272 54.6566 423.33 54.2881 426.795 55.4229C431.345 56.913 439.205 64.713 444.227 63.3941C451.936 61.3687 454.279 46.1672 459.183 43.78L458.999 42.6711L462.024 41.7974C464.331 41.4805 466.977 40.6947 469.263 40.0995C471.148 40.091 473.031 40.0203 474.911 39.8854L475.719 40.7162C471.749 44.2745 466.853 45.4971 462.768 48.0406C460.036 49.7427 458.43 59.7608 457.671 63.3898C457.573 65.745 456.5 68.9563 455.493 71.0823C450.226 82.19 436.392 77.7219 432.351 79.1157C432.587 82.445 433.517 89.8142 433.033 92.9657C432.899 93.8436 430.284 94.6743 429.279 94.9912L428.833 95.1305C428.394 97.3208 432.36 101.819 433.461 106.202C437.048 120.474 444.285 137.803 447.113 151.964L447.263 152.72C449.516 152.553 451.996 152.197 454.26 151.923C453.774 156.368 453.888 159.958 453.962 164.399C442.596 164.103 429.675 164.24 418.33 164.519L418.55 152.581C421.25 152.508 423.783 153.471 425.442 151.362C425.605 149.718 425.848 148.951 425.128 147.47C423.153 146.765 408.81 146.871 407.342 147.873C406.392 149.894 406.394 150.016 406.166 152.27C408.118 153.589 409.505 151.778 412.072 153.176C412.863 154.734 412.765 162.202 412.829 164.437C404.041 163.999 393.294 164.23 384.429 164.373C384.375 160.978 383.74 155.114 385.551 152.671C387.871 152.45 388.959 153.137 390.583 151.765C392.148 146.446 400.962 119.129 400.924 115.952C400.419 115.665 398.536 114.483 398.455 114.087C397.234 108.103 400.894 98.2905 396.576 93.334C394.611 92.5525 391.734 92.9893 389.132 92.8202C384.187 95.9311 378.659 98.3804 373.169 95.779C361.033 90.0283 371.993 76.7753 376.803 70.6777C382.699 63.2033 384.433 59.3966 393.095 56.1422C392.681 55.5749 392.281 54.997 391.896 54.4104C388.51 49.2077 387.659 43.7866 393.989 40.665ZM397.02 43.4098C395.947 45.8634 395.413 48.8157 396.766 51.2564C397.488 50.1452 398.2 49.0235 398.899 47.8952C398.831 45.5187 398.48 45.7778 397.02 43.4098ZM410.625 136.467L416.882 136.469C418.905 136.476 419.873 136.791 421.447 135.904C420.857 133.596 417.105 120.151 416.023 119.127C413.915 124.565 412.47 130.864 410.625 136.467Z" fill="white"/>
<path d="M469.259 40.1008C471.145 40.0923 473.028 40.0216 474.908 39.8867L475.716 40.7174C471.746 44.2758 466.85 45.4983 462.765 48.0419C460.033 49.744 458.427 59.7619 457.668 63.3909C456.674 55.0623 456.865 52.4909 461.655 45.7082L461.431 45.1472L460.462 46.1364L459.828 46.0786L460.349 44.5777L459.18 43.7812L458.996 42.6722L462.021 41.7987C464.328 41.4818 466.974 40.696 469.259 40.1008Z" fill="white"/>
<path d="M393.984 40.6641C395.402 42.8393 395.444 41.5826 397.016 43.4089C395.943 45.8625 395.408 48.8149 396.761 51.2557C396.588 54.5058 393.63 54.4694 393.091 56.1415C392.676 55.5742 392.276 54.9961 391.891 54.4094C388.505 49.2068 387.654 43.7857 393.984 40.6641Z" fill="white"/>
<path d="M232.286 119.466C246.457 119.062 253.133 124.438 257.358 137.64C261.556 124.915 269.417 117.34 284.014 120.503C285.933 120.918 287.996 123.537 290.1 123.511C292.375 119.175 297.924 120.293 302.187 120.432C302.037 127.211 302.138 133.706 301.89 140.586C297.779 140.695 293.339 140.611 289.198 140.611C288.217 137.111 287.381 132.077 283.047 131.574C278.579 131.056 276.585 138.126 276.527 141.403C276.44 146.201 277.235 147.732 280.337 151.053C287.661 153.644 289.957 151.475 296.176 147.604C298.465 150.854 300.866 154.025 303.371 157.112C298.2 161.366 295.838 162.657 289.583 164.629C278.939 167.406 265.706 164.931 260.487 154.29C259.376 152.027 258.354 148.614 256.736 146.831C246.968 147.236 237.192 147.278 227.422 146.957C234.385 156.971 239.531 154.74 249.305 149.839C252.06 152.52 255.96 154.892 255.493 158.771C253.086 162.463 246.682 164.505 242.487 165.419C229.109 168.378 213.978 162.833 211.46 147.856C208.749 131.732 216.047 121.749 232.286 119.466ZM237.29 138.299C239.599 138.288 239.336 138.656 240.901 137.577C241.807 133 236.672 131.615 233.117 131.595C230.877 132.771 230.644 133 229.008 134.938C228.078 139.284 234.441 138.342 237.29 138.299Z" fill="white"/>
<path d="M698.445 103.254C711.579 103.61 725.216 102.368 738.169 103.828C745.41 104.644 751.763 109.26 752.415 116.696C753.119 124.697 751.285 127.433 745.158 131.561C756.251 137.967 758.829 147.252 751.819 158.427C748.535 161.587 743.501 163.83 739.033 163.792C729.838 163.713 706.795 166.031 698.823 163.713C698.227 161.173 697.69 154.446 699.794 152.774C701.224 152.751 702.239 152.909 703.424 152.158C703.982 148.317 703.898 119.199 702.802 115.634C701.6 115.362 701.245 115.246 700.095 114.799C697.654 111.821 698.366 107.209 698.445 103.254ZM733.009 151.496C735.396 148.349 737.526 143.574 733.772 140.489C730.078 137.453 726.225 137.975 721.757 137.952C721.901 142.517 722.134 148.621 721.719 153.136C725.287 152.719 729.793 152.582 733.009 151.496ZM721.65 127.934C725.46 127.814 727.542 127.776 731.275 126.866C733.406 123.2 733.898 117.756 729.31 115.961C727.068 115.084 724.231 115.086 721.843 114.94C721.832 119.271 721.768 123.603 721.65 127.934Z" fill="white"/>
<path d="M128.274 120.004C135.272 119.239 138.31 119.916 144.059 123.952L144.675 124.391C146.299 124.175 149.194 121.935 151.05 120.875C154.492 118.908 160.394 119.473 164.085 120.391C177.919 123.838 172.523 147.471 174.708 151.503C175.602 151.804 176.865 152.132 177.452 152.828C178.81 154.438 178.65 162.069 178.71 164.306C171.845 164.145 162.676 164.03 155.954 164.565C156.359 156.226 156.318 146.974 156.038 138.596C155.946 135.862 155.056 133.561 152.396 132.608C147.894 133.452 148.692 137.051 148.436 140.875C148.189 144.574 147.496 149.37 150.081 152.207C151.437 152.443 152.092 152.391 153.127 153.256C153.877 155.549 153.573 161.555 153.631 164.458L147.91 164.325C142.101 164.327 136.468 164.222 130.681 164.796C131.291 156.748 130.957 148.479 131.06 140.406C131.107 136.77 128.543 128.859 124.328 134.062C123.778 137.565 122.871 149.317 124.362 152.299C126.046 153.513 125.419 153.149 127.78 153.28C129.639 155.821 128.683 161.189 128.434 164.556C120.996 164.028 110.023 164.37 102.381 164.526C102.448 162.606 102.152 153.971 103.413 152.639C103.796 152.235 104.873 153.175 106.239 151.644C106.249 147.075 106.536 137.759 105.756 133.625C105.011 132.946 104.208 132.428 103.348 131.904C102.452 129.137 102.425 123.892 102.279 120.766C106.327 120.498 114.812 120.291 119.016 121.021C120.474 121.273 119.603 123.862 121.328 124.868C123.541 123.042 125.616 121.16 128.274 120.004Z" fill="white"/>
<path d="M869.542 98.9306C876.68 98.7551 884.421 98.905 891.632 98.875C891.461 113.156 891.393 136.882 891.754 151.96C891.974 152.234 892.197 152.506 892.419 152.78C893.785 152.576 894.33 152.354 895.641 152.747C896.348 155.169 895.856 160.626 896.325 164.375C890.012 164.27 881.608 164.718 875.612 164.127C872.277 161.309 870.534 163.652 866.265 165.183C832.381 168.182 834.391 108.396 873.538 121.957C873.555 120.024 873.649 117.63 873.527 115.753C873.128 109.659 872.225 111.922 870.233 110.103C869.356 107.086 869.602 102.298 869.542 98.9306ZM869.996 152.02C875.609 145.785 875.958 131.243 865.502 131.496C860.098 137.7 859.339 155.021 869.996 152.02Z" fill="white"/>
<path d="M306.387 98.5898C312.929 99.033 321.155 98.9003 327.752 98.8596C327.709 107.449 327.752 116.041 327.878 124.629C332.211 119.887 337.338 119.257 343.473 119.227C362.111 119.131 354.117 148.553 357.23 152.417C358.741 152.625 358.835 152.559 360.184 153.21C360.774 154.892 360.635 161.994 360.71 164.411C354.154 164.092 344.119 164.176 337.633 164.587C337.539 159.77 337.571 154.95 337.727 150.135C337.701 145.386 338.717 132.491 332.092 132.285C326.144 135.221 327.239 147.011 327.765 152.554L334.165 152.621C334.061 156.5 334.153 160.592 334.18 164.491C325.155 164.157 315.364 164.317 306.316 164.394C306.259 163.281 306.21 162.165 306.169 161.052C306.009 156.605 305.895 154.845 309.132 151.544C310.323 147.007 310.56 114.001 309.085 111.134C307.939 110.879 307.687 110.83 306.611 110.378C306.034 108.218 305.585 100.598 306.387 98.5898Z" fill="white"/>
<path d="M0.085557 103.259L52.5825 103.223C52.4519 109.905 52.4666 116.591 52.627 123.273C47.2522 123.019 42.421 123.04 37.0611 123.087C36.8809 120.642 36.7447 118.195 36.6528 115.743C32.0816 115.337 28.1624 115.08 23.5774 114.951C23.8735 119.486 23.7589 125.153 23.7884 129.778C28.9294 129.42 34.6991 130.035 40.3206 129.645L40.4914 141.112L40.2297 141.513C38.4996 142.365 26.3972 141.821 23.6292 141.765C23.8346 145.05 23.7611 149.257 23.7914 152.618C26.6569 152.522 29.783 152.558 32.6729 152.535L32.7783 164.443C21.9266 164.302 11.074 164.27 0.221734 164.351C0.141566 161.221 -0.582288 154.834 1.11255 152.785C2.23553 152.601 2.86746 152.507 3.98915 152.475L4.89322 152.453C5.63097 151.385 5.06574 120.128 5.0604 115.784L4.35621 115.159C2.74282 115.208 1.90161 115.392 0.459883 114.664C-0.155587 112.298 0.0718752 106.032 0.085557 103.259Z" fill="white"/>
<path d="M560.664 119.52C567.199 119.717 572.505 120.639 577.959 124.911C587.237 132.179 588.928 148.665 581.238 157.632C576.652 162.982 570.361 165.177 563.471 165.642C556.658 165.432 551.452 164.892 545.783 160.443C533.255 150.614 534.814 129.428 549.451 122.354C553.693 120.303 556.117 119.984 560.664 119.52ZM563.067 153.857C569.987 148.652 570.044 133.935 560.788 130.912C554.137 136.691 552.897 152.226 563.067 153.857Z" fill="white"/>
<path d="M780.094 119.477C786.231 119.736 791.644 120.665 796.816 124.347C806.844 131.436 808.253 147.974 800.704 157.304C796.17 162.909 790.212 165.095 783.301 165.676C777.278 165.545 772.458 165.106 767.164 161.758C762.22 158.662 758.78 153.652 757.664 147.92C754.46 131.473 764.338 121.526 780.094 119.477ZM782.766 154.003C789.333 148.393 790 134.066 780.408 130.935C774.033 136.712 772.075 151.842 782.766 154.003Z" fill="white"/>
<path d="M919.306 119.539C926.44 119.398 934.134 121.194 938.809 127.005C943.966 133.415 942.987 139.57 942.149 147.077C932.952 147.317 923.24 147.158 914.005 147.152C920.052 156.825 926.722 154.684 935.502 149.477C937.364 151.845 939.861 154.348 941.952 156.568C942.632 158.246 942.606 157.429 942.123 159.101C938.85 162.91 930.769 165.196 925.356 166.023C902.275 169.547 889.367 144.846 902.349 126.958C906.088 121.806 912.842 120.147 919.306 119.539ZM914.015 138.102C916.809 138.254 922.038 138.678 924.591 138.391C926.791 138.039 926.451 138.455 927.622 137.147C927.265 132.173 922.613 131.447 918.592 131.681C916.44 133.723 915.531 135.567 914.015 138.102Z" fill="white"/>
<path d="M75.3036 119.493C82.3476 118.977 90.8398 121.084 95.3247 126.858C100.16 133.087 99.5818 139.959 98.7714 147.237C94.1916 147.192 74.3044 146.41 71.6076 148.112L71.6177 149.249C76.0968 156.537 86.393 152.685 92.0895 149.438L97.4503 155.818C97.9962 156.717 99.0072 158.631 97.9826 159.483C89.2375 166.754 72.9142 168.191 63.7117 162.147C58.5902 158.712 55.1306 153.296 54.1658 147.2C51.6144 131.858 60.0014 121.354 75.3036 119.493ZM70.2166 138.077C73.0002 137.906 75.4958 137.707 78.2942 137.812C80.8191 137.649 81.4275 138.015 83.331 136.724C84.2853 132.909 79.8274 131.628 76.8082 131.524C73.0788 133.215 72.5006 134.575 70.2166 138.077Z" fill="white"/>
<path d="M996.217 119.523C999.234 119.656 1005.64 121.594 1007.37 121.427C1012.09 120.971 1016.21 120.288 1021.35 120.371C1021.38 125.94 1021.35 131.507 1021.27 137.076C1018.11 136.889 1015.05 137.011 1011.89 137.08C1016.48 141.099 1021.28 143.717 1022.19 150.174C1023.9 162.434 1009.31 168.298 999.448 164.318C997.468 163.519 994.193 160.706 992.855 160.843L991.754 162.892L991.681 163.763C990.315 164.575 983.076 164.502 980.917 164.596C980.791 159.137 980.712 153.675 980.676 148.213C984.701 148.055 988.59 148.173 992.609 148.262C995.181 151.934 998.505 155.064 1003.92 153.009C1004.74 152.699 1004.58 152.399 1004.82 151.534C1002.19 147.012 982.79 147.314 981.574 135.96C980.327 124.339 985.554 120.643 996.217 119.523ZM1008.44 136.718L1009.14 135.673C1008.13 132.207 1002.94 130.721 999.644 130.511L998.956 132.43C1000.78 135.752 1004.87 136.035 1008.44 136.718Z" fill="white"/>
<path d="M647.166 119.535C654.041 119.897 654.184 121.426 660.006 123.599L661.072 121.214C663.247 119.689 669.382 120.342 672.437 120.407L672.497 136.899C663.535 135.884 662.436 139.511 656.968 131.548C655.963 130.084 650.165 130.176 648.543 133.041C651.45 137.426 671.208 138.389 672.911 148.514C674.733 159.354 669.192 162.957 659.907 165.383C657.041 165.437 652.838 165.248 650.001 164.424C648.385 163.955 645.606 161.125 644.175 160.908C644.056 162.546 644.235 162.658 643.491 164.03C640.806 164.666 634.923 164.439 631.889 164.424C631.763 158.817 631.751 153.209 631.851 147.602C635.643 147.606 639.656 148.017 643.453 148.332C644.396 149.488 645.745 151.276 647.023 152.017C649.073 153.203 654.67 154.736 655.893 152.055C653.244 146.929 633.388 147.362 632.42 135.154C631.539 124.059 637.123 120.621 647.166 119.535Z" fill="white"/>
<path d="M603.168 119.512C609.522 120 609.787 120.649 615.381 123.997C617.331 123.419 615.202 123.152 616.878 120.846C619.988 120.09 624.441 120.319 627.761 120.338C628.067 126.278 628.112 131.108 628.039 137.04C624.101 137.066 620.163 137.017 616.226 136.888C614.492 132.713 609.695 128.288 605.43 131.707L605.317 132.861C609.607 138.606 625.852 137.09 628.83 149.484C629.546 152.518 628.958 155.714 627.21 158.292C624.153 162.885 620.253 164.296 615.259 165.4C612.94 165.424 611.076 165.462 608.771 165.009C606.052 164.473 601.783 161.238 599.549 161.305L598.647 163.857C596.804 164.747 589.895 164.407 587.485 164.394C587.034 158.326 587.235 154.224 587.558 148.238L599.143 148.223C602.121 151.541 604.31 154.156 609.466 153.331C610.86 153.109 611.089 152.563 611.567 151.529C608.626 146.557 590.175 148.799 588.039 135.13C587.451 131.587 588.422 127.96 590.698 125.184C594.129 121.011 598.187 120.096 603.168 119.512Z" fill="white"/>
<path d="M472.346 119.972C482.385 118.921 481.664 122.71 486.665 123.594C488.907 118.79 493.991 120.308 498.775 120.334C498.948 126.956 498.75 134.173 498.69 140.838C494.643 140.635 490.083 140.753 485.991 140.772C485.329 138.545 484.245 133.407 482.103 132.544C472.017 128.478 469.81 150.873 479.546 152.273C484.178 152.941 487.327 151.021 491.128 148.625C494.874 149.025 497.991 154.235 500.067 157.104C495.695 160.737 491.932 162.957 486.211 164.586C462.867 171.228 446.209 149.062 457.995 128.444C460.825 123.494 466.711 120.999 472.346 119.972Z" fill="white"/>
<path d="M200.462 107.645C202.685 109.698 200.733 118.407 202.149 120.634C204.667 120.531 207.183 120.448 209.701 120.379L209.684 132.356L201.182 132.106C201.099 137.133 200.686 148.669 201.734 153.054C204.036 154.464 207.685 153.263 210.407 152.69C208.588 163.684 213.128 165.6 199.207 165.868C197.497 165.793 195.791 165.638 194.096 165.407C179.776 163.405 187.248 136.097 184.459 132.352C182.839 132.238 182.146 132.339 180.784 131.442C179.357 127.854 178.115 123.317 182.346 121.193C187.402 118.654 183.928 117.211 185.266 113.704C188.736 110.621 195.808 109.025 200.462 107.645Z" fill="white"/>
<path d="M975.767 118.298C977.946 118.27 977.12 117.893 978.555 118.91C980.323 122.751 979.083 130.318 978.664 134.763C968.95 134.915 964.954 139.47 966.603 149.623C967.353 154.248 968.475 151.204 970.692 153.347C971.402 156.445 971.257 161.149 971.286 164.465C963.817 164.268 952.521 164.784 945.845 164.146C945.768 162.782 945.436 156.879 945.748 156.072C946.986 152.873 950.319 150.914 949.988 146.427C949.723 142.836 950.804 134.876 948.498 132.377C944 130.707 945.731 124.751 946.024 120.398C950.623 120.42 957.203 119.848 961.718 120.672C963.003 120.906 963.915 122.982 964.578 124.224L964.927 124.892L965.79 124.614C968.563 120.51 970.196 119.615 975.045 118.463L975.767 118.298Z" fill="white"/>
<path d="M532.852 118.391C535.203 118.256 534.376 117.845 535.734 118.984C536.715 122.985 536.041 130.006 535.793 134.386C532.672 134.868 529.743 135.166 526.917 136.628C523.375 138.463 522.327 149.596 524.07 152.313C525.194 152.474 526.066 152.619 527.18 152.855C528.262 154.521 528.204 162.021 528.303 164.399C520.267 164.266 510.587 164.633 502.876 164.149C502.709 156.274 501.706 156.948 506.409 151.035C506.801 147.421 507.448 135.615 505.766 132.748C504.347 132.397 504.295 132.459 503.083 131.684C502.202 128.642 503.288 125.069 502.279 120.313C507.329 120.53 513.727 119.922 518.753 120.564C520.034 120.727 521.212 123.499 521.949 124.88C523.347 124.328 524.859 121.866 525.842 120.54C528.719 119.423 529.765 119.018 532.852 118.391Z" fill="white"/>
<path d="M837.653 118.283C838.528 118.223 840.574 118.092 840.781 119.289C841.454 123.198 841.504 129.335 840.783 133.161C839.646 136.828 834.693 135.126 831.777 136.402C827.83 138.126 827.396 148.077 829.233 151.227C834.303 153.556 833.136 159.324 833.232 164.413C825.338 164.103 816.774 164.289 808.821 164.323C807.727 162.925 807.6 154.28 808.851 152.809C809.178 152.426 810.518 153.042 811.899 151.434C811.991 147.409 812.765 135.67 811.143 132.608C809.698 132.193 809.8 132.227 808.74 131.15C807.406 127.44 807.9 124.47 808.026 120.464C813.699 120.462 819.375 120.492 825.049 120.554C825.72 122.318 826.392 124.511 827.005 126.333C830.684 120.638 831.343 120.111 837.653 118.283Z" fill="white"/>
<path d="M468.317 7.72649C469.307 7.8678 471.896 8.26389 472.778 8.19538C478.803 7.72649 479.305 4.9517 484.207 9.43929C485.718 11.6296 486.184 13.184 486.704 15.8431C486.345 20.2943 486.118 19.9389 482.354 23.4738C481.18 23.5102 481.693 23.6857 480.804 22.9921L480.246 21.2043L479.284 21.0651C478.888 21.4655 475.846 24.8076 475.889 24.7734C475.28 25.6512 474.863 26.3363 474.301 27.2463C474.811 30.4771 474.72 27.1264 477.007 29.5928C476.834 31.0102 477.152 30.4021 476.175 31.5133C475.421 31.4491 474.668 31.3934 474.151 31.1558C472.272 30.2951 471.665 34.4273 468.766 34.9304C466.126 33.0313 465.987 28.0556 465.585 25.0003C462.474 24.8162 460.971 25.2894 459.302 22.5938C459.201 20.3414 459.815 19.333 460.655 17.1706C459.992 11.7623 464.082 9.85467 468.317 7.72649Z" fill="white"/>
<path d="M460.655 17.171C466.897 14.1779 464.894 20.6694 471.902 17.4236C474.217 18.3314 473.969 20.4168 474.136 22.7184C474.707 23.3929 475.303 24.1229 475.889 24.7738C475.28 25.6516 474.863 26.3368 474.301 27.2467C474.811 30.4775 474.72 27.1268 477.007 29.5933C476.834 31.0106 477.152 30.4026 476.175 31.5138C475.421 31.4495 474.668 31.3939 474.151 31.1562C472.272 30.2955 471.665 34.4277 468.766 34.9308C466.126 33.0318 465.987 28.056 465.585 25.0008C462.474 24.8166 460.971 25.2898 459.302 22.5943C459.201 20.3419 459.815 19.3334 460.655 17.171Z" fill="white"/>
<path d="M443.439 24.4463C442.836 20.3097 442.969 18.1002 444.961 12.7198C446.334 9.00937 453.292 -2.63781 458.765 5.31396C459.263 6.03549 458.581 8.35422 458.042 9.33267C455.693 11.2168 453.66 10.8121 450.731 10.5637L449.947 10.491L449.66 11.1483L450.652 12.268C450.644 13.589 447.655 15.4624 445.925 17.2823C445.278 19.738 445.643 19.3891 446.398 22.2367L444.13 21.8149C443.892 22.6949 443.657 23.5599 443.439 24.4463Z" fill="white"/>
<path d="M443.424 24.4438C443.642 23.5574 443.877 22.6925 444.114 21.8125L446.383 22.2343C448.719 22.8787 452.648 24.4759 454.13 26.4521C455.22 30.2631 452.851 31.9909 450.406 34.6736L448.507 35.8897C445.423 32.1986 444.469 28.9592 443.424 24.4438Z" fill="white"/>
<path d="M480.81 22.9927C481.699 23.6863 481.186 23.5108 482.36 23.4744C486.125 19.9395 486.351 20.2949 486.71 15.8438C488.56 27.8999 486.719 34.2545 475.718 40.7161L474.91 39.8853C473.031 40.0202 471.147 40.0909 469.262 40.0994C469.764 39.9988 470.264 39.8918 470.765 39.7804C477.676 38.2068 486.871 31.5054 484.81 23.4444L484.211 23.2089C483.102 24.1873 482.354 24.8318 481.156 25.7289L480.68 25.2236L480.81 22.9927Z" fill="white" fill-opacity="0.988235"/>
<path d="M468.32 7.7288C471.073 7.5618 475.048 7.69024 477.222 6.31785L477.654 5.32443C475.208 0.224512 465.761 2.44045 460.342 0.721211C461.962 -0.109508 464.906 -0.000316923 466.768 0.0103882C474.428 0.0553498 480.409 2.42118 484.21 9.4416C479.308 4.95401 478.806 7.7288 472.782 8.19769C471.899 8.2662 469.31 7.87011 468.32 7.7288Z" fill="white" fill-opacity="0.956863"/>
<path d="M458.662 26.8125L460.16 27.4462C461.186 28.9 462.067 35.3102 462.728 37.8645C456.971 35.3316 457.772 32.21 458.662 26.8125Z" fill="white" fill-opacity="0.313726"/>
<path d="M448.518 35.8919L450.416 34.6758C454.576 39.2083 456.226 39.7072 462.024 41.799L458.999 42.6725C454.888 39.6901 453.026 41.0753 448.518 35.8919Z" fill="white" fill-opacity="0.980392"/>
<path d="M126.848 142.185L127.569 141.945L128.066 142.506L127.627 145.598C126.648 144.245 126.973 144.155 126.848 142.185Z" fill="white" fill-opacity="0.188235"/>
</svg>
