<svg width="1024" height="816" viewBox="0 0 1024 816" fill="none" xmlns="http://www.w3.org/2000/svg">
<path d="M615.415 0C618.731 1.50066 694.995 79.2051 703.478 87.8745C676.403 113.488 648.773 142.23 622.245 168.687L473.502 317.316L420.627 370.29C410.902 380.026 400.182 391.223 390.206 400.528C396.082 406.28 405.5 415.259 410.589 421.309C417.299 413.827 426.706 404.897 433.908 397.697L477.085 354.532L617.974 213.707L689.5 142.131L709.958 121.373C713.61 117.674 719.904 111.012 723.96 108.231C739.823 122.593 757.739 142.07 773.276 157.282C781.312 165.15 799.16 182.414 806.146 190.647C800.61 197.115 787.481 209.457 780.94 215.979L727.13 269.556L546.062 450.693C541.206 455.559 496.344 499.095 494.553 502.49C497.815 504.893 509.916 517.442 513.351 520.925C525.247 532.994 537.209 544.999 549.236 556.937L645.846 653.484C654.165 661.808 708.522 714.614 711.055 719.869C708.496 725.105 624.624 807.345 615.574 816C603.094 804.957 585.226 785.832 573.006 773.598L491.838 692.488L338.776 539.598C295.321 495.969 251.209 451.015 207.199 408.02C217.123 398.63 228.072 387.064 237.879 377.251L303.046 312.082L506.335 108.823L578.273 36.853C588.713 26.3998 604.771 9.27016 615.415 0Z" fill="#2B6876"/>
<path d="M826.121 211.215C829.431 211.794 905.15 289.262 912.692 296.936C905.288 305.357 892.67 317.247 884.469 325.438L827.498 382.201L745.214 464.621C731.017 478.825 715.864 494.602 701.334 508.266C704.298 510.511 718.911 525.519 721.877 528.76C726.391 523.478 732.578 517.593 737.609 512.565L764.1 486.162L842.599 407.689L902.221 347.942C910.395 339.747 925.096 324.059 933.268 317.44C936.179 320.06 938.966 322.938 941.773 325.681C969.479 352.762 996.32 380.894 1024 407.985C1018.95 414.065 1003.95 428.134 997.791 434.269L944.201 487.854L732.83 699.277C726.985 694.729 717.707 685.091 712.333 679.629C702.146 669.151 691.859 658.771 681.474 648.49L535.027 502.158C595.131 441.28 655.668 380.831 716.636 320.817L783.246 254.141C797.067 240.21 811.942 224.693 826.121 211.215Z" fill="#2B6876"/>
<path d="M435.365 38.8516C436.282 39.0348 436.915 39.6556 437.585 40.2958C452.018 54.0998 465.722 68.6765 479.903 82.7425C480.722 83.5559 480.838 84.3023 480.908 85.3972C476.582 90.4746 469.912 96.7227 464.982 101.63L439.04 127.565L355.83 210.833L222.448 344.158C202.338 364.169 178.672 389.147 158.114 408.066C162.216 410.856 181.252 430.791 186.359 435.92L249.075 498.612L475.512 725.15C477.342 727.011 479.358 729.064 480.481 731.43C479.463 735.046 441.282 771.978 435.671 777.656C431.993 774.823 425.209 767.679 421.682 764.128L396.94 739.247L312.493 654.809L146.51 488.845L96.1975 438.553C86.2996 428.681 75.3642 418.159 65.8672 408.02L330.177 143.669L403.085 70.8122C411.472 62.4162 427.004 45.2557 435.365 38.8516Z" fill="#56A6AE"/>
<path d="M265.743 116.227C270.756 121.195 288.37 138.082 291.597 142.44C288.108 146.931 280.426 154.132 276.179 158.362C267.269 167.349 258.3 176.276 249.27 185.143L168.831 265.531L72.2132 362.169L44.036 390.516C39.2706 395.305 30.7994 404.032 25.6196 408.06C33.5924 414.231 52.141 434.244 60.0432 442.183L130.627 512.708L243.523 625.488C254.756 636.809 266.304 647.804 277.387 659.26C281.816 663.837 286.849 668.447 290.919 673.248C289.837 676.5 269.329 696.881 265.818 699.961C260.148 696.663 245.288 680.513 239.357 674.563L202.219 637.573L67.2526 502.766L21.6725 457.114C15.2952 450.759 6.45984 441.388 0 435.675V380.151C7.06018 374.029 15.3115 365.54 22.0007 358.892L62.1234 318.724L204.854 175.984L243.939 136.909C249.02 131.823 260.474 119.755 265.743 116.227Z" fill="#B3D8DA"/>
</svg>
