<?xml version="1.0" encoding="utf-8"?>
<!-- Generator: Adobe Illustrator 23.0.1, SVG Export Plug-In . SVG Version: 6.00 Build 0)  -->
<svg version="1.1" id="图层_1" xmlns="http://www.w3.org/2000/svg" xmlns:xlink="http://www.w3.org/1999/xlink" x="0px" y="0px"
	 viewBox="0 0 130 108" style="enable-background:new 0 0 130 108;" xml:space="preserve">
<style type="text/css">
	.st0{fill:#93673D;}
	.st1{fill:#B61E22;}
	.st2{fill:#3E3A39;}
</style>
<g>
	<g>
		<path class="st0" d="M47.7,46.84c0.97,0.65,1.93,1.26,2.93,1.79c0.99,0.54,2.01,0.97,3.03,1.36c0.51,0.2,1.03,0.34,1.54,0.51
			c0.52,0.14,1.03,0.28,1.56,0.37c1.04,0.2,2.07,0.36,3.1,0.38c1.03,0.04,2.05,0.01,3.05-0.11c1-0.14,1.98-0.31,2.93-0.58
			c0.95-0.28,1.87-0.62,2.75-1.02c0.88-0.41,1.72-0.89,2.53-1.42c3.22-2.14,5.76-5.2,7.45-8.67c1.69-3.48,2.53-7.35,2.54-11.25
			c0-5.22,1.31-10.49,3.93-15.06c0.66-1.14,1.39-2.24,2.2-3.28c0.81-1.04,1.69-2.02,2.65-2.94c0.96-0.91,1.98-1.75,3.06-2.51
			c1.09-0.74,2.23-1.42,3.43-1.99c1.2-0.56,2.44-1.02,3.7-1.38c1.27-0.34,2.57-0.58,3.86-0.7c1.3-0.1,2.6-0.11,3.88,0.01
			c1.28,0.13,2.54,0.36,3.76,0.71c2.43,0.71,4.7,1.82,6.63,3.3c1.95,1.46,3.57,3.24,4.81,5.21c-0.97-0.65-1.94-1.26-2.93-1.78
			l-0.75-0.39l-0.76-0.35c-0.25-0.12-0.51-0.21-0.76-0.32l-0.38-0.16l-0.39-0.14c-0.51-0.19-1.03-0.34-1.54-0.51
			c-0.52-0.14-1.03-0.28-1.56-0.37c-1.04-0.2-2.07-0.36-3.1-0.38c-1.03-0.04-2.05-0.01-3.05,0.11c-1,0.13-1.98,0.31-2.93,0.58
			c-0.95,0.29-1.86,0.62-2.75,1.02c-0.88,0.41-1.72,0.89-2.53,1.42c-3.22,2.14-5.75,5.2-7.45,8.66c-1.69,3.48-2.53,7.35-2.55,11.24
			c-0.01,5.22-1.32,10.48-3.94,15.05c-0.66,1.14-1.39,2.24-2.2,3.28c-0.81,1.04-1.69,2.02-2.65,2.94c-0.96,0.9-1.98,1.75-3.06,2.51
			c-1.09,0.75-2.23,1.42-3.42,1.99c-1.2,0.56-2.44,1.02-3.7,1.38c-1.27,0.34-2.56,0.58-3.86,0.7c-1.3,0.1-2.6,0.11-3.88,0
			c-1.28-0.13-2.54-0.36-3.76-0.7l-0.9-0.28l-0.89-0.32c-0.3-0.1-0.58-0.24-0.87-0.36l-0.43-0.19l-0.42-0.21
			c-0.56-0.27-1.09-0.59-1.62-0.9c-0.52-0.33-1.03-0.67-1.51-1.04C50.57,50.59,48.94,48.81,47.7,46.84z"/>
		<path class="st0" d="M87.36,46.84c0.81,0.44,1.58,0.89,2.36,1.28l0.58,0.3l0.59,0.28c0.38,0.19,0.78,0.35,1.17,0.52
			c1.56,0.66,3.13,1.16,4.69,1.5c1.57,0.34,3.14,0.51,4.7,0.53c1.56,0.03,3.11-0.15,4.62-0.45c1.51-0.31,3-0.76,4.44-1.38
			c1.44-0.62,2.83-1.39,4.19-2.28c1.36-0.89,2.67-1.92,3.91-3.07c0.33-0.27,0.62-0.59,0.93-0.88l0.47-0.45l0.45-0.47
			c0.15-0.16,0.3-0.32,0.46-0.48l0.24-0.24l0.22-0.25c0.3-0.33,0.6-0.67,0.93-1c-0.08,0.45-0.18,0.9-0.28,1.35l-0.08,0.34l-0.1,0.33
			c-0.07,0.22-0.15,0.44-0.22,0.65c-0.08,0.22-0.15,0.44-0.23,0.66l-0.28,0.64c-0.19,0.42-0.38,0.85-0.61,1.26
			c-0.87,1.66-2.01,3.19-3.35,4.55c-1.34,1.37-2.9,2.55-4.61,3.5c-1.72,0.94-3.59,1.61-5.52,2c-1.93,0.38-3.93,0.5-5.88,0.28
			c-1.95-0.22-3.86-0.72-5.62-1.52c-1.76-0.8-3.38-1.85-4.77-3.12c-0.68-0.65-1.34-1.31-1.9-2.05
			C88.28,48.44,87.79,47.65,87.36,46.84z"/>
		<path class="st0" d="M42.66,9.12c-0.81-0.44-1.58-0.89-2.36-1.28l-0.58-0.3l-0.59-0.28c-0.38-0.19-0.78-0.35-1.17-0.52
			c-1.56-0.66-3.13-1.16-4.69-1.5c-1.57-0.34-3.14-0.51-4.7-0.53c-1.56-0.03-3.11,0.15-4.62,0.45c-1.51,0.31-3,0.76-4.44,1.38
			c-1.44,0.62-2.83,1.39-4.19,2.28c-1.36,0.89-2.67,1.92-3.91,3.07c-0.33,0.27-0.62,0.59-0.93,0.88L10,13.22l-0.45,0.47
			c-0.15,0.16-0.3,0.32-0.46,0.48l-0.24,0.24l-0.22,0.25c-0.3,0.33-0.6,0.67-0.93,1c0.08-0.45,0.18-0.9,0.28-1.35l0.08-0.34
			l0.1-0.33c0.07-0.22,0.15-0.44,0.22-0.65c0.08-0.22,0.15-0.44,0.23-0.66l0.28-0.64c0.19-0.42,0.38-0.85,0.61-1.26
			c0.87-1.66,2.01-3.19,3.35-4.55c1.34-1.37,2.9-2.55,4.61-3.5c1.72-0.94,3.59-1.61,5.52-2c1.93-0.38,3.93-0.5,5.88-0.28
			c1.95,0.22,3.86,0.72,5.62,1.52c1.76,0.8,3.38,1.85,4.77,3.12c0.68,0.65,1.34,1.31,1.9,2.05C41.74,7.53,42.24,8.31,42.66,9.12z"/>
		<path class="st1" d="M96.88,26.51c0,0-13.77,4.06-31.28-1.24c-20.64-6.24-32.64,4.59-32.64,4.59s9.55-3.76,27.72,1.77
			C82.95,38.41,96.88,26.51,96.88,26.51z"/>
		<path class="st0" d="M83.03,9.58c-2.04-1.43-4.17-2.6-6.37-3.37c-1.11-0.38-2.22-0.68-3.34-0.87c-0.28-0.04-0.56-0.1-0.84-0.13
			l-0.84-0.1l-0.83-0.05c-0.28-0.01-0.56-0.01-0.83-0.01c-1.1,0-2.2,0.09-3.26,0.27c-1.06,0.19-2.1,0.46-3.1,0.81
			c-1,0.36-1.96,0.8-2.87,1.31c-0.91,0.51-1.78,1.09-2.6,1.74c-3.26,2.6-5.67,6.19-7.07,10.11c-0.19,0.49-0.32,0.99-0.48,1.49
			c-0.13,0.5-0.28,1-0.38,1.52c-0.12,0.51-0.2,1.02-0.3,1.54c-0.06,0.52-0.16,1.03-0.19,1.55c-0.06,0.52-0.08,1.04-0.11,1.56
			c-0.02,0.26-0.01,0.52-0.01,0.78l-0.01,0.89l-0.02,1.05l-0.07,1.05c-0.02,0.35-0.05,0.7-0.09,1.05c-0.04,0.35-0.07,0.7-0.12,1.05
			c-0.77,5.57-3.11,10.99-6.86,15.29c-0.93,1.08-1.96,2.08-3.06,2.99c-1.1,0.92-2.27,1.75-3.52,2.46c-1.25,0.72-2.55,1.32-3.91,1.81
			c-1.36,0.48-2.75,0.83-4.17,1.05c-0.35,0.05-0.71,0.11-1.06,0.14l-1.07,0.09c-0.71,0.02-1.42,0.05-2.13,0.01l-0.53-0.02
			c-0.18-0.01-0.35-0.03-0.53-0.05l-1.05-0.11c-0.35-0.03-0.69-0.11-1.04-0.18l-1.03-0.21l-1.01-0.28c-0.33-0.1-0.67-0.18-1-0.31
			c-0.65-0.25-1.31-0.45-1.93-0.77l-0.93-0.44c-0.3-0.16-0.6-0.33-0.9-0.5c-0.6-0.32-1.16-0.71-1.72-1.09
			c-2.21-1.55-4.07-3.49-5.53-5.63c-1.46-2.14-2.54-4.47-3.17-6.89c1.48,2,3.13,3.79,4.93,5.3c0.23,0.18,0.44,0.38,0.68,0.55
			c0.24,0.17,0.47,0.35,0.7,0.52l0.35,0.26l0.36,0.24l0.72,0.47c0.12,0.08,0.24,0.15,0.37,0.22l0.37,0.21
			c0.25,0.14,0.49,0.29,0.74,0.41l0.76,0.36l0.38,0.18c0.13,0.06,0.26,0.1,0.39,0.16c0.26,0.1,0.52,0.21,0.77,0.31
			c0.25,0.11,0.52,0.18,0.78,0.27c0.26,0.08,0.52,0.17,0.78,0.25l0.79,0.19c0.52,0.14,1.06,0.21,1.58,0.31
			c0.26,0.06,0.53,0.07,0.79,0.1l0.79,0.08l0.79,0.01c0.26,0,0.52,0.03,0.79,0l0.78-0.04c0.13-0.01,0.26-0.01,0.39-0.02l0.39-0.05
			c0.52-0.04,1.03-0.15,1.53-0.23l0.75-0.17c0.25-0.05,0.49-0.14,0.74-0.2c3.93-1.14,7.33-3.66,9.82-6.91
			c2.5-3.25,4.09-7.21,4.67-11.33c0.14-1.03,0.24-2.07,0.25-3.12l0.03-0.95c0.01-0.35,0.01-0.7,0.04-1.05c0.05-0.7,0.1-1.4,0.2-2.09
			c0.08-0.7,0.21-1.39,0.33-2.08c0.15-0.69,0.29-1.38,0.49-2.05c0.17-0.68,0.4-1.35,0.61-2.02c0.24-0.66,0.48-1.32,0.77-1.97
			c0.27-0.65,0.58-1.28,0.89-1.91c0.34-0.62,0.67-1.24,1.04-1.84c0.73-1.2,1.56-2.35,2.47-3.42c0.92-1.07,1.9-2.09,2.97-3
			c1.08-0.91,2.22-1.75,3.43-2.48c1.21-0.73,2.49-1.34,3.8-1.84c0.66-0.25,1.33-0.46,2-0.65c0.34-0.09,0.68-0.17,1.02-0.25
			c0.34-0.08,0.69-0.13,1.03-0.2c1.38-0.23,2.77-0.35,4.15-0.31c1.38,0.05,2.74,0.2,4.07,0.5c2.65,0.58,5.13,1.71,7.26,3.2
			C79.88,5.62,81.67,7.5,83.03,9.58z"/>
	</g>
	<g>
		<g>
			<path class="st2" d="M22.57,90.99c3.5-1.65,6.18-3.78,7.23-5.13c0.01-0.02,0.03-0.03,0.04-0.05c0.04-0.05,0.07-0.1,0.1-0.15
				c0.09-0.15,0.12-0.28,0.14-0.38v-0.68c0-0.28-0.24-0.51-0.54-0.51H7.45c0-0.2,0.01-0.4,0.01-0.6H3.11c0,1.68,0.11,8.03-2.57,8.11
				v2.37c0,0,5.66,0.93,6.74-7.51h16.8l-0.03,0.04c0,0-1.92,1.86-5.96,3.26c-3.05-1.1-4.8-2.3-4.8-2.3H8.33
				c1.6,1.43,3.44,2.54,5.36,3.42c-3.6,0.64-6.44,0.59-6.44,0.59v2.38c0,0,5.69,0.27,11.16-1.29c2.78,0.76,5.47,1.13,7.63,1.31
				c2.64,0.22,4.41,0,4.41,0V91.5C27.52,91.69,24.86,91.44,22.57,90.99z"/>
		</g>
		<g>
			<path class="st2" d="M3.11,74.55v7.37c0,0.4,0.33,0.73,0.73,0.73h22.81l0.01,0h2.81c0.4,0,0.73-0.33,0.73-0.73V73.3
				c0-0.4-0.33-0.73-0.73-0.73H7.31c0.43-0.4,0.83-0.87,1.16-1.43h21.73v-2.37H9.37c0.06-0.28,0.1-0.56,0.14-0.87H4.75
				c0,0-0.71,4.47-4.21,4.47v2.38C0.54,74.75,1.66,74.83,3.11,74.55z M7.45,78.8h17.12v-2.37H7.45v-1.49h18.49v5.34H7.45V78.8z"/>
		</g>
		<g>
			<path class="st2" d="M41.69,69.87v-1.95h-4.34c0,1.68,0.26,6.03-3.15,7.18v2.37c0,0,0.94-0.07,2.15-0.47v16.98h3.73V74.61
				C41.02,73.5,41.69,71.98,41.69,69.87z"/>
		</g>
		<g>
			<path class="st2" d="M62.89,70.35c0-0.4-0.32-0.73-0.73-0.73h-5.03v-1.71h-3.9v1.71H50.3v2.1h2.93v2.06h-3.53v2.1h3.53v2.06H50.3
				v2.11h2.93v1.97h-2.93v2.1h2.93v1.97h-3.53v2.1h3.53v2.58h3.9V88.2h6.48v-2.1h-6.48v-1.97h5.75v-2.1h-5.75v-1.97h5.03
				c0.4,0,0.73-0.33,0.73-0.73v-3.43h1.16v-2.1h-1.16V70.35z M57.14,71.73h2.29v2.06h-2.29V71.73z M59.43,77.95h-2.29v-2.06h2.29
				V77.95z"/>
		</g>
		<g>
			<path class="st2" d="M52.84,91.86c-2.39,0-4.16-0.79-5.47-2.12c1.48-2.22,1.83-4.9,1.82-7.58l0-2.12h0v-2.1H45
				c1.29-1.22,3.02-3.26,4.2-6.21h0v-2.1h-6.62v2.1h3.09c0,0-1.22,3.39-3.91,6.21l0,0v2.1h4.04c0,0.15,0,0.76,0,1.7
				c0.01,2.03-0.09,3.61-0.39,4.9c-0.53-1.32-0.9-2.82-1.14-4.42h-3.1l0,0.01c0.32,2.4,1.1,5.28,2.66,7.59
				c-0.59,0.66-1.35,1.26-2.32,1.86v2.16c1.65-0.54,2.96-1.24,3.99-2.07c1.48,1.33,3.42,2.2,5.92,2.21v0h12.18v-2.1L52.84,91.86
				L52.84,91.86z"/>
		</g>
		<g>
			<path class="st2" d="M129.14,88.27L129.14,88.27c-2.36-1.61-4.5-3.49-6.36-5.6c-1.82-2.14-3.81-4.99-4.94-7.5h9.74v-2.56h-11.26
				v-4.62h-4.27v4.62h-11.2v2.56h9.6c-1.18,2.48-3.18,5.32-4.96,7.47c-1.86,2.17-3.98,4.17-6.28,5.93l-0.29,0.22l1.23,2.04
				l0.37-0.22c1.95-1.14,3.78-2.46,5.48-3.92v2.89h6.04v4.81l4.26,0.01c0,0,0.02-3.79,0.02-4.82h6.1v-2.67
				c1.65,1.36,3.46,2.53,5.42,3.48l0.36,0.18l1.25-2.09L129.14,88.27z M112.04,86.63h-5.96c0.58-0.5,1.15-1.02,1.7-1.56
				c1.66-1.68,3.1-3.55,4.27-5.58V86.63z M116.32,86.63v-6.93c1.23,2.11,2.75,4.06,4.52,5.81c0.4,0.39,0.81,0.76,1.24,1.13H116.32z"
				/>
		</g>
		<g>
			<path class="st2" d="M76.86,74.31v2.07c2.35,0,4.36-0.98,5.25-2.27c0.22-0.32,0.41-0.64,0.58-0.98h8.46
				c-0.12,0.16-0.26,0.31-0.39,0.47c-0.39,0.46-0.76,0.94-1.11,1.44l-0.32,0.46l2.52,0.72l0.16-0.1c1.34-0.85,2.52-1.92,3.49-3.17
				c0.1-0.12,0.08-0.53,0.08-0.8v-1.2c0-0.27-0.22-0.49-0.49-0.49H83.38c0.02-0.23,0.03-0.47,0.03-0.71v-1.7h-3.79
				C79.61,69.51,79.84,73.31,76.86,74.31z"/>
			<path class="st2" d="M91.06,89.68c0.03,0,0.06,0,0.09,0c0.98,0,1.88,0,1.88,0v-7.34c0-0.27-0.22-0.49-0.49-0.49H72.61
				c-0.27,0-0.49,0.22-0.49,0.49v7.34l3.95,0V84.5h12.98v5.19L91.06,89.68z"/>
			<path class="st2" d="M72.46,72.77L72.46,72.77c1.05,0.56,2.17,1,3.32,1.31l0.35,0.09L77,72.3l-0.29-0.19
				c-1.75-1.17-3.5-2.36-5.21-3.55l-0.31-0.21l-2.06,2.16l0.34,0.27C70.39,71.53,71.4,72.2,72.46,72.77z"/>
			<path class="st2" d="M96.46,79.04c-2.03-0.31-4.01-0.85-5.87-1.61c-0.76-0.33-1.48-0.73-2.15-1.19
				c-0.48-0.35-0.91-0.76-1.28-1.21l0.07-0.3c0.08-0.35,0.09-0.43,0.15-0.79l0.07-0.47h-3.9l-0.08,0.3
				c-0.1,0.37-0.12,0.45-0.22,0.79c-0.15,0.51-0.38,0.97-0.69,1.36c-0.47,0.51-1.02,0.94-1.64,1.27C79.98,77.69,79,78.09,78,78.38
				c-1.03,0.31-2.08,0.59-3.13,0.81l-0.46,0.1l0.67,1.98l0.34-0.03c2.09-0.21,4.18-0.64,6.2-1.29c0.85-0.29,1.67-0.65,2.44-1.09
				c0.51-0.32,0.99-0.68,1.43-1.09c0.45,0.41,0.96,0.77,1.5,1.07c0.78,0.44,1.62,0.82,2.5,1.11c2.05,0.65,4.21,1.07,6.4,1.26
				l0.34,0.03l0.71-2.11L96.46,79.04z"/>
			<path class="st2" d="M84.27,88.47c0.2-0.47,0.32-0.96,0.38-1.48c0.02-0.52,0.07-1.05,0.15-1.57l0.06-0.42h-4.25l-0.06,0.31
				c-0.1,0.54-0.17,1.08-0.21,1.6c-0.07,0.55-0.27,1.06-0.58,1.5c-0.5,0.59-1.14,1.07-1.88,1.42c-1.25,0.59-2.58,1.05-3.93,1.37
				c-1.53,0.39-3.1,0.74-4.65,1.03l-0.47,0.09l0.78,2.02l0.35-0.05c1.6-0.23,3.2-0.5,4.77-0.81c1.25-0.26,2.51-0.58,3.73-0.94
				c0.71-0.23,1.43-0.49,2.13-0.77c0.69-0.31,1.35-0.68,1.94-1.12c2.16,0.78,4.38,1.49,6.6,2.12c1.96,0.61,3.97,1.13,5.99,1.56
				l0.39,0.08l0.69-1.96l-0.37-0.12C91.99,91.03,88.11,89.73,84.27,88.47z"/>
			<path class="st2" d="M70.48,81.21L70.48,81.21c1.25-0.91,2.48-1.89,3.64-2.92c0.85-0.7,1.61-1.5,2.27-2.39l0.12-0.16l-1.57-1.72
				l-0.29,0.22c-2.05,1.55-4.15,3.07-6.24,4.54l-0.37,0.26l2.12,2.4L70.48,81.21z"/>
		</g>
	</g>
	<g>
		<path class="st2" d="M0.6,100.35h4.62v1.25H2.11v1.96h2.67v1.26H2.11v3.04H0.6V100.35z"/>
		<path class="st2" d="M6.55,104.07c0-2.44,1.37-3.86,3.36-3.86c1.99,0,3.36,1.43,3.36,3.86c0,2.43-1.37,3.92-3.36,3.92
			C7.92,108,6.55,106.51,6.55,104.07z M11.73,104.07c0-1.61-0.71-2.58-1.83-2.58c-1.12,0-1.83,0.96-1.83,2.58
			c0,1.6,0.71,2.63,1.83,2.63C11.02,106.7,11.73,105.68,11.73,104.07z"/>
		<path class="st2" d="M14.74,106.9l0.86-1.03c0.54,0.5,1.25,0.83,1.91,0.83c0.78,0,1.2-0.33,1.2-0.86c0-0.56-0.46-0.73-1.13-1.01
			l-1-0.43c-0.76-0.31-1.52-0.92-1.52-2.02c0-1.23,1.07-2.17,2.6-2.17c0.87,0,1.74,0.34,2.35,0.96l-0.76,0.94
			c-0.48-0.4-0.97-0.62-1.59-0.62c-0.66,0-1.09,0.29-1.09,0.79c0,0.54,0.54,0.73,1.18,0.98l0.98,0.42c0.91,0.38,1.51,0.95,1.51,2.04
			c0,1.23-1.02,2.27-2.76,2.27C16.47,108,15.47,107.6,14.74,106.9z"/>
		<path class="st2" d="M22.03,104.48v-4.13h1.5v4.26c0,1.56,0.54,2.09,1.42,2.09c0.89,0,1.46-0.53,1.46-2.09v-4.26h1.44v4.13
			c0,2.5-1.06,3.52-2.9,3.52C23.13,108,22.03,106.97,22.03,104.48z"/>
		<path class="st2" d="M30.16,100.35h1.53l2.18,4l0.75,1.62h0.05c-0.08-0.78-0.19-1.77-0.19-2.63v-2.99h1.42v7.51h-1.52l-2.17-4.02
			l-0.76-1.61H31.4c0.07,0.81,0.18,1.75,0.18,2.62v3.01h-1.42V100.35z"/>
		<path class="st2" d="M41.08,100.35h1.5v2.95h2.84v-2.95h1.49v7.51h-1.49v-3.25h-2.84v3.25h-1.5V100.35z"/>
		<path class="st2" d="M49.26,100.35h4.6v1.25h-3.1v1.73h2.64v1.26h-2.64v2.01h3.21v1.26h-4.72V100.35z"/>
		<path class="st2" d="M59.52,105.93h-2.43l-0.53,1.93h-1.52l2.4-7.51h1.76l2.41,7.51h-1.57L59.52,105.93z M59.2,104.76l-0.22-0.82
			c-0.23-0.78-0.44-1.64-0.66-2.45h-0.04c-0.19,0.82-0.42,1.67-0.64,2.45l-0.22,0.82H59.2z"/>
		<path class="st2" d="M63.01,100.35h1.5v6.25h3.04v1.26h-4.54V100.35z"/>
		<path class="st2" d="M69.48,101.6h-2.11v-1.25h5.74v1.25h-2.13v6.26h-1.5V101.6z"/>
		<path class="st2" d="M74.83,100.35h1.5v2.95h2.84v-2.95h1.49v7.51h-1.49v-3.25h-2.84v3.25h-1.5V100.35z"/>
		<path class="st2" d="M85.45,104.13c0-2.47,1.59-3.92,3.49-3.92c0.95,0,1.71,0.46,2.2,0.96l-0.79,0.95
			c-0.38-0.37-0.81-0.63-1.38-0.63c-1.14,0-1.99,0.97-1.99,2.59c0,1.63,0.77,2.62,1.96,2.62c0.64,0,1.15-0.3,1.55-0.74l0.79,0.93
			c-0.62,0.72-1.42,1.11-2.39,1.11C86.99,108,85.45,106.64,85.45,104.13z"/>
		<path class="st2" d="M96.51,105.93h-2.43l-0.53,1.93h-1.52l2.4-7.51h1.76l2.41,7.51h-1.57L96.51,105.93z M96.19,104.76l-0.22-0.82
			c-0.23-0.78-0.44-1.64-0.66-2.45h-0.04c-0.19,0.82-0.42,1.67-0.64,2.45l-0.22,0.82H96.19z"/>
		<path class="st2" d="M100,100.35h2.46c1.66,0,2.94,0.58,2.94,2.35c0,1.71-1.29,2.48-2.9,2.48h-1v2.67H100V100.35z M102.41,104
			c1.03,0,1.53-0.44,1.53-1.3c0-0.87-0.55-1.17-1.58-1.17h-0.85V104H102.41z"/>
		<path class="st2" d="M107.27,100.35h1.5v7.51h-1.5V100.35z"/>
		<path class="st2" d="M112.62,101.6h-2.11v-1.25h5.74v1.25h-2.13v6.26h-1.5V101.6z"/>
		<path class="st2" d="M121.03,105.93h-2.43l-0.53,1.93h-1.52l2.4-7.51h1.76l2.41,7.51h-1.57L121.03,105.93z M120.71,104.76
			l-0.22-0.82c-0.23-0.78-0.44-1.64-0.66-2.45h-0.04c-0.19,0.82-0.42,1.67-0.64,2.45l-0.22,0.82H120.71z"/>
		<path class="st2" d="M124.52,100.35h1.5v6.25h3.04v1.26h-4.54V100.35z"/>
	</g>
</g>
</svg>
