<svg width="1024" height="851" viewBox="0 0 1024 851" fill="none" xmlns="http://www.w3.org/2000/svg">
<g clip-path="url(#clip0_1087_28212)">
<path d="M375.729 369.084C383.369 374.206 390.931 379.012 398.808 383.188C406.606 387.443 414.641 390.832 422.675 393.905C426.692 395.481 430.788 396.584 434.805 397.923C438.901 399.026 442.919 400.129 447.093 400.839C455.285 402.415 463.399 403.675 471.512 403.833C479.625 404.148 487.66 403.912 495.537 402.966C503.413 401.863 511.133 400.523 518.616 398.396C526.099 396.19 533.346 393.511 540.277 390.359C547.209 387.128 553.826 383.346 560.206 379.17C585.57 362.307 605.577 338.196 618.889 310.853C632.201 283.432 638.818 252.938 638.897 222.207C638.897 181.076 649.215 139.55 669.853 103.54C675.052 94.5575 680.802 85.8899 687.182 77.6951C693.562 69.5002 700.494 61.7782 708.056 54.5289C715.618 47.3585 723.652 40.7396 732.159 34.7511C740.745 28.9202 749.725 23.562 759.177 19.0706C768.629 14.658 778.397 11.0334 788.322 8.19672C798.325 5.51765 808.565 3.62654 818.727 2.68098C828.967 1.89302 839.207 1.81422 849.289 2.75978C859.372 3.78413 869.297 5.59645 878.906 8.35432C898.047 13.9489 915.928 22.6952 931.13 34.3571C946.49 45.8614 959.251 59.8871 969.018 75.41C961.378 70.2882 953.737 65.4816 945.939 61.3842L940.031 58.3112L934.045 55.5533C932.076 54.6077 930.028 53.8986 928.058 53.0318L925.065 51.7711L921.993 50.6679C917.976 49.1708 913.88 47.9889 909.863 46.6493C905.767 45.5462 901.749 44.443 897.575 43.7339C889.383 42.1579 881.269 40.8972 873.156 40.7396C865.043 40.4244 857.009 40.6608 849.132 41.6064C841.255 42.6307 833.535 44.049 826.052 46.1765C818.569 48.4616 811.401 51.0619 804.391 54.2138C797.459 57.4444 790.842 61.2266 784.462 65.4028C759.098 82.2652 739.17 106.377 725.779 133.64C712.467 161.062 705.85 191.556 705.693 222.207C705.614 263.339 695.295 304.786 674.658 340.796C669.459 349.779 663.709 358.446 657.328 366.641C650.948 374.836 644.017 382.558 636.455 389.807C628.893 396.899 620.858 403.597 612.351 409.585C603.765 415.495 594.786 420.774 585.412 425.266C575.96 429.678 566.193 433.303 556.268 436.139C546.264 438.818 536.103 440.71 525.863 441.655C515.623 442.443 505.383 442.522 495.3 441.655C485.218 440.631 475.293 438.818 465.683 436.139L458.594 433.933L451.583 431.412C449.22 430.624 447.015 429.521 444.73 428.575L441.343 427.078L438.035 425.423C433.624 423.296 429.449 420.774 425.274 418.331C421.178 415.731 417.161 413.052 413.38 410.137C398.335 398.632 385.496 384.607 375.729 369.084Z" fill="#93673D"/>
<path d="M688.128 369.084C694.508 372.551 700.573 376.096 706.717 379.169L711.286 381.533L715.933 383.74C718.927 385.237 722.077 386.498 725.149 387.837C737.437 393.038 749.804 396.977 762.092 399.657C774.459 402.336 786.826 403.675 799.114 403.833C811.402 404.069 823.611 402.651 835.505 400.287C847.399 397.844 859.136 394.298 870.479 389.413C881.821 384.528 892.77 378.46 903.483 371.447C914.196 364.435 924.514 356.319 934.282 347.257C936.881 345.129 939.165 342.608 941.607 340.323L945.309 336.777L948.854 333.074C950.036 331.813 951.217 330.552 952.477 329.291L954.368 327.4L956.101 325.43C958.464 322.83 960.827 320.151 963.426 317.551C962.796 321.097 962.009 324.642 961.221 328.188L960.591 330.867L959.803 333.468C959.252 335.201 958.621 336.935 958.07 338.589C957.44 340.323 956.889 342.056 956.258 343.79L954.053 348.833C952.556 352.142 951.06 355.531 949.248 358.761C942.395 371.841 933.415 383.897 922.86 394.614C912.305 405.409 900.017 414.707 886.548 422.192C872.999 429.599 858.269 434.878 843.067 437.952C827.865 440.946 812.111 441.891 796.751 440.158C781.391 438.424 766.346 434.484 752.482 428.181C738.619 421.877 725.858 413.603 714.909 403.596C709.553 398.475 704.354 393.274 699.943 387.443C695.375 381.691 691.515 375.466 688.128 369.084Z" fill="#93673D"/>
<path d="M336.03 71.864C329.649 68.3969 323.584 64.8511 317.44 61.7781L312.871 59.4142L308.224 57.2079C305.231 55.7107 302.08 54.45 299.008 53.1105C286.72 47.9099 274.353 43.9701 262.065 41.291C249.698 38.6119 237.332 37.2724 225.044 37.1148C212.756 36.8784 200.546 38.2968 188.652 40.6606C176.758 43.1033 165.022 46.6492 153.679 51.5345C142.336 56.4199 131.387 62.4872 120.674 69.5001C109.962 76.513 99.6431 84.629 89.8757 93.6906C87.2763 95.8181 84.992 98.3395 82.5502 100.625L78.7693 104.17L75.2247 107.874C74.0431 109.135 72.8616 110.395 71.6013 111.656L69.7108 113.547L67.9779 115.517C65.6148 118.117 63.2517 120.796 60.6523 123.397C61.2825 119.851 62.0702 116.305 62.8579 112.759L63.488 110.08L64.2757 107.48C64.8271 105.746 65.4573 104.013 66.0087 102.358C66.6388 100.625 67.1902 98.8911 67.8203 97.1576L70.0259 92.1146C71.5225 88.8052 73.0191 85.4169 74.8308 82.1863C81.6837 69.1061 90.6634 57.0503 101.219 46.334C111.774 35.5389 124.062 26.2409 137.531 18.7553C151.079 11.3484 165.809 6.06907 181.012 2.99601C196.214 0.00175222 211.968 -0.943803 227.328 0.789715C242.688 2.52323 257.733 6.46305 271.596 12.7668C285.46 19.0705 298.22 27.3441 309.169 37.3512C314.526 42.473 319.724 47.6735 324.135 53.5044C328.783 59.3354 332.721 65.4815 336.03 71.864Z" fill="#93673D"/>
<path d="M763.116 208.892C763.116 208.892 654.651 240.883 516.726 199.121C354.146 149.952 259.623 235.289 259.623 235.289C259.623 235.289 334.848 205.661 477.971 249.236C653.39 302.659 763.116 208.892 763.116 208.892Z" fill="#B61E22"/>
<path d="M654.021 75.4886C637.952 64.2208 621.174 55.0016 603.845 48.9343C595.102 45.94 586.358 43.5761 577.536 42.079C575.331 41.7638 573.125 41.291 570.92 41.0547L564.303 40.2667L557.765 39.8727C555.56 39.7939 553.354 39.7939 551.227 39.7939C542.563 39.7939 533.898 40.5031 525.549 41.9214C517.199 43.4185 509.007 45.546 501.13 48.3039C493.253 51.1406 485.691 54.6076 478.523 58.6262C471.355 62.6448 464.502 67.215 458.043 72.3368C432.365 92.8238 413.381 121.112 402.353 152C400.857 155.861 399.833 159.801 398.572 163.741C397.548 167.68 396.367 171.62 395.579 175.718C394.634 179.736 394.004 183.755 393.216 187.852C392.744 191.95 391.956 195.968 391.72 200.066C391.247 204.163 391.089 208.26 390.853 212.358C390.696 214.407 390.774 216.455 390.774 218.504L390.696 225.517L390.538 233.79L389.987 242.064C389.829 244.822 389.593 247.58 389.278 250.338C388.963 253.095 388.726 255.853 388.333 258.611C382.267 302.501 363.835 345.208 334.297 379.091C326.971 387.601 318.858 395.48 310.193 402.651C301.529 409.9 292.313 416.44 282.467 422.035C272.621 427.708 262.381 432.436 251.668 436.297C240.955 440.079 230.006 442.837 218.821 444.57C216.064 444.964 213.229 445.437 210.472 445.674L202.043 446.383C196.451 446.54 190.858 446.777 185.265 446.462L181.091 446.304C179.673 446.225 178.334 446.068 176.916 445.91L168.645 445.043C165.888 444.807 163.21 444.177 160.453 443.625L152.34 441.97L144.384 439.764C141.785 438.976 139.107 438.346 136.507 437.321C131.387 435.351 126.189 433.775 121.305 431.254L113.979 427.787C111.616 426.526 109.253 425.187 106.89 423.847C102.164 421.326 97.7528 418.253 93.3417 415.258C75.9337 403.045 61.2827 387.758 49.7823 370.896C38.282 354.034 29.775 335.674 24.8125 316.605C36.4703 332.365 49.4673 346.469 63.6457 358.367C65.4574 359.786 67.1116 361.362 69.002 362.701C70.8925 364.041 72.7042 365.459 74.5159 366.799L77.2728 368.847L80.1085 370.738L85.7799 374.442C86.7251 375.072 87.6704 375.624 88.6944 376.175L91.6088 377.83C93.578 378.933 95.4685 380.115 97.4377 381.061L103.424 383.897L106.417 385.316C107.441 385.788 108.465 386.104 109.489 386.576C111.537 387.364 113.585 388.231 115.555 389.019C117.524 389.886 119.651 390.437 121.699 391.147C123.747 391.777 125.795 392.486 127.843 393.117L134.065 394.614C138.161 395.717 142.415 396.268 146.511 397.056C148.559 397.529 150.686 397.608 152.734 397.844L158.957 398.475L165.179 398.553C167.227 398.553 169.275 398.79 171.402 398.553L177.546 398.238C178.57 398.159 179.594 398.159 180.618 398.081L183.69 397.687C187.786 397.372 191.803 396.505 195.742 395.874L201.649 394.535C203.619 394.141 205.509 393.432 207.478 392.959C238.435 383.976 265.216 364.119 284.83 338.511C304.522 312.902 317.046 281.699 321.615 249.234C322.718 241.118 323.505 232.924 323.584 224.65L323.821 217.164C323.899 214.407 323.899 211.649 324.136 208.891C324.529 203.375 324.923 197.859 325.711 192.422C326.341 186.907 327.365 181.47 328.31 176.033C329.492 170.596 330.595 165.159 332.17 159.879C333.509 154.521 335.321 149.242 336.975 143.963C338.865 138.762 340.756 133.562 343.04 128.44C345.167 123.318 347.609 118.354 350.051 113.39C352.729 108.504 355.328 103.619 358.243 98.8911C363.993 89.4356 370.531 80.374 377.699 71.9428C384.945 63.5116 392.665 55.4744 401.093 48.3039C409.6 41.1335 418.58 34.5146 428.111 28.7624C437.642 23.0103 447.725 18.2037 458.043 14.2639C463.242 12.294 468.52 10.6393 473.797 9.14216C476.475 8.43299 479.153 7.80262 481.832 7.17225C484.51 6.54188 487.267 6.1479 489.945 5.59633C500.815 3.78401 511.764 2.83846 522.634 3.15364C533.504 3.54762 544.217 4.72957 554.693 7.09345C575.567 11.6636 595.102 20.5676 611.88 32.3083C629.209 44.2853 643.309 59.099 654.021 75.4886Z" fill="#93673D"/>
<path d="M177.783 716.968C205.352 703.967 226.462 687.183 234.733 676.546C234.811 676.388 234.969 676.309 235.048 676.152C235.363 675.758 235.599 675.364 235.835 674.97C236.544 673.788 236.781 672.764 236.938 671.976V666.617C236.938 664.411 235.048 662.599 232.685 662.599H58.6834C58.6834 661.023 58.7622 659.447 58.7622 657.871H24.4976C24.4976 671.109 25.3641 721.145 4.25391 721.775V740.45C4.25391 740.45 48.8373 747.778 57.3444 681.274H189.677L189.44 681.589C189.44 681.589 174.317 696.245 142.494 707.276C118.469 698.609 104.685 689.153 104.685 689.153H65.6151C78.2182 700.421 92.7117 709.167 107.835 716.102C79.4785 721.145 57.1081 720.751 57.1081 720.751V739.504C57.1081 739.504 101.928 741.632 145.015 729.339C166.912 735.328 188.101 738.243 205.115 739.662C225.911 741.395 239.853 739.662 239.853 739.662V720.987C216.773 722.484 195.821 720.514 177.783 716.968Z" fill="#3E3A39"/>
<path d="M24.4976 587.427V645.5C24.4976 648.652 27.097 651.252 30.2478 651.252H209.92H209.999H232.133C235.284 651.252 237.883 648.652 237.883 645.5V577.577C237.883 574.426 235.284 571.825 232.133 571.825H57.5807C60.9678 568.673 64.1185 564.97 66.7179 560.557H237.883V541.883H73.8071C74.2798 539.676 74.5948 537.47 74.9099 535.027H37.4158C37.4158 535.027 31.8231 570.249 4.25391 570.249V589.003C4.25391 589.003 13.0761 589.633 24.4976 587.427ZM58.6834 620.915H193.536V602.241H58.6834V590.5H204.328V632.577H58.6834V620.915Z" fill="#3E3A39"/>
<path d="M328.389 550.549V535.184H294.203C294.203 548.421 296.251 582.698 269.391 591.759V610.434C269.391 610.434 276.795 609.882 286.326 606.731V740.527H315.707V587.898C323.111 579.152 328.389 567.175 328.389 550.549Z" fill="#3E3A39"/>
<path d="M495.381 554.332C495.381 551.18 492.86 548.58 489.631 548.58H450.01V535.105H419.29V548.58H396.211V565.127H419.29V581.359H391.484V597.906H419.29V614.138H396.211V630.764H419.29V646.287H396.211V662.834H419.29V678.357H391.484V694.904H419.29V715.234H450.01V694.983H501.052V678.436H450.01V662.913H495.302V646.366H450.01V630.843H489.631C492.782 630.843 495.381 628.243 495.381 625.091V598.064H504.518V581.516H495.381V554.332ZM450.089 565.206H468.127V581.438H450.089V565.206ZM468.127 614.217H450.089V597.985H468.127V614.217Z" fill="#3E3A39"/>
<path d="M416.217 723.824C397.391 723.824 383.449 717.599 373.13 707.12C384.788 689.627 387.545 668.509 387.466 647.392V630.687V614.14H354.462C364.623 604.527 378.25 588.452 387.545 565.207V548.66H335.399V565.207H359.739C359.739 565.207 350.129 591.919 328.94 614.14V630.687H360.763C360.763 631.869 360.763 636.676 360.763 644.082C360.842 660.078 360.054 672.528 357.691 682.693C353.516 672.292 350.602 660.472 348.711 647.865H324.293V647.944C326.814 666.855 332.958 689.548 345.246 707.75C340.598 712.95 334.612 717.678 326.971 722.406V739.426C339.968 735.171 350.287 729.655 358.4 723.115C370.058 733.595 385.339 740.45 405.031 740.529H500.972V723.982L416.217 723.824Z" fill="#3E3A39"/>
<path d="M1017.23 695.537C998.637 682.851 981.78 668.037 967.129 651.411C952.793 634.549 937.118 612.092 928.217 592.314H1004.94V572.142H916.244V535.738H882.61V572.142H794.388V592.314H870.006C860.712 611.856 844.958 634.234 830.937 651.175C816.286 668.274 799.587 684.033 781.47 697.901L779.186 699.635L788.874 715.709L791.789 713.976C807.149 704.993 821.563 694.592 834.954 683.087V705.86H882.531V743.761L916.087 743.839C916.087 743.839 916.244 713.976 916.244 705.86H964.293V684.821C977.29 695.537 991.547 704.756 1006.99 712.242L1009.82 713.66L1019.67 697.192L1017.23 695.537ZM882.531 682.615H835.584C840.153 678.675 844.643 674.577 848.975 670.322C862.051 657.085 873.394 642.35 882.61 626.354V682.615H882.531ZM916.244 682.615V628.009C925.933 644.635 937.906 660 951.848 673.789C954.998 676.862 958.228 679.778 961.615 682.693H916.244V682.615Z" fill="#3E3A39"/>
<path d="M605.42 585.537V601.848C623.931 601.848 639.763 594.126 646.774 583.961C648.507 581.44 650.003 578.918 651.342 576.239H717.981C717.036 577.5 715.933 578.682 714.909 579.943C711.837 583.567 708.923 587.35 706.166 591.29L703.645 594.914L723.495 600.587L724.755 599.8C735.31 593.102 744.605 584.671 752.246 574.821C753.033 573.876 752.876 570.645 752.876 568.517V559.062C752.876 556.934 751.143 555.201 749.016 555.201H656.777C656.935 553.388 657.014 551.497 657.014 549.606V536.211H627.16C627.081 547.715 628.893 577.658 605.42 585.537Z" fill="#3E3A39"/>
<path d="M717.273 706.647C717.509 706.647 717.746 706.647 717.982 706.647C725.701 706.647 732.79 706.647 732.79 706.647V648.81C732.79 646.683 731.058 644.949 728.931 644.949H571.944C569.817 644.949 568.084 646.683 568.084 648.81V706.647H599.198V665.83H701.44V706.726L717.273 706.647Z" fill="#3E3A39"/>
<path d="M570.761 573.402C579.032 577.815 587.854 581.282 596.913 583.725L599.67 584.434L606.523 569.699L604.238 568.202C590.454 558.982 576.669 549.606 563.2 540.229L560.758 538.574L544.531 555.594L547.209 557.722C554.456 563.631 562.412 568.911 570.761 573.402Z" fill="#3E3A39"/>
<path d="M759.807 622.808C743.817 620.365 728.221 616.11 713.57 610.121C707.583 607.521 701.912 604.369 696.634 600.745C692.853 597.987 689.466 594.756 686.552 591.21L687.103 588.846C687.733 586.088 687.812 585.458 688.285 582.621L688.836 578.918H658.116L657.486 581.282C656.698 584.197 656.541 584.828 655.753 587.507C654.572 591.525 652.76 595.15 650.318 598.223C646.616 602.242 642.284 605.63 637.4 608.23C629.996 612.17 622.276 615.322 614.399 617.607C606.286 620.05 598.015 622.256 589.744 623.989L586.121 624.777L591.399 640.379L594.077 640.143C610.54 638.488 627.002 635.1 642.914 629.978C649.609 627.693 656.068 624.856 662.133 621.389C666.151 618.868 669.932 616.031 673.397 612.8C676.942 616.031 680.959 618.868 685.213 621.232C691.357 624.699 697.973 627.693 704.905 629.978C721.053 635.1 738.067 638.409 755.317 639.906L757.996 640.143L763.588 623.517L759.807 622.808Z" fill="#3E3A39"/>
<path d="M663.788 697.112C665.363 693.408 666.308 689.547 666.781 685.45C666.938 681.353 667.332 677.176 667.962 673.079L668.435 669.77H634.958L634.486 672.212C633.698 676.467 633.146 680.722 632.831 684.82C632.28 689.153 630.705 693.172 628.263 696.639C624.324 701.288 619.283 705.07 613.454 707.828C603.608 712.477 593.132 716.102 582.498 718.623C570.446 721.696 558.079 724.454 545.87 726.739L542.168 727.448L548.312 743.365L551.069 742.971C563.672 741.159 576.275 739.032 588.642 736.589C598.488 734.54 608.413 732.019 618.023 729.182C623.615 727.37 629.287 725.321 634.801 723.115C640.236 720.672 645.434 717.756 650.082 714.289C667.096 720.436 684.583 726.03 702.069 730.994C717.508 735.801 733.341 739.898 749.252 743.286L752.324 743.917L757.759 728.473L754.845 727.527C724.597 717.284 694.035 707.04 663.788 697.112Z" fill="#3E3A39"/>
<path d="M555.165 639.908C565.011 632.738 574.7 625.016 583.837 616.9C590.532 611.384 596.519 605.081 601.718 598.068L602.663 596.807L590.296 583.254L588.012 584.987C571.864 597.201 555.323 609.178 538.86 620.761L535.945 622.81L552.644 641.721L555.165 639.908Z" fill="#3E3A39"/>
<path d="M4.72656 790.723H41.1179V800.572H16.6207V816.016H37.6521V825.945H16.6207V849.899H4.72656V790.723Z" fill="#3E3A39"/>
<path d="M51.5938 820.036C51.5938 800.81 62.3851 789.621 78.0602 789.621C93.7353 789.621 104.527 800.889 104.527 820.036C104.527 839.184 93.7353 850.925 78.0602 850.925C62.3851 851.003 51.5938 839.263 51.5938 820.036ZM92.3962 820.036C92.3962 807.35 86.8036 799.707 77.9814 799.707C69.1593 799.707 63.5667 807.271 63.5667 820.036C63.5667 832.644 69.1593 840.76 77.9814 840.76C86.8036 840.76 92.3962 832.723 92.3962 820.036Z" fill="#3E3A39"/>
<path d="M116.105 842.336L122.88 834.22C127.133 838.16 132.726 840.76 137.925 840.76C144.069 840.76 147.377 838.16 147.377 833.983C147.377 829.571 143.753 828.231 138.476 826.025L130.599 822.637C124.613 820.194 118.626 815.387 118.626 806.72C118.626 797.028 127.054 789.621 139.106 789.621C145.959 789.621 152.812 792.3 157.617 797.186L151.63 804.592C147.849 801.441 143.99 799.707 139.106 799.707C133.907 799.707 130.52 801.992 130.52 805.932C130.52 810.187 134.774 811.684 139.815 813.654L147.534 816.963C154.702 819.958 159.429 824.449 159.429 833.038C159.429 842.73 151.394 850.925 137.688 850.925C129.733 851.003 121.856 847.852 116.105 842.336Z" fill="#3E3A39"/>
<path d="M173.529 823.266V790.723H185.345V824.29C185.345 836.582 189.598 840.758 196.53 840.758C203.54 840.758 208.03 836.582 208.03 824.29V790.723H219.373V823.266C219.373 842.965 211.023 851.002 196.53 851.002C182.194 851.002 173.529 842.886 173.529 823.266Z" fill="#3E3A39"/>
<path d="M237.568 790.723H249.62L266.792 822.241L272.699 835.006H273.093C272.463 828.86 271.597 821.059 271.597 814.283V790.723H282.782V849.899H270.809L253.716 818.223L247.73 805.536H247.336C247.887 811.919 248.754 819.326 248.754 826.181V849.899H237.568V790.723Z" fill="#3E3A39"/>
<path d="M323.584 790.723H335.399V813.968H357.77V790.723H369.506V849.899H357.77V824.29H335.399V849.899H323.584V790.723Z" fill="#3E3A39"/>
<path d="M388.018 790.723H424.252V800.572H399.834V814.204H420.629V824.132H399.834V839.97H425.119V849.899H387.939V790.723H388.018Z" fill="#3E3A39"/>
<path d="M468.835 834.691H449.695L445.52 849.899H433.547L452.451 790.723H466.315L485.298 849.899H472.931L468.835 834.691ZM466.315 825.472L464.582 819.011C462.77 812.864 461.116 806.088 459.383 799.705H459.068C457.571 806.167 455.76 812.864 454.027 819.011L452.294 825.472H466.315Z" fill="#3E3A39"/>
<path d="M496.326 790.723H508.142V839.97H532.087V849.899H496.326V790.723Z" fill="#3E3A39"/>
<path d="M547.288 800.572H530.668V790.723H575.881V800.572H559.104V849.899H547.288V800.572Z" fill="#3E3A39"/>
<path d="M589.43 790.723H601.245V813.968H623.616V790.723H635.352V849.899H623.616V824.29H601.245V849.899H589.43V790.723Z" fill="#3E3A39"/>
<path d="M673.084 820.509C673.084 801.047 685.608 789.621 700.574 789.621C708.058 789.621 714.044 793.246 717.904 797.186L711.681 804.671C708.688 801.756 705.301 799.707 700.811 799.707C691.831 799.707 685.136 807.35 685.136 820.115C685.136 832.959 691.201 840.76 700.574 840.76C705.616 840.76 709.633 838.396 712.784 834.929L719.006 842.257C714.123 847.93 707.821 851.003 700.181 851.003C685.214 851.003 673.084 840.287 673.084 820.509Z" fill="#3E3A39"/>
<path d="M760.203 834.691H741.062L736.887 849.899H724.914L743.819 790.723H757.682L776.665 849.899H764.299L760.203 834.691ZM757.682 825.472L755.949 819.011C754.137 812.864 752.483 806.088 750.75 799.705H750.435C748.939 806.167 747.127 812.864 745.394 819.011L743.661 825.472H757.682Z" fill="#3E3A39"/>
<path d="M787.692 790.723H807.07C820.145 790.723 830.228 795.293 830.228 809.24C830.228 822.714 820.067 828.781 807.385 828.781H799.508V849.82H787.692V790.723ZM806.676 819.483C814.789 819.483 818.727 816.016 818.727 809.24C818.727 802.384 814.395 800.021 806.282 800.021H799.587V819.483H806.676Z" fill="#3E3A39"/>
<path d="M844.958 790.723H856.773V849.899H844.958V790.723Z" fill="#3E3A39"/>
<path d="M887.1 800.572H870.479V790.723H915.693V800.572H898.915V849.899H887.1V800.572Z" fill="#3E3A39"/>
<path d="M953.344 834.691H934.203L930.029 849.899H918.056L936.96 790.723H950.824L969.807 849.899H957.44L953.344 834.691ZM950.824 825.472L949.091 819.011C947.279 812.864 945.625 806.088 943.892 799.705H943.577C942.08 806.167 940.269 812.864 938.536 819.011L936.803 825.472H950.824Z" fill="#3E3A39"/>
<path d="M980.835 790.723H992.65V839.97H1016.6V849.899H980.835V790.723Z" fill="#3E3A39"/>
</g>
<defs>
<clipPath id="clip0_1087_28212">
<rect width="1024" height="851" fill="white"/>
</clipPath>
</defs>
</svg>
