<svg width="1024" height="262" viewBox="0 0 1024 262" fill="none" xmlns="http://www.w3.org/2000/svg">
<g clip-path="url(#clip0_1087_28236)">
<path d="M1017.7 172.54V126.946C1017.7 113.104 1010.98 104.008 997.274 104.008C985.946 104.008 978.24 111.556 973.21 118.976V103.727L949.556 115.189V117.428C955.994 116.583 955.994 118.682 955.994 128.481V172.54C955.994 179.947 953.613 181.073 950.119 181.073V183.452H980.762V181.073C975.309 181.073 973.21 179.96 973.21 172.54V125.833C976.564 121.074 981.325 115.765 989.159 115.765C996.992 115.765 1000.49 120.242 1000.49 128.775V172.553C1000.49 179.96 998.106 181.086 993.076 181.086V183.465H1024V181.086C1020.08 181.086 1017.7 179.973 1017.7 172.553V172.54Z" fill="#313A44"/>
<path d="M910.374 104.43C890.086 104.43 874.547 121.073 874.547 144.433C874.547 167.793 890.355 184.437 910.374 184.437C930.393 184.437 946.201 168.075 946.201 144.715C946.201 121.355 930.393 104.442 910.374 104.442V104.43ZM913.318 179.115C898.905 179.115 892.185 154.501 892.185 132.958C892.185 117.299 899.328 109.879 907.584 109.879C922.137 109.879 928.576 133.649 928.576 155.474C928.576 171.132 921.574 179.115 913.318 179.115Z" fill="#313A44"/>
<path d="M865.036 172.537V102.189H862.515C860.134 105.272 856.921 107.229 849.497 107.229H820.672V82.6155H817.177C813.683 97.1611 805.568 108.624 796.608 111.425V113.523H803.468V165.271C803.468 166.115 803.468 167.087 803.609 167.791C800.947 172.409 797.593 175.761 793.536 175.761C790.182 175.761 787.801 174.085 787.801 167.791V127.097C787.801 110.734 777.164 104.018 761.497 104.018C742.323 104.018 730.432 113.946 730.432 124.154C730.432 129.054 733.644 132.406 738.828 132.406C744.281 132.406 746.803 128.913 747.648 123.451C748.761 115.481 750.31 109.327 759.68 109.327C767.372 109.327 771.571 114.368 771.571 122.747C771.571 130.436 768.486 134.21 764.019 136.308C759.539 138.687 753.945 139.941 748.352 141.898C737.292 145.531 728.768 151.403 728.768 164.836C728.768 167.215 729.1 169.429 729.715 171.45C727.718 174.047 725.363 175.736 722.611 175.736C719.539 175.736 717.299 174.06 717.299 167.766V71.7031L693.376 82.1934V84.4321C700.096 83.7285 700.096 85.6858 700.096 94.5002V107.511C696.46 105.413 691.699 104.018 685.542 104.018C666.649 104.018 648.883 120.24 648.883 147.514C648.883 171.284 660.774 184.435 676.454 184.435C686.668 184.435 695.065 177.859 700.236 170.452C700.518 178.704 705.139 184.857 714.508 184.857C722.291 184.857 727.488 180.929 731.212 175.058C734.617 181.39 741.337 185.138 749.491 185.138C759.424 185.138 766.284 178.704 770.905 172.128C771.609 179.266 776.499 184.857 785.6 184.857C794.7 184.857 800.294 180.098 804.492 173.113C806.873 181.224 813.171 184.998 821.427 184.998C834.726 184.998 839.334 174.085 840.32 161.356L837.939 161.075C835.98 170.721 832.896 174.917 828.288 174.917C823.68 174.917 820.736 171.706 820.736 164.286V113.523H841.728C847.884 113.523 847.884 115.199 847.884 124.986V172.537C847.884 179.944 845.504 181.07 841.868 181.07V183.45H871.539V181.07C867.34 181.07 865.1 179.957 865.1 172.537H865.036ZM700.057 163.442C696.14 168.751 691.801 173.087 684.531 173.087C671.513 173.087 665.92 156.584 665.92 136.73C665.92 117.988 673.894 109.455 683.545 109.455C693.196 109.455 700.057 117.566 700.057 129.732V163.442ZM770.726 165.68C766.668 171.13 762.611 174.495 757.158 174.495C750.156 174.495 746.099 169.595 746.099 161.625C746.099 154.909 749.312 150.572 754.636 147.361C758.694 145.122 762.47 144.009 765.836 141.911C768.358 140.235 770.035 138.418 770.739 136.871V165.68H770.726Z" fill="#313A44"/>
<path d="M856.23 97.8551C862.528 97.8551 866.726 93.5183 866.726 87.6463C866.726 81.7743 862.528 77.4375 856.23 77.4375C849.933 77.4375 845.875 81.915 845.875 87.6463C845.875 93.3775 850.214 97.8551 856.23 97.8551Z" fill="#313A44"/>
<path d="M639.334 172.54V126.946C639.334 113.104 632.614 104.008 618.905 104.008C607.577 104.008 599.872 111.556 594.841 118.976V103.727L571.187 115.189V117.428C577.625 116.583 577.625 118.682 577.625 128.481V169.879C577.625 176.877 574.412 179.666 569.228 179.666C564.044 179.666 560.691 176.864 560.691 169.879V103.727L536.908 114.92V117.159C543.488 116.174 543.488 119.117 543.488 128.481V164.429C540.275 168.766 535.372 173.384 528.371 173.384C521.369 173.384 517.593 169.047 517.593 160.233V103.727L493.67 114.92V117.159C500.249 116.174 500.249 119.117 500.249 128.481V162.05C500.249 176.032 506.828 185.128 520.678 185.128C531.033 185.128 538.726 178.271 543.769 171.286C544.473 178.425 548.672 183.452 561.676 183.452H602.393V181.073C596.94 181.073 594.841 179.96 594.841 172.54V125.833C598.195 121.074 602.956 115.765 610.79 115.765C618.624 115.765 622.118 120.242 622.118 128.775V172.553C622.118 179.96 619.737 181.086 614.707 181.086V183.465H645.632V181.086C641.715 181.086 639.334 179.973 639.334 172.553V172.54Z" fill="#313A44"/>
<path d="M454.911 104.43C434.623 104.43 419.084 121.073 419.084 144.433C419.084 167.793 434.892 184.437 454.911 184.437C474.93 184.437 490.738 168.075 490.738 144.715C490.738 121.355 474.93 104.442 454.911 104.442V104.43ZM457.842 179.115C443.43 179.115 436.71 154.501 436.71 132.958C436.71 117.299 443.852 109.879 452.108 109.879C466.662 109.879 473.1 133.649 473.1 155.474C473.1 171.132 466.098 179.115 457.842 179.115Z" fill="#313A44"/>
<path d="M397.682 84.2938C413.772 84.2938 419.097 88.3491 419.647 104.993H422.591V78.5625H351.641V80.942C358.079 80.942 360.601 81.6456 360.601 91.7137V170.173C360.601 180.1 358.079 180.945 351.641 180.945V183.465H388.722V180.945C381.452 180.945 378.508 180.1 378.508 170.173V132.69H394.034C403.826 132.69 407.193 136.604 407.602 146.813H410.405V112.694H407.602C407.18 123.466 403.826 126.818 394.034 126.818H378.508V84.3065H397.682V84.2938Z" fill="#313A44"/>
<path d="M306.726 138.828L295.948 131.83C289.228 127.493 285.171 124.423 285.171 118.82C285.171 113.216 289.369 109.583 295.948 109.583C304.627 109.583 313.164 116.159 315.404 128.747H317.926V105.668H315.404C315.264 107.626 314.56 108.611 312.742 108.611C310.08 108.611 305.331 104.415 295.526 104.415C283.494 104.415 272.435 111.553 272.435 125.395C272.435 134.209 277.337 141.054 286.425 146.938L297.062 153.796C304.755 158.836 307.699 161.625 307.699 167.919C307.699 174.213 303.5 178.972 294.4 178.972C282.79 178.972 271.027 171.706 269.209 151.838H267.392C263.052 165.258 255.078 172.256 243.878 172.256C228.62 172.256 219.11 159.105 219.11 137.011V136.448H266.828C266.265 116.875 255.219 104.427 237.862 104.427C220.505 104.427 202.316 120.086 202.316 146.938C202.316 153.066 203.392 158.862 205.465 163.992C202.329 171.181 198.4 174.904 193.216 174.904C187.34 174.904 184.256 171.693 184.256 164.132V111.963H202.726V105.668H184.256V82.5898H180.761C177.267 96.7133 169.152 107.063 160.192 109.864V111.963H167.052V165.245C167.052 166.09 167.052 166.921 167.193 167.625C164.39 172.384 161.036 175.735 157.12 175.735C153.766 175.735 151.385 174.06 151.385 167.765V127.071C151.385 110.709 140.748 103.992 125.081 103.992C105.907 103.992 94.0156 113.92 94.0156 124.129C94.0156 129.028 97.2284 132.38 102.412 132.38C107.865 132.38 110.387 128.888 111.232 123.425C112.345 115.455 113.894 109.302 123.264 109.302C130.956 109.302 135.155 114.342 135.155 122.721C135.155 130.41 132.07 134.184 127.603 136.282C123.123 138.661 117.529 139.915 111.936 141.872C100.876 145.506 92.3516 151.378 92.3516 164.81C92.3516 177.117 101.171 185.087 113.062 185.087C122.995 185.087 129.856 178.652 134.476 172.077C135.18 179.215 140.07 184.806 149.171 184.806C158.272 184.806 163.865 180.047 168.204 173.062C170.726 181.172 177.574 184.946 186.675 184.946C198.131 184.946 204.288 177.667 207.692 168.507C213.184 178.089 222.784 184.396 235.929 184.396C251.328 184.396 261.401 176.989 266.995 161.177V183.411H269.657C269.798 181.735 270.771 179.497 272.87 179.497C275.955 179.497 280.704 184.396 294.003 184.396C311.078 184.396 322.688 174.61 322.688 161.881C322.688 150.968 316.39 145.096 306.739 138.802L306.726 138.828ZM235.225 109.877C243.481 109.877 248.384 117.425 249.216 131.28H219.404C220.94 116.875 227.942 109.877 235.212 109.877H235.225ZM134.336 165.68C130.278 171.13 126.22 174.495 120.768 174.495C113.766 174.495 109.708 169.595 109.708 161.625C109.708 154.908 112.921 150.572 118.246 147.361C122.304 145.122 126.08 144.009 129.446 141.911C131.968 140.235 133.644 138.418 134.348 136.87V165.68H134.336Z" fill="#313A44"/>
<path d="M54.7072 136.873C61.568 136.873 64.4992 137.717 64.4992 148.067V168.766C64.4992 176.173 61.0048 179.397 52.8896 179.538C29.6576 179.678 18.6112 153.389 18.6112 120.933C18.6112 94.9248 31.2064 82.618 46.8736 82.618C62.5408 82.618 74.7136 91.7138 77.376 109.893H80.32V78.5626H77.5168C77.376 80.8014 76.1216 82.3365 73.8816 82.3365C70.3872 82.3365 61.8496 76.8867 49.6768 76.8867C23.5136 76.8739 0 97.1508 0 131.845C0 161.64 18.752 185.128 50.7904 184.987C66.048 184.987 76.9536 180.369 82.4192 175.623V148.067C82.4192 137.717 84.8 136.873 90.3936 136.873V134.353H54.7072V136.873Z" fill="#313A44"/>
</g>
<defs>
<clipPath id="clip0_1087_28236">
<rect width="1024" height="262" fill="white"/>
</clipPath>
</defs>
</svg>
