<svg width="1024" height="227" viewBox="0 0 1024 227" fill="none" xmlns="http://www.w3.org/2000/svg">
<g clip-path="url(#clip0_1087_28290)">
<mask id="mask0_1087_28290" style="mask-type:luminance" maskUnits="userSpaceOnUse" x="0" y="0" width="1024" height="227">
<path d="M1024 0H0V227H1024V0Z" fill="white"/>
</mask>
<g mask="url(#mask0_1087_28290)">
<path d="M982.855 110.392C982.855 102.142 989.767 96.3225 999.396 96.3225C1008.21 96.3225 1013.23 100.378 1013.23 107.413C1013.23 113.767 1007.81 117.289 999.396 120.939L982.855 127.974V110.392ZM997.767 160.848C1007.26 160.848 1015.53 157.197 1019.73 149.758C1021.09 147.458 1020.82 144.754 1018.79 143.402C1016.75 142.051 1014.04 142.455 1012.69 144.487C1009.02 149.765 1004.42 152.331 997.767 152.331C988.004 152.331 982.855 147.329 982.855 138.262V137.048L1002.24 128.799C1017.15 122.444 1022.71 118.251 1022.71 106.618C1022.71 94.9853 1013.62 87.8135 999.253 87.8135C984.882 87.8135 973.625 97.2844 973.625 110.399V138.262C973.625 151.927 982.983 160.848 997.76 160.848H997.767ZM958.72 88.4782C945.159 88.4782 935.666 98.3541 935.666 113.233V155.57C935.666 158.136 937.564 160.168 940.274 160.168C942.983 160.168 944.882 158.136 944.882 155.57V113.233C944.882 104.167 949.632 97.4071 958.848 97.4071C960.341 97.4071 962.645 97.9491 963.861 97.9491C966.308 97.9491 968.206 96.3225 968.206 93.6183C968.206 91.5867 966.99 89.8303 964.409 89.1578C962.51 88.6158 960.612 88.4782 958.713 88.4782H958.72ZM881.06 141.234C881.06 134.878 886.478 131.358 894.884 127.707L911.431 120.672V138.254C911.431 146.504 904.519 152.323 894.884 152.323C886.073 152.323 881.06 148.268 881.06 141.234ZM896.519 87.8057C887.026 87.8057 878.756 91.4569 874.553 98.8961C873.195 101.195 873.465 103.899 875.499 105.251C877.532 106.603 880.249 106.198 881.6 104.167C885.262 98.8883 889.87 96.3225 896.519 96.3225C906.276 96.3225 911.431 101.325 911.431 110.392V111.606L892.046 119.855C877.127 126.21 871.573 130.403 871.573 142.035C871.573 153.668 880.661 160.84 895.033 160.84C909.404 160.84 920.661 151.369 920.661 138.254V110.392C920.661 96.7268 911.296 87.8057 896.519 87.8057ZM812.85 129.059V97.9491C812.85 84.9647 822.478 74.9511 834.816 74.9511C844.174 74.9511 851.093 79.0066 855.026 86.5842C856.114 88.7456 858.688 89.6927 860.992 88.6158C863.154 87.5312 863.979 84.9647 862.891 82.7954C857.735 72.1101 847.708 66.1599 834.816 66.1599C817.06 66.1599 803.228 79.9544 803.228 97.9491V129.059C803.228 147.046 817.06 160.848 834.816 160.848C847.701 160.848 857.735 154.898 862.891 144.212C863.979 142.051 863.154 139.477 860.992 138.392C858.688 137.307 856.107 138.254 855.026 140.424C851.093 148 844.174 152.057 834.816 152.057C822.478 152.057 812.85 142.051 812.85 129.059ZM738.233 156.265C738.233 158.144 740.132 160.168 742.841 160.168C745.55 160.168 747.449 158.136 747.449 155.57V113.385C747.449 104.319 754.766 97.017 763.854 97.017C772.949 97.017 780.267 104.319 780.267 113.385V155.57C780.267 158.136 782.165 160.168 784.875 160.168C787.584 160.168 789.483 158.136 789.483 155.57V113.385C789.483 99.7211 778.638 88.4931 765.077 88.4931C758.158 88.4931 751.922 91.4725 747.449 96.1998V71.4298C747.449 68.8638 745.55 66.8321 742.841 66.8321C740.132 66.8321 738.233 68.8638 738.233 72.125V156.265ZM708.133 89.1578V71.4376C708.133 68.8714 706.234 66.8397 703.524 66.8397C700.813 66.8397 698.914 68.8714 698.914 71.4376V89.1578H687.659C685.216 89.1578 683.455 90.9149 683.455 93.4885C683.455 95.9252 685.216 97.6816 687.659 97.6816H698.914V135.421C698.914 142.318 701.219 148.681 705.422 153.278C710.032 158.281 715.868 160.175 723.051 160.175C726.037 160.175 727.936 157.876 727.794 155.44C727.659 153.004 725.625 151.384 723.186 151.384C713.017 151.384 708.133 144.625 708.133 135.421V97.6816H723.591C726.037 97.6816 727.794 95.9252 727.794 93.3509C727.794 90.9142 726.037 89.1578 723.591 89.1578H708.133ZM686.441 156.654C686.579 154.218 684.681 152.323 682.238 152.057C676.679 151.514 673.563 148.13 673.563 141.776V71.4376C673.563 68.8714 671.664 66.8397 668.954 66.8397C666.243 66.8397 664.344 68.8714 664.344 71.4376V141.776C664.344 146.916 665.838 151.376 668.548 154.622C671.664 158.549 676.143 160.848 681.702 160.848C684.412 160.848 686.311 158.953 686.449 156.654H686.441ZM608.902 141.234C608.902 134.878 614.323 131.358 622.731 127.707L639.276 120.672V138.254C639.276 146.504 632.363 152.323 622.731 152.323C613.918 152.323 608.902 148.268 608.902 141.234ZM624.361 87.8057C614.867 87.8057 606.598 91.4569 602.394 98.8961C601.039 101.195 601.307 103.899 603.344 105.251C605.38 106.603 608.091 106.198 609.446 104.167C613.106 98.8883 617.715 96.3225 624.361 96.3225C634.123 96.3225 639.276 101.325 639.276 110.392V111.606L619.89 119.855C604.975 126.21 599.416 130.403 599.416 142.035C599.416 153.668 608.504 160.84 622.876 160.84C637.247 160.84 648.503 151.369 648.503 138.254V110.392C648.503 96.7268 639.146 87.8057 624.369 87.8057H624.361ZM550.054 110.392C550.054 102.142 556.967 96.3225 566.6 96.3225C575.413 96.3225 580.427 100.378 580.427 107.413C580.427 113.767 575.007 117.289 566.6 120.939L550.054 127.974V110.392ZM564.969 160.848C574.463 160.848 582.732 157.197 586.935 149.758C588.291 147.458 588.023 144.754 585.986 143.402C583.949 142.051 581.239 142.455 579.884 144.487C576.224 149.765 571.615 152.331 564.969 152.331C555.206 152.331 550.054 147.329 550.054 138.262V137.048L569.44 128.799C584.355 122.444 589.914 118.251 589.914 106.618C589.914 94.9853 580.826 87.8135 566.454 87.8135C552.082 87.8135 540.827 97.2844 540.827 110.399V138.262C540.827 151.927 550.184 160.848 564.961 160.848H564.969ZM524.58 155.303V71.7128C524.58 68.8714 522.681 66.8397 519.695 66.8397C516.709 66.8397 514.81 68.8714 514.81 71.7128V107.825H472.009V71.7128C472.009 68.8714 470.111 66.8397 467.125 66.8397C464.138 66.8397 462.239 68.8714 462.239 71.7128V155.303C462.239 158.006 464.276 160.175 467.125 160.175C469.973 160.175 472.009 158.144 472.009 155.303V116.349H514.81V155.303C514.81 158.144 516.709 160.175 519.695 160.175C522.681 160.175 524.58 158.144 524.58 155.303ZM421.514 159.496C423.956 159.496 425.717 157.739 425.717 155.303C425.717 152.736 423.956 150.972 421.514 150.972H381.714V116.341H418.26C420.702 116.341 422.463 114.585 422.463 112.148C422.463 109.581 420.702 107.817 418.26 107.817H381.714V76.028H421.514C423.956 76.028 425.717 74.2716 425.717 71.6972C425.717 69.261 423.956 67.5043 421.514 67.5043H376.967C374.119 67.5043 372.22 69.5359 372.22 72.2399V154.752C372.22 157.456 374.119 159.488 376.967 159.488H421.514V159.496ZM355.276 129.059V114.447C355.276 111.744 353.377 109.711 350.529 109.711H324.902C322.46 109.711 320.698 111.468 320.698 113.905C320.698 116.471 322.46 118.236 324.902 118.236H345.782V129.059C345.782 141.776 336.02 152.057 324.22 152.057C312.422 152.057 302.798 141.913 302.798 129.059V97.9491C302.798 84.9647 312.016 74.9511 323.952 74.9511C333.041 74.9511 339.549 79.0066 343.477 86.5842C344.565 88.7456 347.137 89.6927 349.441 88.6158C351.609 87.5312 352.428 84.9647 351.341 82.7954C346.187 72.1101 336.563 66.1599 323.952 66.1599C306.595 66.1599 293.173 79.9544 293.173 97.9491V129.059C293.173 146.916 306.733 160.848 324.22 160.848C341.709 160.848 355.268 146.374 355.268 129.059H355.276ZM139.312 83.9489C139.312 71.056 148.057 58.522 152.842 60.905C158.278 63.6241 148.769 75.7761 139.312 83.9489ZM79.7362 88.6612C79.7362 78.2888 90.0039 58.5602 96.2823 60.6377C103.686 63.0971 90.1419 82.994 79.7362 88.6612ZM69.3386 162.864C64.6145 163.078 61.4676 160.061 61.4676 155.035C61.4676 141.516 80.2496 128.615 94.437 121.688C91.9182 140.553 85.5324 162.123 69.3386 162.864ZM156.012 118.847C145.308 118.847 137.1 126.714 137.1 136.139C137.1 144.006 141.824 150.285 148.133 150.285C150.346 150.285 152.535 149.032 152.535 146.198C152.535 142.112 147.107 141.119 147.529 135.001C147.796 130.968 151.602 128.272 155.376 128.272C162.941 128.272 166.478 135.581 166.478 143.128C166.157 154.76 157.582 162.856 147.498 162.856C134.259 162.856 125.761 150.277 125.761 136.75C125.761 116.632 138.991 108.772 145.921 106.886C145.989 106.886 164.051 110.101 163.484 102.158C163.24 98.6748 158.033 97.3383 154.258 97.178C150.07 97.0099 145.867 98.5145 145.867 98.5145C143.662 97.4071 142.138 95.2449 141.204 92.7401C154.121 82.9862 163.263 73.5615 163.263 62.868C163.263 57.2083 159.48 52.1749 152.23 52.1749C139.312 52.1749 129.535 68.5201 129.535 83.2998C129.535 85.8124 129.535 88.3328 130.17 90.5326C121.978 96.5055 115.883 100.21 104.85 106.817C104.85 105.434 105.141 101.898 106.067 97.2844C109.85 93.1984 115.041 87.08 115.041 82.3599C115.041 80.1601 113.786 78.2739 111.259 78.2739C104.957 78.2739 100.233 87.6993 98.9696 94.3057C96.1294 97.7661 90.4633 102.173 85.7316 102.173C81.9492 102.173 80.6933 98.7053 80.3719 97.4525C92.3541 93.3587 107.162 77.0133 107.162 62.234C107.162 59.0872 105.899 52.1672 96.4508 52.1672C82.2628 52.1672 70.288 73.233 70.288 89.5856C65.2423 89.5856 63.3587 84.239 63.3587 80.153C63.3587 76.0663 64.936 71.9725 64.936 70.7198C64.936 69.4672 64.3005 67.8861 62.4093 67.8861C57.6775 67.8861 54.8446 74.1723 54.8446 81.405C55.1662 91.4647 61.7815 97.7583 70.6096 98.3846C71.8727 104.358 77.2324 110.017 83.8478 110.017C87.9516 110.017 92.9899 108.764 96.4587 105.617C96.1365 107.825 95.8308 109.704 95.5093 111.59C81.6427 118.824 71.5591 123.857 62.417 132.022C55.1738 138.629 51.0698 147.428 51.0698 154.356C51.0698 163.788 57.0574 172.58 69.3462 172.58C83.8478 172.58 94.8736 160.954 100.233 144.915C102.76 137.368 103.77 126.393 104.398 116.326C118.9 108.153 125.776 103.418 133.326 98.0711C134.275 99.6445 135.232 100.905 136.48 101.844C129.865 105.305 114.107 115.051 114.107 137.995C114.107 154.348 125.14 172.58 146.885 172.58C164.848 172.58 177.144 157.815 177.144 143.663C177.144 130.77 169.893 118.824 156.019 118.824L156.012 118.847ZM210.198 145.847C210.144 145.946 209.961 146.091 209.616 145.969C209.348 145.869 209.264 145.732 209.271 145.564C209.287 145.381 213.084 134.199 213.062 121.359C213.015 107.519 207.38 99.0337 200.145 99.0337C195.727 99.0337 192.58 102.181 192.58 106.893C192.58 115.386 202.977 116.013 202.977 134.566C202.977 142.112 201.4 149.33 198.881 157.205C187.221 196.502 150.025 214.733 113.786 214.733C97.0788 214.733 85.2032 211.311 81.6661 209.73C81.5204 209.662 81.4052 209.379 81.5125 209.105C81.5972 208.883 81.8418 208.722 81.9719 208.783C83.4112 209.349 93.6028 212.542 106.205 212.542C120.072 212.542 128.272 206.889 128.272 199.954C128.272 195.562 124.804 192.102 120.385 192.102C111.879 192.102 111.243 202.788 92.9671 202.788C85.088 202.788 78.1589 201.222 69.9588 198.702C30.8792 186.756 12.2506 149.963 12.2812 113.492C12.2966 95.7344 17.2811 81.5888 17.3653 81.4511C17.4265 81.3596 17.6486 81.2603 17.9242 81.3596C18.2075 81.4511 18.2841 81.6959 18.2534 81.764C17.7941 83.2388 14.4864 93.3743 14.4864 105.946C14.4864 119.786 20.1599 127.958 27.4032 127.958C31.4994 127.958 34.9679 124.812 34.9679 120.42C34.9679 111.927 24.5702 110.987 24.5702 92.7479C24.5702 84.8803 26.1475 77.9681 28.6665 69.7956C40.6415 30.8115 77.5161 12.5339 113.77 12.2589C130.615 12.1291 145.362 17.1548 145.913 17.5978C146.012 17.6819 146.119 17.9033 146.012 18.1631C145.897 18.4533 145.698 18.4915 145.599 18.4762C145.423 18.4533 135.836 14.4586 121.327 14.4586C107.782 14.4586 99.2761 20.1107 99.2761 27.3515C99.2761 31.4378 102.423 34.8902 107.147 34.8902C115.662 34.8902 116.297 24.5178 134.566 24.5178C142.452 24.5178 149.373 26.0912 157.574 28.6041C196.983 40.5499 214.914 77.6553 215.251 113.492C215.428 131.854 210.236 145.755 210.19 145.847H210.198ZM113.786 5.33129C53.9028 5.33129 5.35199 53.7559 5.35199 113.484C5.35199 173.214 53.8951 221.638 113.786 221.638C173.675 221.638 222.196 173.229 222.196 113.484C222.196 53.7406 173.668 5.33129 113.786 5.33129ZM113.786 226.992C51.0622 226.992 0 176.375 0 113.492C0 50.6091 51.0468 0 113.77 0C176.494 0 227.548 50.9299 227.548 113.5C227.548 176.07 176.478 227 113.77 227L113.786 226.992Z" fill="#6022A6"/>
</g>
</g>
<defs>
<clipPath id="clip0_1087_28290">
<rect width="1024" height="227" fill="white"/>
</clipPath>
</defs>
</svg>
