<svg width="1024" height="304" viewBox="0 0 1024 304" fill="none" xmlns="http://www.w3.org/2000/svg">
<path d="M618.862 0.046875L619.278 0.0525534C637.677 0.361288 648.834 9.58997 663.642 19.0252C674.546 25.8663 685.408 32.7732 696.234 39.7455L782.886 94.5029C816.763 115.878 851.369 136.475 884.763 158.678C892.403 163.759 912.442 175.217 917.891 180.848C909.027 178.326 887.05 165.867 877.504 161.014C844.182 144.484 811.139 127.407 778.379 109.788C735.601 87.2674 690.411 66.5053 648.358 43.245C615.41 27.4933 601.562 45.7878 579.351 65.4893L518.811 119.862C513.9 124.2 508.609 128.24 503.697 132.548C490.805 143.857 479.121 156.174 464.002 164.63C455.199 169.553 446.609 171.768 436.603 172.96C421.351 174.777 406.019 174.266 390.664 174.338C380.467 174.387 369.556 174.529 359.446 173.285C357.298 172.937 355.06 172.304 353.341 170.954C350.318 168.58 351.848 164.423 354.199 162.118C363.266 153.229 374.957 147.696 385.45 140.922L465.111 90.0159C492.884 71.9207 520.785 54.0237 548.812 36.3256C564.827 26.0376 581.094 15.2119 597.627 5.7803C604.79 1.69191 610.77 0.47781 618.862 0.046875Z" fill="#FEB010"/>
<path d="M386.591 0.00046827C392.749 -0.0322113 401.733 1.64707 407.221 4.57217C430.876 17.1789 452.512 33.7531 475.635 47.4068C482.5 51.461 489.687 55.7904 496.377 60.1233C489.909 66.2019 483.003 69.6469 475.317 73.8777C457.854 65.2463 414.454 39.4385 398.085 37.7584C388.703 36.7954 379.294 39.4483 371.252 44.2372C361.046 50.3138 346.133 65.793 336.646 74.2335C329.522 80.5719 322.156 86.6336 315.077 93.0294C292.149 113.743 269.538 134.966 245.636 154.55C231.171 166.697 221.216 171.051 202.24 173.262C189.192 174.781 175.799 174.228 162.633 174.335C151.581 174.426 139.992 174.626 129.035 173.502C126.169 173.1 122.899 172.601 120.541 170.83C118.735 169.473 119.245 164.08 120.81 162.789C136.092 150.185 154.113 139.669 170.85 128.899C216.83 99.0857 263.116 69.7495 309.701 40.8948C327.962 29.4244 345.257 16.2523 364.499 6.39781C372.565 2.26678 377.577 0.656415 386.591 0.00046827Z" fill="#FEB010"/>
<path d="M107.669 247.773C120.979 245.878 131.535 251.83 134.184 265.666C136.91 279.907 134.934 299.511 117.921 303.231C104.577 305.886 93.1756 299.163 90.6864 285.523C87.9246 270.393 89.9394 251.648 107.669 247.773ZM113.682 293.196C115.919 291.627 117.292 290.115 117.942 287.334C119.613 280.174 122.103 258.102 111.453 257.252C109.315 258.656 107.868 259.742 107.14 262.39C105.134 269.69 102.502 292.692 113.682 293.196Z" fill="#FEFEFE"/>
<path d="M192.804 247.798C202.238 246.566 217.247 246.996 221.717 257.098C223.201 260.454 222.782 263.047 222.475 266.553C219.773 270.87 218.194 272.004 213.687 274.264C224.861 279.4 229.087 290.576 219.02 299.22C208.963 305.365 193.287 304.968 182.473 300.651C181.855 285.257 182.388 266.189 182.334 250.438C185.73 249.222 189.237 248.337 192.804 247.798ZM197.409 294.575C201.979 294.939 203.407 295.255 207.177 292.528C212.579 283.151 206.917 278.529 197.4 278.343L197.409 294.575ZM197.398 271.329C201.501 271.159 203.221 271.473 206.5 268.961C211.243 260.17 206.526 256.006 197.409 256.351L197.398 271.329Z" fill="#FEFEFE"/>
<path d="M578.938 247.831C606.045 243.328 621.27 266.494 598.116 277.955C604.368 283.646 608.616 294.93 612.206 302.884C607.161 302.779 600.258 303.731 595.515 302.424C594.363 302.106 593.874 300.129 593.379 298.889C590.738 291.618 589.08 285.033 583.373 279.758L583.406 302.861L568.048 302.883L568.038 250.391C571.639 249.069 575.156 248.355 578.938 247.831ZM591.402 271.4C596.74 263.702 594.067 255.833 583.407 256.344C583.322 260.628 582.401 269.414 584.358 272.752C586.822 274.102 589.3 273.114 591.402 271.4Z" fill="#FEFEFE"/>
<path d="M913.89 247.819C918.615 247.079 927.34 247.041 931.577 248.709C948.201 255.255 948.448 270.091 933.17 277.929C939.27 283.553 943.693 295.059 947.181 302.876C942.281 302.904 935.656 303.331 930.859 302.653C929.64 302.481 929.332 301.218 928.825 300.133C926.037 292.432 924.197 285.62 918.543 279.551C918.386 287.145 918.524 295.228 918.53 302.86L903.342 302.885L903.33 250.476C906.613 248.977 910.342 248.289 913.89 247.819ZM926.809 270.988C931.377 262.752 928.964 255.979 918.512 256.35C918.446 260.462 917.535 269.892 919.683 272.928C922.205 274.17 924.878 272.814 926.809 270.988Z" fill="#FEFEFE"/>
<path d="M764.083 248.062C768.5 248.095 772.917 248.053 777.334 247.934C777.334 253.515 777.612 301.68 776.96 302.698L775.385 302.871L765.712 302.885C759.913 292.178 752.823 281.597 747.187 270.799L747.193 302.87L733.948 302.885L733.93 248.065L747.229 248.07L764.21 276.388C763.793 267.771 764.089 256.851 764.083 248.062Z" fill="#FEFEFE"/>
<path d="M491.113 247.941C495.688 248.266 502.28 248.046 507.002 248.023C513.135 265.69 518.579 284.917 524.449 302.85L508.551 302.907C507.739 299.887 506.98 296.349 506.249 293.271L505.857 292.859C503.667 292.378 493.646 292.606 490.814 292.621L488.227 302.888L473.792 302.87C479.743 284.806 485.335 266.133 491.113 247.941ZM493.075 284.285L499.813 284.305L503.926 284.22C503.282 281.351 499.298 262.927 498.478 261.867C496.818 269.373 495.017 276.847 493.075 284.285Z" fill="#FEFEFE"/>
<path d="M407.078 247.829C408.806 247.513 410.888 247.495 412.66 247.431C418.981 247.203 427.189 248.262 431.974 252.763C438.671 259.061 438.569 271.35 432.159 277.792C427.02 282.957 418.72 282.966 411.942 283.052C411.157 284.001 411.417 284.912 411.387 286.368L411.427 302.86L396.071 302.882L396.042 250.349C399.889 249.036 403.065 248.351 407.078 247.829ZM411.404 274.097C413.822 274.021 415.766 274.087 418.058 273.293C424.209 267.319 423.453 257.102 413.537 255.912L411.877 256.528C410.703 259.337 411.428 270.512 411.404 274.097Z" fill="#FEFEFE"/>
<path d="M22.3386 247.735C30.0178 246.722 35.367 247.872 42.5011 250.316L37.9238 259.458C16.2128 251.462 11.0561 274.428 19.2385 290.188C20.4476 292.517 25.228 294.119 27.3957 292.487C28.1348 290.071 27.7701 281.957 27.7594 278.891L22.5087 279.144L22.5161 270.321C29.262 270.413 36.0092 270.374 42.7536 270.202C42.5444 280.06 42.617 291.13 42.7896 300.958C25.7787 307.582 4.19762 304.104 0.662552 283.323C-2.24984 266.204 4.34371 251.158 22.3386 247.735Z" fill="#FEFEFE"/>
<path d="M553.813 97.293C559.645 98.1562 615.507 135.799 624.914 141.494C632.994 146.384 679.193 174.246 685.124 180.448C681.389 179.444 679.712 178.911 676.103 177.379C671.197 174.863 666.255 172.28 661.391 169.674C629.434 152.566 596.553 137.336 564.715 120.021C557.191 115.929 549.376 112.452 542.082 107.923C545.515 105.218 549.884 100.571 553.813 97.293Z" fill="#FEB010"/>
<path d="M826.272 248.059C836.139 248.156 845.999 248.114 855.859 247.934L855.841 258.048L841.781 258.055L841.847 270.249C845.751 270.411 849.945 270.279 853.867 270.23L853.891 279.885L841.787 279.909L841.781 291.224C841.799 291.665 841.98 292.239 842.1 292.685C844.285 293.567 853.113 293.137 855.865 293.066L855.847 302.869L826.291 302.883L826.272 248.059Z" fill="#FEFEFE"/>
<path d="M1003.56 247.711C1010.39 247.033 1016.15 247.396 1022.35 250.447C1021.58 253.093 1020.36 256.311 1019.44 258.96C1015.69 258.03 1007.9 255.958 1005.91 260.284C1001.44 270.048 1023.24 273.201 1023.88 283.919C1024.19 289.01 1024.05 291.771 1021.42 296.32C1018.77 300.607 1013.35 302.508 1008.87 303.41C1002.58 304.456 994.834 303.375 989.06 300.68L992.571 291.087C996.433 292.363 1005.64 294.566 1007.54 289.991C1011.46 280.566 990.447 276.972 989.747 266.278C989.416 261.261 989.337 259.426 992.071 254.92C994.774 250.302 998.841 248.877 1003.56 247.711Z" fill="#FEFEFE"/>
<path d="M653.553 247.957C664.59 248.306 676.598 248.06 687.707 248.036L687.84 258.029L678.119 258.073L678.125 294.557L678.233 302.859L662.81 302.883L662.834 258.027L653.541 258.15C653.348 254.618 653.45 251.477 653.553 247.957Z" fill="#FEFEFE"/>
<path d="M271.088 248.067C276.282 248.071 281.476 248.042 286.669 247.98L286.728 302.846L271.105 302.887L271.088 248.067Z" fill="#FEFEFE"/>
</svg>
