<svg width="1024" height="317" viewBox="0 0 1024 317" fill="none" xmlns="http://www.w3.org/2000/svg">
<path d="M836.717 122.599C847.217 121.704 855.691 122.526 864.215 129.614C872.517 136.493 877.67 146.445 878.499 157.191C880.175 176.656 871.394 201.987 849.227 203.709C797.064 212.24 789.908 131.082 836.717 122.599ZM844.346 198.356C866.163 195.853 875.211 177.576 872.84 157.358C871.776 148.286 868.211 140.236 860.991 134.496C856.131 130.47 846.9 127.738 840.675 128.144C830.965 129.575 824.118 132.232 817.957 140.535C807.141 155.109 809.267 180.993 824.143 192.145C830.146 196.645 837.1 197.967 844.346 198.356Z" fill="#4D001D"/>
<path d="M526.703 122.685C547.656 120.363 564.306 131.159 568.102 152.693C569.006 157.822 568.873 161.924 568.833 167.126C548.693 166.605 526.024 166.946 505.786 167.037C505.915 167.969 506.07 168.897 506.251 169.821C510.89 194.48 539.993 201.524 553.55 181.226L555.892 177.275C561.552 178.668 562.812 179.744 567.434 183.097C555.915 206.218 527.778 210.947 507.293 196.809C489.828 184.756 488.53 152.374 500.981 136.48C507.485 128.178 516.281 123.963 526.703 122.685ZM506.303 156.022L535.006 155.975C540.884 155.975 550.189 156.228 555.778 155.841C551.883 139.862 544.201 133.312 527.14 134.632C514.541 137.245 509.155 143.556 506.303 156.022Z" fill="#4D001D"/>
<path d="M463.279 97.6299L477.279 97.5852L477.25 202.472L463.473 202.491C463.309 196.52 463.637 188.898 463.657 182.751C463.618 173.96 463.483 165.169 463.252 156.382C455.221 155.937 445.414 156.186 437.255 156.186C425.777 156.107 414.297 156.099 402.818 156.164C402.665 171.594 402.656 187.025 402.789 202.455C398.068 202.434 393.892 202.453 389.183 202.725C388.734 192.08 389.116 178.472 389.116 167.617L389.14 97.5391C393.357 97.7339 398.614 97.5865 402.907 97.5811C403.41 112.531 403.043 128.41 403.16 143.479L463.255 143.5L463.279 97.6299Z" fill="#4D001D"/>
<path d="M669.866 91.4088C671.633 91.3514 673.529 91.1168 675.119 91.8095C676.982 95.713 679.663 103.736 681.149 107.97L690.812 135.665C698.374 157.281 707.759 181.839 714.432 203.545L708.217 203.497C705.345 194.067 699.204 179.851 697.179 170.929C691.739 171.262 682.301 170.955 676.576 170.944L648.21 170.929C644.334 181.725 640.639 192.584 637.125 203.502L630.694 203.509L659.06 122.214C662.51 112.527 666.045 100.721 669.866 91.4088ZM650.266 165.007L672.074 164.939C679.474 164.911 687.314 164.999 694.667 164.754C688.193 143.126 679.51 121.977 672.984 99.8491C670.592 105.057 668.066 113.095 666.078 118.656C660.586 134.023 655.853 149.654 650.266 165.007Z" fill="#4D001D"/>
<path d="M598.2 135.579C603.065 127.365 608.645 123.263 618.922 123.142C621.983 123.106 622.219 124.182 626.009 123.694C627.311 125.076 626.663 134.141 626.587 136.491C623.819 136.454 621.05 136.436 618.281 136.437C594.943 136.509 598.201 154.502 598.311 171.75L598.278 202.482L585.223 202.517C584.347 188.941 585.026 171.373 584.893 157.582C584.815 149.532 584.389 132.44 585.051 125.164C587.122 123.186 591.149 123.724 594.169 123.752C599.842 122.171 598.261 131.947 598.2 135.579Z" fill="#4D001D"/>
<path d="M761.68 122.238C761.713 122.237 761.746 122.236 761.778 122.234C791.481 123.324 787.37 154.552 786.954 175.461C786.863 180.064 788.191 200.979 785.504 203.535L782.692 203.441C780.939 201.224 782.872 154.149 780.868 145.854C777.207 130.697 762.771 122.097 747.79 132.479C731.866 143.374 736.846 173.13 736.294 189.967C736.171 193.726 737.076 199.555 735.913 203.082C734.992 203.695 732.281 203.533 731.022 203.547C730.617 194.306 730.894 183.017 730.91 173.683L730.897 123.193C732.705 123.382 734.537 123.331 736.356 123.323L736.448 136.173C742.755 125.871 750.092 122.692 761.68 122.238Z" fill="#4D001D"/>
<path d="M886.818 123.11C888.656 123.03 889.605 122.997 891.472 123.191C891.733 123.371 892.058 123.595 892.446 123.861C901.181 144.442 913.409 175.085 921.274 194.903C931.244 171.275 940.137 147.239 950.169 123.474L956.64 123.478C955.881 125.735 954.841 128.264 953.977 130.513C946.532 147.099 940.141 164.855 932.929 181.581C930.325 187.619 926.915 197.44 923.905 202.899C922.983 203.755 920.491 203.749 919.103 203.875C915.079 195.113 886.75 126.976 886.818 123.11Z" fill="#4D001D"/>
<path d="M464.55 259.901C467.902 259.874 472.32 259.238 474.655 261.33C475.65 262.893 475.269 265.624 475.183 267.582L464.846 267.518C464.65 270.425 464.756 274.139 464.759 277.109C468.651 276.91 472.693 276.939 476.6 276.909L476.666 283.799C473.058 283.99 468.52 283.659 464.848 283.494C464.883 293.038 464.853 302.582 464.759 312.125C464.795 313.483 464.82 313.799 464.406 315.081C462.716 316.076 460.596 315.763 458.422 315.796C458.804 307.237 458.181 292.755 458.159 283.528C454.765 283.514 451.241 283.694 447.838 283.817L447.697 277.095L458.148 276.906C457.858 268.841 456.038 263.479 464.55 259.901Z" fill="#4D001D"/>
<path d="M397.068 260.695L397.579 260.984C397.906 262.663 397.621 271.43 397.618 273.874L397.632 309.195C406.571 308.873 415.754 309.449 424.693 309.11L424.572 315.983L419.824 315.701L390.343 315.564C391.027 310.903 390.564 306.209 390.766 301.641C391.323 289.05 389.718 272.829 390.763 260.807C392.7 260.864 395.094 260.744 397.068 260.695Z" fill="#4D001D"/>
<path d="M613.779 277.031C616.161 277.144 618.626 277.336 621.015 277.49C621.126 290.705 620.844 302.719 620.742 315.806C619.915 315.945 615.287 315.917 614.174 315.928C613.829 302.932 613.176 290.002 613.779 277.031Z" fill="#4D001D"/>
<path d="M432.182 277.064C434.583 276.977 437.303 277.233 439.727 277.404C439.746 284.265 440.162 310.301 439.063 315.703L432.755 315.874L432.182 277.064Z" fill="#4D001D"/>
<path d="M615.588 262.185C618.328 261.117 621.423 262.393 622.613 265.082C623.803 267.77 622.665 270.918 620.031 272.226C618.219 273.125 616.06 272.957 614.409 271.789C612.758 270.621 611.883 268.642 612.129 266.635C612.375 264.629 613.704 262.919 615.588 262.185Z" fill="#4D001D"/>
<path d="M434.124 261.936C442.524 261.269 443.916 268.791 438.497 272.535C430.385 272.795 427.983 265.876 434.124 261.936Z" fill="#4D001D"/>
<path d="M9.9651 0H86.4748C94.6951 3.12935 97.9067 7.55137 101.537 15.5685C105.535 24.4016 108.073 35.3621 110.183 44.5205C114.752 64.3467 124.597 140.799 141.644 151.115C158.345 147.046 169.969 58.9932 174.287 42.7375C178.285 27.6829 180.959 6.33178 197.746 0H273.962C277.895 1.85971 281.285 3.17795 283.413 7.18619C286.078 12.2063 284.058 53.7835 284.052 62.4141C284.33 120.015 284.185 177.618 283.616 235.218C283.613 245.329 284.597 304.373 283.073 308.924C281.719 312.967 278.076 314.456 275.063 316.998H183.728C178.992 315.438 173.65 314.039 170.03 310.425C152.888 293.312 171.361 239.728 151.71 209.881C149.698 206.824 147.245 203.547 143.431 202.824C141.57 202.472 139.629 202.771 138.046 203.835C134.461 206.244 131.885 210.488 129.966 214.26C116.314 241.09 126.421 269.153 120.722 296.684C119.141 304.322 115.602 311.049 108.071 314.076C105.722 315.021 103.058 315.601 100.938 316.998H9.51148C4.69657 313.239 3.82071 313.861 0.590219 308.313C-0.113535 296.099 0.459271 278.173 0.435886 265.497L0.0395047 194.29L0 8.15792C2.6182 3.56388 5.46187 2.22032 9.9651 0Z" fill="#4D001D"/>
<path d="M968.98 143.033C967.615 141.869 963.33 139.177 965.051 137.16C976.852 123.332 996.388 116.651 1012.91 126.423C1020.82 131.099 1022.13 137.856 1024 146.574V203.636C1022.33 203.689 1021.26 203.829 1019.69 203.207C1019.2 201.263 1019.5 189.683 1019.52 187.164C1017.62 190.347 1015.27 193.241 1012.53 195.755C1000.85 206.342 979.078 208.056 967.746 196.072C959.92 187.797 960.169 171.557 969.167 164.238C981.62 154.11 1004.3 156.542 1019.52 157.521C1019.37 147.871 1017.91 136.83 1008.71 131.462C1002.41 127.785 993.885 127.242 986.919 129.1C979.336 131.2 972.889 136.208 968.98 143.033ZM987.324 163.179C976.066 164.697 966.219 170.532 968.1 183.406C968.662 187.542 970.893 191.269 974.274 193.719C979.655 197.693 987.183 198.138 993.698 197.514C995.274 197.363 997.795 196.4 999.408 196.188C1014.61 192.445 1019.5 177.267 1019.27 163.233C1015.4 163.182 989.395 162.673 987.324 163.179Z" fill="#4D001D"/>
<path d="M494.75 317.001C491.623 315.236 488.31 313.982 485.946 311.227C479.95 304.242 477.917 294.263 482.702 285.966C490.794 271.937 513.38 271.852 517.729 288.967C518.604 292.404 518.426 295.409 518.293 298.898C512.772 298.865 493.002 298.538 488.872 299.242C487.068 302.305 491.523 306.71 493.757 308.581C497.602 309.395 501.087 310.098 505.067 310.074C508.811 307.653 509.76 306.544 512.094 302.73C513.629 303.571 516.874 305.092 517.651 306.436C517.625 311.832 509.026 314.449 505.676 317.001H494.75ZM488.107 292.405C490.479 292.455 501.93 292.44 503.239 292.741L511.698 292.958C509.703 285.263 504.905 282.446 497.057 283.094C491.858 285.956 490.223 286.635 488.107 292.405Z" fill="#4D001D"/>
<path d="M781.685 317.002C778.827 314.681 774.295 312.163 772.502 309.154C764.499 295.719 770.364 277.651 787.124 275.871C797.609 274.758 805.498 281.984 806.783 292.147C807.007 294.304 806.933 296.812 806.931 299.037C796.737 298.898 786.541 298.88 776.346 298.985C778.375 306.489 784.097 311.359 792.274 309.673C796.431 308.816 798.319 305.868 800.745 302.703C802.445 303.625 804.529 304.434 805.284 306.113C806.235 311.31 798.694 314.227 795.264 317.002H781.685ZM776.044 292.901C780.566 292.669 787.311 292.407 791.764 292.815C794.573 292.847 797.941 292.974 800.702 292.819C797.035 283.689 794.797 282.61 785.112 283.086C779.024 285.965 778.697 286.912 776.044 292.901Z" fill="#4D001D"/>
<path d="M645.035 317C640.83 314.841 636.521 313.28 633.976 308.994C626.876 297.028 630.92 281.184 644.604 276.363C646.876 275.562 652.898 275.717 655.47 275.668C666.085 280.997 669.391 287.134 668.349 298.912C658.432 298.596 647.273 299.335 637.775 298.732C642.047 312.459 654.034 314.913 662.103 302.642L668.17 306.099C663.9 314.433 662.486 312.745 656.308 317H645.035ZM637.965 292.866C643.028 292.718 648.688 292.439 653.698 292.549L661.894 292.995C659.996 284.929 655.709 282.845 647.716 283.09C641.952 284.272 639.688 287.481 637.965 292.866Z" fill="#4D001D"/>
<path d="M526.721 280.987C537.711 271.742 552.892 273.92 557.902 288.488C555.814 288.958 553.226 289.467 551.205 290.036C547.481 278.62 532.929 281.401 534.416 288.675C537.196 292.32 545.739 292.705 550.481 294.465C561.504 298.553 562.427 306.259 554.029 313.99C552.863 315.062 550.826 315.944 549.525 317.001H535.951C532.121 314.192 521.794 307.998 525.797 302.396C527.697 301.848 530.051 301.237 531.882 300.61C534.638 308.243 538.765 312.174 547.804 309.798C550.315 309.138 552.185 306.542 551.544 303.83C546.949 296.589 522.549 303.82 526.721 280.987Z" fill="#4D001D"/>
<path d="M818.11 295.507C809.203 281.831 822.651 273.845 835.449 276.546C842.165 277.963 844.541 282.243 846.748 288.251C844.988 288.87 842.239 290.124 840.615 289.553C837.305 287.156 839.885 285.971 833.414 282.577C831.547 282.558 828.747 282.448 826.965 282.578C825.323 283.552 820.772 286.388 823.16 288.83C828.991 294.793 842.07 291.809 846.558 299.907C847.799 302.31 847.482 306.185 847.381 309.023C844.246 314.063 843.113 313.982 837.959 316.999H823.571C820.391 312.559 804.806 304.564 819.98 300.879C821.905 306.027 821.944 306.348 826.092 309.591L826.222 309.691C830.657 310.233 832.167 310.348 836.676 309.671C838.16 308.358 839.416 307.508 839.961 305.606C839.15 299.39 824.337 298.918 818.11 295.507Z" fill="#4D001D"/>
<path d="M735.27 317.002C718.775 306.895 719.237 281.709 738.917 276.101C743.109 274.907 749.665 275.683 753.46 277.793C756.813 280.061 762.886 286.914 760.861 291.23C759.31 292.864 756.677 293.841 755.074 291.691C752.393 288.092 751.139 283.11 745.729 282.684C737.613 282.195 731.572 287.14 730.713 295.393C729.995 302.289 734.475 309.041 741.671 309.886C743.529 310.105 746.985 309.548 748.935 309.234C753.107 306.379 753.611 305.125 755.277 300.355C758.051 300.765 759.891 300.565 761.641 302.496C764.071 308.183 753.187 314.853 748.963 317.002H735.27Z" fill="#4D001D"/>
<path d="M578.382 316.998C578.357 316.957 578.333 316.915 578.308 316.874C576.874 314.517 574.011 313.176 571.875 311.503C566.061 306.949 565.093 297.432 566.647 290.644C567.819 285.518 571.324 281.064 575.754 278.293C580.235 275.49 586.671 274.914 591.747 276.13C596.005 277.151 599.345 279.962 601.58 283.668C602.625 285.399 604.615 289.37 604.093 291.335C603.961 291.833 603.568 292.14 603.136 292.399C602.065 293.04 600.669 293.206 599.485 292.854C593.957 291.213 597.654 280.818 579.801 284.227C576.306 286.906 573.281 290.369 572.968 294.859C572.091 307.445 580.7 310.616 590.911 309.698C595.328 306.704 596.23 305.069 598.113 300.027C600.439 300.706 602.774 301.356 605.115 301.979C601.043 312.894 599.9 311.69 590.653 316.998H578.382Z" fill="#4D001D"/>
<path d="M678.868 277.014C680.644 277.015 683.551 276.84 685.054 277.55C685.877 279.589 684.794 281.253 685.729 281.995C694.16 275.555 692.985 275.778 704.49 276.622C718.184 285.51 713.694 294.204 714.299 308.487C714.384 310.483 714.574 315.376 713.783 317.001H707.706C707.722 310.565 707.79 304.102 707.696 297.667C707.609 291.632 707.232 287.211 701.976 283.701C680.264 280.969 685.488 301.95 685.301 316.114C683.22 316.077 680.847 315.984 678.794 316.054C678.829 304.497 678.144 288.064 678.868 277.014Z" fill="#4D001D"/>
</svg>
