<svg width="1024" height="222" viewBox="0 0 1024 222" fill="none" xmlns="http://www.w3.org/2000/svg">
<path d="M336.633 0H114.648L3.65625 111L114.648 222H336.633L447.886 111L336.633 0Z" fill="white"/>
<path d="M447.886 111L336.633 0V222L447.886 111Z" fill="#DB0011"/>
<path d="M225.641 111L336.633 0H114.648L225.641 111Z" fill="#DB0011"/>
<path d="M3.65625 111L114.648 222V0L3.65625 111Z" fill="#DB0011"/>
<path d="M225.641 111L114.648 222H336.633L225.641 111Z" fill="#DB0011"/>
<path d="M545.297 117.792H505.079V157.491H484.97V64.5117H505.079V102.643H545.297V64.5117H565.406V157.491H545.297V117.792Z" fill="black"/>
<path d="M613.721 159.319C593.612 159.319 577.159 151.223 576.897 129.023H597.007C597.268 138.948 603.013 144.955 613.982 144.955C622.078 144.955 631.479 140.776 631.479 131.635C631.479 124.322 625.212 122.232 614.765 119.098L607.975 117.27C593.35 113.091 578.726 107.345 578.726 90.63C578.726 69.9971 598.051 62.9453 615.549 62.9453C633.569 62.9453 649.238 69.2136 649.499 89.8465H629.39C628.607 81.4888 623.645 76.5265 614.243 76.5265C606.669 76.5265 599.357 80.4441 599.357 88.8018C599.357 95.5924 605.625 97.6818 618.683 101.861L626.517 104.211C642.448 109.174 652.633 114.658 652.633 130.329C652.633 151.223 632.002 159.319 613.721 159.319Z" fill="black"/>
<path d="M663.863 64.5122H696.247C702.254 64.251 708.521 64.5122 714.528 65.5569C725.758 68.1686 734.376 75.4816 734.376 88.0181C734.376 100.032 726.802 106.039 715.834 108.912C728.369 111.263 737.771 117.531 737.771 131.373C737.771 152.529 716.878 157.23 700.687 157.23H664.124L663.863 64.5122ZM696.247 103.166C705.126 103.166 714.267 101.338 714.267 90.6298C714.267 80.9663 705.91 78.3545 697.553 78.3545H683.45V103.166H696.247ZM698.075 143.649C707.477 143.649 716.617 141.559 716.617 130.067C716.617 118.576 708.782 116.486 699.12 116.486H683.189V143.649H698.075Z" fill="black"/>
<path d="M790.263 159.319C760.23 159.319 746.911 140.253 746.911 111.785C746.911 83.3165 761.797 62.6836 791.308 62.6836C809.85 62.6836 827.87 71.0412 828.392 91.9354H807.5C806.455 82.533 800.187 77.8318 791.308 77.8318C773.027 77.8318 767.543 97.4201 767.543 112.307C767.543 127.194 773.027 144.432 790.525 144.432C799.665 144.432 806.455 139.469 807.761 130.067H828.654C826.564 151.484 809.589 159.319 790.263 159.319Z" fill="black"/>
<path d="M901.517 159.058C878.536 159.058 866 146.26 866 123.538V64.5117H874.879V120.403C874.879 127.716 874.879 135.029 879.058 141.298C884.02 148.872 893.16 152.006 901.779 152.006C911.964 152.006 921.888 147.566 926.327 137.902C928.417 132.418 929.2 126.411 928.678 120.403V64.5117H937.557V123.276C937.035 145.476 923.716 159.058 901.517 159.058Z" fill="black"/>
<path d="M955.315 64.5117H963.673V157.491H955.315V64.5117ZM964.195 107.083L1005.72 64.5117H1016.95L974.38 106.561L1021.39 157.752H1009.9L964.195 107.083Z" fill="black"/>
</svg>
