<svg width="1024" height="168" viewBox="0 0 1024 168" fill="none" xmlns="http://www.w3.org/2000/svg">
<path d="M803.351 44.0563C836.905 38.8843 856.969 64.7724 857.66 95.7168C858.191 119.284 857.767 142.684 857.47 166.231C848.292 166.592 837.728 166.067 828.037 166.335C826.611 142.85 828.48 119.02 827.127 95.5831C825.745 71.5857 809.838 64.3521 788.753 72.8233C773.944 85.5203 776.946 105.313 776.993 123.289C777.067 137.699 777.048 152.11 776.931 166.52C768.737 165.824 755.13 165.952 746.99 166.499C746.31 126.473 747.378 85.6503 746.559 45.963L775.066 45.6632C775.692 53.3723 775.531 57.3972 775.096 64.9952C783.623 52.9935 787.945 46.9717 803.351 44.0563Z" fill="#151062"/>
<path d="M588.306 44.8945C595.068 44.389 599.335 45.0665 605.899 46.0431C606.202 55.6092 605.913 65.1852 605.036 74.7159C604.041 74.5376 603.039 74.4011 602.03 74.3068C563.283 70.6552 566.03 95.2297 565.737 125.183C565.609 138.34 566.304 153.565 565.17 166.591C559.122 165.973 539.859 167.43 536.198 165.021C534.754 128.045 535.591 83.45 536.077 46.2063C545.497 45.8363 555.458 45.8732 564.925 45.7651C565.009 53.9924 565.035 58.8032 564.011 67.0174C571.559 54.3021 574.411 49.4928 588.306 44.8945Z" fill="#151062"/>
<path d="M399.153 0H429.836C429.803 13.0246 429.394 32.4004 430.545 44.9649C432.568 46.9388 456.899 45.6449 461.756 45.7219C461.328 37.9639 460.812 25.1119 461.075 17.484C471.245 17.4815 482.35 17.2528 492.443 17.5406C492.322 26.2438 492.724 37.4866 492.3 45.7844C502.367 45.7402 512.719 45.8293 522.753 45.6449C523.452 54.9722 523.313 61.8624 522.786 71.2449C515.546 71.2087 498.509 71.5085 491.733 70.5714C492.121 88.6738 491.923 106.825 492.322 124.94C492.772 145.364 507.75 143.642 522.994 140.684C523.382 147.996 525.444 162.96 519.663 167.993H490.08C484.694 164.079 477.201 163.669 471.618 157.184C461.675 145.636 461.244 133.202 461.404 118.613C461.58 102.829 461.108 86.8821 461.704 71.0802C452.369 71.0802 437.588 71.4684 428.761 70.3998C429.551 88.2808 428.666 106.424 428.973 124.34C429.251 140.903 430.699 140.996 446.174 142.597C446.233 148.552 446.931 159.517 444.635 164.885C443.699 167.077 441.428 167.384 439.395 167.993H425.32C424.256 167.238 420.471 165.985 418.994 165.34C409.081 161.012 407.022 157.496 402.594 148.233C392.516 160.165 388.022 162.183 373.797 167.993H350.165C322.507 156.23 309.336 139.43 307.94 108.472C306.451 75.4666 326.832 44.2819 361.995 43.7177C374.762 43.5128 388.109 47.2992 397.522 56.3946L398.491 56.1554C399.774 49.3721 398.652 10.9743 399.153 0ZM376.631 141.296C410.141 133.976 410.295 64.6369 363.341 69.535C354.098 72.4234 348.414 75.8103 343.9 84.7289C331.343 109.535 342.995 148.435 376.631 141.296Z" fill="#151062"/>
<path d="M9.04447 0H59.2475C65.8095 33.0414 74.232 65.8797 80.9643 98.909C82.2994 105.459 83.9497 112.092 85.8285 118.507C91.6833 90.9552 97.6836 63.4339 103.828 35.9449C105.531 28.2548 109.892 6.0784 112.106 0H161.192C162.664 11.1882 162.609 23.3406 163.601 34.6776C165.736 59.1147 167.671 84.5298 168.661 109.039C169.264 123.97 172.589 154.046 171.049 167.993H140.56C139.71 165.687 138.905 149.729 138.576 146.009C135.811 114.784 137.182 79.6117 132.463 48.87C123.086 74.7234 117.933 113.899 110.284 140.873C107.738 149.851 106.489 158.924 103.132 167.993H67.0688C64.2341 161.319 59.7887 140.143 57.8587 132.229C50.7822 103.214 45.1191 74.2582 37.5797 45.2892C32.1589 81.1528 34.0834 131.244 29.8676 167.993H0V127.745C3.54054 123.185 9.08898 14.3961 9.04447 0Z" fill="#151062"/>
<path d="M654.733 167.988C651.179 166.231 647.051 164.817 643.295 163.344C610.202 150.358 596.391 109.389 612.308 77.2793C619.329 62.9732 631.828 52.0953 646.974 47.1011C663.042 41.6998 683.036 42.7421 698.281 50.3036C712.221 57.2275 722.873 69.3475 727.944 84.0469C733.086 99.3602 732.219 120.596 724.935 135.134C717.311 150.347 703.317 160.433 687.395 165.653C685.439 166.293 682.671 167.046 680.926 167.988H654.733ZM677.178 141.177C711.533 130.943 710.831 65.981 661.729 70.4179C620.814 81.5003 631.682 151.455 677.178 141.177Z" fill="#151062"/>
<path d="M227.636 167.994C219.792 164.341 211.821 162.135 204.386 157.415C178.805 141.173 172.952 103.047 185.312 76.7353C191.691 62.9011 203.387 52.2214 217.754 47.1126C247.736 36.2906 283.314 48.8681 293.661 80.0156C298.683 95.1339 297.907 105.259 296.709 120.633C269.421 121.095 237.601 121.47 210.374 120.593C213.373 127.361 216.13 132.868 222.762 136.723C241.784 147.777 269.021 141.536 287.643 133.235C289.022 132.623 290.39 131.984 291.745 131.319C292.427 169.467 290.702 153.83 264.843 167.994H227.636ZM210.405 95.75C223.997 96.6831 235.445 95.957 248.17 96.56C255.225 96.3781 262.057 96.1678 269.123 96.3781C264.151 78.6661 256.258 67.1067 235.386 69.4729C218.676 73.252 214.992 80.1784 210.405 95.75Z" fill="#151062"/>
<path d="M978.468 167.999C957.131 159.654 945.035 154.402 933.743 131.52C927.066 117.993 927.571 95.5204 933.129 81.44C939.023 66.8351 950.458 55.1479 964.942 48.9241C980.783 42.0755 1001.1 42.3691 1017.36 48.2208C1019.57 49.0162 1021.62 50.0837 1022.98 52.0568C1024.54 57.0503 1023.86 71.654 1023.8 77.7244C1010.8 72.4289 1003.11 69.6278 988.228 70.6727C953.899 73.0823 949.496 127.405 979.342 139.412C990.722 143.989 1005.6 142.006 1017.14 137.067C1019.38 136.1 1021.61 135.104 1023.83 134.078C1023.79 141.975 1024.09 153.008 1023.66 160.639C1019.75 162.38 1004.7 167.301 1003.49 167.999H978.468Z" fill="#151062"/>
<path d="M876.438 45.9139C886.776 45.5432 896.115 45.6137 906.464 45.8047C906.668 58.405 904.686 134.804 909.565 139.599C913.09 143.065 918.103 142.979 922.685 142.901C924.129 142.875 925.57 142.837 927.014 142.789C926.963 150.274 928.444 160.884 923.65 165.81C921.464 166.608 919.463 167.317 917.236 167.991H904.332C893.373 164.146 884.666 160.56 879.313 149.418C874.592 139.589 874.917 60.5286 876.438 45.9139Z" fill="#151062"/>
<path d="M885.375 0H898.363C918.113 12.4382 910.255 37.6228 890.318 35.0098C885.247 34.3061 880.654 31.6353 877.538 27.5756C869.102 16.5781 876.262 6.92454 885.375 0Z" fill="#151062"/>
</svg>
