<svg width="1024" height="495" viewBox="0 0 1024 495" fill="none" xmlns="http://www.w3.org/2000/svg">
<path d="M757.383 209.434C720.759 215.292 703.18 241.652 703.18 288.514C703.18 335.375 728.084 367.593 764.708 367.593C801.332 367.593 798.402 361.735 832.096 345.626V383.701C792.542 402.739 769.103 407.132 735.409 407.132C701.715 407.132 675.346 398.346 656.301 377.844C635.792 357.342 625.537 329.518 625.537 300.229C625.537 232.865 675.346 187.468 748.594 187.468C821.841 187.468 830.631 209.434 830.631 241.652C830.631 273.869 814.517 276.798 792.542 276.798C770.568 276.798 770.568 273.869 758.848 266.547V209.434H757.383ZM580.123 298.765C612.352 257.761 624.072 241.652 624.072 221.15C624.072 200.648 607.958 184.539 587.448 184.539C566.939 184.539 562.544 190.397 556.684 197.719V281.191L503.946 351.484V190.397H454.137L370.634 329.518V190.397H341.335L265.157 209.434V228.472L306.176 232.865V402.739H360.38L440.952 270.94V402.739H499.551L581.588 298.765H580.123ZM105.477 234.33C117.197 234.33 124.521 231.401 130.381 231.401C165.54 231.401 184.585 254.832 184.585 298.765C184.585 342.697 161.145 377.844 118.662 377.844C76.1778 377.844 112.802 377.844 106.942 377.844V235.794L105.477 234.33ZM105.477 401.275C118.662 401.275 133.311 401.275 140.636 401.275C212.419 401.275 257.833 355.877 257.833 287.049C257.833 218.221 224.139 186.003 177.26 186.003C130.381 186.003 143.566 190.397 105.477 213.828V186.003H83.5026L0 210.899V231.401H35.159V468.638L4.39488 475.96V494.998H140.636V475.96L105.477 468.638V399.81V401.275Z" fill="black"/>
<path d="M719.288 128.87H492.22L530.309 64.4349H757.377L719.288 128.87ZM1024 0H796.931L758.842 64.4349H985.911L1024 0Z" fill="#FD5108"/>
</svg>
