<?xml version="1.0" encoding="utf-8"?>
<!-- Generator: Adobe Illustrator 25.2.1, SVG Export Plug-In . SVG Version: 6.00 Build 0)  -->
<svg version="1.1" id="图层_1" xmlns="http://www.w3.org/2000/svg" xmlns:xlink="http://www.w3.org/1999/xlink" x="0px" y="0px"
	 viewBox="0 0 620.82 181.59" style="enable-background:new 0 0 620.82 181.59;" xml:space="preserve">
<style type="text/css">
	.st0{fill:#FFFFFF;}
</style>
<g>
	<path class="st0" d="M49.79,32.37h3.64c3.02,0.04,4.75,1.34,5.21,3.89h8.73c2.64,0.08,4,1.42,4.08,4.02v2.01H58.77v3.96h-8.98
		v-3.96H36.34v3.96h-8.98v-3.96h-8.61c-2.6-0.08-3.94-1.45-4.02-4.08v-1.95h12.63v-3.89h3.71c2.97,0.04,4.69,1.34,5.15,3.89h13.57
		V32.37z M17.62,48.77h20.79V45h3.71c3.02,0,4.8,1.26,5.34,3.77h17.02c2.6,0.08,3.94,1.42,4.02,4.02v1.95H47.65v10.18h19.16
		c2.6,0.08,3.94,1.42,4.02,4.02v1.95H59.46c1.3,4.15,4.19,7.46,8.67,9.93c1.59,0.96,2.41,2.3,2.45,4.02v2.76
		c-11.18-2.35-17.97-7.92-20.35-16.71h-2.58V89.6h-9.23V70.88h-2.76c-2.39,8.79-9.15,14.37-20.29,16.71v-2.76
		c0.04-1.72,0.86-3.06,2.45-4.02c4.4-2.43,7.29-5.74,8.67-9.93h-7.1c-2.6-0.08-3.94-1.44-4.02-4.08v-1.88h23.06V54.73H21.58
		c-2.56-0.08-3.87-1.44-3.96-4.08V48.77z M21.64,56.37h5.34c2.14-0.13,3.62,0.88,4.46,3.02c0.46,1.3,1.15,2.66,2.07,4.08h-5.28
		c-2.56,0.04-4.27-0.92-5.15-2.89C22.59,59.49,22.11,58.08,21.64,56.37z M64.3,56.37c-0.46,1.72-0.94,3.12-1.44,4.21
		c-0.88,1.97-2.6,2.93-5.15,2.89h-5.28c0.92-1.42,1.61-2.78,2.07-4.08c0.84-2.14,2.32-3.14,4.46-3.02H64.3z"/>
	<path class="st0" d="M109.6,36.89c0.33-2.85,1.99-4.21,4.96-4.08h3.96c-0.67,5.15-1.88,9.45-3.64,12.88v43.79h-7.92V54.29
		c-1.59,1-3.33,1.86-5.21,2.58v-2.83c0-1.51,0.61-3.06,1.82-4.65C106.75,45.92,108.76,41.75,109.6,36.89z M127.31,32.62h2.58
		c3.52-0.17,5.26,1.42,5.21,4.77h3.64v-4.77h2.58c3.43-0.04,5.17,1.55,5.21,4.77h3.14c4.52,0.13,6.85,2.43,6.97,6.91v11.5h-10.11
		v7.41h5.78c4.15,0.13,6.28,2.26,6.41,6.41v6.91c0.17,4.86-2.24,7.2-7.22,7.04h-3.33v-3.02c0.13-1.47,0.71-2.28,1.76-2.45
		c1.09,0.04,1.61-0.59,1.57-1.88v-5.46c-0.04-1.26-0.71-1.91-2.01-1.95h-2.95v20.42h-7.79V68.81h-4.02
		c-1.13,10.18-6.81,17.21-17.02,21.11v-2.83c0.04-1.88,0.79-3.58,2.26-5.09c4.06-3.77,6.41-8.17,7.04-13.19h-9.3V57.06
		c0.17-4.44,2.45-6.74,6.85-6.91h2.76v-7.16h-5.4c-2.43-0.08-3.69-1.36-3.77-3.83v-1.76h9.17V32.62z M124.23,57.69v5.53h3.08V55.8
		h-1.19C124.86,55.8,124.23,56.43,124.23,57.69z M135.1,42.99v7.16h3.64v-7.16H135.1z M135.1,62.59v0.63h3.64V55.8h-3.64V62.59z
		 M147.79,42.99h-1.26v7.16h3.2v-5.21C149.7,43.68,149.05,43.03,147.79,42.99z"/>
	<path class="st0" d="M193.65,79.8h20.04V56.81h-18.66c-2.89-0.08-4.4-1.55-4.52-4.4v-2.14h23.18V32.56h3.33
		c4.56-0.08,6.81,2.14,6.72,6.66v11.06h18.72c2.89,0.13,4.4,1.61,4.52,4.46v2.07h-23.24V79.8h15.64c2.81,0.13,4.27,1.63,4.4,4.52
		v2.01h-45.8c-2.76-0.13-4.21-1.59-4.33-4.4V79.8z"/>
	<path class="st0" d="M281.1,43.3c0-5.86,2.93-8.79,8.8-8.79h40.02c2.64,0.08,4,1.42,4.08,4.02v1.95h-39.89
		c-2.6-0.08-3.85,1.19-3.77,3.83v37.32h40.27c2.64,0.08,4,1.44,4.08,4.08v1.88H281.1V43.3z M292.35,59.01h16.77
		c0.04-0.54,0.06-1.17,0.06-1.88v-5.09h-7.22c-2.39,2.3-5.55,3.71-9.49,4.21V54.1c0.04-1.42,0.65-2.62,1.82-3.58
		c1.63-1.09,2.7-2.47,3.2-4.15c0.71-2.85,2.43-4.19,5.15-4.02h4.15c-0.29,1.42-0.67,2.72-1.13,3.9h20.79
		c2.47,0.08,3.75,1.38,3.83,3.89v1.88h-12.38v4.71c0,0.84-0.02,1.59-0.06,2.26h11.12c2.47,0.08,3.75,1.36,3.83,3.83v1.88h-13.63
		c2.68,3.64,6.51,6.55,11.5,8.73c1.68,0.67,2.51,1.84,2.51,3.52v2.64c-8.67-1.55-15.08-4.73-19.22-9.55
		c-3.69,4.86-10.7,8.04-21.05,9.55v-2.58c0-1.63,0.86-2.76,2.58-3.39c6.2-2.18,10.22-5.15,12.06-8.92h-11.31
		c-2.51-0.08-3.81-1.38-3.9-3.9V59.01z"/>
	<path class="st0" d="M366.48,43.43c3.01,0.25,5.57,0.73,7.66,1.44v-0.75c0.17-4.82,2.68-7.31,7.54-7.48h12.69v-4.15h6.72
		c2.47,0.08,3.75,1.34,3.83,3.77v0.38h13.88c2.72,0.13,4.15,1.53,4.27,4.21v2.07h-36.62c-1.63,0.04-2.47,0.88-2.51,2.51v21.99
		c0.38,12.02-4.48,19.41-14.57,22.18v-3.08c0.04-2.18,0.65-4,1.82-5.47c2.09-2.47,3.08-5.78,2.95-9.93v-3.08
		c-2.3,0.8-4.84,1.28-7.6,1.45v-3.71c-0.21-2.68,0.98-4.12,3.58-4.33c0.96-0.08,2.3-0.38,4.02-0.88v-8.17
		c-1.3-0.38-2.62-0.69-3.96-0.94c-2.68-0.25-3.92-1.7-3.71-4.33V43.43z M386.39,48.39h29.46c1.84,0.04,3.16,0.86,3.96,2.45
		c0.67,1.63,0.46,3.25-0.63,4.84c-2.3,3.06-5.57,5.82-9.8,8.29v15.58c0.25,6.45-2.91,9.57-9.49,9.36h-6.97v-2.58
		c0.17-2.14,1.21-3.31,3.14-3.52h0.75c2.09,0.08,3.12-1.05,3.08-3.39V65.48c0-2.05,0.75-3.66,2.26-4.84
		c2.68-1.93,4.79-3.98,6.35-6.16h-17.97c-2.64-0.13-4.02-1.51-4.15-4.15V48.39z"/>
	<path class="st0" d="M480.5,32.62h3.27c3.56-0.04,5.65,1.32,6.28,4.08h15.58c2.05,0.08,3.1,1.11,3.14,3.08v1.44H490.3v3.33h14.26
		c1.97,0.08,2.99,1.11,3.08,3.08v1.45H490.3v3.46h14.2c2.05,0.08,3.1,1.11,3.14,3.08v1.45H490.3v3.71h16.08
		c1.97,0.08,2.99,1.09,3.08,3.02v1.44h-52.08V49.02c-1.13,0.42-2.32,0.75-3.58,1.01v-2.7c0.04-1.59,0.71-2.97,2.01-4.15
		c1.93-1.38,3.29-3.1,4.08-5.15c1.05-3.06,3.25-4.5,6.6-4.33h4.84l-1.13,3.01h10.3V32.62z M477.92,66.29h3.71
		c2.89,0,4.77,1.05,5.65,3.14h19.6c2.26,0.08,3.43,1.24,3.52,3.46v1.7h-9.49c1.51,3.18,3.92,5.72,7.22,7.6
		c1.63,1,2.45,2.37,2.45,4.08v2.7c-9.84-1.88-16.19-6.68-19.04-14.39h-3.83v14.64h-9.8V74.59h-4.71
		c-2.76,7.66-9.07,12.46-18.91,14.39v-2.7c0-1.76,0.79-3.12,2.39-4.08c3.31-1.88,5.7-4.42,7.16-7.6h-5.91
		c-2.22-0.08-3.37-1.26-3.46-3.52v-1.63h23.43V66.29z M467.69,41.23c-0.34,0.5-0.69,0.98-1.07,1.45v1.88h13.88v-3.33H467.69z
		 M466.62,49.08v3.46h13.88v-3.46H466.62z M466.62,57.06v3.71h13.88v-3.71H466.62z"/>
	<path class="st0" d="M543.32,43.68c-0.13-6.57,3.1-9.8,9.67-9.67h34.49c6.62-0.12,9.86,3.1,9.74,9.67v44.86h-53.9V43.68z
		 M552.68,43.86v38.57h35.31V43.86c0.08-2.6-1.17-3.85-3.77-3.77h-27.77C553.81,39.97,552.56,41.23,552.68,43.86z M573.16,42.17
		h3.39c3.56,0.08,5.42,1.86,5.59,5.34h0.69c2.55,0.08,3.87,1.38,3.96,3.9v1.82h-4.65V71c0.17,5.78-2.58,8.59-8.23,8.42h-6.22v-2.64
		c0.13-2.01,1.11-3.06,2.95-3.14c1.72,0.04,2.55-0.79,2.51-2.51V53.23h-1.38c-1.51,13.11-7.06,21.76-16.65,25.95v-2.51
		c-0.04-1.97,0.57-3.96,1.82-5.97c3.73-4.98,5.93-10.81,6.6-17.46h-4.52c-2.47-0.08-3.75-1.38-3.83-3.89v-1.82h17.97V42.17z"/>
</g>
<polygon class="st0" points="215.43,149.52 211.19,149.52 206.95,149.52 215.97,105.94 222.57,105.94 229.2,105.94 230.19,140.54 
	230.21,140.54 245.23,105.94 251.84,105.94 258.49,105.94 249.47,149.52 245.24,149.52 241,149.52 248.64,112.55 248.63,112.55 
	232.7,149.52 228.21,149.52 223.73,149.52 223.07,112.55 223.08,112.55 "/>
<path class="st0" d="M280.25,130.01l0.03-1.13c0-1.85-0.44-3.23-1.32-4.13c-0.88-0.9-2.22-1.35-4.01-1.35
	c-2.27,0-4.15,0.88-5.65,2.64c-0.87,1.03-1.61,2.35-2.22,3.97H280.25z M270.04,150.38c-4.21,0-7.44-1-9.68-2.98
	c-2.24-1.99-3.36-4.85-3.36-8.58c0.02-0.79,0.08-1.64,0.18-2.55c0.1-0.91,0.24-1.83,0.41-2.76c1.11-5.35,3.33-9.55,6.66-12.57
	c3.33-3.02,7.4-4.54,12.2-4.54c4.05,0,7.12,0.99,9.19,2.97c2.08,1.97,3.11,4.88,3.11,8.71c0,0.95-0.06,1.97-0.18,3.05
	c-0.12,1.09-0.31,2.22-0.58,3.38l-0.23,1.04h-22.08l-0.06,0.42c-0.08,0.59-0.12,1.15-0.12,1.69c0.02,1.96,0.52,3.43,1.51,4.4
	c0.99,0.98,2.47,1.47,4.47,1.47c1.44,0,2.75-0.31,3.93-0.93c1.18-0.62,2.02-1.44,2.51-2.45h8.63c-1.5,3.14-3.75,5.63-6.72,7.47
	C276.86,149.47,273.6,150.38,270.04,150.38"/>
<path class="st0" d="M309.44,123.76c-2.17,0-4.1,0.9-5.8,2.68c-1.7,1.79-2.85,4.15-3.46,7.07c-0.14,0.65-0.25,1.3-0.31,1.93
	c-0.07,0.64-0.1,1.2-0.1,1.69c0,2,0.49,3.54,1.46,4.63c0.98,1.09,2.35,1.63,4.13,1.63c2.19,0,4.14-0.86,5.83-2.59
	c1.7-1.73,2.84-4.01,3.41-6.84c0.67-3.26,0.56-5.78-0.33-7.55C313.38,124.64,311.77,123.76,309.44,123.76 M301.35,150.38
	c-3.26,0-5.82-1.04-7.67-3.13c-1.85-2.09-2.78-4.98-2.78-8.67c0-0.89,0.06-1.9,0.2-3.01c0.13-1.12,0.3-2.22,0.52-3.31
	c0.95-4.55,2.97-8.33,6.08-11.34c3.1-3.01,6.53-4.52,10.28-4.52c4.11,0,7,1.55,8.66,4.65l0.15,0.27l3.21-15.39h4.24h4.27
	l-9.01,43.59h-4.24h-4.27l0.75-3.65C308.61,148.88,305.15,150.38,301.35,150.38"/>
<path class="st0" d="M335.96,105.58h8.6l-1.6,7.77h-8.6L335.96,105.58z M333.26,117.26h4.24h4.27l-6.67,32.26h-4.24h-4.27
	L333.26,117.26z"/>
<path class="st0" d="M372.98,137.75c-1.36,3.87-3.61,6.95-6.75,9.22c-3.13,2.27-6.71,3.41-10.72,3.41c-3.88,0-6.85-0.97-8.93-2.9
	c-2.07-1.94-3.11-4.74-3.11-8.39c0-0.83,0.05-1.73,0.16-2.69c0.11-0.96,0.26-1.92,0.46-2.89c1.1-5.35,3.33-9.55,6.68-12.57
	c3.35-3.02,7.45-4.54,12.29-4.54c4.13,0,7.24,1.09,9.31,3.26c1.72,1.78,2.57,4.15,2.55,7.11l-0.12,1.99h-8.63
	c-0.08-1.84-0.48-3.17-1.2-3.99c-0.73-0.82-1.86-1.23-3.39-1.23c-2.2,0-4.03,0.87-5.48,2.6c-1.45,1.73-2.54,4.33-3.26,7.78
	c-0.12,0.65-0.22,1.31-0.3,1.97c-0.08,0.66-0.12,1.27-0.12,1.83c0,1.8,0.4,3.19,1.18,4.18c0.79,0.99,1.9,1.49,3.33,1.49
	c1.64,0,3.13-0.52,4.49-1.56c1.36-1.04,2.33-2.4,2.92-4.08H372.98z"/>
<path class="st0" d="M396.16,137.78l0.8-3.92c-0.81,0.45-1.7,0.8-2.67,1.01l-3.44,0.68c-2.25,0.45-3.87,1.03-4.85,1.72
	c-0.98,0.69-1.6,1.7-1.88,3.02c-0.04,0.2-0.04,0.2,0,0c-0.04,0.2-0.07,0.4-0.09,0.6c-0.02,0.2-0.03,0.38-0.03,0.56
	c0,0.91,0.29,1.61,0.87,2.1c0.59,0.49,1.4,0.74,2.45,0.74c2.69,0,5.07-1.07,7.15-3.2c0.35-0.35,0.69-0.85,1.01-1.48
	C395.81,138.97,396.04,138.36,396.16,137.78 M383.7,150.38c-2.65,0-4.73-0.63-6.24-1.88c-1.51-1.25-2.27-3-2.27-5.24
	c0-0.35,0.03-0.76,0.08-1.21c0.05-0.45,0.12-0.9,0.22-1.34c0.55-2.69,1.88-4.94,3.97-6.76c2.1-1.82,4.66-2.94,7.71-3.35l7.18-1.01
	c0.67-0.1,1.3-0.27,1.9-0.5c0.75-0.3,1.32-0.73,1.72-1.29c0.4-0.56,0.58-1.22,0.56-1.97c-0.02-0.79-0.29-1.4-0.8-1.81
	c-0.73-0.57-2.05-0.86-3.97-0.86c-1.46,0-2.71,0.38-3.74,1.14c-1.03,0.76-1.83,1.89-2.4,3.4h-8.04c0.83-3.7,2.65-6.51,5.45-8.42
	c2.81-1.92,6.5-2.88,11.06-2.88c4.17,0,7.19,0.81,9.05,2.44c1.38,1.19,2.06,2.79,2.05,4.8c0.02,0.7-0.06,1.44-0.24,2.23l-3.65,17.6
	c-0.3,1.42-0.38,2.52-0.26,3.28c0.12,0.76,0.46,1.29,1.04,1.59v0.03l-0.24,1.16h-4.6h-4.6v-0.03c-0.14-1.26-0.12-2.52,0.06-3.76
	C391.35,148.83,387.69,150.38,383.7,150.38"/>
<polygon class="st0" points="418.21,105.93 422.45,105.93 426.72,105.93 417.7,149.52 413.46,149.52 409.19,149.52 "/>
<path class="st0" d="M444.49,150.62c-5.2,0-9.27-1.41-12.23-4.23c-2.95-2.81-4.43-6.71-4.43-11.7c0-0.99,0.07-2.09,0.2-3.29
	c0.14-1.2,0.33-2.38,0.56-3.53c1.46-7.06,4.55-12.66,9.25-16.81c4.7-4.15,10.34-6.23,16.91-6.23c5.51,0,9.63,1.24,12.35,3.72
	c2.71,2.48,3.91,6.11,3.57,10.9h-9.08c-0.1-2.25-0.85-4.01-2.26-5.28c-1.41-1.26-3.31-1.9-5.7-1.9c-3.85,0-7.2,1.39-10.03,4.18
	c-2.84,2.79-4.74,6.55-5.7,11.3c-0.2,0.93-0.35,1.85-0.45,2.76c-0.1,0.91-0.16,1.76-0.18,2.55c0,3.22,0.86,5.69,2.58,7.38
	c1.72,1.7,4.19,2.55,7.41,2.55c3.4,0,6.39-1.38,8.98-4.12c1.46-1.56,2.65-3.41,3.55-5.55h-10.12l1.51-7.36h18.16l-4.86,23.43h-6.05
	l0.27-5.58l-0.59,0.65C454.23,148.58,449.69,150.62,444.49,150.62"/>
<path class="st0" d="M478.46,117.26h4.04h4.07l-1.38,6.56c0.51-0.81,1.08-1.6,1.69-2.37c2.67-3.36,5.53-5.04,8.6-5.04l2.05,0.03
	l-1.51,7.24c-0.71-0.08-1.56-0.12-2.55-0.12c-2.55,0-4.65,0.78-6.29,2.33c-1.65,1.55-2.78,3.81-3.39,6.78l-3.49,16.87h-4.24h-4.27
	L478.46,117.26z"/>
<path class="st0" d="M517.26,140.69c1.63-1.7,2.8-4.26,3.51-7.68c0.12-0.55,0.21-1.11,0.27-1.66c0.06-0.55,0.09-1.05,0.09-1.51
	c0-2-0.53-3.55-1.6-4.64c-1.06-1.1-2.57-1.65-4.52-1.65c-2.57,0-4.68,0.86-6.31,2.59c-1.65,1.73-2.83,4.34-3.56,7.81
	c-0.1,0.54-0.19,1.07-0.25,1.6c-0.07,0.53-0.1,1.03-0.07,1.48c0,1.98,0.53,3.5,1.59,4.58c1.06,1.08,2.57,1.61,4.54,1.61
	C513.52,143.24,515.63,142.39,517.26,140.69 M499.58,147.08c-2.42-2.2-3.64-5.2-3.66-9c0-0.65,0.05-1.39,0.14-2.21
	c0.09-0.82,0.21-1.6,0.37-2.35c1.09-5.24,3.44-9.4,7.04-12.49c3.61-3.08,7.96-4.62,13.04-4.62c4.17,0,7.46,1.11,9.89,3.35
	c2.42,2.23,3.63,5.27,3.63,9.1c0,0.67-0.05,1.42-0.15,2.25c-0.1,0.83-0.22,1.63-0.38,2.4c-1.07,5.18-3.41,9.28-7.01,12.32
	c-3.61,3.04-7.94,4.55-13.01,4.55C505.3,150.38,502,149.28,499.58,147.08"/>
<path class="st0" d="M542.52,137.19c-0.44,2.06-0.33,3.58,0.33,4.57c0.65,0.99,1.87,1.48,3.65,1.48c2.17,0,4.01-0.66,5.51-1.97
	c1.5-1.31,2.49-3.14,2.96-5.47l3.83-18.53h4.25h4.28l-6.66,32.27h-4.11h-4.11l0.94-4.71c-0.33,0.47-0.74,0.95-1.21,1.42
	c-2.67,2.77-5.92,4.15-9.76,4.15c-3.48,0-5.99-1.09-7.54-3.26c-0.99-1.4-1.48-3.18-1.48-5.34c0-1.1,0.14-2.32,0.41-3.65l4.33-20.88
	h4.24h4.28L542.52,137.19z"/>
<path class="st0" d="M584.34,143.39c2.15,0,4.08-0.88,5.76-2.64c1.68-1.76,2.82-4.08,3.41-6.96c0.14-0.64,0.25-1.27,0.33-1.91
	c0.08-0.65,0.11-1.24,0.09-1.8c0-2-0.48-3.54-1.44-4.64c-0.96-1.1-2.32-1.65-4.08-1.65c-2.1,0-4,0.88-5.7,2.64
	c-1.7,1.76-2.83,4.01-3.38,6.76h0.03c-0.7,3.26-0.6,5.78,0.26,7.55C580.5,142.5,582.07,143.39,584.34,143.39 M574.29,117.26h4h4
	l-0.93,4.63l0.65-0.68c3.2-3.2,6.71-4.8,10.55-4.8c3.28,0,5.84,1,7.69,3c1.85,2,2.77,4.76,2.77,8.3c-0.02,0.81-0.09,1.72-0.19,2.73
	c-0.11,1.01-0.26,2-0.46,2.97c-1,4.86-3.13,8.91-6.38,12.14c-3.25,3.23-6.82,4.85-10.71,4.85c-3.91,0-6.68-1.52-8.3-4.57l-0.06-0.12
	l-3.4,16.46h-4.24h-4.27L574.29,117.26z"/>
<path class="st0" d="M44,115.96c0-6.2-2.83-8.21-6.66-8.21c-3.83,0-6.75-0.27-6.93,0.36c-0.18,0.64-3.74,15.32-4.2,16.78
	c-0.45,1.46,0.28,2.46,4.29,2.46C35.06,127.35,44,126.72,44,115.96 M43.45,104.1c0.64,0,12.31-0.09,12.31,10.67
	s-12.4,13.95-13.5,14.31c-0.09,2.37,5.88,14.64,7.89,19.15c2,4.51,6.43,5.2,6.43,5.2v3.47c0,0-3.01,0.59-5.11,0.59
	c-4.6,0-9.57-1.14-11.9-5.97c-2.32-4.83-9.39-20.43-9.39-20.43s-3.78,0.05-5.2,0c-0.5,1.74-2.96,12.31-2.96,13.41
	c0,1.73,5.38,2.55,5.38,2.55l-0.82,2.65H3.69l0.82-2.55h1.18c0,0,4.38-0.55,5.47-5.01c1.1-4.47,6.11-28.82,6.48-30.46
	c0.36-1.64,0.27-3.28-1.28-3.46c-1.55-0.19-4.38-0.46-4.38-0.46l1.05-3.65H43.45z"/>
<path class="st0" d="M72.27,134.47c-5.06,1.41-9.99,3.55-9.99,8.98c0,1.96,1.64,2.65,3.46,2.65
	C71.58,146.09,72.27,134.47,72.27,134.47 M65.34,128.17c-2,0.64-9.03,2.55-9.03,2.55S56.4,119.79,72,119.79
	c12.4,0,11.21,8.3,11.21,8.3s-2.19,11.72-2.55,13.36c-0.36,1.64-0.27,3.87-0.27,3.87s1.4-1.8,3.1-1c1.74,0.82,0.64,1.73-1.18,3.19
	c-1.83,1.46-4.2,3.46-6.84,3.46c-4.1,0-6.02-3.46-6.02-3.46s-4.47,3.55-9.58,3.55c-3.83,0-7.3-3.01-7.3-7.11
	c0-4.1,3.38-7.38,11.04-10.03c7.66-2.65,10.4-3.1,10.4-7.57c0-2.74-1.64-3.1-3.65-3.1C68.35,123.25,65.43,124.53,65.34,128.17"/>
<path class="st0" d="M104.17,120.33c-1.03,0,0.06-2.85,0.3-3.55c1.87-5.61,2.65-10.95,8.85-10.95c4.51,0,5.15,4.79,7.66,4.79
	c2.51,0,5.15-3.01,5.15-4.84c0-1.82-1.14-5.24-8.26-5.24c-5.1,0-18.69,2.19-23.62,19.79c-0.36,0.82-0.36,0.82-1.28,1
	c-0.91,0.18-4.47,1.24-5.01,3.1c-0.18,0.62,1.1,0.45,1.1,0.45h3.28c0,0,0.73,0.05,0.59,0.5c-0.14,0.46-2.91,15.26-3.78,18.97
	c-0.6,2.5-3.28,2.78-3.28,2.78h-1.92v2.6h18.29l0.45-2.19c0,0-0.96-0.14-2.37-0.36c-1.41-0.23-1.69-1.83-1.09-4.52
	c0.45-2.04,4.1-16.96,4.2-17.51c0.09-0.55,1.55-0.27,1.55-0.27h11.49c0,0,0.6,0.14,0.32,1.32c-0.31,1.34-2.78,15.96-3.24,18.05
	c-0.45,2.1-3.87,3.15-5.47,3.15l-0.14,2.27h18.15l0.36-2.5c0,0-1.5-0.19-2.83-0.87c-1.32-0.69-0.59-2.6-0.18-4.38
	c0.41-1.78,3.17-15.42,3.42-16.51c0.19-0.77,1.46-0.55,1.46-0.55h6.06l0.46-4.47h-6.84c0,0,0.19-1.12,0.45-2.46
	c1.05-5.2,1.14-11.9,10.44-11.9c5.43,0,5.43,5.47,5.43,6.71s-5.65,27.08-6.2,29.82c-0.55,2.74-3.7,4.84-5.93,4.84v2.37h18.06
	l0.27-2.28c0,0-3.6-0.19-3.6-3.24c0-3.05,7.3-29.22,7.3-34.1c0-4.88-4.51-9.12-12.5-9.12c-11.99,0-17.41,7.43-23.94,19.29H104.17z"
	/>
<path class="st0" d="M173.09,131.46c0,0,0.32-1.41,0.32-2.92c0-2.96-0.91-4.83-3.74-4.83c-5.79,0-7.07,7.75-7.07,7.75H173.09z
	 M161.92,135.01c-1.73,5.2-0.73,10.76,7.39,10.76c5.2,0,9.48-4.47,9.48-4.47l0.91,2.1c0,0-9.12,7.75-17.33,7.75
	c-4.83,0-11.67-3.37-11.67-11.58s8.12-20.24,20.79-20.24c12.68,0,11.49,15.68,11.49,15.68H161.92z"/>
<path class="st0" d="M206.78,121.34c0,0-4.01-2-8.76-2c-4.74,0-12.59,3.01-12.59,11.31c0,6.75,10.21,8.85,10.21,13.5
	c0,1.91-2.5,3.37-4.15,3.37c-2.6,0-6.61-1.82-6.25-5.7h-2.87c0,0-0.91,7.16-1.09,8.03c-0.18,0.86,0.41,1.32,0.91,1.32
	c0.91,0,2.01-1.14,3.1-1.14c1.1,0,1.14,0.96,4.65,0.96c6.11,0,15-3.83,15-10.63c0-8.84-11.72-9.07-11.72-14.41
	c0-1.05,1.6-2.96,3.83-2.96c2.24,0,4.47,1.5,4.93,3.1c0.45,1.6,0.59,3.42,2.32,3.42c1.05,0,1.37-2.46,1.37-2.46L206.78,121.34z"/>
</svg>
