<svg width="1024" height="299" viewBox="0 0 1024 299" fill="none" xmlns="http://www.w3.org/2000/svg">
<path d="M82.125 53.3008H88.1289C93.1102 53.3666 95.9637 55.5072 96.7224 59.7059H111.122C115.476 59.8376 117.72 62.044 117.852 66.3251V69.6347H96.9369V76.1551H82.125V69.6347H59.9401V76.1551H45.1282V69.6347H30.9266C26.6381 69.503 24.4279 67.2472 24.2959 62.9167V59.7059H45.1282V53.3008H51.2476C56.1464 53.3666 58.9834 55.5072 59.7422 59.7059H82.125V53.3008ZM29.0628 80.3045H63.3544V74.0969H69.4738C74.4551 74.0969 77.3911 76.1716 78.2818 80.3045H106.355C110.644 80.4362 112.854 82.6426 112.986 86.9237V90.1345H78.5952V106.897H110.198C114.487 107.028 116.697 109.235 116.829 113.516V116.727H98.075C100.219 123.56 104.986 129.01 112.376 133.077C114.998 134.658 116.351 136.864 116.417 139.696V144.241C97.976 140.371 86.7764 131.2 82.8507 116.727H78.5952V147.534H63.3709V116.71H58.8185C54.8764 131.183 43.7262 140.371 25.3515 144.224V139.68C25.4175 136.848 26.77 134.641 29.3926 133.06C36.6501 129.059 41.417 123.609 43.6932 116.71H31.9822C27.6937 116.578 25.4835 114.339 25.3515 109.992V106.897H63.3874V90.118H35.5945C31.372 89.9863 29.2112 87.747 29.0628 83.4V80.3045ZM35.6935 92.8184H44.5014C48.0312 92.6043 50.4724 94.2674 51.8579 97.791C52.6166 99.9315 53.7547 102.171 55.2722 104.509H46.5632C42.3407 104.575 39.5202 102.994 38.0687 99.7504C37.2604 97.9557 36.4687 95.634 35.6935 92.8184ZM106.058 92.8184C105.299 95.6505 104.508 97.9557 103.683 99.7504C102.232 102.994 99.3945 104.575 95.1885 104.509H86.4795C87.9969 102.171 89.135 99.9315 89.8938 97.791C91.2793 94.2674 93.7205 92.6208 97.2502 92.8184H106.058Z" fill="white"/>
<path d="M180.777 60.7425C181.321 56.0498 184.06 53.8105 188.958 54.0245H195.49C194.385 62.5044 192.389 69.5846 189.486 75.2323V147.335H176.423V89.3928C173.8 91.0393 170.93 92.4554 167.829 93.6409V88.9811C167.829 86.4948 168.835 83.9426 170.831 81.3246C176.076 75.611 179.392 68.7448 180.777 60.7425ZM209.989 53.7117H214.244C220.05 53.4318 222.92 56.0498 222.838 61.5658H228.842V53.7117H233.097C238.755 53.6458 241.625 56.2639 241.691 61.5658H246.87C254.325 61.7799 258.168 65.567 258.366 72.9436V91.8791H241.691V104.08H251.224C258.069 104.294 261.583 107.801 261.797 114.635V126.012C262.078 134.015 258.102 137.868 249.888 137.604H244.396V132.632C244.61 130.211 245.567 128.877 247.299 128.598C249.097 128.663 249.954 127.626 249.888 125.502V116.512C249.822 114.437 248.717 113.367 246.573 113.301H241.707V146.924H228.858V113.301H222.227C220.363 130.063 210.995 141.638 194.154 148.06V143.4C194.22 140.305 195.457 137.505 197.882 135.019C204.578 128.812 208.455 121.567 209.494 113.301H194.154V93.9538C194.434 86.643 198.195 82.8559 205.453 82.576H210.005V70.7866H201.098C197.09 70.6549 195.012 68.5472 194.88 64.4802V61.5823H210.005V53.7117H209.989ZM204.908 94.9911V104.097H209.989V91.8791H208.026C205.947 91.8791 204.908 92.9164 204.908 94.9911ZM222.838 70.7866V82.576H228.842V70.7866H222.838ZM222.838 103.059V104.097H228.842V91.8791H222.838V103.059ZM243.769 70.7866H241.691V82.576H246.969V73.9974C246.919 71.9227 245.847 70.8524 243.769 70.7866Z" fill="white"/>
<path d="M319.413 131.397H352.467V93.542H321.689C316.922 93.4103 314.431 90.9899 314.233 86.2972V82.7735H352.467V53.6128H357.96C365.481 53.4811 369.192 57.1365 369.044 64.5789V82.79H399.921C404.688 83.004 407.179 85.4409 407.377 90.1337V93.542H369.044V131.397H394.841C399.476 131.611 401.884 134.081 402.099 138.839V142.149H326.555C322.002 141.935 319.611 139.531 319.413 134.904V131.397Z" fill="white"/>
<path d="M463.655 71.2975C463.655 61.6487 468.488 56.8242 478.17 56.8242H544.181C548.535 56.9559 550.778 59.1623 550.91 63.4434V66.6542H485.114C480.826 66.5225 478.764 68.6136 478.896 72.9606V134.41H545.319C549.673 134.542 551.916 136.781 552.048 141.128V144.224H463.655V71.2975ZM482.211 97.1651H509.872C509.938 96.2759 509.971 95.2386 509.971 94.0696V85.6885H498.062C494.12 89.4756 488.908 91.7973 482.409 92.6206V89.0805C482.475 86.7423 483.481 84.7665 485.411 83.1858C488.1 81.391 489.865 79.1187 490.689 76.3525C491.861 71.6598 494.698 69.4534 499.184 69.7333H506.029C505.551 72.0714 504.924 74.212 504.165 76.1549H538.457C542.531 76.2866 544.642 78.4272 544.774 82.5601V85.6556H524.354V93.4109C524.354 94.794 524.321 96.029 524.255 97.1322H542.597C546.671 97.2639 548.782 99.3715 548.914 103.439V106.534H526.433C530.853 112.528 537.17 117.319 545.401 120.909C548.172 122.012 549.541 123.938 549.541 126.704V131.051C535.241 128.499 524.668 123.263 517.839 115.327C511.753 123.329 500.19 128.565 483.119 131.051V126.803C483.119 124.119 484.537 122.259 487.374 121.221C497.601 117.632 504.231 112.742 507.266 106.534H488.611C484.471 106.402 482.327 104.262 482.178 100.112V97.1651H482.211Z" fill="white"/>
<path d="M604.484 71.5134C609.449 71.9251 613.671 72.7154 617.118 73.8845V72.6496C617.399 64.7131 621.539 60.6132 629.555 60.3332H650.486V53.5H661.571C665.645 53.6317 667.756 55.7064 667.888 59.7076V60.3332H690.782C695.269 60.5473 697.627 62.8525 697.825 67.2653V70.6737H637.423C634.734 70.7395 633.349 72.1227 633.283 74.8066V111.015C633.91 130.806 625.893 142.974 609.251 147.535V142.464C609.317 138.874 610.323 135.878 612.253 133.457C615.7 129.39 617.333 123.94 617.118 117.107V112.035C613.325 113.353 609.135 114.143 604.583 114.423V108.314C604.236 103.901 606.199 101.53 610.488 101.185C612.071 101.053 614.281 100.559 617.118 99.7356V86.2831C614.974 85.6574 612.797 85.147 610.587 84.7354C606.166 84.3237 604.121 81.9362 604.467 77.6057V71.5134H604.484ZM637.324 79.6804H685.916C688.951 79.7463 691.128 81.0965 692.448 83.7145C693.553 86.3984 693.207 89.0658 691.409 91.6839C687.615 96.7224 682.222 101.267 675.244 105.334V130.987C675.657 141.608 670.445 146.745 659.591 146.399H648.095V142.151C648.375 138.627 650.091 136.701 653.274 136.355H654.511C657.958 136.487 659.657 134.626 659.591 130.773V107.82C659.591 104.445 660.828 101.794 663.319 99.8508C667.739 96.673 671.22 93.2975 673.793 89.708H644.153C639.798 89.4939 637.522 87.2217 637.308 82.8747V79.6804H637.324Z" fill="white"/>
<path d="M792.552 53.7123H797.945C803.817 53.6465 807.264 55.8858 808.304 60.4303H834.002C837.383 60.5621 839.115 62.258 839.181 65.5018V67.8728H808.716V73.3559H832.237C835.486 73.4876 837.169 75.1836 837.317 78.4273V80.8148H808.716V86.512H832.138C835.519 86.6437 837.251 88.3396 837.317 91.5834V93.9709H808.716V100.08H835.239C838.488 100.211 840.171 101.874 840.319 105.052V107.423H754.417V80.716C752.553 81.4076 750.59 81.951 748.512 82.3791V77.9333C748.578 75.3153 749.683 73.043 751.827 71.1001C755.01 68.8278 757.254 65.9957 758.557 62.6203C760.289 57.5818 763.917 55.2107 769.443 55.4906H777.426L775.562 60.4468H792.552V53.7123ZM788.296 109.152H794.415C799.182 109.152 802.283 110.881 803.735 114.322H836.064C839.791 114.454 841.721 116.364 841.87 120.02V122.819H826.216C828.707 128.055 832.682 132.237 838.125 135.333C840.814 136.979 842.166 139.235 842.166 142.051V146.496C825.936 143.401 815.462 135.497 810.761 122.802H804.444V146.908H788.28V122.819H780.511C775.958 135.431 765.55 143.335 749.32 146.513V142.067C749.32 139.169 750.623 136.93 753.262 135.349C758.722 132.254 762.664 128.071 765.072 122.835H755.324C751.662 122.703 749.765 120.761 749.617 117.039V114.355H788.263V109.152H788.296ZM771.422 67.8893C770.862 68.7126 770.284 69.5029 769.657 70.2768V73.3724H792.552V67.8893H771.422ZM769.657 80.8148V86.512H792.552V80.8148H769.657ZM769.657 93.9544V100.063H792.552V93.9544H769.657Z" fill="white"/>
<path d="M896.169 71.9246C895.955 61.1067 901.283 55.7883 912.119 56.0023H969.008C979.927 55.8047 985.272 61.1067 985.074 71.9246V145.79H896.169V71.9246ZM911.608 72.221V135.729H969.849V72.221C969.981 67.9399 967.92 65.8817 963.631 66.0134H917.826C913.472 65.8158 911.41 67.8905 911.608 72.221ZM945.388 69.4383H950.98C956.852 69.57 959.92 72.5009 960.2 78.231H961.338C965.544 78.3627 967.722 80.5032 967.87 84.6526V87.6493H960.2V116.909C960.481 126.426 955.945 131.053 946.625 130.773H936.366V126.426C936.58 123.116 938.197 121.387 941.232 121.256C944.069 121.322 945.438 119.955 945.372 117.123V87.6493H943.096C940.605 109.236 931.451 123.479 915.633 130.378V126.245C915.567 123.001 916.573 119.724 918.635 116.415C924.787 108.215 928.416 98.6155 929.521 87.6658H922.065C917.991 87.5341 915.88 85.3935 915.748 81.2606V78.2639H945.388V69.4383Z" fill="white"/>
<path d="M355.337 246.195H348.343H341.35L356.227 174.438H367.114H378.049L379.682 231.409H379.715L404.49 174.438H415.393H426.361L411.483 246.195H404.506H397.513L410.114 185.321H410.098L383.822 246.195H376.417H369.027L367.938 185.321H367.955L355.337 246.195Z" fill="white"/>
<path d="M462.254 214.07L462.303 212.209C462.303 209.163 461.577 206.891 460.126 205.409C458.674 203.927 456.464 203.186 453.512 203.186C449.767 203.186 446.666 204.635 444.192 207.533C442.757 209.229 441.537 211.402 440.531 214.07H462.254ZM445.413 247.61C438.469 247.61 433.141 245.964 429.446 242.704C425.752 239.427 423.904 234.718 423.904 228.576C423.937 227.275 424.036 225.876 424.201 224.377C424.366 222.879 424.597 221.364 424.877 219.833C426.708 211.024 430.37 204.108 435.863 199.136C441.355 194.163 448.068 191.66 455.986 191.66C462.666 191.66 467.73 193.29 471.144 196.55C474.575 199.794 476.274 204.586 476.274 210.892C476.274 212.456 476.175 214.136 475.977 215.914C475.779 217.709 475.466 219.569 475.02 221.479L474.641 223.192H438.221L438.122 223.883C437.99 224.855 437.924 225.777 437.924 226.666C437.957 229.893 438.782 232.314 440.415 233.911C442.048 235.525 444.489 236.331 447.788 236.331C450.163 236.331 452.324 235.821 454.27 234.8C456.217 233.779 457.602 232.429 458.41 230.766H472.645C470.171 235.936 466.46 240.036 461.561 243.066C456.662 246.112 451.285 247.61 445.413 247.61Z" fill="white"/>
<path d="M510.4 203.78C506.821 203.78 503.637 205.262 500.833 208.193C498.029 211.14 496.132 215.026 495.126 219.834C494.895 220.904 494.714 221.975 494.615 223.012C494.499 224.066 494.45 224.988 494.45 225.795C494.45 229.088 495.258 231.624 496.858 233.418C498.474 235.213 500.734 236.102 503.67 236.102C507.282 236.102 510.499 234.686 513.286 231.838C516.09 228.989 517.971 225.235 518.911 220.575C520.016 215.207 519.835 211.058 518.367 208.144C516.899 205.229 514.243 203.78 510.4 203.78ZM497.056 247.612C491.679 247.612 487.456 245.899 484.405 242.458C481.353 239.017 479.819 234.258 479.819 228.182C479.819 226.717 479.918 225.054 480.149 223.226C480.364 221.382 480.644 219.571 481.007 217.776C482.574 210.284 485.906 204.06 491.035 199.104C496.149 194.148 501.806 191.661 507.992 191.661C514.771 191.661 519.538 194.214 522.276 199.318L522.523 199.763L527.818 174.422H534.811H541.854L526.993 246.196H520H512.956L514.193 240.186C509.031 245.142 503.324 247.612 497.056 247.612Z" fill="white"/>
<path d="M554.143 173.844H568.328L565.689 186.638H551.504L554.143 173.844ZM549.689 193.076H556.683H563.726L552.724 246.194H545.731H538.688L549.689 193.076Z" fill="white"/>
<path d="M615.205 226.814C612.962 233.187 609.251 238.258 604.071 241.996C598.909 245.733 593.004 247.61 586.389 247.61C579.99 247.61 575.091 246.013 571.66 242.835C568.246 239.641 566.53 235.031 566.53 229.021C566.53 227.654 566.613 226.172 566.794 224.591C566.976 223.011 567.223 221.43 567.553 219.833C569.367 211.024 573.046 204.108 578.571 199.136C584.097 194.163 590.859 191.66 598.843 191.66C605.655 191.66 610.785 193.455 614.199 197.028C617.036 199.959 618.438 203.861 618.405 208.735L618.207 212.012H603.972C603.84 208.982 603.181 206.792 601.993 205.442C600.789 204.092 598.925 203.417 596.401 203.417C592.773 203.417 589.754 204.849 587.363 207.698C584.971 210.546 583.173 214.827 581.985 220.508C581.788 221.578 581.623 222.665 581.491 223.752C581.359 224.838 581.293 225.843 581.293 226.765C581.293 229.729 581.952 232.017 583.239 233.648C584.542 235.278 586.373 236.101 588.732 236.101C591.437 236.101 593.894 235.245 596.138 233.532C598.381 231.82 599.981 229.581 600.954 226.814H615.205Z" fill="white"/>
<path d="M653.439 226.864L654.759 220.409C653.423 221.15 651.955 221.726 650.355 222.072L644.681 223.192C640.969 223.933 638.297 224.888 636.681 226.024C635.064 227.16 634.042 228.823 633.58 230.997C633.514 231.326 633.514 231.326 633.58 230.997C633.514 231.326 633.465 231.655 633.432 231.985C633.399 232.314 633.382 232.61 633.382 232.907C633.382 234.405 633.86 235.558 634.817 236.364C635.79 237.171 637.126 237.583 638.858 237.583C643.295 237.583 647.221 235.821 650.652 232.314C651.229 231.738 651.79 230.914 652.318 229.877C652.862 228.823 653.241 227.819 653.439 226.864ZM632.887 247.61C628.516 247.61 625.085 246.573 622.595 244.515C620.104 242.457 618.851 239.575 618.851 235.887C618.851 235.311 618.9 234.636 618.983 233.895C619.065 233.154 619.18 232.413 619.345 231.688C620.253 227.259 622.446 223.554 625.894 220.557C629.357 217.561 633.58 215.716 638.611 215.041L650.454 213.378C651.559 213.214 652.598 212.934 653.588 212.555C654.825 212.061 655.765 211.353 656.425 210.431C657.084 209.509 657.381 208.422 657.348 207.187C657.315 205.886 656.87 204.882 656.029 204.207C654.825 203.268 652.647 202.791 649.481 202.791C647.072 202.791 645.011 203.417 643.312 204.668C641.613 205.919 640.293 207.78 639.353 210.266H626.092C627.461 204.174 630.463 199.547 635.081 196.402C639.716 193.241 645.802 191.66 653.324 191.66C660.202 191.66 665.183 192.994 668.251 195.678C670.527 197.637 671.649 200.272 671.632 203.581C671.665 204.734 671.533 205.952 671.237 207.253L665.216 236.233C664.721 238.571 664.589 240.382 664.787 241.633C664.985 242.885 665.546 243.758 666.503 244.251V244.301L666.107 246.211H658.519H650.932V246.162C650.701 244.087 650.734 242.012 651.031 239.97C645.505 245.058 639.468 247.61 632.887 247.61Z" fill="white"/>
<path d="M689.809 174.422H696.802H703.845L688.967 246.196H681.974H674.931L689.809 174.422Z" fill="white"/>
<path d="M733.155 248.006C724.578 248.006 717.865 245.684 712.983 241.041C708.117 236.414 705.676 229.992 705.676 221.776C705.676 220.146 705.791 218.335 706.006 216.359C706.237 214.383 706.55 212.44 706.929 210.546C709.338 198.922 714.434 189.701 722.187 182.867C729.939 176.034 739.242 172.609 750.078 172.609C759.167 172.609 765.963 174.651 770.449 178.735C774.919 182.818 776.898 188.795 776.337 196.682H761.361C761.196 192.977 759.959 190.079 757.633 187.988C755.307 185.914 752.173 184.86 748.231 184.86C741.881 184.86 736.355 187.149 731.687 191.742C727.003 196.336 723.869 202.527 722.286 210.349C721.956 211.88 721.708 213.395 721.543 214.893C721.378 216.392 721.279 217.791 721.246 219.092C721.246 224.394 722.665 228.461 725.502 231.244C728.339 234.043 732.413 235.442 737.724 235.442C743.332 235.442 748.264 233.17 752.536 228.658C754.944 226.09 756.907 223.044 758.392 219.52H741.699L744.19 207.401H774.144L766.127 245.98H756.148L756.594 236.793L755.621 237.863C749.221 244.647 741.732 248.006 733.155 248.006Z" fill="white"/>
<path d="M789.187 193.075H795.851H802.564L800.288 203.877C801.129 202.543 802.069 201.242 803.075 199.974C807.479 194.442 812.197 191.676 817.261 191.676L820.642 191.725L818.151 203.646C816.98 203.515 815.578 203.449 813.945 203.449C809.739 203.449 806.275 204.733 803.57 207.285C800.849 209.837 798.985 213.559 797.979 218.449L792.222 246.227H785.229H778.186L789.187 193.075Z" fill="white"/>
<path d="M853.185 231.654C855.874 228.855 857.804 224.64 858.975 219.009C859.173 218.103 859.321 217.181 859.42 216.275C859.519 215.37 859.568 214.547 859.568 213.789C859.568 210.496 858.694 207.944 856.929 206.149C855.181 204.338 852.69 203.432 849.474 203.432C845.235 203.432 841.755 204.848 839.066 207.697C836.344 210.545 834.398 214.843 833.194 220.557C833.029 221.446 832.881 222.318 832.782 223.191C832.666 224.064 832.617 224.887 832.666 225.628C832.666 228.888 833.54 231.391 835.289 233.169C837.037 234.948 839.528 235.82 842.777 235.82C847.016 235.853 850.497 234.454 853.185 231.654ZM824.023 242.176C820.032 238.554 818.019 233.614 817.986 227.357C817.986 226.287 818.069 225.068 818.217 223.718C818.366 222.368 818.564 221.083 818.828 219.849C820.625 211.221 824.502 204.371 830.44 199.283C836.394 194.211 843.569 191.676 851.948 191.676C858.826 191.676 864.253 193.503 868.261 197.192C872.253 200.864 874.248 205.869 874.248 212.176C874.248 213.279 874.166 214.514 874.001 215.88C873.836 217.247 873.638 218.564 873.374 219.832C871.609 228.361 867.75 235.112 861.812 240.118C855.857 245.123 848.715 247.61 840.353 247.61C833.458 247.61 828.015 245.798 824.023 242.176Z" fill="white"/>
<path d="M894.849 225.893C894.124 229.285 894.305 231.788 895.394 233.418C896.466 235.048 898.478 235.855 901.414 235.855C904.993 235.855 908.028 234.768 910.503 232.611C912.977 230.454 914.61 227.441 915.385 223.605L921.702 193.094H928.712H935.772L924.787 246.228H918.007H911.228L912.779 238.473C912.234 239.247 911.558 240.037 910.783 240.811C906.379 245.372 901.018 247.644 894.684 247.644C888.944 247.644 884.804 245.85 882.248 242.277C880.615 239.972 879.807 237.041 879.807 233.484C879.807 231.673 880.038 229.664 880.483 227.474L887.625 193.094H894.619H901.678L894.849 225.893Z" fill="white"/>
<path d="M963.829 236.1C967.375 236.1 970.558 234.651 973.329 231.753C976.101 228.855 977.981 225.035 978.954 220.293C979.185 219.239 979.366 218.202 979.498 217.148C979.63 216.078 979.68 215.106 979.647 214.184C979.647 210.891 978.855 208.355 977.272 206.544C975.688 204.733 973.445 203.827 970.542 203.827C967.078 203.827 963.944 205.276 961.14 208.174C958.336 211.072 956.472 214.777 955.565 219.305H955.615C954.46 224.673 954.625 228.822 956.043 231.737C957.495 234.635 960.085 236.1 963.829 236.1ZM947.252 193.075H953.85H960.447L958.913 200.699L959.986 199.579C965.264 194.31 971.053 191.676 977.387 191.676C982.797 191.676 987.02 193.322 990.071 196.615C993.123 199.909 994.64 204.453 994.64 210.282C994.607 211.616 994.492 213.114 994.327 214.777C994.145 216.44 993.898 218.07 993.568 219.667C991.919 227.67 988.405 234.338 983.045 239.657C977.684 244.975 971.796 247.643 965.379 247.643C958.93 247.643 954.361 245.14 951.689 240.118L951.59 239.92L945.982 267.023H938.988H931.945L947.252 193.075Z" fill="white"/>
<path d="M72.5745 190.935C72.5745 180.726 67.9066 177.416 61.5893 177.416C55.272 177.416 50.4556 176.972 50.1587 178.009C49.8618 179.063 43.9899 203.234 43.2311 205.638C42.4889 208.042 43.693 209.689 50.3072 209.689C57.8286 209.689 72.5745 208.652 72.5745 190.935ZM71.6673 171.406C72.723 171.406 91.9718 171.258 91.9718 188.975C91.9718 206.692 71.5189 211.945 69.7045 212.538C69.5561 216.44 79.4032 236.643 82.7185 244.069C86.0174 251.495 93.3244 252.631 93.3244 252.631V258.345C93.3244 258.345 88.3596 259.316 84.8958 259.316C77.3084 259.316 69.1107 257.439 65.2675 249.486C61.4409 241.534 49.7794 215.847 49.7794 215.847C49.7794 215.847 43.5445 215.929 41.2023 215.847C40.3776 218.712 36.32 236.116 36.32 237.928C36.32 240.776 45.194 242.126 45.194 242.126L43.8414 246.49H6.08594L7.43847 242.291H9.3848C9.3848 242.291 16.6093 241.385 18.4072 234.042C20.2216 226.682 28.4852 186.588 29.0955 183.887C29.6893 181.187 29.5409 178.487 26.9842 178.19C24.4276 177.877 19.7597 177.433 19.7597 177.433L21.4916 171.423H71.6673V171.406Z" fill="white"/>
<path d="M119.205 221.414C110.859 223.735 102.727 227.259 102.727 236.2C102.727 239.427 105.432 240.563 108.434 240.563C118.067 240.547 119.205 221.414 119.205 221.414ZM107.774 211.04C104.475 212.094 92.8798 215.239 92.8798 215.239C92.8798 215.239 93.0283 197.242 118.759 197.242C139.212 197.242 137.25 210.909 137.25 210.909C137.25 210.909 133.637 230.206 133.043 232.907C132.45 235.607 132.598 239.279 132.598 239.279C132.598 239.279 134.907 236.315 137.711 237.632C140.581 238.983 138.767 240.481 135.765 242.885C132.747 245.289 128.837 248.582 124.483 248.582C117.72 248.582 114.553 242.885 114.553 242.885C114.553 242.885 107.18 248.73 98.7518 248.73C92.4345 248.73 86.7109 243.774 86.7109 237.023C86.7109 230.272 92.286 224.872 104.921 220.508C117.555 216.145 122.075 215.404 122.075 208.044C122.075 203.532 119.37 202.939 116.054 202.939C112.739 202.939 107.923 205.047 107.774 211.04Z" fill="white"/>
<path d="M171.821 198.132C170.122 198.132 171.92 193.44 172.316 192.287C175.401 183.05 176.687 174.257 186.914 174.257C194.352 174.257 195.408 182.144 199.548 182.144C203.688 182.144 208.043 177.188 208.043 174.175C208.043 171.178 206.162 165.547 194.418 165.547C186.006 165.547 163.591 169.153 155.459 198.132C154.865 199.483 154.865 199.483 153.348 199.779C151.847 200.075 145.975 201.821 145.084 204.883C144.787 205.904 146.898 205.624 146.898 205.624H152.308C152.308 205.624 153.513 205.707 153.282 206.448C153.051 207.205 148.482 231.574 147.047 237.683C146.057 241.799 141.637 242.26 141.637 242.26H138.47V246.541H168.638L169.38 242.935C169.38 242.935 167.797 242.705 165.471 242.343C163.145 241.964 162.683 239.33 163.673 234.9C164.415 231.541 170.436 206.974 170.601 206.069C170.749 205.163 173.157 205.624 173.157 205.624H192.109C192.109 205.624 193.099 205.855 192.637 207.798C192.126 210.004 188.052 234.077 187.293 237.518C186.551 240.976 180.91 242.705 178.271 242.705L178.04 246.443H207.977L208.571 242.326C208.571 242.326 206.096 242.013 203.903 240.894C201.725 239.758 202.93 236.613 203.606 233.682C204.282 230.751 208.834 208.292 209.247 206.497C209.56 205.229 211.655 205.591 211.655 205.591H221.651L222.409 198.231H211.127C211.127 198.231 211.441 196.387 211.869 194.181C213.601 185.619 213.75 174.587 229.089 174.587C238.046 174.587 238.046 183.593 238.046 185.635C238.046 187.677 228.727 230.224 227.819 234.736C226.912 239.247 221.717 242.705 218.038 242.705V246.607H247.827L248.272 242.853C248.272 242.853 242.334 242.54 242.334 237.518C242.334 232.496 254.375 189.406 254.375 181.37C254.375 173.335 246.936 166.354 233.757 166.354C213.981 166.354 205.041 178.588 194.27 198.116H171.821V198.132Z" fill="white"/>
<path d="M285.5 216.457C285.5 216.457 286.028 214.136 286.028 211.649C286.028 206.775 284.527 203.696 279.859 203.696C270.309 203.696 268.198 216.457 268.198 216.457H285.5ZM267.076 222.303C264.222 230.865 265.872 240.02 279.265 240.02C287.842 240.02 294.902 232.659 294.902 232.659L296.403 236.117C296.403 236.117 281.36 248.878 267.818 248.878C259.851 248.878 248.569 243.329 248.569 229.811C248.569 216.293 261.963 196.484 282.861 196.484C303.776 196.484 301.813 222.303 301.813 222.303H267.076Z" fill="white"/>
<path d="M341.069 199.793C341.069 199.793 334.455 196.5 326.62 196.5C318.802 196.5 305.854 201.456 305.854 215.123C305.854 226.237 322.695 229.695 322.695 237.351C322.695 240.496 318.571 242.9 315.849 242.9C311.561 242.9 304.947 239.904 305.54 233.515H300.807C300.807 233.515 299.306 245.304 299.009 246.737C298.712 248.153 299.685 248.91 300.51 248.91C302.011 248.91 303.825 247.033 305.623 247.033C307.437 247.033 307.503 248.614 313.293 248.614C323.371 248.614 338.034 242.307 338.034 231.111C338.034 216.555 318.703 216.176 318.703 207.384C318.703 205.655 321.342 202.51 325.02 202.51C328.715 202.51 332.393 204.98 333.152 207.614C333.894 210.249 334.125 213.246 336.979 213.246C338.71 213.246 339.238 209.195 339.238 209.195L341.069 199.793Z" fill="white"/>
</svg>
