<svg width="1024" height="532" viewBox="0 0 1024 532" fill="none" xmlns="http://www.w3.org/2000/svg">
<g clip-path="url(#clip0_1089_28365)">
<path d="M231.229 0H792.799L966.693 200.214C985.546 221.959 1005.51 244.192 1024 266.139L871.316 441.665L819.196 501.539C811.89 509.959 799.375 523.537 793.074 532H231.446L81.8364 359.875L28.5032 298.567C20.4977 289.385 8.11343 274.185 0 266.302V265.653C3.54468 262.533 8.55062 256.429 11.8028 252.682L30.6678 230.925L95.2861 156.654L188.196 49.8218C197.096 39.4963 206.053 29.2195 215.067 18.992C219.599 13.8431 227.7 5.19108 231.229 0ZM35.9882 266.005L175.247 426.223L217.247 474.42C225.056 483.455 235.848 496.646 244.078 504.888L780.227 504.83C787.761 496.733 795.153 487.807 802.442 479.429L845.981 429.295L988.036 266.068L850.1 107.385L804.727 55.1446C798.634 48.1231 786.353 33.2152 780.202 27.4318L427.639 27.4414C366.779 27.4443 304.623 28.1071 243.839 27.3965C226.523 46.4503 209.142 67.0793 192.155 86.5702L86.0516 208.557C70.0104 226.988 52.3995 248.243 35.9882 266.005Z" fill="#0B42CF"/>
<path d="M215.917 146.523L256.16 146.509C264.231 146.512 272.921 146.199 280.853 146.933C298.001 148.521 313.991 158.1 320.921 174.271C327.336 189.242 328.169 208.935 322.412 224.207C318.111 235.613 308.636 243.987 297.691 248.775C312.56 255.309 315.37 264.159 317.234 279.184C318.561 289.876 319.784 300.597 320.908 311.325C322.495 325.8 324.177 340.264 325.955 354.716C316.8 354.46 306.725 354.659 297.499 354.65C295.857 345.148 294.586 330.578 293.58 320.765C292.307 312.054 291.486 301.947 290.537 293.445C288.615 276.203 289.124 260.868 267.034 261.731C260.074 262.004 251.37 261.761 244.441 261.8C244.246 292.755 244.315 323.709 244.647 354.662C235.414 354.416 225.303 354.615 216.001 354.609L215.917 146.523ZM244.529 234.639C257.779 233.734 281.898 237.592 290.441 227.981C299.843 215.394 301.497 189.363 288.278 178.579C279.583 171.487 256.208 174.803 244.38 174.046C244.539 193.401 244.988 215.56 244.529 234.639Z" fill="#0B42CF"/>
<path d="M392.867 205.023C406.767 203.498 421.899 208.174 432.428 217.221C452.67 234.61 452.039 256.964 452.126 281.324C452.201 302.887 452.936 322.617 437.856 340.184C428.363 351.246 416.656 356.443 402.303 357.546C387.277 358.005 374.476 355.925 362.778 346.048C341.929 328.444 341.794 304.057 342.161 279.089C342.466 258.301 342.075 239.713 356.478 222.767C366.383 211.113 377.908 206.239 392.867 205.023ZM402.777 330.59C428.053 323.762 423.657 296.11 424.009 275.675C424.415 252.185 421.855 230.054 392.204 231.888C372.948 236.751 370.511 253.386 370.564 270.436C370.64 293.968 365.737 335.978 402.777 330.59Z" fill="#0B42CF"/>
<path d="M782.838 205.006C797.237 202.512 815.996 209.159 826.322 219.45C845.269 238.334 843.527 262.032 843.73 286.638C835.166 286.385 825.154 286.655 816.461 286.661L762.134 286.61C762.608 298.155 760.997 308.614 767.097 319.43C774.073 331.802 789.513 335.192 801.696 328.256C809.086 324.048 812.098 315.907 814.089 307.962C818.935 308.662 824.314 310.128 829.116 311.314C833.052 312.291 836.996 313.238 840.946 314.155C834.027 338.485 822.885 353.712 796.284 357.215C763.167 361.575 738.052 339.778 734.151 307.352C733.142 298.966 733.786 290.234 733.517 281.802C732.91 261.078 733.118 240.615 746.96 223.679C755.944 212.295 768.529 206.539 782.838 205.006ZM762.096 262.495L789.876 262.4C798.023 262.399 806.999 262.205 815.077 262.433C813.425 244.036 807.438 230.132 785.978 231.005C767.369 233.521 764.035 246.576 762.096 262.495Z" fill="#0B42CF"/>
<path d="M604.512 146.484L633.565 146.438C632.896 165.492 633.601 184.761 633.432 203.835C633.382 209.377 633.643 215.008 632.786 220.502C633.734 219.284 634.754 218.123 635.838 217.026C651.86 200.521 683.908 200.46 699.141 217.988C713.422 234.42 710.068 261.66 710.044 282.196L710.035 354.703C700.509 354.612 690.982 354.604 681.456 354.678C681.025 345.351 681.282 334.703 681.286 325.247L681.31 274.493C681.472 255.506 683.873 233.26 657.724 231.674C648.482 230.348 636.074 239.243 634.526 248.576C632.606 260.167 633.344 275.82 633.349 287.792L633.513 354.712C623.919 354.6 614.323 354.584 604.728 354.663C604.562 333.799 604.589 312.934 604.809 292.071C605.029 243.542 604.93 195.012 604.512 146.484Z" fill="#0B42CF"/>
<path d="M524.464 205.017C558.418 202.307 576.959 220.073 582.305 252.461C577.326 254.145 562.248 257.126 556.008 258.687C551.966 238.285 539.338 224.769 516.604 234.686C508.836 238.524 503.359 250.108 503.392 258.762C503.461 276.477 500.01 301.765 507.225 317.943C512.825 330.501 530.917 334.551 541.985 327.892C549.987 323.077 553.087 315.388 555.425 306.769C555.87 304.975 555.504 305.465 556.638 304.407C560.402 304.75 577.968 308.945 582.336 310.014C579.388 336.018 564.311 354.577 537.13 357.384C502.026 361.008 477.95 339.155 474.692 304.52C473.745 293.324 474.473 281.792 474.193 270.618C473.354 237.161 488.616 208.215 524.464 205.017Z" fill="#0B42CF"/>
</g>
<defs>
<clipPath id="clip0_1089_28365">
<rect width="1024" height="532" fill="white"/>
</clipPath>
</defs>
</svg>
