<svg width="1024" height="277" viewBox="0 0 1024 277" fill="none" xmlns="http://www.w3.org/2000/svg">
<g clip-path="url(#clip0_1089_28377)">
<path d="M740.346 103.666C752.732 102.648 762.909 107.096 770.845 116.542C771.857 115.341 772.909 114.176 773.999 113.047C786.479 100.326 808.85 100.453 821.459 113.104C833.647 125.336 832.202 140.4 831.933 156.283C831.802 164.024 832.064 172.043 832.077 179.809C831.949 183.333 832.329 186.673 829.755 189.433C825.914 193.553 818.288 191.735 817.138 186.166C816.628 183.694 816.897 179.201 816.879 176.407C816.796 163.744 817.107 150.997 816.875 138.329C816.571 126.183 806.95 116.462 794.492 118.913C790.455 119.646 786.659 121.208 783.764 124.184C776.384 131.772 777.968 144.42 778.062 154.251C778.027 161.798 778.233 169.345 778.188 176.908C778.157 182.097 779.145 190.323 772.213 191.473C761.686 193.22 763.505 179.852 763.363 173.361C763.087 160.69 764.197 147.645 763.055 135.031C761.57 124.119 750.786 116.575 740.219 118.737C731.655 120.489 725.088 128.383 724.72 136.918C725.183 144.394 723.67 166.458 724.823 172.694C729.259 196.676 708.535 195.937 709.715 181.882C710.91 167.632 708.166 143.975 710.671 130.821C711.611 125.843 713.672 121.144 716.696 117.08C722.779 108.888 730.601 105.121 740.346 103.666Z" fill="#009244"/>
<path d="M531.559 118.256C531.38 114.081 530.769 110.152 533.726 106.818C538.915 100.968 544.45 106.19 544.565 112.42C544.72 120.762 544.579 128.981 544.675 137.268C544.825 148.451 544.883 159.634 544.85 170.818C544.847 175.639 545.097 185.082 544.249 189.381C542.841 196.756 539.528 203.635 534.64 209.333C518.42 227.913 492.287 231.198 472.867 214.905C469.504 212.084 464.145 206.378 463.562 202.024C463.26 198.765 466.59 194.939 469.788 195.107C474.428 195.351 477.85 201.024 481.073 204.211C486.82 209.893 493.719 212.021 501.757 212.115C509.701 212.208 517.735 208.24 523.209 202.546C532.881 192.397 531.767 183.832 531.61 171.279C531.661 165.319 532.138 149.654 531.437 144.224C530.504 136.437 526.433 129.37 520.167 124.656C506.954 114.623 486.984 116.647 476.923 130.199C472.226 136.625 470.241 144.639 471.4 152.515C472.61 160.368 476.9 167.417 483.322 172.099C489.472 176.577 497.379 178.591 504.914 177.732C508.907 177.156 513.258 174.478 517.28 175.704C519.344 176.333 521.648 177.851 521.7 180.202C521.886 188.656 511.823 190.24 505.771 190.807C493.781 191.93 482.524 188.722 473.361 181.007C464.574 173.682 459.07 163.156 458.067 151.761C457.065 140.273 460.662 128.858 468.069 120.021C476.448 110.097 486.637 105.785 499.332 104.723C511.346 103.522 523.81 109.215 531.559 118.256Z" fill="#009244"/>
<path d="M878.773 103.671C893.808 101.972 910.547 109.222 919.731 121.43C921.253 123.452 922.194 126.725 921.421 129.216C920.766 131.332 917.29 133.393 915.481 134.662C907.668 139.308 899.906 143.946 892.012 148.475C886.117 151.694 880.096 155.964 873.872 158.428C868.9 160.397 863.595 154.059 865.057 149.318C865.527 147.798 866.534 146.491 867.771 145.554C871.846 142.467 876.503 140.006 880.935 137.447C888.152 133.308 895.346 129.128 902.515 124.907C895.242 119.395 886.184 116.979 877.213 119.12C869.547 120.974 862.95 125.834 858.906 132.606C854.869 139.317 853.693 147.368 855.646 154.952C857.644 163.051 862.997 169.019 869.948 173.24C885.44 180.654 903.902 175.422 910.856 158.859C912.841 154.13 912.51 147.724 918.756 146.605C920.917 146.2 923.148 146.703 924.926 147.996C932.193 153.217 923.655 168.116 919.714 173.517C912.809 182.927 902.467 189.229 890.939 191.052C879.243 192.933 867.284 190.02 857.761 182.972C848.581 176.229 841.933 165.878 840.225 154.565C838.337 142.701 841.36 130.581 848.596 120.991C856.162 110.803 866.395 105.515 878.773 103.671Z" fill="#009244"/>
<path d="M593.859 103.633C595.407 103.505 596.958 103.414 598.51 103.363C609.713 103.088 621.53 107.857 629.592 115.594C632.548 118.432 635.43 122.127 635.474 126.421C635.494 128.44 635.06 130.732 633.606 132.208C629.537 136.339 591.089 158.801 586.83 158.72C585.111 158.686 583.312 157.459 582.196 156.232C580.896 154.802 579.965 153.072 580.101 151.084C580.694 142.409 608.201 132.567 614.888 126.558C616.016 125.546 616.342 124.84 616.412 123.362C613.25 117.733 598.41 117.652 592.706 118.958C585.033 120.768 578.396 125.557 574.262 132.269C570.219 138.739 568.928 146.556 570.678 153.982C572.731 162.672 577.499 168.408 584.947 172.971L585.132 173.072C592.034 176.863 600.179 177.694 607.706 175.376C615.69 172.955 622.687 167.357 625.978 159.47C627.177 156.822 627.608 152.695 629.111 150.308C633.621 143.146 639.803 145.265 641.247 152.926C642.499 159.564 638.957 167.394 635.334 172.714C628.834 182.19 618.847 188.707 607.555 190.84C595.935 193.024 583.923 190.518 574.146 183.871C564.547 177.345 557.955 167.252 555.838 155.84C553.665 144.083 556.278 131.946 563.095 122.125C570.742 111.022 580.984 106.015 593.859 103.633Z" fill="#009244"/>
<path d="M349.428 46.0899L349.83 46.0765C371.569 45.4323 396.536 46.0165 418.495 46.0089L444.234 46.0044C449.523 46.0048 454.512 45.9391 459.835 46.3154C467.975 46.891 467.663 59.7746 461.143 60.8045C456.422 61.5505 448.822 61.1844 443.772 61.1722L412.464 61.1828C412.582 89.2416 412.509 117.301 412.244 145.359C412.431 153.106 414.312 184.545 410.435 189.315C409.282 190.733 406.822 191.514 405.049 191.638C403.197 191.767 401.321 191.203 399.924 189.959C398.65 188.823 397.706 187.372 397.473 185.666C396.383 177.665 397.374 161.889 397.38 153.116L397.396 94.7279C397.396 84.1101 397.684 71.6209 397.189 61.1423C388.297 61.1138 353.396 62.4392 347.605 60.3313C346.114 59.7883 345.003 58.686 344.346 57.256C343.402 55.2061 343.407 52.5649 344.223 50.4712C345.154 48.0827 347.205 47.0535 349.428 46.0899Z" fill="#009244"/>
<path d="M654.486 103.549C655.187 103.468 655.891 103.42 656.597 103.404C665.032 103.286 664.61 110.665 664.494 116.759C665.119 116.144 665.759 115.542 666.414 114.956C674.552 107.691 685.56 105.049 696.311 105.19C700.725 105.247 704.842 110.42 704.298 114.073C703.306 120.737 690.328 120.065 685.134 121.577C673.618 124.928 665.602 132.684 664.559 145.067L664.609 170.167C664.64 176.384 667.114 193.491 655.75 191.479C651.25 190.682 649.684 187.3 649.677 182.945C649.643 158.143 649.203 133.206 649.738 108.429C649.782 106.429 652.986 104.477 654.486 103.549Z" fill="#009244"/>
<path d="M433.033 103.589C438.543 103.104 439.602 103.669 442.952 108.055C443.189 116.764 443.809 184.232 442.623 187.442C441.804 189.655 439.623 190.666 437.654 191.636C431.213 192.571 428.224 188.748 428.162 182.609C427.929 159.87 428.093 137.105 428.095 114.361C428.096 108.565 428.069 106.883 433.033 103.589Z" fill="#009244"/>
<path d="M434.089 72.7356C437.876 72.1843 441.665 73.7203 443.999 76.7528C446.333 79.7853 446.848 83.8418 445.347 87.3615C443.845 90.8811 440.559 93.3157 436.755 93.7285C431.02 94.3508 425.842 90.2643 425.116 84.5409C424.389 78.8177 428.38 73.5668 434.089 72.7356Z" fill="#009244"/>
<path d="M176.695 0H197.898C207.052 1.50658 214.789 2.51022 223.844 5.00666C254.249 13.3866 280.864 31.9329 299.254 57.5551C320.77 87.5344 329.428 124.863 323.304 161.252C317.249 197.286 297.194 229.466 267.513 250.777C250.55 262.988 231.01 271.137 210.398 274.596C205.403 275.41 194.452 276.169 190.731 277H184.713C181.681 276.408 174.586 276.114 170.96 275.722C161.453 274.755 152.088 272.71 143.044 269.63C108.099 257.901 79.2184 232.813 62.7185 199.852C27.5141 198.129 4.93601 177.816 0 142.79V133.194C0.677739 130.544 0.970871 127.404 1.67343 124.607C9.23834 94.4853 32.323 77.8965 62.6231 76.7334C66.2336 69.8645 69.5426 64.2018 74.0885 57.8663C92.8521 31.4754 120.298 12.5228 151.625 4.3247C160.606 2.02277 167.841 1.45516 176.695 0ZM191.25 199.505C224.957 197.029 250.297 167.733 247.893 134.021C245.488 100.309 216.245 74.9065 182.528 77.2399C148.71 79.5804 123.215 108.929 125.626 142.743C128.039 176.556 157.442 201.989 191.25 199.505ZM62.8235 199.614C76.8738 198.852 85.6245 195.911 97.3992 188.129C111.353 176.923 120.486 163.716 122.472 145.495C124.29 129.239 119.584 112.925 109.388 100.136C99.1661 87.4569 84.351 79.328 68.166 77.518C66.4537 77.3421 64.7387 77.1922 63.0218 77.0687C44.1651 112.811 43.2358 163.93 62.8235 199.614Z" fill="#009244"/>
<path d="M1024 151.373C1023.68 153.183 1023.29 154.983 1022.86 156.77C1019.92 168.94 1013.21 178.766 1002.43 185.318C992.483 191.386 980.522 193.217 969.218 190.402C957.838 187.612 948.033 180.415 941.959 170.395C935.935 160.273 934.14 148.186 936.962 136.75C942.644 113.829 966.247 99.5709 989.286 104.578C996.337 106.11 1000.62 111.396 994.933 118.024C991.387 122.16 983.582 118.307 978.992 118.535C974.243 118.771 968.849 120.365 964.605 122.914C958.041 126.815 953.31 133.18 951.467 140.59C949.603 148.176 950.836 156.192 954.895 162.866C963.424 176.717 981.433 180.719 995.172 172.108C1000.84 168.597 1005.09 163.2 1007.17 156.866C1009.82 148.637 1008.88 130.402 1008.92 121.058C1009 104.731 1009 88.4029 1008.9 72.0753C1008.87 66.0563 1008.76 60.0251 1008.91 54.0109C1008.98 50.9967 1009.83 48.7639 1012.51 47.1901C1017.72 44.1192 1021.42 47.269 1024 51.6874V151.373Z" fill="#009244"/>
</g>
<defs>
<clipPath id="clip0_1089_28377">
<rect width="1024" height="277" fill="white"/>
</clipPath>
</defs>
</svg>
