<svg width="333" height="349" viewBox="0 0 333 349" fill="none" xmlns="http://www.w3.org/2000/svg">
<g clip-path="url(#clip0_766_24216)">
<path d="M0 0H333V348.562C332.723 348.738 332.452 348.859 332.129 348.93C330.506 349.291 328.203 348.998 326.495 348.998L311.953 349.001H250.545L4.69768 348.999C3.36484 348.999 1.13379 349.284 0 348.562V0Z" fill="#F18E10"/>
<path d="M129.409 100.028C133.37 100.029 137.439 99.8008 141.387 100.035L168.737 99.9947C176.492 99.9837 184.999 99.3165 192.592 100.918C196.924 101.831 201.3 103.601 204.48 106.759C209.164 111.413 211.313 118.328 211.297 124.83C211.283 130.71 209.219 136.289 204.984 140.435C201.836 143.518 197.721 145.509 193.463 146.54C185.659 148.43 169.955 147.747 161.291 147.914C158.294 147.971 155.073 147.752 152.137 148.371C150.322 148.753 148.323 149.575 147.226 151.15C145.086 154.22 145.82 160.767 145.69 164.461C159.808 165.05 174.041 164.674 188.17 164.597C195.859 164.555 204.654 163.725 212.159 165.471C214.992 168.311 217.359 171.593 220.006 174.604C222.715 177.685 225.764 180.228 229.064 182.644C211.809 182.446 194.542 182.758 177.283 182.614C165.548 182.45 153.812 182.405 142.076 182.48C137.663 182.493 133.176 182.289 128.773 182.455C129.433 174.334 129.215 165.962 129.149 157.813C129.203 155.498 129.241 153.178 129.512 150.876C130.097 145.913 131.793 142.529 135.695 139.336C143.667 132.813 152.938 133.527 162.565 133.499C168.124 133.483 173.678 133.393 179.237 133.423C182.385 133.441 187.738 133.931 190.289 131.757C191.751 130.51 192.558 128.451 192.687 126.567C192.838 124.372 192.169 121.988 190.696 120.325C189.533 119.011 187.872 118.437 186.178 118.172C181.77 117.482 176.721 118.045 172.244 118.027C159.322 117.973 146.225 118.381 133.327 117.761L129.472 117.711C129.57 116.421 129.661 115.131 129.744 113.84C129.553 110.356 129.585 106.832 129.546 103.342L129.409 100.028Z" fill="#FEFEF8"/>
<path d="M129.41 100.028C133.371 100.029 137.44 99.8014 141.388 100.035L141.166 100.077C139.123 100.447 133.805 99.5056 132.587 101.057C130.412 103.829 134.162 112.091 130.398 116.23L130.331 116.789C130.901 117.325 132.51 117.379 133.328 117.761L129.473 117.711C129.571 116.421 129.662 115.131 129.745 113.84C129.554 110.356 129.586 106.832 129.547 103.342L129.41 100.028Z" fill="#FEFEF8"/>
<path d="M129.547 103.342C130.416 106.202 131.985 109.677 130.472 112.564C130.242 112.996 129.999 113.422 129.745 113.84C129.554 110.356 129.586 106.832 129.547 103.342Z" fill="#FEFEF8"/>
<path d="M35.9623 133.572C41.4957 133.521 49.2271 133.958 54.477 133.281C53.9925 135.874 53.7918 138.674 53.8174 141.312C53.8767 147.431 55.6941 153.737 60.1783 158.083C66.3793 164.093 74.0796 164.683 82.2219 164.549C85.8287 164.091 89.8278 164.411 93.4844 164.412L118.452 164.543C121.02 164.546 126.129 163.384 128.238 164.353L128.483 164.468C129.862 163.374 128.192 159.557 129.032 158.011C129.069 157.944 129.111 157.879 129.15 157.813C129.216 165.962 129.434 174.334 128.774 182.455L122.695 182.474C115.237 182.246 107.703 182.711 100.232 182.696L83.0491 182.544C68.4408 182.388 58.0261 181.378 47.1601 170.413C40.3646 163.555 36.6796 153.987 35.997 144.447C35.7392 140.844 35.9413 137.183 35.9623 133.572Z" fill="#FEFEF8"/>
<path d="M82.2227 164.549C85.8295 164.091 89.8286 164.411 93.4852 164.412L118.453 164.543C121.021 164.546 126.13 163.384 128.239 164.353L128.484 164.468C129.863 163.374 128.193 159.557 129.033 158.011C129.07 157.944 129.112 157.879 129.151 157.813C129.217 165.962 129.435 174.334 128.775 182.455L122.696 182.474C122.59 176.581 122.352 170.679 122.441 164.785C115.199 164.877 107.931 164.672 100.684 164.666C94.5601 164.661 88.3337 164.901 82.2227 164.549Z" fill="#F18E10"/>
<path d="M226.062 133.387L231.332 133.282C231.021 136.253 230.74 139.282 230.81 142.27C230.992 148.583 233.664 154.568 238.242 158.918C240.981 161.504 244.53 163.256 248.207 164.02C252.744 164.964 257.64 164.651 262.254 164.623L279.048 164.519C285.913 164.479 292.794 164.871 299.65 164.677C299.417 170.655 299.729 176.762 299.715 182.759L287.373 182.59C279.935 182.474 272.496 182.424 265.058 182.441C259.671 182.465 254.063 182.819 248.706 182.283C240.331 181.445 231.584 177.394 225.47 171.641C219.247 165.787 214.788 157.413 213.544 148.937C212.807 143.911 212.861 138.602 212.703 133.528C217.144 133.644 221.619 133.462 226.062 133.387Z" fill="#FEFEF8"/>
<path d="M231.728 268.788C231.195 261.249 231.603 253.679 231.601 246.132C231.6 240.709 231.159 235.156 231.546 229.754C231.679 227.9 231.96 226.038 232.578 224.279C234.324 219.302 238.948 214.391 243.714 212.17C248.249 210.057 255.562 210.501 260.211 212.203C265.419 214.11 269.503 218.182 271.795 223.203C274.099 228.249 273.701 233.988 271.74 239.082C269.871 243.936 266.022 248.487 261.19 250.58C255.917 252.864 249.887 252.08 244.687 250.029C243.927 250.18 243.143 250.256 242.507 250.725C242.042 256.608 242.124 262.615 241.933 268.517L231.728 268.788Z" fill="#FEFEF8"/>
<path d="M242.731 235.705C242.595 232.061 242.798 227.316 245.421 224.512C247.069 222.75 249.947 221.444 252.358 221.371C254.83 221.296 257.118 222.347 258.865 224.066C260.823 225.993 261.694 228.366 261.698 231.092C261.702 233.743 261.051 236.542 259.081 238.436C257.204 240.242 254.667 240.846 252.123 240.741C249.197 240.621 246.505 239.371 243.856 238.235C243.383 237.653 243.097 236.428 242.731 235.705Z" fill="#F18E10"/>
<path d="M242.733 235.705C243.099 236.428 243.385 237.653 243.858 238.235C244.314 241.664 243.715 247.026 244.688 250.029C243.928 250.18 243.144 250.256 242.508 250.725C242.966 245.719 242.259 240.688 242.733 235.705Z" fill="#F18E10"/>
<path d="M127.153 250.793C127.096 250.786 127.038 250.777 126.981 250.772C125.048 250.583 122.545 251.348 120.602 251.666C113.622 252.806 107.583 250.125 102.99 244.82C99.0747 240.299 98.5516 234.671 99.0018 228.937C99.4528 223.194 101.909 219.112 106.263 215.449C110.785 211.644 115.492 210.269 121.38 210.787C126.993 211.281 131.604 213.332 135.212 217.711C137.327 220.278 139.234 223.457 140.116 226.667C141.749 232.611 140.634 244.49 140.8 251.164C136.884 250.864 132.884 250.991 128.958 251.036C128.25 251.078 127.807 251.083 127.153 250.793Z" fill="#FEFEF8"/>
<path d="M127.403 238.713C122.991 240.273 120.348 242.469 115.469 240.118C113.255 239.052 111.38 237.048 110.594 234.705C109.76 232.217 110.219 229.329 111.385 227.024C112.527 224.768 114.512 222.841 116.951 222.069C119.271 221.334 122.133 221.557 124.287 222.702C126.61 223.938 128.087 226.12 128.806 228.609C129.801 232.055 129.503 235.887 129.318 239.426L127.403 238.713Z" fill="#F18E10"/>
<path d="M127.401 238.713L129.316 239.426L128.957 251.036C128.249 251.078 127.806 251.083 127.152 250.793C127.938 246.986 127.478 242.595 127.401 238.713Z" fill="#F18E10"/>
<path d="M122.485 99.8256C124.854 99.8097 127.017 100.256 129.41 100.028L129.547 103.342C129.586 106.832 129.554 110.356 129.745 113.84C129.662 115.131 129.571 116.421 129.473 117.711C127.269 118.03 124.961 118.103 122.735 118.038C114.84 117.591 106.703 117.989 98.7839 117.988C79.7006 118.15 60.6161 118.061 41.5352 117.722C43.1505 115.8 44.7859 113.863 46.5391 112.065C50.0467 108.469 54.2368 105.052 58.9586 103.21C70.5907 98.6696 84.3251 100.049 96.5401 100.034C105.189 100.019 113.837 99.9489 122.485 99.8256Z" fill="#FEFEF8"/>
<path d="M122.484 99.8256C124.853 99.8097 127.016 100.256 129.409 100.028L129.546 103.342C129.585 106.832 129.553 110.356 129.744 113.84C129.661 115.131 129.57 116.421 129.472 117.711C127.268 118.03 124.96 118.103 122.734 118.038C122.727 111.966 122.643 105.895 122.484 99.8256Z" fill="#F18E10"/>
<path d="M298.796 99.885C299.026 99.8595 299.234 99.9345 299.458 99.9857C300.315 102.047 299.773 114.83 299.757 117.922L251.977 117.984C241.462 117.97 230.951 118.115 220.436 117.923L219.696 117.833C219.684 117.766 219.623 117.465 219.629 117.403C219.753 116.025 223.416 111.881 224.485 110.788C226.697 108.527 229.299 106.831 232.053 105.311C244.289 98.5587 257.172 100.014 270.624 100.016L298.796 99.885Z" fill="#FEFEF8"/>
<path d="M217.75 211.585C221.332 211.451 224.934 211.48 228.519 211.442C228.473 212.912 228.512 214.382 228.536 215.852C229.198 218.735 229.57 234.527 229.071 237.68C228.755 239.678 227.954 242.175 226.832 243.87C226.533 244.323 226.062 244.712 225.579 244.956C224.796 245.608 224.194 246.846 223.486 247.643C220.716 250.758 216.232 251.744 212.249 251.945C207.196 252.2 202.41 251.517 198.545 247.961C196.625 246.194 195.004 243.936 194.172 241.449C192.259 235.733 192.976 218.585 192.691 211.705C196.391 211.743 200.092 211.737 203.792 211.686C203.713 214.907 203.961 218.173 203.985 221.402C204.019 225.911 203.67 230.796 204.357 235.245C204.553 236.512 204.86 237.891 205.73 238.879C207.039 240.365 209.312 241.275 211.271 241.316C212.574 241.344 213.788 240.801 214.706 239.89C215.897 238.709 216.702 237.076 217.084 235.456C217.77 232.548 217.587 229.208 217.644 226.224C217.748 221.345 217.784 216.465 217.75 211.585Z" fill="#FEFEF8"/>
<path d="M228.535 215.852C229.197 218.735 229.569 234.527 229.07 237.68C228.754 239.678 227.953 242.175 226.831 243.87C226.532 244.323 226.061 244.712 225.578 244.956C226.602 243.036 227.473 241.206 227.969 239.066C229.274 233.436 228.563 222.021 228.535 215.852Z" fill="#F18E10"/>
<path d="M35.505 212.114C39.5793 212.074 44.7734 211.486 48.646 212.804C51.4398 213.754 54.0148 215.534 56.5513 217.014C62.4962 220.484 70.1864 224.216 73.3376 230.674C74.037 230.811 74.905 230.884 75.537 231.211C75.493 234.473 75.3545 237.773 75.6217 241.027C74.7975 241.227 74.107 241.03 73.3036 241.129C72.5441 242.894 71.1636 244.604 69.7954 245.932C67.9669 247.707 65.8024 249.078 63.3714 249.86C56.4357 252.091 43.0734 251.164 35.4922 251.054C35.532 247.337 35.5431 243.62 35.5253 239.903C41.0974 239.967 51.3799 240.539 56.4385 239.427C57.8742 239.111 59.6238 238.458 60.3997 237.12C61.1658 235.799 60.6573 234.414 59.7868 233.296C55.9978 228.432 44.9157 224.177 39.7584 219.163C37.6404 217.104 36.3391 214.935 35.505 212.114Z" fill="#FEFEF8"/>
<path d="M73.3387 230.674C74.0381 230.811 74.9061 230.884 75.5381 231.211C75.4941 234.473 75.3556 237.773 75.6228 241.027C74.7986 241.227 74.1081 241.03 73.3047 241.129C74.1998 238.156 74.0313 233.676 73.3387 230.674Z" fill="#F18E10"/>
<path d="M75.7726 194.572C79.4603 194.645 83.1125 194.66 86.8 194.544C87.0278 200.236 87.2964 206.014 86.67 211.688C90.1995 211.281 93.8739 211.65 97.4141 211.854L98.297 221.635C94.5335 221.502 90.7628 221.412 87.0015 221.234C87.0457 225.468 85.8341 237.348 88.8125 240.146C90.1724 241.424 92.2069 241.6 93.9773 241.48C95.3097 241.389 96.6445 241.112 97.9402 240.796C97.7772 244.211 97.5281 247.645 97.5067 251.063C91.1747 251.221 84.3195 251.842 79.3242 247.13C77.5906 245.494 76.2177 243.345 75.6247 241.027C75.3575 237.773 75.496 234.473 75.54 231.211C76.0591 225.395 75.877 219.469 75.8639 213.631C75.8498 207.29 75.9403 200.907 75.7726 194.572Z" fill="#FEFEF8"/>
<path d="M168.088 194.494C171.751 194.641 175.412 194.759 179.076 194.568C179.098 200.23 179.259 205.88 179.01 211.54C182.849 211.668 186.689 211.715 190.53 211.682C190.482 214.969 190.379 218.254 190.22 221.538C186.491 221.536 182.749 221.583 179.021 221.483C179.061 225.541 178.48 233.876 179.148 237.259C179.342 238.241 179.729 239.192 180.48 239.885C182.418 241.671 185.865 241.413 188.301 241.209C188.92 241.161 189.536 241.071 190.144 240.941C190.043 244.297 189.867 247.674 189.848 251.031C183.823 251.132 176.273 251.843 171.59 247.282C170.24 245.966 169.272 244.308 168.788 242.486C168.07 239.866 168.21 237.036 168.201 234.343C168.186 229.291 168.504 223.555 167.876 218.571C167.729 216.581 167.819 214.535 167.828 212.538C168.116 209.214 168.005 205.84 168.03 202.505C168.05 199.851 168.222 197.142 168.088 194.494Z" fill="#FEFEF8"/>
<path d="M166.071 211.005C166.587 210.645 166.867 210.298 167.519 210.366C167.82 211.091 167.806 211.766 167.825 212.538C167.816 214.535 167.726 216.581 167.873 218.571L167.621 219.321C167.005 219.5 166.411 219.526 165.797 219.662C164.696 221.122 158.197 220.376 155.812 222.964C154.393 224.503 154.971 247.368 155.011 251.16C151.282 250.899 147.42 251.066 143.686 251.192C143.943 243.531 142.557 228 144.305 221.133C144.907 218.753 146.134 216.577 147.859 214.83C152.469 210.138 160.006 211.096 166.071 211.005Z" fill="#FEFEF8"/>
<path d="M166.075 211.005C166.591 210.645 166.871 210.298 167.523 210.366C167.824 211.091 167.81 211.766 167.829 212.538C167.82 214.535 167.73 216.581 167.877 218.571L167.625 219.321C167.009 219.5 166.415 219.526 165.801 219.662L166.075 211.005Z" fill="#F18E10"/>
<path d="M274.48 223.386C276.7 223.491 279.156 223.162 281.325 223.564C284.855 224.219 294.543 230.162 297.309 232.68C299.521 234.694 301.541 237.545 301.647 240.638C301.734 243.16 300.452 245.631 298.765 247.438C295.151 251.311 289.214 251.005 284.334 251.134C281.142 251.116 277.95 251.132 274.758 251.181C275.028 248.626 274.943 246.032 274.929 243.465C278.183 243.124 281.543 243.269 284.817 243.119C286.876 243.025 290.279 243.049 291.756 241.428C293.324 237.336 280.745 232.286 277.891 229.415C276.115 227.627 275.311 225.702 274.48 223.386Z" fill="#FEFEF8"/>
<path d="M55.2889 194.61C60.4813 194.454 65.7398 194.691 70.9418 194.7C70.572 198.288 70.9322 202.141 70.9702 205.761C64.6647 205.925 58.4068 205.86 52.1027 205.763L35.0898 205.674C36.3217 203.718 37.5323 201.76 39.1222 200.067C43.5926 195.308 49.1495 194.842 55.2889 194.61Z" fill="#FEFEF8"/>
<path d="M286.811 211.843C290.762 211.32 295.148 211.749 299.12 211.927C299.005 214.435 299.213 216.979 299.333 219.486C295.248 219.445 291.146 219.637 287.062 219.779C282.655 219.881 278.274 219.704 273.867 220.012C274.424 218.967 275.164 217.903 275.896 216.97C278.804 213.258 282.34 212.348 286.811 211.843Z" fill="#FEFEF8"/>
</g>
<defs>
<clipPath id="clip0_766_24216">
<rect width="333" height="349" fill="white"/>
</clipPath>
</defs>
</svg>
