<svg width="1428" height="536" viewBox="0 0 1428 536" fill="none" xmlns="http://www.w3.org/2000/svg">
<path d="M315.123 4.80371L345.663 4.8867L345.572 95.1167L403.095 80.5437C414.631 77.6247 427.731 72.8907 439.61 72.6177C443.763 72.5227 446.834 73.3777 449.85 76.3337C455.452 81.8247 454.991 88.8507 455.127 96.1487L456.625 182.371C456.842 194.782 458.695 210.833 456.699 222.804C456.217 225.696 454.482 228.69 452.401 230.739C445.038 237.989 393.64 235.145 381.555 235.109C381.401 224.5 381.529 213.87 381.52 203.26L425.326 203.23C424.34 171.602 424.199 139.944 423.396 108.308C397.59 115.319 371.48 121.47 345.551 128.034C345.842 163.636 345.166 199.31 345.145 234.925L313.539 234.929C313.438 201.998 313.516 169.067 313.775 136.137C294.581 140.798 275.424 145.614 256.308 150.584L256.225 233.106C256.217 246.528 254.991 261.252 256.793 274.53C257.384 278.882 258.114 282.398 261.345 285.568C264.423 288.588 268.209 290.411 272.477 291.013C286.548 292.997 306.821 291.417 321.666 291.413L430.518 291.362C488.462 291.247 529.965 279.517 538.234 215.007C540.406 198.067 539.89 180.767 539.996 163.711L540.707 57.5827C540.739 46.7547 538.048 26.5037 546.504 18.3777C549.66 15.3437 556.023 15.4307 560.221 15.2037C575.199 14.3937 590.462 15.0087 605.48 15.0087L690.305 15.0117L950.324 15.0877C950.914 15.9907 951.374 16.9087 951.574 17.9797C952.734 24.0907 953.614 41.6877 950.264 46.8547L786.651 46.9547C786.858 47.5687 787.012 48.1777 787.108 48.8207C787.718 52.8757 781.388 76.5857 778.675 80.0797C796.06 80.3297 902.494 77.6887 910.514 82.4637C914.504 84.8457 916.714 89.1277 917.754 93.5307C918.744 97.7197 918.764 105.37 916.464 109.098C916.534 109.245 916.614 109.393 916.684 109.54C918.174 112.403 918.054 115.274 918.134 118.416C918.644 138.275 917.834 158.223 917.914 178.097C917.974 191.723 919.584 207.024 917.814 220.455C917.324 224.189 916.434 227.891 913.704 230.646C911.294 233.122 908.154 234.771 904.744 235.356C892.614 237.536 877.794 236 865.374 235.98H783.069C786.469 241.452 784.647 269.941 784.641 277.958C784.629 293.286 781.261 307.146 770.018 318.26C754.601 333.5 736.401 333.099 716.177 333.055L681.696 332.922C681.523 322.336 681.705 311.722 681.753 301.133C696.308 301.063 733.266 304.333 744.709 297.708C748.828 295.323 750.892 292.11 752.009 287.541C753.568 281.159 754.092 240.576 751.3 235.919L649.909 235.98C642.079 235.985 629.83 237.143 623.946 231.033C621.512 228.506 620.328 225.263 619.815 221.841C618.193 211.037 619.53 198.126 619.513 187.128L619.41 109.721C619.405 101.11 618.128 90.7857 624.785 84.2077C626.807 82.2107 628.863 81.3457 631.654 80.8947C644.684 78.7867 659.33 80.0557 672.524 80.0847L745.972 80.1917C746.529 79.5067 747.098 78.7587 747.477 77.9577C750.022 72.5747 755.467 52.2057 753.658 46.8727L572.555 46.9747L571.889 135.17C571.726 168.103 574.276 203.499 566.583 235.649C561.741 255.879 552.648 275.093 537.855 289.947C512.153 315.753 475.4 323.101 440.218 323.23L332.87 323.196C313.102 323.252 280.012 325.586 262.123 321.46C253.203 319.403 244.839 314.287 238.418 307.799C231.814 301.127 227.645 292.285 225.782 283.137C222.86 268.799 224.467 252.504 224.473 237.847L224.561 158.49L182.072 169.245C179.433 158.955 176.896 148.639 174.461 138.298L224.555 125.677L224.568 36.2737L256.234 36.2827L256.361 117.418C275.547 113.551 294.728 107.917 313.725 103.12C313.89 81.9287 313.941 60.7377 313.877 39.5457C313.876 28.3057 313.263 16.6397 314.228 5.4577L315.107 5.8287L314.55 4.91071L315.123 4.80371ZM651.28 204.03L818.914 204.081L862.764 204.116C869.834 204.118 878.054 204.99 884.914 203.625C887.264 198.93 887.754 181.058 885.734 175.956C885.454 175.267 885.124 174.628 884.734 173.999L651.256 173.989L651.28 204.03ZM651.279 142.069L829.314 142.174C838.324 142.176 879.834 143.479 884.864 141.786C887.634 136.861 887.354 120.254 885.904 114.604C885.664 113.708 885.204 112.841 884.734 112.053L651.256 112.037L651.279 142.069Z" fill="black"/>
<path d="M1141.55 5.73822C1151.55 4.09122 1162.84 5.12121 1172.98 5.19621C1173.59 6.20221 1174.13 7.27721 1174.4 8.43021C1175.65 13.7862 1175.73 44.3452 1173.36 48.4642C1228.94 49.5702 1284.77 48.5292 1340.39 48.5242C1361.53 48.5222 1389.7 46.8822 1410.29 48.9622C1414.32 49.3702 1417.79 49.8542 1420.78 52.8282C1423.44 55.4762 1425.05 59.0422 1425.54 62.7402C1427.51 77.6662 1426.05 97.0412 1426.27 112.391L1427.52 234.128C1427.63 259.185 1420.76 280.93 1402.77 298.953C1375.41 326.353 1345.22 323.753 1309.49 323.673L1249.08 323.643C1249.4 323.106 1249.71 322.558 1249.96 321.982C1252.25 316.765 1251.58 297.347 1249.6 291.829C1271.59 291.424 1293.64 291.824 1315.63 291.861C1326.87 291.879 1338.74 292.657 1349.87 291.16C1355.85 290.367 1361.65 288.576 1367.04 285.861C1379.16 279.754 1388.81 269 1392.99 256.031C1394.71 250.696 1395.49 245.018 1395.74 239.43C1396.76 216.082 1395.18 192.084 1394.99 168.681C1394.77 141.009 1395.81 112.685 1394.13 85.0792C1394.02 83.3842 1393.65 82.0912 1392.89 80.5772C1362.52 80.0452 1332.06 80.4952 1301.69 80.4912L1173.47 80.6562C1174.16 81.7642 1174.38 82.7852 1174.56 84.0792C1176.04 95.3142 1174.59 165.825 1168.49 173.621C1168.82 174.564 1169.15 175.54 1169.17 176.551C1169.29 183.351 1166.54 191.988 1164.83 198.571C1155.99 232.597 1142 265.504 1117.33 291.173C1083.64 326.238 1037.89 337.41 990.711 338.211C944.731 338.992 890.411 329.723 854.981 298.533C848.901 293.124 843.341 287.16 838.361 280.718C835.361 276.878 832.751 272.517 829.191 269.169L828.711 268.726C834.331 266.973 852.191 257.018 856.261 252.657C860.351 255.416 864.731 262.618 868.181 266.437C882.221 282.013 900.051 291.118 919.901 297.376C962.351 310.761 1025.6 311.426 1065.61 290.403C1099.09 272.815 1119.52 240.462 1130.51 205.167C1140.79 172.139 1142.83 137.961 1143.17 103.59C1143.24 97.2172 1144.5 86.0712 1141.58 80.5372C1102.99 79.5202 1064.17 80.6232 1025.55 80.4022C1025.95 79.7592 1026.36 79.0372 1026.55 78.3012C1027.83 73.3732 1028.13 53.1942 1025.6 48.5982L1141.76 48.5632C1142.22 47.8562 1142.56 47.1762 1142.74 46.3392C1144 40.7712 1143.91 9.85222 1141.55 5.73822Z" fill="black"/>
<path d="M79.653 0L110.267 8.685L94.22 65.456C107.292 65.64 149.662 62.745 159.379 67.664C163.096 69.546 165.697 73.254 166.824 77.195C169.248 85.67 167.102 96.969 166.431 105.797C162.711 154.785 151.593 200.431 127.091 243.399C147.118 256.656 166.483 271.279 186.079 285.19L167.735 311.166L108.576 269.314C93.038 286.48 76.621 299.925 56.303 311.052C45.153 316.597 34.068 320.964 22.152 324.567L13.412 293.929C40.607 286.912 63.39 270.861 82.329 250.6L48.346 226.551L40.584 253.308C30.385 251.022 20.199 247.625 10.136 244.752C23.192 195.463 38.199 146.6 51.838 97.457C34.559 97.605 17.279 97.588 0 97.405L0.0200043 65.531C20.312 65.297 40.63 65.502 60.924 65.493C67.93 43.999 73.459 21.76 79.653 0ZM57.597 194.058C71.658 204.063 86.085 216.13 101.048 224.484C122.163 186.189 133.341 141.207 135.028 97.513L89.36 97.575L85.635 97.991C81.721 103.069 60.939 182.276 57.597 194.058Z" fill="black"/>
<path d="M832.103 391.783C840.763 390.757 851.043 390.394 859.323 393.275C898.073 406.749 891.413 445.728 891.113 478.446C891.053 485.663 890.493 493.999 893.813 500.619C895.603 504.186 898.443 506.715 902.263 507.919C906.853 509.363 912.373 509.349 916.673 507.067C920.723 504.918 923.953 501.035 925.173 496.591C925.803 494.254 925.983 491.85 925.873 489.438C925.363 478.871 915.383 396.615 912.813 392.305L943.853 392.3C944.403 392.962 944.953 393.648 945.353 394.416C947.183 397.868 956.763 478.087 957.053 486.534C957.263 492.831 956.663 499.391 954.773 505.419C951.353 516.335 943.733 525.092 933.553 530.249C920.593 536.819 903.873 537.454 890.183 532.833C852.263 520.033 859.653 477.419 859.803 446.087C859.833 439.775 860.633 432.291 857.673 426.52C855.863 423.009 852.923 420.776 849.193 419.625L848.453 419.404C848.103 419.195 847.953 419.092 847.553 418.904C844.303 417.343 839.423 417.981 836.123 419.107C830.653 420.975 827.453 426.593 826.193 431.933C824.813 437.759 825.213 443.935 825.243 449.883C825.313 467.671 828.373 494.653 820.703 510.712C815.683 521.237 806.583 528.877 795.638 532.722C782.036 537.501 765.059 536.8 752.086 530.414C722.014 515.612 728.147 484.145 731.606 457.28L737.628 411.968C738.296 406.875 740.574 397.406 738.786 392.737C738.728 392.585 738.656 392.439 738.591 392.29L770.454 392.303C773.866 401.515 756.824 477.917 760.392 495.581C761.264 499.901 763.296 504.074 767.128 506.488C771.402 509.181 777.952 509.292 782.723 508.045C787.805 506.717 791.022 503.244 792.694 498.342C794.912 491.836 794.475 484.659 794.42 477.89C794.254 457.416 790.334 430.102 801.218 411.917C808.433 399.868 819.133 395.157 832.103 391.783Z" fill="black"/>
<path d="M375.671 391.632C381.199 390.708 387.838 390.978 393.429 391.479C409.224 392.894 423.507 399.487 433.743 411.781C448.192 429.137 450.653 452.203 448.76 473.898L350.204 473.95C351.788 481.652 354.544 488.429 360.241 494.044C375.004 508.596 397.866 506.355 416.81 506.248L432.192 506.283L432.2 533.146C402.172 533.273 369.599 536.883 343.849 518.238C329.699 508.077 320.267 492.617 317.708 475.384C314.622 455.321 319.035 433.299 331.231 416.884C342.305 401.978 357.567 394.264 375.671 391.632ZM349.829 452.394L392.077 452.462L418.326 452.457C416.559 441.382 414.272 430.483 404.648 423.386C396.27 417.208 386.967 417.321 377.109 417.918C367.621 420.749 360.47 425.562 355.637 434.435C352.55 440.105 351.14 446.142 349.829 452.394Z" fill="black"/>
<path d="M623.588 391.597C631.479 390.943 639.44 390.874 647.259 392.276C662.683 395.043 676.085 403.204 684.997 416.188C695.886 432.052 699.867 455.061 696.373 473.847L597.907 473.979C599.764 481.629 602.509 488.274 608.147 493.948C622.806 508.7 646.058 506.361 665.016 506.248L680.233 506.269L680.241 533.132C650.148 533.288 617.381 536.918 591.628 518.134C577.439 507.89 568.027 492.315 565.555 474.989C562.578 455.103 566.971 433.241 579.076 416.991C590.252 401.988 605.356 394.331 623.588 391.597ZM597.753 452.389L640.284 452.462L665.902 452.455C664.94 441.952 662.484 431.633 654.001 424.53C645.401 417.329 634.846 417.015 624.239 417.996C614.487 421.426 607.301 426.596 602.644 436.115C600.121 441.271 598.87 446.8 597.753 452.389Z" fill="black"/>
<path d="M1206.44 391.785C1223.59 390.049 1241.38 391.598 1255.96 401.593C1270.05 411.255 1278.12 426.729 1281.17 443.271C1282.56 450.812 1285.31 467.276 1280.75 473.908C1247.69 473.757 1214.63 473.825 1181.57 474.112C1186.36 478.763 1186.99 487.544 1193.59 494.048C1208.21 508.453 1230.32 506.362 1249.1 506.248L1263.84 506.283C1264.23 506.898 1264.56 507.51 1264.83 508.189C1266.89 513.29 1266.14 528.159 1264.21 533.131C1238.38 534.692 1203.9 534.99 1181.53 521.142C1166.62 512.092 1155.98 497.424 1152.01 480.443C1147.5 461.017 1150.82 438.402 1161.39 421.437C1172.18 404.122 1187.09 396.345 1206.44 391.785ZM1182.72 452.426L1223.48 452.462L1249.84 452.434C1251.78 448.635 1250.36 441.678 1249.09 437.74C1246.77 430.582 1240.16 424.362 1233.55 421.094C1225.54 417.139 1216.87 416.925 1208.22 418.287C1201.28 421.397 1191.63 426.606 1188.76 434.072C1187.34 437.788 1184.51 450.357 1182.72 452.426Z" fill="black"/>
<path d="M152.406 332.93L183.975 332.924L184.022 406.789L184.575 406.224C195.66 394.991 210.568 389.917 226.157 389.838C242.107 389.757 257.779 394.299 269.262 405.782C289.967 426.487 286.741 456.011 286.697 482.802L286.573 533.131C276.18 533.231 265.787 533.198 255.395 533.029C254.973 510.416 255.34 487.728 255.328 465.108C255.493 452.007 255.823 439.14 246.337 428.801C239.646 421.509 231.076 417.407 221.155 417.19C211.38 416.975 201.838 419.458 194.69 426.466C189.755 431.305 186.475 437.706 185.026 444.439C182.636 455.546 183.845 468.444 183.886 479.776L183.964 533.147L152.446 533.131L152.406 332.93Z" fill="black"/>
<path d="M1341.46 393.552C1362.01 391.56 1390.13 393.224 1411.45 393.285C1411.89 394.126 1412.3 395.019 1412.52 395.947C1413.79 401.357 1414.25 415.867 1411.29 420.494C1393.47 420.721 1375.64 420.651 1357.82 420.286C1352.15 420.224 1345.21 420.176 1340.94 424.467C1338.08 427.344 1336.72 430.869 1336.85 434.922C1337.58 458.212 1391.3 437.067 1414.6 458.98C1422.75 466.64 1425.32 477.463 1425.74 488.251C1426.2 500.098 1421.63 511.309 1413.48 519.924C1404 529.958 1392.61 532.819 1379.33 533.167C1356.17 533.188 1332.95 533.509 1309.8 532.988C1310.24 532.256 1310.67 531.468 1310.88 530.636C1312.26 525.413 1312.39 510.613 1309.76 506.155C1323.04 506.092 1373.43 507.758 1382.88 505.233C1387.28 504.057 1390.59 501.546 1392.82 497.526C1394.73 494.044 1395.15 489.937 1393.98 486.139C1389.46 471.009 1360.39 476.525 1348.31 475.719C1339.63 475.14 1330.91 473.276 1323.31 468.896C1315.36 464.32 1309.73 457.753 1307.49 448.781C1304.63 437.326 1305.56 423.328 1311.8 413.195C1318.56 402.203 1329.29 396.475 1341.46 393.552Z" fill="black"/>
<path d="M39.7282 393.314C62.6562 392.689 85.7322 393.239 108.676 393.268C108.872 402.336 108.692 411.422 108.627 420.492C95.7622 420.565 82.8822 420.741 70.0192 420.611C63.2622 420.542 56.3192 419.922 49.5832 420.29C44.7022 420.556 39.0612 421.488 35.7042 425.425C33.4292 428.094 32.4382 432.381 32.8502 435.82C35.4982 457.916 85.4872 437.832 108.996 457.627C116.992 464.359 120.575 474.558 121.384 484.733C122.375 497.203 118.976 509.038 110.679 518.542C102.048 528.428 90.9482 532.321 78.2362 533.166C54.6222 533.187 30.9582 533.508 7.35218 533.008L7.34317 506.132L50.3082 506.043C58.7582 506.108 67.8032 507.141 76.1442 505.791C80.7502 505.045 84.8682 503.204 87.6302 499.313C90.0162 495.951 91.2802 490.859 90.4602 486.787C87.3252 471.213 52.9072 476.783 40.7902 475.5C32.1902 474.59 23.5682 472.228 16.4192 467.201C8.42118 461.577 4.02517 453.444 2.43117 443.924C0.430171 431.975 2.53717 420.068 9.81616 410.173C17.2422 400.078 27.6792 395.247 39.7282 393.314Z" fill="black"/>
<path d="M511.928 393.39C524.863 392.894 537.879 393.216 550.825 393.274C551.022 402.337 550.85 411.432 550.836 420.498C542.627 420.606 518.63 417.829 513.178 423.784C510.727 426.462 509.742 431.213 509.297 434.695C508.02 444.695 508.904 455.681 508.917 465.79L509.021 526.725C509.063 528.899 508.857 531.079 508.716 533.247C498.756 534.698 487.169 533.64 477.031 533.636L476.932 465.103C476.911 452.149 475.885 438.393 477.757 425.587C478.711 419.061 480.632 412.442 484.598 407.083C491.258 398.088 501.326 394.865 511.928 393.39Z" fill="black"/>
<path d="M1094.96 393.552C1108.24 392.8 1121.68 393.211 1134.98 393.267C1135.41 394.113 1135.82 395.011 1136.04 395.942C1137.31 401.375 1137.79 415.843 1134.84 420.505C1125.25 420.488 1113.67 419.04 1104.34 421.233C1100.37 422.166 1097.71 424.155 1096.07 427.934C1089.07 444.022 1098.77 515.251 1092.61 525.187C1092.9 525.65 1093.2 526.133 1093.41 526.638C1094.35 528.857 1094.33 531.103 1093.42 533.247C1083.42 534.867 1071.55 533.693 1061.34 533.635C1064.04 528.805 1062.58 517.814 1062.52 512.107L1062.34 458.94C1062.32 447.847 1061.54 436.151 1063.18 425.181C1064.05 419.432 1065.83 413.554 1069.04 408.67C1075.29 399.172 1084.38 395.86 1094.96 393.552Z" fill="black"/>
<path d="M995.021 393.551C1005.12 392.853 1015.33 393.218 1025.45 393.285C1026.01 394.352 1026.46 395.48 1026.66 396.674C1028.36 406.87 1026.93 431.174 1026.93 443.314L1026.92 499.676C1026.92 509.191 1027.44 518.986 1026.77 528.462C1026.64 530.299 1026.24 531.554 1025.18 533.059C1014.93 533.3 1004.7 533.145 994.461 532.965C994.711 532.589 994.781 532.498 995.011 532.05C996.201 529.69 997.381 401.503 995.021 393.551Z" fill="black"/>
<path d="M663.385 251.372C672.088 257.35 680.402 263.965 688.812 270.348C667.713 300.313 636.111 319.183 601.843 330.335C597.393 331.776 592.762 332.761 588.221 333.878L581.027 302.908C615.511 294.527 641.081 278.999 663.385 251.372Z" fill="black"/>
</svg>
