<svg width="555" height="194" viewBox="0 0 555 194" fill="none" xmlns="http://www.w3.org/2000/svg">
<path d="M0 0H104.551H111.847H207.268H553.527C553.768 0.378168 553.916 0.733229 553.951 1.18315C554.311 5.76949 554.001 10.6291 554.002 15.2397L554.006 43.492L554.007 155.236L554.005 182.692C554.004 185.37 554.438 190.741 553.911 193.065C553.836 193.393 553.694 193.71 553.527 194H0V0Z" fill="white"/>
<path d="M104.55 0H111.846H207.267C207.576 0.353097 207.781 0.702482 207.82 1.17679C208.055 4.05798 207.829 7.15474 207.829 10.055C207.828 17.1637 207.731 24.2917 207.928 31.3979C208.086 37.1258 208.563 42.8434 208.714 48.5691C209.059 64.7448 209.084 80.9257 208.788 97.1024C208.683 101.504 208.936 105.991 208.642 110.375C208.551 111.725 208.357 113.095 208.392 114.449C208.453 116.818 209.155 119.754 208.683 122.039C208.564 122.616 208.229 122.995 207.794 123.369C207.686 123.461 207.574 123.548 207.462 123.635L207.725 124.187C204.948 124.724 202.194 124.508 199.479 125.49C186.331 130.242 180.308 146.249 166.981 150.578C166.829 150.634 166.676 150.684 166.522 150.729C160.974 152.308 154.675 152.219 149.543 149.364C150.086 146.236 149.174 140.93 148.216 137.923C135.312 147.652 117.996 153.58 101.762 151.293C100.374 151.098 99.0084 150.809 97.6436 150.49C96.8039 152.87 86.1881 158.537 83.3543 160.041C81.0027 160.957 78.5664 161.866 76.1198 162.488C75.8153 162.25 75.4403 162.089 75.0969 161.914C73.1762 162.554 69.5233 163.622 67.5706 163.179C63.4898 158.437 57.2605 155.824 53.3341 151.024C49.0455 145.782 49.9561 137.301 49.3953 130.987C49.0488 127.085 48.4311 123.19 47.093 119.499C48.5087 119.037 50.2143 117.841 51.1643 116.703C50.0189 116.975 49.0465 117.64 48.05 118.242C49.214 116.672 48.7066 115.37 49.2261 113.701C49.409 113.113 49.7244 113.089 50.2502 112.82C49.8117 110.7 48.4849 108.408 47.8361 106.28C45.547 98.7735 44.7308 90.0467 46.0896 82.2934C46.4351 80.3222 48.2408 72.7667 49.6569 71.7733L50.2554 72.0095C50.2779 72.0185 50.3025 72.0236 50.3231 72.0365C51.0574 72.4947 51.1734 73.6239 51.4122 74.4286C51.7659 74.6115 51.9795 74.4627 52.3434 74.3537C53.779 72.5117 52.0346 69.2089 52.8136 66.9031L52.8483 66.8029C50.4861 61.4873 49.8304 55.5318 49.9456 49.7663C50.5254 47.4916 50.5467 44.9222 50.9486 42.589C53.8537 25.7247 65.4752 20.3774 79.1109 13.7135C87.3419 9.69089 97.0892 5.25769 104.55 0Z" fill="url(#paint0_linear_767_24618)"/>
<path d="M111.848 0H207.269C207.578 0.353097 207.783 0.702482 207.822 1.17679C208.057 4.05798 207.831 7.15474 207.831 10.055C207.83 17.1637 207.733 24.2917 207.93 31.3979C208.088 37.1258 208.565 42.8434 208.716 48.5691C209.061 64.7448 209.086 80.9257 208.79 97.1024C208.685 101.504 208.938 105.991 208.644 110.375C208.553 111.725 208.359 113.095 208.394 114.449C208.455 116.818 209.157 119.754 208.685 122.039C208.566 122.616 208.231 122.995 207.796 123.369C207.688 123.461 207.576 123.548 207.464 123.635C207.456 123.606 207.451 123.577 207.441 123.548C206.767 121.722 204.472 119.46 203.204 117.912C194.176 106.886 185.407 99.6155 172.592 93.4671L172.449 92.7962C172.75 91.9537 173.897 91.3311 174.582 90.7724C174.364 90.8104 174.131 90.859 173.91 90.8578C173.857 90.8575 173.314 90.7879 173.3 90.7658C172.977 90.2454 173.016 87.3588 172.958 86.6381C172.205 77.1893 170.524 67.1752 164.057 59.7502C162.125 56.9763 159.452 54.4954 156.861 52.3483C146.579 43.8273 134.61 40.9199 121.407 42.1666C121.416 42.1235 121.426 42.0806 121.435 42.0374C121.491 41.7408 121.553 41.4542 121.66 41.1704C122.396 39.2206 125.951 35.8064 127.657 34.6852C128.101 34.3932 128.674 34.3615 129.168 34.1527L129.281 34.104C129.457 33.2504 129.503 32.3638 129.581 31.4965C129.618 31.3484 129.65 31.1992 129.677 31.0491C130.791 24.9272 128.479 18.816 124.278 14.3851C122.284 12.2823 119.993 10.4683 118.039 8.32461C115.691 5.75041 113.834 2.84434 111.848 0Z" fill="white"/>
<path d="M129.28 34.1041C130.546 34.6782 134.056 32.8945 135.53 32.5247C137.83 31.9481 140.386 31.7432 142.751 31.6137C150.949 31.1643 158.877 32.9795 166.699 35.2432L166.848 35.3463C170.279 37.6811 175.806 38.4214 179.825 39.2637C180.766 39.4608 182.175 39.5554 183.034 39.935C183.076 39.9535 183.86 41.0765 184.209 41.3688C185.985 42.8551 187.713 44.3898 189.477 45.887C190.495 46.7508 192.598 47.4158 193.189 48.236C193.342 50.8825 192.316 53.5499 192.239 56.2033C192.066 62.0954 193.348 72.2638 191.547 77.6773C190.986 79.364 190.002 80.8066 188.83 82.1288C186.806 84.4117 184.554 85.8829 182.276 87.8137C180.03 88.7118 176.501 89.5646 174.581 90.7725C174.363 90.8105 174.13 90.8591 173.909 90.8579C173.856 90.8576 173.313 90.788 173.299 90.7659C172.976 90.2455 173.015 87.3589 172.957 86.6382C172.204 77.1894 170.523 67.1753 164.056 59.7503C162.124 56.9764 159.451 54.4955 156.86 52.3484C146.578 43.8274 134.609 40.92 121.406 42.1667C121.415 42.1236 121.425 42.0807 121.434 42.0375C121.49 41.7409 121.552 41.4543 121.659 41.1705C122.395 39.2207 125.95 35.8065 127.656 34.6853C128.1 34.3933 128.673 34.3616 129.167 34.1528L129.28 34.1041Z" fill="#FD889B"/>
<path d="M166.699 35.2432C168.888 35.2708 171.872 36.7221 174.068 37.3094C182.136 39.4665 189.722 40.3123 198.064 39.4645C197.818 41.8248 194.318 46.4698 193.637 50.1069C192.209 57.7299 194.131 71.5213 191.957 77.9154C191.009 80.7021 188.86 83.4152 186.596 85.2582C185.366 86.2598 183.843 87.4346 182.276 87.8137C184.554 85.8829 186.806 84.4117 188.83 82.1288C190.002 80.8066 190.986 79.364 191.547 77.6773C193.348 72.2638 192.066 62.0954 192.239 56.2033C192.316 53.5499 193.342 50.8825 193.189 48.236C192.598 47.4158 190.495 46.7508 189.477 45.887C187.713 44.3898 185.985 42.8551 184.209 41.3688C183.86 41.0765 183.076 39.9535 183.034 39.935C182.175 39.5554 180.766 39.4608 179.825 39.2637C175.806 38.4214 170.279 37.6811 166.848 35.3463L166.699 35.2432Z" fill="#FBCBDA"/>
<path d="M138.258 107.08L138.387 107.194C138.769 107.533 138.977 107.759 139.102 108.276C141.78 108.623 144.608 108.486 147.133 109.567L147.724 109.4L148.118 108.625L148.344 108.966C147.607 113.278 143.993 121.361 140.391 124.182C131.159 136.629 107.06 144.521 92.5871 148.67L97.6443 150.49C96.8046 152.87 86.1888 158.537 83.355 160.041C81.0034 160.957 78.5672 161.866 76.1206 162.488C75.8161 162.25 75.441 162.089 75.0976 161.914C73.1769 162.554 69.5241 163.622 67.5714 163.179C63.4906 158.437 57.2613 155.824 53.3349 151.024C49.0463 145.782 49.9569 137.301 49.3961 130.987C49.0496 127.085 48.4318 123.19 47.0938 119.499C48.5094 119.037 50.2151 117.841 51.1651 116.703C50.0197 116.975 49.0473 117.64 48.0508 118.242C49.2148 116.672 48.7074 115.37 49.2269 113.701C49.4098 113.113 49.7252 113.089 50.251 112.82C55.9495 124.222 65.1648 133.743 77.4678 137.854C86.2055 140.775 96.5693 141.145 104.937 136.947C110.868 133.971 115.417 129.03 118.51 123.221C119.311 121.716 119.883 119.767 120.81 118.406C121.632 118.85 127.725 119.53 128.726 119.464C128.996 120.034 129.075 120.526 129.144 121.149C128.495 123.575 127.88 126.011 127.3 128.454C130.349 126.052 132.231 123.587 134.074 120.214C135.942 115.926 137.235 111.639 138.258 107.08Z" fill="#6A2F52"/>
<path d="M138.257 107.08L138.386 107.194C138.768 107.533 138.976 107.759 139.101 108.276C141.779 108.623 144.607 108.486 147.132 109.567L147.723 109.4L148.117 108.625L148.343 108.966C147.606 113.278 143.992 121.361 140.39 124.182L140.062 123.866C138.952 124.603 138.6 125.796 137.614 126.57C136.441 127.491 135.344 128.393 134.059 129.163C134.029 129.102 133.999 129.041 133.968 128.981C133.917 128.884 133.86 128.79 133.813 128.691C133.269 127.548 132.21 126.848 131.25 126.053C131.258 125.069 133.242 123.135 133.791 122.021C134.154 121.283 134.342 121.015 134.073 120.214C135.941 115.926 137.234 111.639 138.257 107.08Z" fill="#8B3355"/>
<path d="M52.8483 66.8027C54.5391 70.2784 54.2327 71.252 54.8959 74.7339C55.3109 80.6645 56.7649 86.2842 59.9233 91.3716L59.3881 91.508L59.678 92.1183L59.3151 92.471C59.1021 92.1985 58.9015 91.9212 58.706 91.636L58.3241 91.753C60.8368 96.7566 69.3033 109.806 73.9198 112.63C78.6257 117.472 89.2779 123.652 96.0866 124.022L96.2881 123.73C98.2551 123.347 101.175 124.315 103.433 123.985C104.424 123.84 105.344 123.398 106.286 123.079C108.831 122.219 111.226 121.638 113.924 121.624C116.459 120.995 118.303 118.452 120.71 117.675L120.809 118.406C119.882 119.767 119.31 121.716 118.509 123.221C115.416 129.03 110.867 133.971 104.936 136.947C96.5686 141.145 86.2047 140.775 77.467 137.854C65.164 133.743 55.9487 124.222 50.2502 112.82C49.8117 110.7 48.4849 108.408 47.8361 106.28C45.547 98.7733 44.7308 90.0465 46.0896 82.2932C46.4351 80.322 48.2408 72.7665 49.6569 71.7731L50.2554 72.0093C50.2779 72.0183 50.3025 72.0234 50.3231 72.0363C51.0574 72.4945 51.1734 73.6237 51.4122 74.4284C51.7659 74.6113 51.9795 74.4625 52.3434 74.3535C53.779 72.5115 52.0346 69.2087 52.8136 66.9029L52.8483 66.8027Z" fill="url(#paint1_linear_767_24618)"/>
<path d="M52.8507 66.8027C54.5415 70.2784 54.2351 71.252 54.8983 74.7339C55.3133 80.6645 56.7673 86.2842 59.9257 91.3716L59.3905 91.508L59.6804 92.1183L59.3175 92.471C59.1045 92.1985 58.9039 91.9212 58.7084 91.636L58.3265 91.753C55.5637 88.0078 51.2482 76.8067 50.2578 72.0093C50.2803 72.0183 50.3049 72.0234 50.3255 72.0363C51.0598 72.4945 51.1758 73.6237 51.4146 74.4284C51.7683 74.6113 51.9819 74.4625 52.3458 74.3535C53.7814 72.5115 52.037 69.2087 52.816 66.9029L52.8507 66.8027Z" fill="#B8567D"/>
<path d="M96.0859 124.022L96.2874 123.73C98.2544 123.347 101.175 124.315 103.433 123.985C104.424 123.84 105.344 123.398 106.286 123.079C108.831 122.219 111.226 121.638 113.924 121.624C109.261 124.109 101.462 125.868 96.285 124.129C96.1878 124.096 96.1618 124.073 96.0859 124.022Z" fill="#8B3355"/>
<path d="M121.407 42.1665C134.61 40.9198 146.579 43.8272 156.861 52.3482C159.452 54.4953 162.125 56.9762 164.057 59.7501C170.524 67.1751 172.205 77.1892 172.958 86.638C173.016 87.3587 172.977 90.2453 173.3 90.7657C173.314 90.7878 173.857 90.8574 173.91 90.8577C174.131 90.8589 174.364 90.8103 174.582 90.7723C173.897 91.331 172.75 91.9536 172.449 92.7961L172.592 93.467C171.986 94.2583 171.583 99.5303 171.293 100.909C170.011 98.5757 168.952 96.1004 167.672 93.7529C163.916 86.7487 159.307 80.2365 153.951 74.3652C141.898 61.3506 131.012 55.8261 113.077 55.1377C111.99 55.1159 110.493 54.8571 109.54 55.4062L109.071 56.3885C105.671 55.7688 102.487 55.6152 99.0355 55.7408C97.8193 56.2723 95.9514 56.3513 94.6211 56.3192C95.6303 54.3669 98.6789 51.6531 100.604 50.571C106.009 45.7582 114.476 43.4551 121.407 42.1665Z" fill="#FBCBDA"/>
<path d="M121.405 42.1665C134.608 40.9198 146.577 43.8272 156.859 52.3482C159.45 54.4953 162.123 56.9762 164.055 59.7501L163.826 59.8829C162.839 59.6543 163.079 58.9036 162.376 58.3711C161.699 57.858 157.987 58.4212 156.978 58.5014C148.423 59.1815 140.269 58.0998 131.964 56.1123C129.319 55.4793 126.638 54.5852 123.985 54.062C122.398 53.749 120.633 53.9684 119.011 53.8074C116.033 53.5117 110.071 52.118 107.45 50.7566C106.468 50.2462 105.492 49.2792 104.644 48.5566C103.376 49.2556 102.161 50.0829 100.938 50.8601L100.602 50.571C106.007 45.7582 114.474 43.4551 121.405 42.1665Z" fill="url(#paint2_linear_767_24618)"/>
<path d="M99.0352 55.7409L99.2741 55.3381C101.653 54.2614 110.144 54.9004 113.076 55.1378C111.989 55.116 110.492 54.8572 109.539 55.4063L109.07 56.3886C105.67 55.7689 102.486 55.6153 99.0352 55.7409Z" fill="#FD889B"/>
<path d="M144.147 84.0742C152.144 87.4851 158.333 92.9967 161.602 101.194C164.173 107.639 164.242 115.118 161.49 121.519C160.847 123.015 160.068 124.44 159.254 125.848C156.029 130.352 152.489 134.378 148.216 137.923C135.312 147.652 117.996 153.58 101.762 151.293C100.374 151.098 99.008 150.809 97.6432 150.49L92.5859 148.67C107.059 144.521 131.158 136.629 140.39 124.182C143.992 121.361 147.606 113.278 148.343 108.966C150.372 103.325 147.87 91.5381 145.288 86.1726C144.943 85.456 144.547 84.7611 144.147 84.0742Z" fill="url(#paint3_linear_767_24618)"/>
<path d="M104.551 0H111.847C113.833 2.84434 115.69 5.75041 118.038 8.32461C119.992 10.4683 122.283 12.2823 124.277 14.3851C128.478 18.816 130.79 24.9272 129.676 31.0491C129.649 31.1992 129.617 31.3484 129.58 31.4965C129.498 30.5482 129.616 29.5374 128.864 28.8447C127.718 27.7883 125.621 27.7496 124.254 27.0149C122.777 26.221 121.616 24.9687 120.067 24.1649C112.135 20.1412 103.232 18.4296 94.3737 19.2258C89.2886 19.6709 83.716 19.9519 78.8194 21.4103C76.5714 22.0798 74.4102 23.1065 72.2366 23.9839C68.0194 25.6862 65.1947 26.8265 62.1433 30.4489C60.0676 32.913 57.0999 36.7719 55.9983 39.7963C54.8971 42.8196 54.8615 51.4002 55.1604 54.8458C55.2414 55.7788 55.3606 58.0077 56.132 58.6353C56.1571 58.6557 56.1844 58.673 56.2106 58.6919C57.199 58.1283 58.9017 51.1707 61.8647 49.234C56.5473 58.8887 55.1553 63.5653 54.8964 74.7341C54.2332 71.2522 54.5396 70.2786 52.8488 66.8029C50.4866 61.4873 49.8309 55.5318 49.9461 49.7663C50.5259 47.4916 50.5472 44.9222 50.9491 42.589C53.8542 25.7247 65.4757 20.3774 79.1114 13.7135C87.3424 9.69089 97.0897 5.25769 104.551 0Z" fill="#FCA5B4"/>
<path d="M99.0342 55.7407C102.486 55.6151 105.67 55.7687 109.07 56.3884C112.978 57.2566 117.638 59.1024 120.619 61.8495C123.519 63.5592 126.878 67.1693 128.762 69.9374C118.891 66.4942 106.667 65.6399 97.0611 70.2935C90.6769 73.3792 85.7815 78.8776 83.4541 85.5769C81.2511 91.9617 81.742 99.2411 82.735 105.829C76.902 102.629 72.7351 97.4463 70.8734 91.0337C69.0013 84.5857 69.4215 77.6772 72.6855 71.7565C73.233 70.7633 74.2229 69.0119 75.2036 68.4045C79.7671 61.8855 87.4682 58.9309 94.6199 56.3191C95.9502 56.3512 97.818 56.2722 99.0342 55.7407Z" fill="url(#paint4_linear_767_24618)"/>
<path d="M99.0338 55.7407C102.485 55.6151 105.669 55.7687 109.069 56.3884C112.977 57.2566 117.637 59.1024 120.618 61.8495C120.558 61.848 120.498 61.8481 120.439 61.8452C118.045 61.7292 116.149 58.6902 113.633 59.1071L113.392 59.4564C113.534 60.1866 113.583 60.3166 114.149 60.7995C114.587 60.9086 116.61 61.0361 116.693 61.1564C116.837 61.3657 117.01 63.2415 117.283 63.897C116.337 63.9157 114.895 63.7436 114.019 63.9855C113.021 64.2612 112.218 64.9378 111.289 65.3457C109.48 66.1392 106.045 66.7956 104.163 66.2223C104.341 65.6399 105.259 65.1927 105.28 64.6837C105.06 64.6636 104.863 64.6482 104.641 64.661C103.613 64.7202 102.96 63.2509 101.873 64.2931C101.802 64.6428 101.818 64.9949 101.506 65.2023C100.91 65.598 100.1 65.3715 99.5818 65.6629C98.7218 66.1468 99.197 68.2337 97.5344 68.3087L97.2246 68.1441C96.6947 68.5424 96.1768 68.9419 95.6819 69.3833C95.2099 68.9762 94.8572 68.4772 94.1839 68.523C93.1145 68.5957 91.9253 69.3735 90.9033 69.3959C89.8066 69.4198 88.8097 68.1397 87.7624 67.8743C86.0457 67.4391 81.0527 67.8537 79.9535 66.9925C79.7343 66.8207 79.5471 66.616 79.3596 66.4109L78.6215 66.7536L78.5709 66.1819C77.2165 66.6718 76.5508 68.0336 75.2031 68.4045C79.7666 61.8855 87.4677 58.9309 94.6194 56.3191C95.9497 56.3512 97.8176 56.2722 99.0338 55.7407Z" fill="#FCFCFC"/>
<path d="M61.8628 49.234C69.2321 39.8532 77.4447 32.3187 89.8264 30.8444C96.4947 30.0504 103.073 31.0953 109.468 32.9802C94.2282 37.582 80.248 44.5183 72.4736 58.9902C68.7881 65.8506 66.0068 73.4142 64.0711 80.9498C63.5453 82.9965 62.0517 91.4799 60.9963 92.2892C60.4054 92.0779 60.3041 91.8558 59.9219 91.3718C56.7635 86.2844 55.3095 80.6647 54.8945 74.7341C55.1534 63.5653 56.5454 58.8887 61.8628 49.234Z" fill="url(#paint5_linear_767_24618)"/>
<path d="M95.6914 90.0582C98.6099 83.6201 103.292 77.6641 110.136 75.1112C114.844 73.3545 120.789 73.6252 125.337 75.738C131.003 78.3702 134.663 83.0538 136.745 88.859C138.393 93.4538 138.905 98.206 138.638 103.056C138.565 104.379 138.254 105.775 138.257 107.08C137.234 111.639 135.941 115.926 134.073 120.214C132.23 123.587 130.348 126.052 127.299 128.454C127.879 126.011 128.494 123.575 129.143 121.149L129.676 118.229C130.373 115.993 130.513 113.016 130.619 110.658C130.887 104.633 130.015 97.1457 125.796 92.5366C123.44 88.9412 119.431 86.5306 115.272 85.6709C107.496 84.0639 102.399 87.2197 95.6914 90.0582Z" fill="#F6F1F3"/>
<path d="M116.167 96.7759C116.176 96.5 116.277 96.4052 116.443 96.1988C117.243 98.5166 117.055 98.7896 116.948 101.138C116.922 101.718 117.016 101.978 117.384 102.41C117.553 102.457 117.727 102.493 117.904 102.491C118.625 102.482 119.516 102.22 120.023 101.692L119.802 100.938C120.796 100.711 122.436 101.728 123.522 101.911C125.532 102.249 126.97 101.086 129.027 101.858C129.069 101.873 129.111 101.89 129.153 101.906C129.166 101.881 129.181 101.857 129.194 101.832C130.313 99.5129 126.13 94.9223 125.476 92.8541L125.799 92.5371C130.018 97.1462 130.89 104.633 130.622 110.658C130.516 113.016 130.376 115.993 129.679 118.229L129.146 121.149C129.077 120.526 128.998 120.034 128.728 119.464C127.727 119.53 121.634 118.85 120.812 118.406L120.713 117.675C118.306 118.452 116.462 120.995 113.927 121.624C111.229 121.638 108.834 122.219 106.289 123.079C105.347 123.398 104.427 123.84 103.436 123.985C101.178 124.315 98.2572 123.347 96.2902 123.73L96.0887 124.022C89.28 123.652 78.6278 117.472 73.9219 112.63C75.9514 112.556 76.9358 115.626 78.9124 115.486C83.6068 115.154 88.233 113.815 92.8068 112.816C95.9002 112.14 99.0423 111.705 102.159 111.147C103.954 110.826 105.483 110.378 107.344 110.226C108.21 110.155 110.406 110.145 110.957 109.504C109.893 107.902 108.413 107.553 106.921 106.54C105.06 105.277 102.517 105.213 100.735 103.752L101.23 103.417C105.785 105.4 110.328 106.718 112.936 111.281C114.196 109.105 115.601 106.812 116.231 104.36L116.488 103.331C116.863 100.975 116.683 99.0981 116.167 96.7759Z" fill="url(#paint6_linear_767_24618)"/>
<path d="M116.487 103.331C117.434 102.955 118.16 103.086 119.156 103.107L119.67 103.434C119.389 103.932 119.076 104.01 118.52 104.167C117.824 104.363 116.955 104.332 116.23 104.36L116.487 103.331Z" fill="#CC4A59"/>
<path d="M128.728 119.464C128.188 119.199 127.739 119.006 127.395 118.49L127.662 118.133C128.385 118.056 128.966 118.09 129.679 118.229L129.146 121.149C129.077 120.526 128.998 120.034 128.728 119.464Z" fill="#8B3355"/>
<path d="M104.721 89.0303C106.43 89.1675 108.117 89.2657 109.737 89.8743C113.007 91.1035 114.761 93.7098 116.163 96.7754C116.679 99.0976 116.859 100.975 116.484 103.331L116.227 104.36C115.597 106.812 114.192 109.105 112.932 111.281C110.324 106.718 105.781 105.4 101.226 103.417C100.86 102.966 100.151 102.535 99.6995 102.142C98.4284 101.035 97.4395 99.8426 96.5273 98.4306C98.5042 97.8089 100.335 97.2172 101.903 95.8091C103.874 94.0402 104.593 91.5985 104.721 89.0303Z" fill="url(#paint7_linear_767_24618)"/>
<path d="M159.257 125.848C159.383 126.065 159.609 126.31 159.552 126.558C159.331 127.516 158.444 128.268 157.824 128.992C156.598 130.421 155.487 131.839 154.161 133.188C150.579 136.835 149.114 137.973 149.824 143.306C149.966 144.367 149.965 146.067 150.511 146.978C150.841 147.529 152.822 150.239 153.266 150.341C155.595 150.874 159.068 151.298 161.441 151.15C163.102 151.047 165.452 149.97 166.984 150.578C166.832 150.634 166.679 150.684 166.525 150.729C160.977 152.308 154.678 152.219 149.546 149.364C150.089 146.236 149.177 140.93 148.219 137.923C152.492 134.378 156.032 130.352 159.257 125.848Z" fill="#CC4A59"/>
<path d="M33.9076 53.6787C38.5054 51.1673 44.7559 49.876 49.9477 49.7666C49.8325 55.5321 50.4882 61.4876 52.8504 66.8032L52.8157 66.9034C52.0367 69.2092 53.7811 72.512 52.3455 74.354C51.9816 74.463 51.768 74.6118 51.4143 74.4289C51.1755 73.6242 51.0595 72.495 50.3252 72.0368C50.3046 72.0239 50.28 72.0188 50.2575 72.0098L49.659 71.7736C48.2429 72.767 46.4372 80.3225 46.0917 82.2937C44.7329 90.047 45.5491 98.7738 47.8382 106.28C48.487 108.408 49.8138 110.7 50.2523 112.82C49.7265 113.089 49.4111 113.113 49.2282 113.701C48.7087 115.37 49.2161 116.672 48.0521 118.242C44.0734 119.503 39.1422 118.81 35.1415 117.823C30.933 116.272 27.0439 114.335 23.6713 111.325C14.3189 102.978 14.1743 91.4955 13.4913 79.9548C13.9977 76.4012 13.4461 72.9546 12.355 69.5736C11.9642 68.3627 11.3912 67.0418 11.2264 65.7803C11.0587 64.496 12.0152 63.6456 12.7595 62.6776C16.8682 57.3344 15.9055 58.7121 22.0077 57.8842C24.7051 57.5183 32.3571 55.7334 33.9076 53.6787Z" fill="#6577A8"/>
<path d="M148.218 137.923C149.176 140.93 150.088 146.236 149.545 149.364C148.894 154.126 146.445 165.307 144.286 169.581L144.182 169.734C141.898 173.15 141.118 180.189 139.503 182.011C138.498 183.145 136.997 183.627 135.561 183.929C133.404 184.383 129.939 185.086 127.778 184.701C125.436 184.285 124.001 182.345 121.404 182.859C113.169 179.668 103.462 181.05 95.5191 176.836C88.7767 173.259 85.4886 167.021 83.3555 160.041C86.1893 158.537 96.8051 152.87 97.6448 150.49C99.0096 150.809 100.376 151.098 101.764 151.293C117.998 153.58 135.314 147.652 148.218 137.923Z" fill="#37659D"/>
<path d="M48.0502 118.242C49.0467 117.64 50.0191 116.975 51.1645 116.703C50.2145 117.841 48.5089 119.037 47.0932 119.499C48.4313 123.19 49.049 127.085 49.3955 130.987C49.9563 137.301 49.0457 145.782 53.3343 151.024C57.2607 155.824 63.49 158.437 67.5708 163.179C69.5235 163.622 73.1764 162.554 75.0971 161.914C75.4405 162.089 75.8155 162.25 76.12 162.488C59.4599 166.196 47.9216 162.363 32.2814 157.016L30.3212 156.052L30.7788 155.699C30.6691 154.947 30.0227 154.463 29.5154 153.906C28.7391 152.652 26.4608 152.62 25.5725 151.261C21.9431 145.708 27.7332 133.418 29.411 127.757C29.8454 126.29 29.3411 124.627 29.9639 123.263C30.917 121.177 33.6231 120.736 34.1167 118.238L35.1396 117.823C39.1403 118.81 44.0715 119.503 48.0502 118.242Z" fill="url(#paint8_linear_767_24618)"/>
<path d="M21.6822 138.143C23.938 130.922 27.7879 122.73 34.1174 118.238C33.6238 120.736 30.9177 121.177 29.9646 123.263C29.3418 124.627 29.8461 126.29 29.4117 127.757C27.7339 133.418 21.9438 145.708 25.5732 151.261C26.4615 152.62 28.7398 152.652 29.5161 153.906C27.5506 153.659 24.3085 151.957 22.7946 150.746C19.9691 148.486 21.6452 145.129 21.9105 142.175C22.0278 140.87 21.8165 139.446 21.6822 138.143Z" fill="#FD889B"/>
<path d="M12.6758 154.147C17.3587 150.049 19.4836 143.778 21.6825 138.143C21.8168 139.446 22.0281 140.87 21.9108 142.175C21.6455 145.129 19.9694 148.486 22.7949 150.746C24.3088 151.957 27.5509 153.659 29.5164 153.906C30.0237 154.463 30.6701 154.947 30.7798 155.699L30.3222 156.052L32.2824 157.016C29.9077 156.603 27.5425 155.815 25.1615 155.345C21.0386 154.531 16.8664 154.299 12.6758 154.147Z" fill="#FCA5B4"/>
<path d="M121.402 182.859C123.999 182.345 125.434 184.285 127.776 184.701C129.937 185.086 133.402 184.383 135.559 183.929C136.995 183.627 138.496 183.145 139.501 182.011C141.116 180.189 141.896 173.15 144.18 169.734L144.284 169.581C143.254 174.14 141.515 178.545 140.317 183.067C139.582 185.839 139.448 189.231 138.296 191.811C137.62 192.234 137.227 192.279 136.428 192.087C133.531 191.39 130.952 187.926 128.484 186.263C126.279 184.777 123.878 183.792 121.402 182.859Z" fill="#7BA4D1"/>
<path d="M6.23438 55.757C11.158 58.2419 19.667 58.0155 24.8458 56.7158C27.9361 55.9403 30.8636 54.6185 33.9067 53.6787C32.3562 55.7334 24.7042 57.5183 22.0068 57.8842C15.9046 58.7121 16.8673 57.3344 12.7586 62.6776C12.0143 63.6456 11.0578 64.496 11.2255 65.7803C11.3903 67.0418 11.9633 68.3627 12.3541 69.5736C13.4452 72.9546 13.9968 76.4012 13.4904 79.9548C13.0129 77.769 12.9745 75.4115 12.5538 73.187C11.3926 67.0464 8.98724 61.3395 6.23438 55.757Z" fill="#7BA4D1"/>
<path d="M331.25 35.5801C335.337 35.1734 339.89 35.1049 343.982 35.3498C346.514 35.5014 347.38 36.6205 348.999 38.4353C349.897 38.2771 351.143 36.0922 352.278 35.6204C354.326 34.7687 366.163 35.2044 368.376 36.1448C370.155 36.9005 371.512 38.2484 372.223 40.0497C372.685 41.2211 372.875 42.4936 372.955 43.7446C373.156 46.9127 373.353 69.1764 372.637 70.8546C369.239 70.7198 365.766 70.9012 362.361 70.9292C362.404 70.8676 362.447 70.8063 362.485 70.7421C363.038 69.8144 363.25 46.3144 362.784 44.4796C362.535 43.4962 362.077 42.6771 361.164 42.1758C359.834 41.445 358.051 41.6499 356.648 42.068C356.065 42.2416 354.872 42.6341 354.489 43.0915C352.629 45.3103 355.187 52.235 353.599 54.9241C353.572 54.9703 353.543 55.0151 353.514 55.0606C353.684 55.3107 353.823 55.5787 353.888 55.8766C354.293 57.7498 354.404 69.5079 353.602 70.8669C350.306 70.9192 347.01 70.9442 343.714 70.9419C343.803 70.8065 343.785 70.8395 343.874 70.6713C344.398 69.6769 344.332 45.1227 343.798 43.6293C343.543 42.9166 343.075 42.376 342.373 42.0795C341.167 41.5703 338.139 41.6175 336.957 42.1405C333.223 43.7931 336.743 66.9084 335.062 70.776C335.044 70.8158 335.025 70.8549 335.007 70.8944C331.626 70.9339 328.244 70.9274 324.863 70.8747C326.944 67.7264 323.673 45.8281 326.036 40.136C327.067 37.6538 328.854 36.5674 331.25 35.5801Z" fill="#6577A8"/>
<path d="M386.912 107.552C390.493 107.136 394.28 107.387 397.887 107.377C401.874 107.366 405.983 107.125 409.952 107.44C412.994 107.681 415.815 108.74 417.827 111.111C421.208 115.094 420.533 120.784 420.494 125.645C420.476 127.926 420.594 130.262 420.408 132.535C420.168 135.463 419.028 138.115 416.748 140.028C412.018 143.994 400.23 143.18 394.159 142.632C391.52 142.124 389.428 141.427 387.489 139.482C385.529 137.527 384.445 134.86 384.485 132.091C384.49 129.313 385.61 126.652 387.594 124.707C388.877 123.481 390.448 122.598 392.163 122.14C396.551 120.991 405.062 121.679 409.873 121.766C410.017 121.522 410.138 121.275 410.217 121.003C410.682 119.399 410.588 115.903 409.747 114.424C405.117 113.218 392.286 113.957 386.576 113.905C386.658 113.791 386.652 113.803 386.733 113.662C387.365 112.562 387.244 108.781 386.912 107.552Z" fill="#6577A8"/>
<path d="M397.857 128.116C401.887 127.948 405.951 128.031 409.985 128.003C410.093 128.198 410.186 128.399 410.244 128.614C410.761 130.518 410.564 134.194 409.611 135.92C408.566 136.135 407.312 136.071 406.237 136.118C403.634 136.158 397.513 136.931 395.521 135.522C394.736 134.968 394.276 134.015 394.126 133.086C393.906 131.724 394.358 130.213 395.165 129.109C395.773 128.278 396.909 128.259 397.857 128.116Z" fill="#FCFCFC"/>
<path d="M284.602 94.5637C287.798 94.1944 291.169 94.375 294.389 94.3548C294.462 94.4843 294.522 94.62 294.58 94.7564C295.205 96.2143 295.046 105.686 294.417 107.337C299.579 107.35 308.611 106.509 313.167 108.601C315.537 109.69 317.225 111.634 318.123 114.071C318.589 115.337 318.813 116.66 318.912 118.003C319.151 121.249 319.263 141.248 318.543 142.823C315.22 142.89 311.896 142.929 308.573 142.941C308.74 142.665 308.892 142.372 308.967 142.055C309.405 140.204 309.285 125.151 308.605 124.057C308.628 124.012 308.65 123.967 308.674 123.922C308.835 123.617 308.987 123.315 309.033 122.967C309.339 120.687 309.479 116.104 308.127 114.294C304.078 113.204 298.573 113.908 294.374 113.976C294.515 114.2 294.637 114.433 294.706 114.69C295.158 116.36 295.028 138.632 294.791 141.67C294.757 142.105 294.627 142.455 294.41 142.831C291.149 142.94 287.866 142.88 284.603 142.897C284.617 142.873 284.633 142.849 284.645 142.824C284.781 142.549 284.891 142.227 284.912 141.919C285.353 135.583 284.891 128.57 284.884 122.166C284.878 117.64 285.454 97.5667 284.602 94.5637Z" fill="#6577A8"/>
<path d="M509.565 22.5927C512.638 22.0091 516.324 22.3671 519.469 22.4051C519.492 22.4469 519.517 22.4881 519.54 22.5304C520.204 23.7637 520.001 33.8133 519.476 35.4004C524.727 35.3658 534.537 34.387 539.09 37.0596C541.326 38.372 542.727 40.5554 543.368 43.0315C544.067 45.7295 544.499 69.167 543.494 70.8625C540.217 70.8281 536.934 70.9101 533.656 70.9514C533.809 70.7237 533.94 70.4778 533.99 70.2051C534.364 68.1599 534.38 53.2981 533.622 52.0839C533.991 51.537 534.084 50.9679 534.108 50.3168C534.158 48.9951 534.206 43.4681 533.492 42.773C531.935 41.2565 521.841 41.9537 519.397 41.9886C519.503 42.1997 519.6 42.4176 519.665 42.6452C520.208 44.5478 520.018 69.7483 519.418 70.8462L509.305 70.9224C509.408 70.7667 509.504 70.6099 509.581 70.4393C510.066 69.3775 510.151 24.1284 509.565 22.5927Z" fill="#6577A8"/>
<path d="M443.21 35.5805C445.822 35.3493 448.488 35.3124 451.108 35.295C455.125 35.2683 459.117 35.4562 462.133 38.4623C464.156 40.48 465.289 43.2217 465.282 46.0789C465.267 48.9871 464.069 52.0056 461.973 54.04C457.524 58.3578 446.953 57.0313 441.004 56.9178C441.858 58.674 440.958 61.3476 442.362 62.8273C444.381 64.9536 456.631 64.1662 460.065 64.1503C461.854 64.1391 463.647 64.2101 465.435 64.2556C465.514 64.3932 465.581 64.532 465.637 64.6808C466.16 66.083 465.975 69.4825 465.384 70.8303C457.852 70.5381 444.638 72.4235 438.309 68.7171C435.223 66.9028 432.982 63.9377 432.079 60.4727C430.769 55.4227 430.935 46.7513 433.611 42.2036C435.804 38.4755 439.119 36.6369 443.21 35.5805Z" fill="#6577A8"/>
<path d="M444.773 42.0735C445.287 42.0289 445.802 41.9943 446.317 41.9697C448.97 41.8194 452.302 41.4529 454.426 43.4245C455.131 44.0785 455.595 44.9915 455.597 45.9626C455.601 47.1813 454.934 48.3061 454.091 49.1478C453.084 50.1543 452.209 50.0998 450.87 50.1149C447.576 50.2884 444.265 50.1608 440.969 50.097C441.982 48.3229 441.024 46.1178 441.774 44.3294C442.308 43.0561 443.602 42.5889 444.773 42.0735Z" fill="#FCFCFC"/>
<path d="M296.975 35.5805C298.646 35.4163 300.342 35.389 302.02 35.3466C306.741 35.2275 312.123 34.8092 315.796 38.3438C317.877 40.355 319.072 43.1124 319.117 46.0068C319.142 48.8425 318.003 51.7693 316.009 53.7932C311.595 58.2741 300.942 56.9574 294.86 56.9844C295.915 58.6073 294.687 61.2232 296.243 62.7878C298.388 64.9439 310.225 64.1532 313.722 64.1425L319.261 64.1573C319.389 64.3568 319.5 64.5637 319.566 64.7929C319.909 65.9781 319.9 69.8338 319.323 70.9146C312.363 70.7954 298.306 72.0689 292.494 68.8996C289.267 67.1396 286.918 63.9882 285.914 60.4759C284.62 55.952 284.86 46.8064 287.193 42.6436C289.404 38.6985 292.752 36.7918 296.975 35.5805Z" fill="#6577A8"/>
<path d="M298.703 42.0739C299.379 42.0221 300.058 41.9955 300.735 41.9638C303.219 41.8475 306.259 41.6331 308.222 43.4903C308.935 44.1643 309.429 45.0974 309.429 46.0926C309.428 47.2048 308.852 48.2458 308.085 49.0197C307.068 50.0457 306.149 50.1132 304.795 50.1078C301.489 50.2207 298.181 50.2237 294.875 50.1169C295.88 48.2907 294.84 45.8741 295.775 44.0242C296.37 42.8468 297.545 42.4718 298.703 42.0739Z" fill="#FCFCFC"/>
<path d="M247.272 23.1337C251.294 22.8251 255.389 22.9722 259.422 22.9745L279.233 22.9905C279.358 23.2025 279.463 23.4192 279.53 23.6578C279.896 24.9659 279.889 28.1233 279.285 29.2814L262.961 29.2317C258.159 29.2318 253.414 29.058 248.669 29.9183C248.687 29.9523 248.707 29.985 248.722 30.0205C249.282 31.3904 248.974 42.9548 248.389 44.3342L276.574 44.38C276.669 44.5256 276.757 44.6726 276.829 44.8311C277.34 45.9557 277.215 47.9408 276.782 49.0752C277.081 49.6996 277.267 50.0855 277.111 50.781C275.991 51.4274 251.699 51.0317 248.268 51.0265C248.439 51.3059 248.565 51.5802 248.657 51.8959C249.134 53.5321 249.003 69.7857 248.37 70.8975C245.022 71.0312 241.648 70.9438 238.297 70.9403C240.58 67.3927 236.836 33.9709 240.33 27.9181C241.905 25.1904 244.33 23.9292 247.272 23.1337Z" fill="#6577A8"/>
<path d="M247.334 95.1052C251.017 94.7471 254.872 94.9582 258.579 94.9589L278.726 94.9748C278.858 95.1829 278.968 95.396 279.039 95.633C279.459 97.0241 279.38 100.018 278.693 101.271C272.72 101.394 253.871 100.539 249.723 101.762C249.184 102.285 249.023 102.604 248.907 103.37C248.49 106.118 248.791 109.3 248.793 112.107L248.823 130.182C248.83 131.681 249.263 134.402 248.768 135.756C248.752 135.798 248.735 135.84 248.718 135.882C253.572 136.719 258.765 136.389 263.678 136.384L278.68 136.409C278.806 136.604 278.921 136.809 278.99 137.032C279.447 138.496 279.463 141.627 278.714 142.959H259.584C256.012 142.967 252.287 143.182 248.733 142.855C247.334 142.726 245.823 142.493 244.571 141.822C242.098 140.496 240.075 138.07 239.32 135.352C238.56 132.619 238.711 108.513 239.06 104.719C239.204 103.146 239.377 101.72 240.181 100.339C241.847 97.4735 244.168 95.9349 247.334 95.1052Z" fill="#6577A8"/>
<path d="M353.547 107.552C358.143 107.182 370.05 106.622 373.963 108.874C376.252 110.192 377.772 112.453 378.446 114.979C379.286 118.128 379.427 141.306 378.495 142.903L368.672 142.867C368.803 142.669 368.927 142.456 368.989 142.226C369.458 140.5 369.186 119.87 368.905 117.094C368.831 116.366 368.655 115.761 368.276 115.128C368.315 114.869 368.258 114.659 368.21 114.405C368.177 114.384 368.145 114.361 368.111 114.34C366.739 113.524 358.17 113.778 356.478 114.299C355.694 114.541 355.298 114.951 355.043 115.725C353.525 120.32 355.981 139.686 354.285 142.871L344.465 142.933C346.401 139.909 342.789 118.46 346.431 112.422C348.058 109.724 350.559 108.281 353.547 107.552Z" fill="#6577A8"/>
<path d="M378.735 22.8631C382.578 22.162 388.933 22.6694 393.033 22.6739C403.883 22.7275 414.733 22.7207 425.583 22.6533C425.708 22.8425 425.821 23.0435 425.885 23.2621C426.307 24.6996 426.228 28.0752 425.573 29.3894C419.428 29.1316 413.24 29.2687 407.089 29.2714C407.221 29.4706 407.337 29.6834 407.378 29.9221C407.786 32.3444 407.708 47.7329 407.396 50.4761C407.352 50.871 407.191 51.2111 406.982 51.544C407.135 51.7878 407.263 52.0384 407.34 52.3172C407.771 53.8661 407.639 67.7172 407.401 69.8153C407.354 70.2327 407.187 70.5969 406.971 70.952L396.927 70.9645C397.101 70.6712 397.239 70.3237 397.31 69.989C397.807 67.6443 397.396 60.748 397.398 57.8948C397.402 48.9249 397.817 39.7346 397.343 30.7879C397.312 30.1993 397.206 29.746 396.891 29.24C390.812 29.5845 384.536 29.2703 378.438 29.2332C378.459 29.2005 378.483 29.1688 378.504 29.1352C379.223 27.9758 379.051 24.2027 378.735 22.8631Z" fill="#6577A8"/>
<path d="M479.684 35.5799C482.87 35.1809 486.17 35.3368 489.377 35.3417L503.495 35.3387C503.671 35.6266 503.805 35.917 503.882 36.2476C504.222 37.6896 504.309 40.6761 503.522 41.9398C500.184 41.959 483.85 41.1527 481.955 42.8761C480.879 45.6104 481.475 54.7576 481.431 58.2943C481.412 59.8047 481.254 62.4022 482.433 63.544C482.889 63.9845 483.53 64.1987 484.147 64.2792C485.551 64.462 487.19 64.2034 488.613 64.1715C491.177 64.1142 493.749 64.1522 496.313 64.1587L503.468 64.1461C503.637 64.3978 503.767 64.6491 503.838 64.9464C504.193 66.4261 504.286 69.583 503.471 70.8772C497.566 70.8527 482.344 71.7802 477.671 69.7721C475.342 68.7717 473.229 66.6315 472.296 64.2691C470.858 60.6294 470.983 44.9678 472.597 41.3247C473.948 38.2728 476.714 36.7313 479.684 35.5799Z" fill="#6577A8"/>
<path d="M486.8 109.234L486.768 108.369L486.503 108.232C485.667 109.793 484.977 111.51 484.044 113.008C482.663 115.226 479.646 116.971 477.154 117.56C473.869 118.338 470.492 117.923 467.613 116.125C464.925 114.447 462.735 111.713 462.023 108.594C461.3 105.43 461.963 101.83 463.711 99.1029C465.418 96.4705 468.099 94.6233 471.167 93.9671C476.985 92.7183 482.168 95.0689 485.026 100.187C485.446 100.939 485.901 102.595 486.59 103.041L486.732 102.598C486.147 104.774 486.17 107.07 486.8 109.234Z" fill="#FCA5B4"/>
<path d="M486.731 102.598C488.329 96.6568 494.066 92.8074 500.168 93.5824C506.27 94.3574 510.863 99.519 510.926 105.671C510.988 111.823 506.501 117.077 500.416 117.975C494.331 118.874 488.517 115.142 486.799 109.234C486.169 107.07 486.146 104.774 486.731 102.598Z" fill="#EB5872"/>
<path d="M326.484 107.552C329.592 107.19 332.91 107.383 336.046 107.336C336.122 107.443 336.193 107.551 336.254 107.667C336.777 108.67 336.978 140.677 336.403 142.457L336.256 142.713C333.095 143.202 329.474 142.891 326.258 142.915C326.519 142.491 326.674 142.075 326.713 141.579C327.18 135.583 326.77 129.245 326.764 123.218C326.76 119.357 327.264 110.949 326.484 107.552Z" fill="#6577A8"/>
<path d="M326.432 170.192C327.244 170.213 327.948 170.183 328.643 170.666C329.554 171.118 330.231 172.176 330.561 173.123L331.277 173.553C331.241 174.352 330.963 174.645 330.541 175.313L331.002 175.926C330.22 176.684 327.826 176.417 326.772 176.403C328.602 179.315 326.965 187.629 329.334 189.632C330.141 189.037 330.04 186.538 330.671 185.524C330.881 185.624 330.948 185.594 331.029 185.824C331.427 186.951 331.196 189.414 330.648 190.497C330.54 190.712 330.396 190.893 330.232 191.067C329.45 191.092 329.034 190.741 328.46 190.205C327.806 189.595 327.641 188.59 326.96 188.091C326.641 188.218 326.361 188.337 326.017 188.362C324.902 189.138 319.754 190.102 318.414 189.835C318.087 189.769 317.815 189.631 317.542 189.445L317.035 189.367C315.718 189.285 315.73 187.256 314.692 186.466L314.691 185.798L313.855 185.926C313.979 187.084 313.766 187.521 313.032 188.427C312.417 189.186 311.522 190.28 310.493 190.436C310.386 190.452 310.352 190.45 310.254 190.451C310.217 188.902 312.352 188.006 312.364 186.411C312.48 185.984 312.489 185.911 312.363 185.489L311.018 185.061C311.097 182.559 311.03 172.822 310.421 171.017C312.609 171.216 314.786 171.249 316.981 171.276C317.672 171.623 318.036 171.936 318.827 171.817C320.326 171.806 323.568 171.375 324.834 172.109L325.424 171.558C325.518 171.154 325.672 170.784 325.827 170.401L326.432 170.192Z" fill="white"/>
<path d="M310.421 171.017C312.609 171.216 314.786 171.249 316.981 171.276C317.622 172.303 317.139 174.999 317.643 175.422L317.806 175.389L317.741 176.148C316.423 178.027 318.561 182.619 316.938 184.766C316.465 185.059 315.862 185.369 315.601 185.875L315.199 185.836L314.692 186.466L314.691 185.798L313.855 185.926C313.979 187.084 313.766 187.521 313.032 188.427C312.417 189.186 311.522 190.28 310.493 190.436C310.386 190.452 310.352 190.45 310.254 190.451C310.217 188.902 312.352 188.006 312.364 186.411C312.48 185.984 312.489 185.911 312.363 185.489L311.018 185.061C311.097 182.559 311.03 172.822 310.421 171.017Z" fill="white"/>
<path d="M310.422 171.017C312.61 171.216 314.787 171.249 316.982 171.276C317.623 172.303 317.14 174.999 317.644 175.422L317.807 175.389L317.742 176.148C316.424 178.027 318.562 182.619 316.939 184.766L316.512 184.702C314.789 182.69 317.356 175.094 315.602 172.626C314.722 172.065 312.633 172.208 311.562 172.153C312.111 173.471 312.333 183.345 311.801 184.573C311.674 184.863 311.302 184.939 311.019 185.061C311.098 182.559 311.031 172.822 310.422 171.017Z" fill="#CC4A59"/>
<path d="M315.601 172.626C317.355 175.094 314.788 182.69 316.511 184.702L316.938 184.766C316.465 185.059 315.862 185.369 315.601 185.875L315.199 185.836L314.692 186.466L314.691 185.798L313.855 185.926C314.133 185.49 314.369 185.019 314.47 184.508C314.88 182.447 315.268 175.556 314.271 174.029C314.811 173.791 315.246 173.554 315.71 173.186L315.601 172.626Z" fill="white"/>
<path d="M312.364 186.411C312.489 186.315 312.479 186.328 312.582 186.231C314.515 184.404 313.725 178.746 313.789 176.262C313.81 175.452 313.674 174.598 314.271 174.029C315.268 175.556 314.88 182.447 314.47 184.508C314.369 185.019 314.133 185.49 313.855 185.926C313.979 187.084 313.766 187.521 313.032 188.427C312.417 189.186 311.522 190.28 310.493 190.436C310.386 190.452 310.352 190.45 310.254 190.451C310.217 188.902 312.352 188.006 312.364 186.411Z" fill="#CC4A59"/>
<path d="M326.435 170.192C327.247 170.213 327.951 170.183 328.646 170.666C329.557 171.118 330.234 172.176 330.564 173.123L331.28 173.553C331.244 174.352 330.966 174.645 330.544 175.313L331.005 175.926C330.223 176.684 327.829 176.417 326.775 176.403C328.605 179.315 326.968 187.629 329.337 189.632C330.144 189.037 330.043 186.538 330.674 185.524C330.884 185.624 330.951 185.594 331.032 185.824C331.43 186.951 331.199 189.414 330.651 190.497C330.543 190.712 330.399 190.893 330.235 191.067C329.453 191.092 329.037 190.741 328.463 190.205C327.809 189.595 327.644 188.59 326.963 188.091C327.275 186.737 326.511 183.894 325.864 182.682C325.949 182.466 326.023 182.251 326.077 182.026C326.44 180.498 326.262 177.785 325.463 176.441C322.953 176.435 320.214 176.57 317.744 176.148L317.809 175.389L317.646 175.422C317.142 174.999 317.625 172.303 316.984 171.276C317.675 171.623 318.039 171.936 318.83 171.817C320.329 171.806 323.571 171.375 324.837 172.109L325.427 171.558C325.521 171.154 325.675 170.784 325.83 170.401L326.435 170.192Z" fill="#CC4A59"/>
<path d="M316.984 171.276C317.675 171.623 318.039 171.936 318.83 171.817C320.329 171.806 323.571 171.375 324.837 172.109L325.427 171.558C325.96 172.271 326.048 173.004 325.917 173.88C325.847 174.348 325.731 174.842 325.508 175.262C323.041 175.213 320.239 174.993 317.809 175.389L317.646 175.422C317.142 174.999 317.625 172.303 316.984 171.276Z" fill="white"/>
<path d="M318.828 171.817C320.327 171.806 323.569 171.375 324.835 172.109L324.933 172.545L324.721 172.798C323.018 172.856 320.736 173.067 319.126 172.48L318.828 171.817Z" fill="#CC4A59"/>
<path d="M326.434 170.192C327.246 170.213 327.95 170.183 328.645 170.666C329.556 171.118 330.233 172.176 330.563 173.123L331.279 173.553C331.243 174.352 330.965 174.645 330.543 175.313C329.445 175.292 328.364 175.2 327.272 175.098C326.768 173.476 327.405 171.637 326.434 170.192Z" fill="white"/>
<path d="M330.564 173.123L331.28 173.553C331.244 174.352 330.966 174.645 330.544 175.313C329.446 175.292 328.365 175.2 327.273 175.098C327.995 174.186 328.613 174.056 329.703 173.681C330.231 173.59 330.224 173.547 330.564 173.123Z" fill="white"/>
<path d="M329.704 173.681C329.202 172.957 328.26 171.897 328.258 171.002L328.647 170.666C329.558 171.118 330.235 172.176 330.565 173.123C330.225 173.547 330.232 173.59 329.704 173.681Z" fill="#CC4A59"/>
<path d="M319.958 187.463C319.999 187.522 320.059 187.614 320.109 187.671C320.517 188.136 320.891 188.359 321.495 188.406C322.767 186.827 322.029 181.983 322.056 179.871C322.067 179.022 322.072 178.155 322.7 177.545L323.194 177.819C323.606 178.72 323.329 179.462 323.309 180.427C323.274 182.068 324.591 181.149 325.463 182.05L325.274 182.634L325.862 182.682C326.509 183.894 327.273 186.737 326.961 188.091C326.642 188.218 326.362 188.337 326.018 188.362C324.903 189.138 319.755 190.102 318.415 189.835C318.088 189.769 317.816 189.631 317.543 189.445C317.97 189.238 318.423 189.054 318.721 188.672C318.948 188.381 318.833 188.083 318.795 187.734L319.737 187.887L319.958 187.463Z" fill="#CC4A59"/>
<path d="M326.018 188.362L325.963 187.592C325.189 187.33 324.594 187.733 323.846 188.013C323.481 187.583 323.439 187.173 323.383 186.614C323.288 185.676 323.246 183.656 323.883 182.927C324.157 182.612 324.863 182.673 325.274 182.634L325.862 182.682C326.509 183.894 327.273 186.737 326.961 188.091C326.642 188.218 326.362 188.337 326.018 188.362Z" fill="white"/>
<path d="M318.797 187.734C319.998 185.268 318.603 181.866 319.471 179.322C319.546 179.103 319.688 179.09 319.885 178.988L320.251 179.252C320.483 181.435 320.791 185.486 319.96 187.463L319.739 187.887L318.797 187.734Z" fill="#CC4A59"/>
<path d="M314.695 186.466L315.202 185.836L315.604 185.875C316.296 186.713 317.19 187.802 317.361 188.898L317.038 189.367C315.721 189.285 315.733 187.256 314.695 186.466Z" fill="#CC4A59"/>
<path d="M456.883 189.986C456.623 190.357 456.357 190.562 455.978 190.807L455.623 190.521C454.95 187.676 455.607 181.529 455.456 178.23C454.995 178.774 454.527 179.258 453.991 179.728L453.461 179.691L453.121 179.167C453.591 177.296 454.897 175.704 455.719 173.975C456.266 172.824 456.298 170.885 457.273 170.051L457.978 170.219L458.213 170.686C458.872 171.065 459.532 171.52 460.309 171.569L462.741 171.317C463.446 171.394 463.988 171.51 464.628 171.821C465.249 171.818 466.149 171.71 466.674 172.063L467.13 171.753C467.322 171.112 467.444 170.572 467.969 170.118L468.403 170.078C468.904 170.641 469.237 171.226 469.585 171.891C470.414 171.834 471.664 171.574 472.387 172.032C472.631 172.914 472.496 173.836 472.425 174.736C472.929 174.852 473.425 174.834 473.938 174.825L474.169 175.279C473.75 175.944 472.739 176.035 472.405 176.519C472.147 176.894 472.394 178.084 472.219 178.583C472.191 179.385 472.26 180.057 472.434 180.839C472.461 180.963 472.454 180.912 472.457 181.032L472.93 181.617L472.73 182.04C471.491 182.421 469.981 181.843 468.885 182.403C468.71 182.928 468.729 183.018 468.864 183.559C470.049 183.867 472.917 184.226 473.724 184.999C472.018 185.342 470.078 184.982 468.457 185.605C468.766 186.409 468.889 186.631 468.712 187.473C469.006 188.142 469.153 188.339 469.049 189.078C470.578 189.093 472.65 188.911 474.045 189.619C473.104 190.422 469.491 190.308 468.289 190.207C466.683 190.071 464.503 189.906 463.136 189.038C462.448 188.601 461.723 187.956 460.949 187.708C460.606 188.752 459.881 189.883 458.872 190.382C458.552 190.539 458.381 190.502 458.036 190.486L457.385 189.896L457.138 189.985L456.883 189.986Z" fill="white"/>
<path d="M467.131 171.753C467.323 171.112 467.445 170.572 467.97 170.118L468.404 170.078C468.905 170.641 469.238 171.226 469.586 171.891C470.415 171.834 471.665 171.574 472.388 172.032C472.632 172.914 472.497 173.836 472.426 174.736C472.93 174.852 473.426 174.834 473.939 174.825L474.17 175.279C473.751 175.944 472.74 176.035 472.406 176.519C472.148 176.894 472.395 178.084 472.22 178.583C472.192 179.385 472.261 180.057 472.435 180.839C472.462 180.963 472.455 180.912 472.458 181.032L472.931 181.617L472.731 182.04C471.492 182.421 469.982 181.843 468.886 182.403C468.711 182.928 468.73 183.018 468.865 183.559C470.05 183.867 472.918 184.226 473.725 184.999C472.019 185.342 470.079 184.982 468.458 185.605C468.203 185.501 467.717 185.608 467.434 185.63C466.53 184.96 464.057 185.196 462.804 185.045L462.081 185.1C462.133 185.002 462.185 184.905 462.233 184.805C462.634 183.987 462.664 183.423 462.376 182.592C462.289 182.78 462.19 182.839 462.034 182.973L461.408 182.133L461.486 181.979C462.012 180.925 462.042 180.467 461.676 179.369L461.705 178.305L460.965 177.993C460.74 176.723 461.959 175.906 461.747 174.562C462.464 173.804 462.633 172.495 462.797 171.498L462.742 171.317C463.447 171.394 463.989 171.51 464.629 171.821C465.25 171.818 466.15 171.71 466.675 172.063L467.131 171.753Z" fill="#CC4A59"/>
<path d="M462.744 178.321L464.012 178.263C464.053 178.296 464.092 178.329 464.133 178.361C465.314 179.267 467.113 178.115 467.765 179.705C467.658 180.259 467.587 180.731 467.235 181.189C466.201 181.026 465.485 180.983 464.455 181.267L464.049 181.626C464.952 182.59 466.814 181.796 467.855 182.908C467.769 183.37 467.764 183.573 467.442 183.933C466.164 184.046 463.739 183.95 462.879 184.949C462.852 184.98 462.828 185.013 462.802 185.045L462.079 185.1C462.131 185.002 462.183 184.905 462.231 184.805C462.632 183.987 462.662 183.423 462.374 182.592C462.287 182.78 462.188 182.839 462.032 182.973L461.406 182.133L461.484 181.979C462.01 180.925 462.04 180.467 461.674 179.369L461.703 178.305L462.744 178.321Z" fill="white"/>
<path d="M461.703 178.305L462.744 178.321C463.267 179.252 463.203 180.151 462.92 181.151C462.782 181.642 462.626 182.148 462.374 182.592C462.287 182.78 462.188 182.839 462.032 182.973L461.406 182.133L461.484 181.979C462.01 180.925 462.04 180.467 461.674 179.369L461.703 178.305Z" fill="#CC4A59"/>
<path d="M461.747 174.562L462.972 174.683C463.125 175.027 463.195 175.105 463.132 175.487L463.209 175.513C464.639 175.979 466.735 175.321 467.58 176.681L467.478 177.42C466.47 178.132 465.19 177.712 464.014 178.263L462.746 178.321L461.705 178.305L460.965 177.993C460.74 176.723 461.959 175.906 461.747 174.562Z" fill="white"/>
<path d="M462.741 171.317C463.446 171.394 463.988 171.51 464.628 171.821C465.249 171.818 466.149 171.71 466.674 172.063L467.13 171.753L467.497 172.426L467.415 172.601L467.49 172.737C467.751 173.227 467.796 173.48 467.699 174.039C466.481 175.221 464.551 174.554 463.131 175.487C463.194 175.105 463.124 175.027 462.971 174.683L461.746 174.562C462.463 173.804 462.632 172.495 462.796 171.498L462.741 171.317Z" fill="white"/>
<path d="M464.629 171.821C465.25 171.818 466.15 171.71 466.675 172.063L466.927 172.59C466.377 172.967 465.65 172.962 464.989 172.828C464.733 172.776 464.482 172.683 464.238 172.589C464.412 172.354 464.511 172.087 464.629 171.821Z" fill="#CC4A59"/>
<path d="M462.742 171.317C463.447 171.394 463.989 171.51 464.629 171.821C464.511 172.087 464.412 172.354 464.238 172.589L463.636 172.847C463.001 172.513 463.027 172.161 462.797 171.498L462.742 171.317Z" fill="white"/>
<path d="M472.218 178.583C472.19 179.385 472.259 180.057 472.433 180.839C472.46 180.963 472.453 180.912 472.456 181.032C471.511 181.049 469.859 181.269 469.033 180.871C468.763 180.256 468.769 180.066 468.88 179.403C469.891 178.7 471.011 179.105 472.114 178.632C472.149 178.617 472.183 178.599 472.218 178.583Z" fill="white"/>
<path d="M469.18 176.017C469.507 175.709 469.976 175.603 470.404 175.742C470.832 175.881 471.15 176.242 471.234 176.684C471.318 177.125 471.154 177.578 470.808 177.864C470.295 178.287 469.54 178.227 469.1 177.728C468.661 177.23 468.696 176.473 469.18 176.017Z" fill="white"/>
<path d="M468.684 173.03C468.771 173.011 468.859 172.994 468.947 172.979C469.666 172.859 470.537 172.719 471.157 173.172C471.17 173.79 471.008 173.906 470.651 174.384C470.18 174.636 469.786 174.637 469.269 174.645C468.759 174.104 468.8 173.753 468.684 173.03Z" fill="white"/>
<path d="M457.929 181.894C458.71 181.999 458.929 181.961 459.429 182.622C459.885 183.224 460.153 183.763 460.802 184.191C461.304 183.469 461.548 183.059 461.409 182.133L462.035 182.973C462.191 182.839 462.29 182.78 462.377 182.592C462.665 183.423 462.635 183.987 462.234 184.805C462.186 184.905 462.134 185.002 462.082 185.1L462.805 185.045C464.058 185.196 466.531 184.96 467.435 185.63C467.718 185.608 468.204 185.501 468.459 185.605C468.768 186.409 468.891 186.631 468.714 187.473C469.008 188.142 469.155 188.339 469.051 189.078C470.58 189.093 472.652 188.911 474.047 189.619C473.106 190.422 469.493 190.308 468.291 190.207C466.685 190.071 464.505 189.906 463.138 189.038C462.45 188.601 461.725 187.956 460.951 187.708C460.608 188.752 459.883 189.883 458.874 190.382C458.554 190.539 458.383 190.502 458.038 190.486L457.387 189.896C458.175 188.879 459.639 187.54 459.882 186.289C459.637 185.483 459.396 185.349 458.745 184.809C458.99 184 458.242 182.651 457.929 181.894Z" fill="#CC4A59"/>
<path d="M462.803 185.045C464.056 185.196 466.529 184.96 467.433 185.63C467.716 185.608 468.202 185.501 468.457 185.605C468.766 186.409 468.889 186.631 468.712 187.473C469.006 188.142 469.153 188.339 469.049 189.078C467.012 189.097 464.031 188.451 462.571 186.92C461.967 186.286 462.05 185.92 462.08 185.1L462.803 185.045Z" fill="white"/>
<path d="M467.434 185.63C467.717 185.608 468.203 185.501 468.458 185.605C468.767 186.409 468.89 186.631 468.713 187.473L468.504 187.859L468.001 188.006C467.497 187.479 467.51 186.332 467.434 185.63Z" fill="#CC4A59"/>
<path d="M456.883 189.986C456.623 190.357 456.357 190.562 455.978 190.807L455.623 190.521C454.95 187.676 455.607 181.529 455.456 178.23C454.995 178.774 454.527 179.258 453.991 179.728L453.461 179.691L453.121 179.167C453.591 177.296 454.897 175.704 455.719 173.975C456.266 172.824 456.298 170.885 457.273 170.051L457.978 170.219L458.213 170.686C457.788 172.089 457.355 173.492 457.141 174.946C456.886 176.689 457.16 179.446 456.504 180.974C457.016 181.193 457.658 181.371 457.927 181.894C458.24 182.651 458.988 184 458.743 184.809C459.394 185.349 459.635 185.483 459.88 186.289C459.637 187.54 458.173 188.879 457.385 189.896L457.138 189.985L456.883 189.986Z" fill="#CC4A59"/>
<path d="M457.141 189.985C457.483 188.476 456.861 186.494 457.538 185.069C457.732 184.661 457.857 184.561 458.272 184.424L458.746 184.809C459.397 185.349 459.638 185.483 459.883 186.289C459.64 187.54 458.176 188.879 457.388 189.896L457.141 189.985Z" fill="white"/>
<path d="M456.504 180.974C457.016 181.193 457.658 181.371 457.927 181.894C458.24 182.651 458.988 184 458.743 184.809L458.269 184.424C457.854 184.561 457.729 184.661 457.535 185.069C456.858 186.494 457.48 188.476 457.138 189.985L456.883 189.986C456.883 187.25 457.241 183.598 456.504 180.974Z" fill="white"/>
<path d="M460.308 171.569L462.74 171.317L462.795 171.498C462.631 172.495 462.462 173.804 461.745 174.562C461.957 175.906 460.738 176.723 460.963 177.993L461.703 178.305L461.674 179.369C460.771 178.756 459.589 179.581 458.783 178.965C459.346 177.146 460.296 175.4 461.11 173.68C460.806 173.079 459.2 172.51 458.578 172.145L458.621 171.857C459.183 171.713 459.732 171.636 460.308 171.569Z" fill="#CC4A59"/>
<path d="M489.978 171.493C491.649 171.554 498.017 172.091 499.2 171.356C499.565 171.129 498.892 170.005 499.058 169.348C500.934 168.729 500.574 171.305 501.921 171.639C503.972 172.148 507.226 171.019 509.687 171.859L509.813 172.243C507.929 173.931 503.657 171.523 501.657 173.191C501.149 173.614 501.264 174.428 501.225 175.055L505.781 175.114C506.404 175.051 506.834 175.007 507.419 175.279C507.796 176.087 506.743 177.836 507.742 178.233C508.503 178.536 509.141 178.085 509.921 178.577C509.889 178.758 509.892 179.086 509.743 179.193C508.964 179.754 507.937 179.121 507.35 179.805C507.397 180.523 507.588 181.183 507.132 181.793C507.05 181.902 506.939 181.99 506.836 182.077L507.484 182.948L508.114 183.311C507.891 184.125 507.103 184.557 506.391 184.962C505.496 185.471 504.552 186.041 503.569 186.358C505.323 187.004 508.022 187.747 509.422 188.976L509.462 189.401C508.698 189.753 508.251 189.677 507.459 189.391C504.668 188.382 502.8 186.017 500.16 184.94C500.881 186.177 501.648 187.852 501.249 189.315C501.108 189.834 500.759 190.26 500.291 190.521C499.363 191.038 497.722 191.115 496.712 190.783C496.403 190.682 496.359 190.671 496.208 190.374C496.918 189.699 498.318 189.963 499.308 189.84C499.637 188.889 500.083 187.719 499.637 186.739C499.589 186.632 499.561 186.592 499.505 186.499C497.459 187.654 495.017 188.387 492.819 189.235C492.265 189.643 491.071 189.265 490.385 189.174L490.398 189.708C490.072 190.278 489.867 190.708 489.224 190.954C489.162 190.886 488.918 190.67 488.898 190.6C488.559 189.424 489.902 185.045 490.138 183.588C490.553 181.038 491.18 173.606 489.978 171.493Z" fill="#CC4A59"/>
<path d="M491.574 172.76C493.804 172.74 497.591 172.215 499.56 173.385C499.93 173.966 499.892 174.005 499.759 174.641L499.384 175.023C498.023 175.018 494.942 174.712 493.91 175.539C495.679 176.093 497.924 175.463 499.549 176.188C499.833 176.879 499.766 176.998 499.614 177.703L499.04 178.31C498.717 178.902 498.161 178.939 497.542 179.154C495.805 179.317 493.812 179.24 492.074 179.092L492.039 178.38C492.038 176.818 492.39 174.102 491.574 172.76Z" fill="white"/>
<path d="M492.039 178.38C494.074 178.298 497.086 177.815 499.04 178.31C498.717 178.902 498.161 178.939 497.542 179.154C495.805 179.317 493.812 179.24 492.074 179.092L492.039 178.38Z" fill="#CC4A59"/>
<path d="M492.074 179.092C493.812 179.24 495.806 179.317 497.543 179.154C498.3 179.243 499.232 179.231 499.796 179.797C499.747 180.397 499.72 180.444 499.329 180.904C499.498 181.384 499.514 181.426 499.368 181.91C499.824 182.466 499.971 183.49 499.923 184.208C499.89 184.701 499.501 185.232 499.124 185.532C498.395 186.113 497.447 186.402 496.531 186.443L496.259 185.627C495.631 184.338 493.951 184.271 493.427 182.918L493.686 182.055L493.413 181.598C493.577 181.004 493.621 180.861 493.424 180.25C492.894 179.896 492.433 179.804 491.812 179.703L492.074 179.092Z" fill="white"/>
<path d="M492.074 179.092C493.812 179.24 495.806 179.317 497.543 179.154C498.3 179.243 499.232 179.231 499.796 179.797C499.747 180.397 499.72 180.444 499.329 180.904C499.498 181.384 499.514 181.426 499.368 181.91C497.437 181.839 495.61 181.885 493.686 182.055L493.413 181.598C493.577 181.004 493.621 180.861 493.424 180.25C492.894 179.896 492.433 179.804 491.812 179.703L492.074 179.092Z" fill="white"/>
<path d="M499.331 180.904C499.5 181.384 499.516 181.426 499.37 181.91C497.439 181.839 495.611 181.885 493.687 182.055L493.414 181.598C494.685 180.783 497.74 181.049 499.331 180.904Z" fill="#CC4A59"/>
<path d="M493.43 182.918C494.579 182.937 496.064 183.64 496.873 184.461C497.192 184.785 497.203 184.857 497.192 185.301L496.263 185.627C495.635 184.338 493.954 184.271 493.43 182.918Z" fill="#CC4A59"/>
<path d="M491.816 179.703C492.436 179.804 492.898 179.896 493.428 180.25C493.625 180.861 493.58 181.004 493.416 181.598L493.689 182.055L493.43 182.918C493.954 184.271 495.635 184.338 496.263 185.627L496.535 186.443C495.296 187.52 493.386 187.498 492.187 188.615L492.215 189.022L492.821 189.235C492.267 189.643 491.073 189.265 490.387 189.174C490.51 189.047 490.62 188.913 490.709 188.76C491.804 186.893 492.353 181.838 491.816 179.703Z" fill="white"/>
<path d="M502.331 181.054C503.304 181.038 504.431 180.905 505.383 181.101C505.618 181.397 505.691 181.466 505.751 181.851L506.837 182.077L507.486 182.948C505.977 183.357 504.555 184.767 503.035 185.414C502.867 183.985 501.222 183.659 501.23 181.833C501.767 181.663 502.323 181.533 502.866 181.388L502.331 181.054Z" fill="white"/>
<path d="M502.331 181.054C503.304 181.038 504.431 180.905 505.383 181.101C505.618 181.397 505.691 181.466 505.751 181.851L501.23 181.833C501.767 181.663 502.322 181.533 502.865 181.388L502.331 181.054Z" fill="#CC4A59"/>
<path d="M501.227 175.055L505.783 175.114C505.686 175.477 505.629 175.781 505.368 176.061L505.858 176.418C506.079 177.025 506.152 177.082 505.878 177.704C505.209 178.047 504.56 178.272 503.807 178.348C502.912 178.438 502.11 178.247 501.416 177.676C501.112 176.999 501.25 176.525 501.42 175.828L501.227 175.055Z" fill="white"/>
<path d="M501.227 175.055L505.783 175.114C505.686 175.477 505.629 175.781 505.368 176.061C504.235 175.734 502.618 175.872 501.42 175.828L501.227 175.055Z" fill="#CC4A59"/>
<path d="M502.329 181.054C501.886 180.881 501.384 180.732 500.983 180.478L500.746 179.878C501.666 179.139 503.539 179.161 504.678 179.285C505.141 179.335 505.815 179.474 506.199 179.754L506.363 180.275C506.056 180.598 505.793 180.912 505.381 181.101C504.429 180.905 503.302 181.038 502.329 181.054Z" fill="white"/>
<path d="M387.748 175.299C389.36 173.936 389.241 170.44 391.153 169.527L391.574 169.743C391.618 169.898 391.65 170.052 391.668 170.212C391.815 171.54 390.821 174.305 389.932 175.293C392.385 175.248 401.048 174.753 402.8 175.892L402.749 176.24C401.385 176.953 399.501 176.465 398.008 177.016C397.248 178.179 397.055 179.581 396.647 180.89C396.212 182.287 395.409 184.044 394.077 184.757C394.126 184.796 394.175 184.837 394.224 184.876C396.258 186.487 400.415 187.319 401.37 189.805L401.283 190.346C400.571 190.555 400.079 190.322 399.436 189.969C397.406 188.856 395.113 187.052 392.817 186.674C392.773 186.667 392.729 186.658 392.685 186.65C392.608 186.637 392.531 186.628 392.454 186.619C391.778 187.546 389.924 188.257 388.847 188.711C387.392 189.325 383.76 190.898 382.209 190.2C382.026 190.117 381.982 189.823 381.914 189.638C384.147 187.582 388.525 188.045 390.793 185.629C390.824 185.596 390.855 185.561 390.886 185.527C389.7 184.123 386.029 183.256 384.286 182.652C384.5 182.448 384.695 182.235 384.871 181.996C385.753 180.803 387.321 178.404 387.096 176.9C386.002 176.827 384.879 176.901 383.791 176.742C383.229 176.66 382.508 176.553 382.151 176.076C383.328 174.962 386.189 175.293 387.748 175.299Z" fill="#CC4A59"/>
<path d="M390.134 176.819L395.756 176.739C395.858 177.088 395.912 177.436 395.828 177.796C395.395 179.642 394.013 183.1 392.365 184.125C391.47 184.288 387.856 182.239 386.699 181.857C386.736 181.821 386.773 181.785 386.811 181.75C388.183 180.476 388.655 177.675 390.134 176.819Z" fill="#FCFCFC"/>
<path d="M276.848 174.565C277.483 173.187 277.062 171.941 277.254 170.525C277.344 169.853 277.739 169.746 278.254 169.389C278.644 169.775 278.75 170.105 278.884 170.633C279.184 171.809 279.196 173.25 278.555 174.316C281.434 174.101 284.228 173.488 287.136 173.398C287.614 172.734 287.059 171.136 287.463 170.223C287.547 170.033 287.897 169.982 288.092 169.913C288.496 170.117 288.703 170.148 288.885 170.587C289.193 171.327 289.059 172.724 288.76 173.447C290.402 173.484 293.24 173.249 294.631 174.112C293.614 175.172 290.101 174.975 288.662 175.023C288.677 175.057 288.693 175.091 288.707 175.125C289.172 176.251 288.968 177.365 288.513 178.457L286.828 178.455C285.649 178.522 283.506 178.188 282.546 178.754C282.294 179.402 282.444 179.582 282.642 180.233L282.572 180.334C282.347 180.664 282.174 180.983 282.016 181.349L280.921 181.515C280.713 181.527 280.545 181.546 280.35 181.624C277.747 182.657 279.548 187.661 278.594 189.961C277.588 190.284 276.446 190.546 275.399 190.29C274.846 190.156 274.786 190.152 274.493 189.675C275.071 189.14 276.32 189.145 277.119 188.978C277.775 187.196 277.474 184.669 276.924 182.89C275.804 183.09 274.975 183.193 273.918 182.698L273.924 182.454C274.703 181.744 275.969 181.466 276.958 181.156C277.403 179.378 277.506 177.767 277.014 175.99C276.052 175.628 274.961 175.998 274.061 175.306L274.064 174.857C274.728 174.394 276.052 174.568 276.848 174.565Z" fill="#CC4A59"/>
<path d="M278.637 176C280.947 175.678 284.51 174.177 286.747 175.069C287.308 175.292 287.397 175.587 287.601 176.119C287.464 177.004 287.352 177.701 286.826 178.455C285.647 178.522 283.504 178.188 282.544 178.754C282.292 179.402 282.442 179.582 282.64 180.233L282.57 180.334C282.345 180.664 282.172 180.983 282.014 181.349L280.919 181.515L281.617 180.859L281.572 180.461C280.887 180.02 279.825 180.213 279.038 180.251C278.396 179.06 279.311 177.32 278.637 176Z" fill="white"/>
<path d="M326.509 94.564C329.491 94.0384 333.002 94.3566 336.036 94.3521C336.179 94.5472 336.294 94.7549 336.364 94.9873C336.9 96.7639 337.076 101.352 336.149 102.953C333.082 103.492 329.377 103.058 326.23 103.067C326.304 102.96 326.307 102.961 326.364 102.861C327.134 101.516 326.91 96.1412 326.509 94.564Z" fill="#6577A8"/>
<path d="M430.285 174.38C430.497 173.009 430.304 171.069 430.883 169.858L431.315 169.626C431.797 169.955 431.923 170.024 432.03 170.607C432.231 171.702 432.121 173.399 431.613 174.397C431.59 174.442 431.568 174.488 431.546 174.534C433.274 174.5 435.168 174.31 436.832 174.842L437.093 175.184C435.7 176.112 433.156 175.853 431.525 175.837C432.214 177 432.207 179.293 431.884 180.599C431.824 180.84 431.712 181.057 431.575 181.262C433.053 181.201 434.775 180.966 436.177 181.498L436.487 181.86C435.678 182.6 434.289 182.455 433.268 182.41C432.693 182.384 432.118 182.353 431.543 182.317C432.339 183.601 432.287 186.314 431.96 187.766C431.895 188.054 431.776 188.303 431.62 188.552C432.982 188.529 436.99 188.079 437.991 188.97C438.067 189.037 438.087 189.067 438.146 189.139C437.67 189.654 436.991 189.668 436.308 189.693C433.424 189.799 425.969 190.424 423.713 189.281L423.725 188.898C424.795 188.23 428.741 188.575 430.135 188.572C430.776 187.339 430.772 184.266 430.281 182.938C430.218 182.766 430.119 182.645 429.988 182.523L429.303 182.336L429.727 182.033L429.67 181.308L430.304 180.681C430.66 179.102 430.655 177.376 430.222 175.812C429.016 175.849 427.798 175.81 426.591 175.806C426.604 175.842 426.619 175.878 426.631 175.915C426.849 176.633 426.432 177.972 426.088 178.627C425.783 179.208 425.497 179.372 424.896 179.566L424.073 178.892C423.987 178.12 423.837 178.047 423.286 177.499C423.226 176.572 423.157 176.411 422.629 175.644C422.827 175.127 422.724 174.53 422.691 173.986L423.096 173.653C423.534 174.022 423.722 174.084 423.773 174.697C423.798 174.999 423.722 175.268 423.637 175.557C424.026 175.681 424.419 175.735 424.821 175.796L425.166 175.324C425.2 175.28 425.234 175.237 425.267 175.192C426.3 173.793 425.937 171.254 427.739 170.716C428.094 171.061 428.121 171.056 428.132 171.554C428.158 172.775 427.673 173.771 427.035 174.774C428.095 174.684 429.263 174.681 430.285 174.38Z" fill="#CC4A59"/>
<path d="M422.629 175.644C422.827 175.127 422.724 174.53 422.691 173.986L423.096 173.653C423.534 174.022 423.722 174.084 423.773 174.697C423.798 174.999 423.722 175.268 423.637 175.557C423.967 176.217 424.198 176.385 423.983 177.11L423.286 177.499C423.226 176.572 423.157 176.411 422.629 175.644Z" fill="#CC4A59"/>
<path d="M423.636 175.557C424.025 175.681 424.418 175.735 424.82 175.796L425.165 175.324C425.359 176.269 425.413 177.046 424.866 177.886C424.633 178.243 424.35 178.57 424.072 178.892C423.986 178.12 423.836 178.047 423.285 177.499L423.982 177.11C424.197 176.385 423.966 176.217 423.636 175.557Z" fill="white"/>
<path d="M286.828 178.455L288.513 178.457C290.214 178.531 291.98 178.701 293.674 178.507C293.996 179.704 293.277 181.036 292.693 182.058C291.84 183.551 290.306 185.708 288.694 186.448C289.833 187.019 294.691 189.035 295.093 189.74C294.997 189.921 294.95 190.13 294.748 190.192C293.073 190.71 289.721 188.533 288.311 187.724C288.108 187.607 287.913 187.485 287.693 187.399C285.926 188.91 283.657 189.837 281.37 190.21L280.715 189.997L280.656 189.608C282.091 188.109 285.245 188.268 286.384 186.428C286.294 185.104 283.914 181.264 282.848 180.377C282.766 180.309 282.739 180.296 282.642 180.233C282.444 179.582 282.294 179.402 282.546 178.754C283.506 178.188 285.649 178.522 286.828 178.455Z" fill="#CC4A59"/>
<path d="M284.352 180.065C286.739 179.696 289.325 179.81 291.731 179.942C291.742 180.08 291.746 180.062 291.727 180.227C291.603 181.261 290.559 182.525 289.797 183.171C289.791 183.266 289.794 183.338 289.768 183.427C289.518 184.264 288.476 184.806 287.776 185.224C287.635 184.491 284.925 180.999 284.352 180.065Z" fill="white"/>
<path d="M351.731 178.172L354.734 178.229C355.523 180.152 355.042 187.278 355.052 189.759C354.539 190.245 353.67 190.352 352.983 190.413C352.243 190.478 351.467 190.384 350.888 189.89L350.904 189.452C351.624 189.008 352.47 189.141 353.309 189.126C353.856 188.458 353.589 187.04 353.578 186.164C353.108 185.705 352.506 185.85 351.865 185.839L348.009 185.814C348.574 186.578 348.84 188.181 348.698 189.103C348.601 189.728 348.437 190.291 347.914 190.682C345.488 189.318 347.986 180.916 346.227 178.257C348.055 178.307 349.902 178.211 351.731 178.172Z" fill="#CC4A59"/>
<path d="M348.141 182.229C349.314 181.819 351.369 181.873 352.585 182.157C353.268 182.316 353.456 182.496 353.814 183.081C353.701 183.761 353.576 184.096 353.089 184.59C352.063 185.176 349.538 184.861 348.328 184.852C348.348 184.812 348.371 184.772 348.39 184.731C348.779 183.9 348.448 183.02 348.141 182.229Z" fill="white"/>
<path d="M349.067 179.254C349.374 179.209 349.681 179.187 349.99 179.166C351.396 179.075 352.731 178.816 353.854 179.798L353.84 180.474C353.307 181.059 352.935 180.943 352.164 181.014C350.755 181.075 349.004 181.306 347.879 180.33C348.191 179.671 348.448 179.613 349.067 179.254Z" fill="white"/>
<path d="M237.363 172.655C239.474 171.826 244.571 169.896 246.716 170.535C246.714 170.72 246.769 171.07 246.642 171.202C245.919 171.953 244.814 171.438 244.077 172.238C244.052 173.626 244.081 174.787 243.504 176.092C244.85 176.168 246.433 176.11 247.687 176.614L247.981 177.034C247.128 177.782 244.097 176.731 243.995 178.007C245.143 179.351 246.4 180.829 246.741 182.614C246.114 182.579 244.294 180.442 243.493 179.962C244.537 181.675 244.118 188.216 243.982 190.441L243.631 190.825C243.232 190.735 243.07 190.577 242.853 190.233C241.512 188.103 243.502 183.446 242.117 181.801C241.617 182.134 241.227 182.585 240.744 182.913L240.622 182.31L239.969 182.133C240.911 180.825 242.135 179.203 241.923 177.512C240.869 177.484 239.772 177.574 238.873 176.944L238.85 176.551C239.779 176.007 240.966 176.159 242.011 176.163C242.584 174.824 242.663 173.838 242.238 172.442C240.591 172.624 239.019 172.726 237.363 172.655Z" fill="#CC4A59"/>
<path d="M419.902 170.957C420.313 170.204 420.347 169.878 421.156 169.541C421.612 169.917 421.698 170.135 421.736 170.734C421.762 171.156 421.562 171.647 421.413 172.039C421.91 172.615 422.406 173.306 423.093 173.653L422.688 173.986C422.721 174.53 422.824 175.127 422.626 175.644L422.178 175.913C421.471 179.126 422.9 188.553 421.444 190.507L421.13 191.076L420.778 191.094C419.102 188.663 421.234 182.269 419.812 179.382L419.553 178.919C418.976 178.974 418.585 179.311 418.137 179.643C417.968 179.785 417.747 179.814 417.537 179.873C417.207 179.359 417.338 179.05 417.419 178.465C417.554 177.487 417.937 174.561 418.656 174.014C419.076 173.957 419.394 173.81 419.773 173.63C420.256 172.891 419.989 171.795 419.902 170.957Z" fill="#CC4A59"/>
<path d="M418.656 174.014C419.076 173.957 419.394 173.81 419.773 173.63C420.256 172.891 419.989 171.795 419.902 170.957C420.558 172.404 420.568 177.392 420.054 178.878C419.994 179.054 419.905 179.222 419.812 179.382L419.553 178.919C418.976 178.974 418.585 179.311 418.137 179.643C417.968 179.785 417.747 179.814 417.537 179.873C417.207 179.359 417.338 179.05 417.419 178.465C417.554 177.487 417.937 174.561 418.656 174.014Z" fill="white"/>
<path d="M418.137 179.643C417.968 179.785 417.747 179.814 417.537 179.873C417.207 179.359 417.338 179.05 417.419 178.465C417.554 177.487 417.937 174.561 418.656 174.014C419.242 175.227 418.859 177.714 418.422 178.989C418.344 179.216 418.248 179.431 418.137 179.643Z" fill="#CC4A59"/>
<path d="M421.414 172.039C421.911 172.615 422.407 173.306 423.094 173.653L422.689 173.986C422.722 174.53 422.825 175.127 422.627 175.644L422.179 175.913C421.472 179.126 422.901 188.553 421.445 190.507C421.463 190.455 421.482 190.405 421.499 190.353C422.006 188.805 421.969 173.142 421.414 172.039Z" fill="white"/>
<path d="M254.985 170.174C255.594 169.861 255.857 169.605 256.545 169.71C257.015 171.304 257.107 178.509 256.416 179.922C257.015 180.542 256.914 181.7 256.958 182.52C257.735 183.34 258.977 182.294 259.874 182.985L259.721 183.466C258.822 184.027 257.745 184.088 256.718 184.232C256.897 185.121 256.898 185.982 256.882 186.883C256.858 188.177 257.043 189.859 256.063 190.806L255.515 190.652C254.476 189.205 255.606 186.515 254.686 184.882C254.659 184.833 254.629 184.786 254.601 184.737C253.123 185.005 249.386 186.082 248.065 185.701C247.6 185.566 247.584 185.399 247.355 185L247.597 184.566C249.891 183.998 252.39 183.816 254.73 183.423C255.455 181.31 255.422 172.608 254.985 170.174Z" fill="#CC4A59"/>
<path d="M254.984 170.174C255.593 169.861 255.856 169.605 256.544 169.71C257.014 171.304 257.106 178.509 256.415 179.922C256.652 180.859 256.38 182.03 256.057 182.916L255.769 183.043C254.184 179.939 256.577 173.038 254.984 170.174Z" fill="#B44C53"/>
<path d="M344.777 175.942C347.312 174.43 348.968 170.411 350.315 170.138L350.743 170.432C351.289 170.687 351.919 170.922 352.388 171.299C352.778 171.395 353.132 171.495 353.446 171.76C354.209 172.405 356.055 174.767 356.07 175.795C356.076 176.165 355.969 176.195 355.728 176.451C354.506 176.875 353.242 175.833 352.019 175.722C349.773 175.519 347.076 175.911 344.777 175.942Z" fill="#CC4A59"/>
<path d="M350.742 170.432C351.288 170.687 351.918 170.922 352.387 171.299C352.355 172.56 353.224 173.504 353.016 174.803C351.238 174.669 349.375 174.925 347.598 175.057C347.938 174.87 348.21 174.651 348.475 174.369C349.384 173.399 350.787 171.766 350.742 170.432Z" fill="white"/>
<path d="M357.512 180.334L358.368 180.246C358.793 180.536 358.917 180.671 359.043 181.184C359.276 182.131 358.899 183.401 358.425 184.212C360.802 183.764 363.068 182.269 365.48 182.111L365.616 182.541C364.919 183.858 360.545 184.868 359.103 185.451C358.621 186.388 359.22 187.92 358.802 189.084L362.141 189.103C362.867 189.091 363.59 189.05 364.314 189.01C365.128 188.301 365.146 187.215 365.665 186.275L366.079 186.353C366.237 186.608 366.394 186.879 366.472 187.171C366.655 187.85 366.656 188.881 366.278 189.5C365.972 190.002 365.526 190.299 364.961 190.431C363.936 190.67 359.201 190.674 358.493 190.185C356.459 188.784 358.016 182.817 357.547 180.495C357.536 180.441 357.524 180.388 357.512 180.334Z" fill="#CC4A59"/>
<path d="M365.916 177.992C366.005 178.482 366.008 178.521 365.788 178.966C364.44 179.777 361.862 179.554 360.289 179.516C359.509 179.498 358.731 179.4 358.179 178.787C357.148 177.642 357.255 175.508 357.341 174.066C357.418 172.787 357.552 170.589 358.572 169.689L358.9 169.961C359.271 171.417 359.115 172.295 358.522 173.645C360.375 173.242 363.383 171.298 365.191 171.844L365.39 172.245C363.916 173.353 361.264 173.948 359.509 174.613C359.052 175.18 358.932 175.905 358.965 176.645C358.987 177.137 359.255 177.506 359.622 177.804C360.807 178.767 363.197 178.298 364.629 178.151L364.884 177.792L365.916 177.992Z" fill="#CC4A59"/>
<path d="M248.383 177.355C248.795 177.335 249.211 177.362 249.602 177.501C250.814 177.931 252.527 179.029 253.097 180.21C253.303 180.636 253.197 180.743 253.048 181.175C252.71 181.128 252.368 180.978 252.07 180.817C250.584 180.016 248.902 179 248.383 177.355Z" fill="#CC4A59"/>
<path d="M249.387 171.404C249.723 171.38 250.041 171.397 250.363 171.507C251.591 171.928 253.19 173.236 253.745 174.397L253.536 174.927C253.033 174.961 252.775 174.862 252.339 174.601C251.087 173.854 249.742 172.841 249.387 171.404Z" fill="#CC4A59"/>
<path d="M429.3 182.336C428.145 182.387 426.646 182.609 425.621 182.001L425.799 181.642C427.009 181.095 428.371 181.268 429.667 181.308L429.724 182.033L429.3 182.336Z" fill="#CC4A59"/>
<path d="M239.97 182.133L240.623 182.31L240.745 182.913L240.8 183.489C240.359 184.318 239.852 185.472 239.009 185.882L238.676 185.589C238.662 184.36 239.853 183.503 239.961 182.267C239.965 182.222 239.967 182.177 239.97 182.133Z" fill="#8D4843"/>
<path d="M364.883 177.792C365.055 177.019 365.149 176.146 365.736 175.571L366.26 175.832C366.358 176.553 366.52 177.187 366.069 177.82C366.005 177.91 366.002 177.905 365.915 177.992L364.883 177.792Z" fill="#CC4A59"/>
<defs>
<linearGradient id="paint0_linear_767_24618" x1="119.02" y1="143.587" x2="141.991" y2="26.597" gradientUnits="userSpaceOnUse">
<stop stop-color="#DE3152"/>
<stop offset="1" stop-color="#FF919F"/>
</linearGradient>
<linearGradient id="paint1_linear_767_24618" x1="63.0215" y1="129.107" x2="84.9319" y2="95.9037" gradientUnits="userSpaceOnUse">
<stop stop-color="#FECEE7"/>
<stop offset="1" stop-color="#FCFFFF"/>
</linearGradient>
<linearGradient id="paint2_linear_767_24618" x1="132.777" y1="56.492" x2="135.078" y2="42.8094" gradientUnits="userSpaceOnUse">
<stop stop-color="#FADFE7"/>
<stop offset="1" stop-color="#FEFDFC"/>
</linearGradient>
<linearGradient id="paint3_linear_767_24618" x1="115.893" y1="97.3276" x2="135.818" y2="144.66" gradientUnits="userSpaceOnUse">
<stop stop-color="#FCE7F1"/>
<stop offset="1" stop-color="#FEFFFF"/>
</linearGradient>
<linearGradient id="paint4_linear_767_24618" x1="102.137" y1="101.651" x2="96.6951" y2="61.2266" gradientUnits="userSpaceOnUse">
<stop stop-color="#F8C0D0"/>
<stop offset="1" stop-color="white"/>
</linearGradient>
<linearGradient id="paint5_linear_767_24618" x1="90.5528" y1="80.0563" x2="73.8614" y2="36.1559" gradientUnits="userSpaceOnUse">
<stop stop-color="#FDB2CD"/>
<stop offset="1" stop-color="#FEFFFF"/>
</linearGradient>
<linearGradient id="paint6_linear_767_24618" x1="106.186" y1="123.505" x2="103.551" y2="105.513" gradientUnits="userSpaceOnUse">
<stop stop-color="#712B4C"/>
<stop offset="1" stop-color="#D84563"/>
</linearGradient>
<linearGradient id="paint7_linear_767_24618" x1="106.209" y1="108.95" x2="107.315" y2="89.5857" gradientUnits="userSpaceOnUse">
<stop stop-color="#FAAFCD"/>
<stop offset="1" stop-color="#FFE8EB"/>
</linearGradient>
<linearGradient id="paint8_linear_767_24618" x1="60.7031" y1="138.373" x2="24.8583" y2="147.711" gradientUnits="userSpaceOnUse">
<stop stop-color="#9B3352"/>
<stop offset="1" stop-color="#FF6274"/>
</linearGradient>
</defs>
</svg>
