<svg width="959" height="493" viewBox="0 0 959 493" fill="none" xmlns="http://www.w3.org/2000/svg">
<path d="M133.188 270.408L108.354 183.303L83.5208 270.408H44.2083L0 115.199H39.3125L65.8333 221.678H66.7708L95 115.199H121.708L149.917 221.678H150.875L177.396 115.199H216.521L172.312 270.408H133.188Z" fill="#D6AB93"/>
<path d="M1.30859 94.918V1.85547H59.6628V21.0013H22.4544V44.2721H56.2044V62.8763H22.4544V94.918H1.30859Z" fill="#595959"/>
<path d="M83.1973 94.918V1.85547H144.343V19.668H104.197V38.9596H140.76V56.6263H104.197V76.9805H145.801V94.918H83.1973Z" fill="#595959"/>
<path d="M170.271 94.918V1.85547H188.208L221.312 50.1263L254.291 1.85547H272.104V94.918H251.104V38.9596L228.5 71.918H213.875L191.271 38.8138V94.918H170.271Z" fill="#595959"/>
<path d="M603.732 173.909L557.836 219.992L608.253 270.409H565.357L526.795 231.846V270.409H493.503V108.617H526.795V207.576L560.461 173.909H603.732Z" fill="#D6AB93"/>
<path d="M712.659 226.762H642.679C642.679 233.543 644.872 238.564 649.263 241.824C653.648 245.074 658.419 246.699 663.575 246.699C668.961 246.699 673.221 245.986 676.346 244.553C679.481 243.111 683.06 240.257 687.075 235.991L711.159 248.012C701.127 264.819 684.45 273.22 661.117 273.22C646.575 273.22 634.096 268.241 623.679 258.283C613.273 248.314 608.075 236.303 608.075 222.262C608.075 208.21 613.273 196.168 623.679 186.137C634.096 176.095 646.575 171.074 661.117 171.074C676.419 171.074 688.867 175.501 698.45 184.345C708.044 193.178 712.846 205.814 712.846 222.241C712.846 224.507 712.784 226.012 712.659 226.762ZM643.617 208.324H680.304C679.554 203.314 677.575 199.46 674.367 196.762C671.169 194.069 667.065 192.72 662.054 192.72C656.539 192.72 652.148 194.168 648.888 197.053C645.622 199.928 643.867 203.689 643.617 208.324Z" fill="#D6AB93"/>
<path d="M728.475 270.408V173.908H761.766V184.053H762.141C770.792 175.402 780.016 171.074 789.808 171.074C794.568 171.074 799.298 171.71 803.995 172.97C808.704 174.22 813.214 176.168 817.537 178.803C821.87 181.428 825.381 185.158 828.079 189.991C830.771 194.814 832.12 200.423 832.12 206.824V270.408H798.829V215.845C798.829 210.835 797.225 206.444 794.016 202.678C790.818 198.918 786.652 197.033 781.516 197.033C776.501 197.033 771.954 198.98 767.87 202.866C763.798 206.757 761.766 211.085 761.766 215.845V270.408H728.475Z" fill="#D6AB93"/>
<path d="M859.41 258.471C850.379 248.628 845.868 236.555 845.868 222.263C845.868 207.961 850.379 195.857 859.41 185.951C868.436 176.034 879.91 171.076 893.826 171.076C906.618 171.076 917.149 175.091 925.431 183.117V108.617H958.743V270.409H925.806V259.492H925.431C917.149 268.648 906.618 273.221 893.826 273.221C879.91 273.221 868.436 268.305 859.41 258.471ZM887.701 205.888C883.379 210.154 881.222 215.612 881.222 222.263C881.222 228.904 883.29 234.326 887.431 238.534C891.566 242.732 897.024 244.826 903.806 244.826C910.316 244.826 915.67 242.695 919.868 238.43C924.076 234.169 926.181 228.773 926.181 222.242C926.181 215.607 924.014 210.154 919.681 205.888C915.358 201.628 910.066 199.492 903.806 199.492C897.399 199.492 892.035 201.628 887.701 205.888Z" fill="#D6AB93"/>
<path d="M330.313 94.918V21.668H300.792V1.85547H380.959V21.668H351.459V94.918H330.313Z" fill="#595959"/>
<path d="M402.631 94.918V1.85547H463.777V19.668H423.631V38.9596H460.193V56.6263H423.631V76.9805H465.235V94.918H402.631Z" fill="#595959"/>
<path d="M532.37 96.7708C522.979 96.7708 514.646 94.7188 507.37 90.6042C500.104 86.4792 494.433 80.7865 490.349 73.5208C486.276 66.2448 484.245 57.8698 484.245 48.3958C484.245 38.9115 486.276 30.5365 490.349 23.2708C494.433 15.9948 500.084 10.3021 507.308 6.1875C514.542 2.0625 522.854 0 532.245 0C540.131 0 547.354 1.51042 553.912 4.52083C560.464 7.53646 565.979 11.7917 570.453 17.2917C574.938 22.7813 578.063 29.2448 579.828 36.6875H558.037C556.256 31.5521 553.104 27.4948 548.578 24.5208C544.063 21.5521 538.839 20.0625 532.912 20.0625C527.672 20.0625 522.995 21.2656 518.87 23.6667C514.756 26.0573 511.547 29.3854 509.245 33.6458C506.938 37.8958 505.787 42.8125 505.787 48.3958C505.787 53.9792 506.938 58.8958 509.245 63.1458C511.547 67.3958 514.735 70.724 518.808 73.125C522.891 75.5156 527.542 76.7083 532.766 76.7083C538.891 76.7083 544.25 75.1406 548.849 72C553.459 68.849 556.745 64.6146 558.703 59.2917H580.495C578.995 66.8229 575.979 73.4062 571.453 79.0417C566.938 84.6667 561.334 89.0312 554.641 92.125C547.943 95.2188 540.521 96.7708 532.37 96.7708Z" fill="#595959"/>
<path d="M661.06 94.918V57.4388H624.643V94.918H603.497V1.85547H624.643V37.6263H661.06V1.85547H682.205V94.918H661.06Z" fill="#595959"/>
<path d="M85.7158 442.175C83.0492 453.071 79.1533 461.529 73.1742 468.092C67.0283 465.279 60.7992 462.613 54.3825 460.133C56.8825 454.967 59.7992 448.738 62.445 442.175H85.7158ZM108.32 442.175V435.696H65.1117C67.6117 429.05 69.9242 422.238 71.6742 416.092L65.1117 415.092C63.3617 421.404 60.8825 428.633 57.9658 435.696H35.3617V442.175H55.2992C51.9033 449.988 48.32 457.3 45.0075 462.946C52.82 465.946 60.7158 469.258 68.0283 472.758C60.0492 478.821 49.1533 482.633 34.2783 484.883C35.6117 486.383 36.945 488.946 37.6117 490.946C54.1533 488.217 66.0283 483.467 74.6742 475.988C85.2992 481.321 94.6117 486.8 101.507 491.696L106.487 486.217C99.5908 481.488 90.1117 476.238 79.57 471.092C85.7992 463.779 89.8617 454.3 92.5283 442.175H108.32Z" fill="#595959"/>
<path d="M144.123 454.467C146.29 448.404 147.852 439.029 148.269 432.217L143.623 431.55C143.04 438.279 141.54 447.321 139.311 452.821L144.123 454.467ZM151.269 491.696H157.415V415.842H151.269V491.696ZM157.998 431.133C160.331 435.696 162.811 441.675 163.727 445.258L168.373 443.008C167.394 439.529 164.811 433.613 162.311 429.133L157.998 431.133ZM194.477 482.967V462.196H211.415V456.467H194.477V439.279H213.248V433.383H194.477V416.175H188.331V433.383H177.936C179.102 429.3 180.102 424.988 180.936 420.654L174.936 419.654C173.04 430.967 169.706 442.092 164.894 449.321C166.394 449.988 169.123 451.321 170.373 452.154C172.623 448.571 174.54 444.258 176.186 439.279H188.331V456.467H170.706V462.196H188.331V482.967H164.561V488.863H215.248V482.967H194.477Z" fill="#595959"/>
<path d="M304.051 427.551H311.78V433.863H304.051V427.551ZM311.78 445.176H304.051V438.697H311.78V445.176ZM298.738 445.176H287.947V449.905H298.738V455.967H286.53V461.051H298.738V467.53H284.447V472.592H298.738V482.551H304.051V472.592H321.009V467.53H304.051V461.051H318.342V455.967H304.051V449.905H316.676V438.697H322.509V433.863H316.676V422.822H304.051V415.926H298.738V422.822H287.947V427.551H298.738V433.863H284.113V438.697H298.738V445.176ZM261.509 416.092C258.28 428.217 252.884 440.113 246.488 447.822C247.467 449.405 249.134 452.738 249.551 454.155C251.717 451.405 253.717 448.405 255.613 445.092V491.613H261.092V434.197C263.342 428.884 265.426 423.238 267.009 417.592L261.509 416.092ZM281.447 446.009L280.884 446.092H274.155C277.301 438.947 281.051 429.467 283.863 421.905H267.092V427.301H276.217C273.238 435.53 269.488 444.759 266.509 451.072H279.051C278.134 458.717 276.801 465.28 274.801 470.592C272.822 467.363 271.072 463.447 269.738 458.717L265.259 460.551C267.176 466.863 269.655 471.926 272.572 475.905C269.905 481.155 266.509 485.134 262.342 487.884C263.426 488.634 265.509 490.53 266.342 491.78C270.155 489.03 273.488 485.217 276.217 480.238C284.613 488.634 295.822 490.613 308.467 490.613H321.009C321.176 489.113 322.092 486.717 322.926 485.384C319.842 485.467 311.03 485.467 308.801 485.467C297.155 485.467 286.363 483.634 278.467 475.322C281.613 468.03 283.613 458.551 284.697 446.759L281.447 446.009Z" fill="#595959"/>
<path d="M399.271 450.488H415.313V456.967H399.271V450.488ZM399.271 439.779H415.313V445.842H399.271V439.779ZM420.125 462.696C416.792 465.529 411.229 469.258 406.75 471.925C403.75 469.175 401.188 466.113 399.271 462.779V461.446H421.209V450.821H429.354V445.425H421.209V435.279H399.271V428.633H428.438V423.154H399.771C398.521 420.738 396.604 417.592 394.875 415.092L388.959 416.842C390.209 418.675 391.542 421.071 392.625 423.154H360.063V447.571C360.063 459.633 359.396 476.488 352.917 488.467C354.229 489.029 356.813 490.696 357.896 491.779C364.875 479.238 365.959 460.467 365.959 447.571V428.633H393.125V435.279H371.938V439.779H393.125V445.842H367.938V450.488H393.125V456.967H371.188V461.446H393.125V471.008C382.979 475.071 372.521 479.238 365.709 481.654L368.188 486.717C375.25 483.717 384.313 479.821 393.125 475.904V484.633C393.125 486.05 392.625 486.467 391.125 486.55C389.792 486.633 384.729 486.717 379.667 486.467C380.5 488.05 381.313 490.196 381.646 491.779C388.542 491.779 392.959 491.779 395.688 490.863C398.271 489.946 399.271 488.55 399.271 484.633V471.008C405.667 479.154 415.146 484.967 426.271 487.967C427.021 486.383 428.604 484.217 429.917 483.05C422.688 481.488 416.125 478.738 410.646 474.988C415.146 472.592 420.459 469.425 424.688 466.363L420.125 462.696ZM370.104 465.696C374.334 468.258 379.667 472.092 382.229 474.592L385.813 470.758C383.063 468.342 377.667 464.696 373.604 462.279L370.104 465.696Z" fill="#595959"/>
<path d="M515.741 432.967C513.012 429.467 507.199 424.738 502.199 421.571L498.303 425.154C503.199 428.55 508.928 433.446 511.512 436.946L515.741 432.967ZM513.762 454.8C510.678 451.238 504.199 446.342 498.887 443.092L495.053 446.758C500.303 450.071 506.699 455.217 509.678 458.883L513.762 454.8ZM491.908 460.717C490.158 458.467 483.012 449.321 480.449 446.425V444.925H492.658V439.113H480.449V425.238C484.428 424.321 488.241 423.154 491.324 421.904L487.595 417.008C481.345 419.738 470.47 422.154 461.158 423.654C461.824 424.988 462.658 427.133 462.991 428.467C466.658 427.967 470.553 427.3 474.366 426.55V439.113H460.408V444.925H473.553C470.303 454.467 464.491 465.113 459.262 471.008C460.241 472.425 461.741 474.925 462.324 476.571C466.658 471.425 470.97 463.196 474.366 454.883V491.613H480.449V453.154C483.262 457.383 486.762 462.779 488.158 465.529L491.908 460.717ZM536.345 468.175L535.449 462.529L525.72 464.029V415.842H519.658V465.029L491.574 469.508L492.574 475.404L519.658 470.925V491.613H525.72V469.925L536.345 468.175Z" fill="#595959"/>
<path d="M593.439 452.154C590.356 453.071 587.21 453.988 584.21 454.8V438.363H593.439V432.55H584.21V415.925H578.148V432.55H567.502V438.363H578.148V456.467C573.731 457.717 569.752 458.717 566.439 459.467L568.169 465.529L578.148 462.613V484.3C578.148 485.467 577.731 485.883 576.481 485.883C575.481 485.967 571.919 485.967 567.919 485.883C568.752 487.55 569.669 489.946 569.919 491.529C575.564 491.613 579.064 491.446 581.127 490.446C583.294 489.446 584.21 487.8 584.21 484.3V460.8C587.439 459.8 590.856 458.8 594.189 457.8L593.439 452.154ZM630.398 452.738C627.419 460.3 622.752 466.696 617.023 471.842C611.794 466.529 607.648 459.967 604.814 452.738H630.398ZM634.314 446.758L633.314 447.008H620.106V434.613H639.96V428.883H620.106V415.842H614.044V428.883H594.585V434.613H614.044V447.008H596.252V452.738H599.002L598.752 452.821C601.981 461.696 606.564 469.342 612.377 475.571C605.648 480.488 597.919 483.967 589.856 486.133C591.023 487.467 592.523 490.029 593.189 491.696C601.648 489.029 609.71 485.217 616.773 479.821C622.919 485.217 630.314 489.196 638.96 491.863C639.877 490.196 641.627 487.8 642.939 486.55C634.648 484.3 627.502 480.738 621.523 475.821C628.981 468.925 634.898 459.883 638.377 448.488L634.314 446.758Z" fill="#595959"/>
<path d="M691.722 447.404V452.57H732.097V447.404H714.41V439.445H730.014V434.445H714.41V427.299H708.493V434.445H693.805V439.445H708.493V447.404H691.722ZM722.035 464.445V476.237H701.43V464.445H722.035ZM727.868 481.154V459.549H695.785V485.799H701.43V481.154H727.868ZM742.555 419.82H682.243V446.508C682.243 459.299 681.41 476.237 672.701 488.299C674.097 488.945 676.597 491.029 677.597 492.279C686.993 479.404 688.305 460.216 688.305 446.508V425.654H736.41V483.883C736.41 485.383 735.91 485.883 734.347 485.883C732.93 485.966 727.785 486.049 722.451 485.883C723.285 487.466 724.285 490.029 724.535 491.695C731.93 491.695 736.326 491.612 738.91 490.612C741.493 489.529 742.555 487.883 742.555 483.883V419.82Z" fill="#595959"/>
<path d="M849.984 456.467V450.404H820.922V435.946H854.234V429.883H820.922V415.842H814.505V429.883H781.776V435.946H814.505V450.404H786.026V456.467H810.859C803.463 466.863 791.088 476.821 779.63 481.821C781.026 483.05 783.026 485.55 784.109 487.05C794.901 481.571 806.547 471.592 814.505 460.633V491.696H820.922V460.217C828.963 471.092 840.776 481.404 851.651 486.967C852.734 485.217 854.817 482.8 856.213 481.571C844.922 476.654 832.463 466.696 824.817 456.467H849.984Z" fill="#595959"/>
<g clip-path="url(#clip0_666_23133)">
<path d="M261.624 158.721C224.072 158.721 193.65 189.137 193.65 226.695C193.65 264.247 224.072 294.669 261.624 294.669C299.182 294.669 329.598 264.247 329.598 226.695C329.598 189.137 299.182 158.721 261.624 158.721ZM261.624 281.075C231.583 281.075 207.249 256.736 207.249 226.695C207.249 196.648 231.583 172.314 261.624 172.314C291.671 172.314 316.005 196.648 316.005 226.695C316.005 256.736 291.671 281.075 261.624 281.075Z" fill="#D6AB93"/>
</g>
<g clip-path="url(#clip1_666_23133)">
<path d="M410.353 158.721C372.801 158.721 342.379 189.137 342.379 226.695C342.379 264.247 372.801 294.669 410.353 294.669C447.91 294.669 478.327 264.247 478.327 226.695C478.327 189.137 447.91 158.721 410.353 158.721ZM410.353 281.075C380.311 281.075 355.978 256.736 355.978 226.695C355.978 196.648 380.311 172.314 410.353 172.314C440.4 172.314 464.733 196.648 464.733 226.695C464.733 256.736 440.4 281.075 410.353 281.075Z" fill="#D6AB93"/>
</g>
<g clip-path="url(#clip2_666_23133)">
<path d="M335.984 389.368C248.567 389.368 177.76 318.071 177.76 231.144C177.76 144.217 248.567 72.9199 335.984 72.9199C423.4 72.9199 494.208 143.727 494.208 231.144C494.208 318.555 422.911 389.368 335.984 389.368ZM335.984 82.6855C253.942 82.6855 187.525 149.102 187.525 231.144C187.525 313.186 253.942 379.602 335.984 379.602C418.025 379.602 484.442 313.186 484.442 231.144C484.442 149.102 417.536 82.6855 335.984 82.6855Z" fill="#D6AB93"/>
</g>
<defs>
<clipPath id="clip0_666_23133">
<rect width="136" height="68" fill="white" transform="translate(194 159)"/>
</clipPath>
<clipPath id="clip1_666_23133">
<rect width="136" height="68" fill="white" transform="translate(342 159)"/>
</clipPath>
<clipPath id="clip2_666_23133">
<rect width="316" height="100" fill="white" transform="translate(178 289)"/>
</clipPath>
</defs>
</svg>
