<svg width="1188" height="1116" viewBox="0 0 1188 1116" fill="none" xmlns="http://www.w3.org/2000/svg">
<path d="M857.725 1068.13C886.705 1008.55 909.655 934.352 932.485 871.882L963.555 787.932C969.645 771.342 976.725 754.262 980.975 737.092C982.275 731.852 981.645 727.422 979.885 722.362C963.815 676.032 944.605 630.382 927.295 584.462C918.755 561.822 907.775 537.942 904.065 513.952C901.945 500.172 902.315 486.642 908.665 473.942C916.075 459.132 929.595 445.732 945.535 440.502C954.635 437.522 965.005 436.522 974.535 436.082C1013.36 434.262 1052.97 436.322 1091.89 436.202C1119.54 436.122 1158.88 433.302 1185.29 436.752C1187.77 439.922 1188 446.472 1187.39 450.362C1187.05 452.472 1186.51 454.372 1184.46 455.222C1178.74 457.592 1167.94 455.682 1161.59 455.452C1131.28 454.362 1106.46 468.722 1092.73 495.542C1076.13 527.992 1064.96 564.112 1052.56 598.342C1033.88 649.902 1014.99 701.212 997.185 753.082C989.555 775.322 980.285 796.982 972.175 819.042L918.935 965.072C900.705 1014.55 884.805 1065.2 865.605 1114.26C809.215 1114.24 752.625 1115.24 696.255 1113.9C662.995 1022.64 633.615 929.922 596.785 839.992C589.125 865.672 577.975 890.382 568.665 915.522L526.105 1033.5C516.425 1059.99 505.705 1086.11 496.885 1112.9C383.015 1114.55 269.135 1115.24 155.255 1114.96C121.725 1114.86 88.2081 1114.56 54.6891 1114.06C38.1631 1113.84 20.1211 1115.02 3.78906 1112.77C31.4771 1109.49 72.1151 1112.4 101.055 1112.55C177.535 1112.98 254.815 1114.95 331.245 1112.65C335.135 1112.53 340.465 1113.24 343.115 1110.39C341.415 1102.92 318.375 1091.36 311.585 1086.9L312.335 1084.83C308.525 1071.51 287.775 1002.08 278.335 996.822L281.025 993.852C279.085 966.562 279.805 938.742 279.895 911.382L280.135 797.642L279.345 461.682V458.892C291.605 487.432 300.165 518.932 310.255 548.382L374.135 736.282L458.035 979.522C468.295 1009.95 480.135 1040.07 489.095 1070.91C500.875 1046.08 584.655 823.882 584.915 810.192C585.205 794.122 575.085 772.112 569.765 756.742C556.125 718.282 542.695 679.742 529.485 641.132C511.395 587.332 468.855 487.052 530.305 447.892C534.445 445.252 538.575 441.882 543.175 440.142C549.605 437.712 558.105 437.282 564.965 436.952C589.925 435.742 770.565 433.902 782.695 438.312C784.175 442.412 785.145 445.192 784.635 449.672C782.305 453.022 781.065 454.472 776.885 455.242C769.765 456.542 761.235 455.292 753.925 455.392C732.295 455.692 708.395 463.672 694.785 481.162C679.545 500.742 681.955 532.552 685.385 555.882C691.005 594.132 706.995 631.252 719.455 667.712L784.945 857.542L829.915 990.402C837.635 1013.64 846.165 1047.28 857.725 1068.13Z" fill="#595959"/>
<path d="M112.558 435.332C116.178 292.174 88.044 173.669 201.388 62.0055C240.178 23.7945 316.788 -0.749528 370.688 0.0174725C435.118 0.934473 509.818 26.6765 555.398 73.9035C588.258 107.942 613.698 149.014 612.398 197.907C611.638 226.562 597.008 252.731 576.278 272.038C559.708 287.475 534.228 297.377 511.538 296.249C489.388 295.149 466.168 282.691 451.768 266.004C429.588 240.275 425.208 205.439 434.188 173.318C438.438 158.128 444.738 143.687 445.638 127.743C447.308 98.5085 436.848 65.2135 417.098 43.3475C403.878 28.7045 386.488 19.9215 366.638 19.2295C346.808 18.4985 327.568 26.0535 313.528 40.0835C270.268 83.1205 279.678 231.431 279.878 291.564L279.998 436.103C299.118 436.083 388.858 433.383 399.978 438.383C400.908 440.033 401.328 440.553 401.768 442.633C402.618 446.733 402.218 450.733 399.838 454.003C388.258 459.563 303.718 455.553 279.348 458.893V461.682L280.138 797.643L279.898 911.383C279.808 938.743 279.088 966.562 281.028 993.852L278.338 996.822C276.648 1030.84 280.848 1053.47 304.258 1079.49C306.608 1082.05 309.048 1084.53 311.588 1086.9C318.378 1091.36 341.418 1102.92 343.118 1110.39C340.468 1113.24 335.138 1112.53 331.248 1112.65C254.818 1114.95 177.538 1112.98 101.058 1112.55C72.118 1112.4 31.48 1109.49 3.79199 1112.77C2.91699 1110.7 2.35502 1107.1 2.51202 1104.86C2.76002 1101.29 3.50299 1100 6.69299 1098.4C13.893 1094.78 47.903 1097.27 62.702 1092.56C71.994 1089.6 80.73 1083.3 87.496 1076.38C102.448 1061.09 108.608 1040.85 111.368 1020.16C114.148 999.322 112.308 976.473 112.228 955.393V848.253L111.908 456.952L0 457.342L0.0120239 434.822C37.486 435.952 75.064 435.382 112.558 435.332Z" fill="#D6AB93"/>
</svg>
