<svg width="959" height="389" viewBox="0 0 959 389" fill="none" xmlns="http://www.w3.org/2000/svg">
<path d="M133.188 270.408L108.354 183.303L83.5208 270.408H44.2083L0 115.199H39.3125L65.8333 221.678H66.7708L95 115.199H121.708L149.917 221.678H150.875L177.396 115.199H216.521L172.313 270.408H133.188Z" fill="#D6AB93"/>
<path d="M1.30859 94.918V1.85547H59.6628V21.0013H22.4544V44.2721H56.2044V62.8763H22.4544V94.918H1.30859Z" fill="#595959"/>
<path d="M83.1973 94.918V1.85547H144.343V19.668H104.197V38.9596H140.76V56.6263H104.197V76.9805H145.801V94.918H83.1973Z" fill="#595959"/>
<path d="M170.271 94.918V1.85547H188.208L221.312 50.1263L254.291 1.85547H272.104V94.918H251.104V38.9596L228.5 71.918H213.875L191.271 38.8138V94.918H170.271Z" fill="#595959"/>
<path d="M603.732 173.909L557.836 219.992L608.253 270.409H565.357L526.795 231.846V270.409H493.503V108.617H526.795V207.576L560.461 173.909H603.732Z" fill="#D6AB93"/>
<path d="M712.659 226.762H642.679C642.679 233.543 644.872 238.564 649.263 241.824C653.648 245.074 658.419 246.699 663.575 246.699C668.961 246.699 673.221 245.986 676.346 244.553C679.481 243.111 683.06 240.257 687.075 235.991L711.159 248.012C701.127 264.819 684.45 273.22 661.117 273.22C646.575 273.22 634.096 268.241 623.679 258.283C613.273 248.314 608.075 236.303 608.075 222.262C608.075 208.21 613.273 196.168 623.679 186.137C634.096 176.095 646.575 171.074 661.117 171.074C676.419 171.074 688.867 175.501 698.45 184.345C708.044 193.178 712.846 205.814 712.846 222.241C712.846 224.507 712.784 226.012 712.659 226.762ZM643.617 208.324H680.304C679.554 203.314 677.575 199.46 674.367 196.762C671.169 194.069 667.065 192.72 662.054 192.72C656.539 192.72 652.148 194.168 648.888 197.053C645.622 199.928 643.867 203.689 643.617 208.324Z" fill="#D6AB93"/>
<path d="M728.475 270.408V173.908H761.766V184.053H762.141C770.792 175.402 780.016 171.074 789.808 171.074C794.568 171.074 799.298 171.71 803.995 172.97C808.704 174.22 813.214 176.168 817.537 178.803C821.87 181.428 825.381 185.158 828.079 189.991C830.771 194.814 832.12 200.423 832.12 206.824V270.408H798.829V215.845C798.829 210.835 797.225 206.444 794.016 202.678C790.818 198.918 786.652 197.033 781.516 197.033C776.501 197.033 771.954 198.98 767.87 202.866C763.798 206.757 761.766 211.085 761.766 215.845V270.408H728.475Z" fill="#D6AB93"/>
<path d="M859.41 258.471C850.379 248.628 845.868 236.555 845.868 222.263C845.868 207.961 850.379 195.857 859.41 185.951C868.436 176.034 879.91 171.076 893.826 171.076C906.618 171.076 917.149 175.091 925.431 183.117V108.617H958.743V270.409H925.806V259.492H925.431C917.149 268.648 906.618 273.221 893.826 273.221C879.91 273.221 868.436 268.305 859.41 258.471ZM887.701 205.888C883.379 210.154 881.222 215.612 881.222 222.263C881.222 228.904 883.29 234.326 887.431 238.534C891.566 242.732 897.024 244.826 903.806 244.826C910.316 244.826 915.67 242.695 919.868 238.43C924.076 234.169 926.181 228.773 926.181 222.242C926.181 215.607 924.014 210.154 919.681 205.888C915.358 201.628 910.066 199.492 903.806 199.492C897.399 199.492 892.035 201.628 887.701 205.888Z" fill="#D6AB93"/>
<path d="M330.313 94.918V21.668H300.792V1.85547H380.959V21.668H351.459V94.918H330.313Z" fill="#595959"/>
<path d="M402.631 94.918V1.85547H463.777V19.668H423.631V38.9596H460.193V56.6263H423.631V76.9805H465.235V94.918H402.631Z" fill="#595959"/>
<path d="M532.37 96.7708C522.979 96.7708 514.646 94.7188 507.37 90.6042C500.104 86.4792 494.433 80.7865 490.349 73.5208C486.276 66.2448 484.245 57.8698 484.245 48.3958C484.245 38.9115 486.276 30.5365 490.349 23.2708C494.433 15.9948 500.084 10.3021 507.308 6.1875C514.542 2.0625 522.854 0 532.245 0C540.131 0 547.354 1.51042 553.912 4.52083C560.464 7.53646 565.979 11.7917 570.453 17.2917C574.938 22.7813 578.063 29.2448 579.828 36.6875H558.037C556.256 31.5521 553.104 27.4948 548.578 24.5208C544.063 21.5521 538.839 20.0625 532.912 20.0625C527.672 20.0625 522.995 21.2656 518.87 23.6667C514.756 26.0573 511.547 29.3854 509.245 33.6458C506.938 37.8958 505.787 42.8125 505.787 48.3958C505.787 53.9792 506.938 58.8958 509.245 63.1458C511.547 67.3958 514.735 70.724 518.808 73.125C522.891 75.5156 527.542 76.7083 532.766 76.7083C538.891 76.7083 544.25 75.1406 548.849 72C553.459 68.849 556.745 64.6146 558.703 59.2917H580.495C578.995 66.8229 575.979 73.4063 571.453 79.0417C566.938 84.6667 561.334 89.0313 554.641 92.125C547.943 95.2188 540.521 96.7708 532.37 96.7708Z" fill="#595959"/>
<path d="M661.06 94.918V57.4388H624.643V94.918H603.497V1.85547H624.643V37.6263H661.06V1.85547H682.205V94.918H661.06Z" fill="#595959"/>
<g clip-path="url(#clip0_693_22973)">
<path d="M261.624 158.721C224.072 158.721 193.65 189.137 193.65 226.695C193.65 264.247 224.072 294.669 261.624 294.669C299.182 294.669 329.598 264.247 329.598 226.695C329.598 189.137 299.182 158.721 261.624 158.721ZM261.624 281.075C231.583 281.075 207.249 256.736 207.249 226.695C207.249 196.648 231.583 172.314 261.624 172.314C291.671 172.314 316.005 196.648 316.005 226.695C316.005 256.736 291.671 281.075 261.624 281.075Z" fill="#D6AB93"/>
</g>
<g clip-path="url(#clip1_693_22973)">
<path d="M410.353 158.721C372.801 158.721 342.379 189.137 342.379 226.695C342.379 264.247 372.801 294.669 410.353 294.669C447.91 294.669 478.327 264.247 478.327 226.695C478.327 189.137 447.91 158.721 410.353 158.721ZM410.353 281.075C380.311 281.075 355.978 256.736 355.978 226.695C355.978 196.648 380.311 172.314 410.353 172.314C440.4 172.314 464.733 196.648 464.733 226.695C464.733 256.736 440.4 281.075 410.353 281.075Z" fill="#D6AB93"/>
</g>
<g clip-path="url(#clip2_693_22973)">
<path d="M335.984 389.368C248.567 389.368 177.76 318.071 177.76 231.144C177.76 144.217 248.567 72.9199 335.984 72.9199C423.4 72.9199 494.208 143.727 494.208 231.144C494.208 318.555 422.911 389.368 335.984 389.368ZM335.984 82.6855C253.942 82.6855 187.525 149.102 187.525 231.144C187.525 313.186 253.942 379.602 335.984 379.602C418.025 379.602 484.442 313.186 484.442 231.144C484.442 149.102 417.536 82.6855 335.984 82.6855Z" fill="#D6AB93"/>
</g>
<defs>
<clipPath id="clip0_693_22973">
<rect width="136" height="68" fill="white" transform="translate(194 159)"/>
</clipPath>
<clipPath id="clip1_693_22973">
<rect width="136" height="68" fill="white" transform="translate(342 159)"/>
</clipPath>
<clipPath id="clip2_693_22973">
<rect width="316" height="100" fill="white" transform="translate(178 289)"/>
</clipPath>
</defs>
</svg>
