<svg width="1222" height="1630" viewBox="0 0 1222 1630" fill="none" xmlns="http://www.w3.org/2000/svg">
<path d="M878.022 1068.13C907.002 1008.55 929.952 934.352 952.782 871.882L983.852 787.932C989.942 771.342 997.022 754.262 1001.27 737.092C1002.57 731.852 1001.94 727.422 1000.18 722.362C984.112 676.032 964.902 630.382 947.592 584.462C939.052 561.822 928.072 537.942 924.362 513.952C922.242 500.172 922.612 486.642 928.962 473.942C936.372 459.132 949.892 445.732 965.832 440.502C974.932 437.522 985.302 436.522 994.832 436.082C1033.65 434.262 1073.26 436.322 1112.18 436.202C1139.83 436.122 1179.18 433.302 1205.59 436.752C1208.07 439.922 1208.29 446.472 1207.68 450.362C1207.34 452.472 1206.8 454.372 1204.75 455.222C1199.03 457.592 1188.24 455.682 1181.89 455.452C1151.58 454.362 1126.75 468.722 1113.02 495.542C1096.42 527.992 1085.25 564.112 1072.85 598.342C1054.17 649.902 1035.28 701.212 1017.48 753.082C1009.85 775.322 1000.58 796.982 992.472 819.042L939.232 965.072C921.002 1014.55 905.102 1065.2 885.902 1114.26C829.512 1114.24 772.922 1115.24 716.552 1113.9C683.292 1022.64 653.912 929.922 617.082 839.992C609.422 865.672 598.272 890.382 588.962 915.522L546.402 1033.5C536.722 1059.99 526.002 1086.11 517.182 1112.9C403.312 1114.55 289.432 1115.24 175.552 1114.96C142.022 1114.86 108.505 1114.56 74.986 1114.06C58.46 1113.84 40.4179 1115.02 24.0859 1112.77C51.7739 1109.49 92.4119 1112.4 121.352 1112.55C197.832 1112.98 275.112 1114.95 351.542 1112.65C355.432 1112.53 360.762 1113.24 363.412 1110.39C361.712 1102.92 338.672 1091.36 331.882 1086.9L332.632 1084.83C328.822 1071.51 308.072 1002.08 298.632 996.822L301.322 993.852C299.382 966.562 300.102 938.742 300.192 911.382L300.432 797.642L299.642 461.682V458.892C311.902 487.432 320.462 518.932 330.552 548.382L394.432 736.282L478.332 979.522C488.592 1009.95 500.432 1040.07 509.392 1070.91C521.172 1046.08 604.952 823.882 605.212 810.192C605.502 794.122 595.382 772.112 590.062 756.742C576.422 718.282 562.992 679.742 549.782 641.132C531.692 587.332 489.152 487.052 550.602 447.892C554.742 445.252 558.872 441.882 563.472 440.142C569.902 437.712 578.402 437.282 585.262 436.952C610.222 435.742 790.862 433.902 802.992 438.312C804.472 442.412 805.442 445.192 804.932 449.672C802.602 453.022 801.362 454.472 797.182 455.242C790.062 456.542 781.532 455.292 774.222 455.392C752.592 455.692 728.692 463.672 715.082 481.162C699.842 500.742 702.252 532.552 705.682 555.882C711.302 594.132 727.292 631.252 739.752 667.712L805.242 857.542L850.212 990.402C857.932 1013.64 866.462 1047.28 878.022 1068.13Z" fill="#595959"/>
<path d="M132.855 435.332C136.475 292.174 108.341 173.669 221.685 62.0055C260.475 23.7945 337.085 -0.749528 390.985 0.0174725C455.415 0.934473 530.115 26.6765 575.695 73.9035C608.555 107.942 633.995 149.014 632.695 197.907C631.935 226.562 617.305 252.731 596.575 272.038C580.005 287.475 554.525 297.377 531.835 296.249C509.685 295.149 486.465 282.691 472.065 266.004C449.885 240.275 445.505 205.439 454.485 173.318C458.735 158.128 465.035 143.687 465.935 127.743C467.605 98.5085 457.145 65.2135 437.395 43.3475C424.175 28.7045 406.785 19.9215 386.935 19.2295C367.105 18.4985 347.865 26.0535 333.825 40.0835C290.565 83.1205 299.975 231.431 300.175 291.564L300.295 436.103C319.415 436.083 409.155 433.383 420.275 438.383C421.205 440.033 421.625 440.553 422.065 442.633C422.915 446.733 422.515 450.733 420.135 454.003C408.555 459.563 324.015 455.553 299.645 458.893V461.682L300.435 797.643L300.195 911.383C300.105 938.743 299.385 966.562 301.325 993.852L298.635 996.822C296.945 1030.84 301.145 1053.47 324.555 1079.49C326.905 1082.05 329.345 1084.53 331.885 1086.9C338.675 1091.36 361.715 1102.92 363.415 1110.39C360.765 1113.24 355.435 1112.53 351.545 1112.65C275.115 1114.95 197.835 1112.98 121.355 1112.55C92.4149 1112.4 51.7769 1109.49 24.0889 1112.77C23.2139 1110.7 22.6519 1107.1 22.8089 1104.86C23.0569 1101.29 23.7999 1100 26.9899 1098.4C34.1899 1094.78 68.1999 1097.27 82.9989 1092.56C92.2909 1089.6 101.027 1083.3 107.793 1076.38C122.745 1061.09 128.905 1040.85 131.665 1020.16C134.445 999.322 132.605 976.473 132.525 955.393V848.253L132.205 456.952L20.2969 457.342L20.3089 434.822C57.7829 435.952 95.3609 435.382 132.855 435.332Z" fill="#D6AB93"/>
<path d="M469.764 1324.09C478.874 1323.51 488.224 1323.89 497.364 1323.9C498.694 1371.71 498.124 1419.74 498.414 1467.58L474.104 1467.74L474.004 1418.57C474.184 1401.75 474.184 1384.92 473.984 1368.1C460.824 1389.76 447.034 1431.71 430.944 1447.94C424.414 1450.18 417.404 1449.49 410.574 1449.4C394.344 1423.83 378.874 1397.22 365.324 1370.12L364.774 1467.89L341.664 1468L342.044 1377.68C342.124 1359.93 341.234 1341.67 343.034 1324.03C351.864 1323.73 360.714 1324.07 369.544 1324.28C383.074 1358.01 404.354 1389.38 419.394 1422.7C435.104 1389.27 452.614 1356.79 469.764 1324.09Z" fill="#595959"/>
<path d="M1197.14 1323.52L1220.83 1323.65C1220.78 1346.67 1223.34 1456.36 1219.47 1469.24L1196.69 1469.11C1196 1448.6 1196.51 1427.92 1196.52 1407.39C1174.5 1407.07 1152.49 1407.16 1130.48 1407.66L1130.62 1467.86C1122.56 1468.24 1114.35 1467.97 1106.28 1467.99C1106.16 1419.98 1105.28 1371.84 1106.49 1323.84C1114.41 1323.66 1122.37 1323.94 1130.28 1324.05L1130.19 1384.52L1196.98 1384.64L1197.14 1323.52Z" fill="#595959"/>
<path d="M167.206 1323.62C197.786 1322.98 228.536 1323.52 259.136 1323.49L259.296 1345.1L191.586 1345.55L191.366 1383.85L247.026 1384L246.596 1405.38C234.416 1405.53 200.736 1401.42 191.856 1407.98L191.236 1413.95L190.896 1447.45L260.156 1447.51L259.686 1469.59C228.886 1469.96 198.056 1469.64 167.246 1469.6C166.956 1420.94 166.936 1372.28 167.206 1323.62Z" fill="#595959"/>
<path d="M758.213 1323.94L850.123 1323.91L850.413 1344.33L780.383 1344.25L780.343 1384.36L836.163 1384L835.973 1404.98C818.133 1404.97 799.693 1404.1 781.953 1405.89C779.873 1409.28 781.113 1417.81 781.143 1422.01L781.113 1446.63L851.823 1446.64L851.403 1469.31C820.053 1469.39 788.693 1469.28 757.343 1468.99C756.453 1440.18 757.063 1411.14 756.983 1382.3C756.933 1363.66 754.843 1342.21 758.213 1323.94Z" fill="#595959"/>
<path d="M1.06725 1323.51C32.8512 1323.35 64.6352 1323.46 96.4172 1323.84L96.4723 1344.52L24.1012 1344.9L23.7483 1385.05C41.5323 1385.23 61.3923 1383.09 78.8373 1386C81.5573 1389.69 80.9842 1394.27 81.0752 1398.66C81.0102 1400.83 80.6963 1402.2 80.1033 1404.26C71.0153 1409.69 37.7773 1406.7 25.6373 1406.76L25.5383 1469.89L1.02324 1469.94C-0.61176 1421.48 -0.0527533 1371.99 1.06725 1323.51Z" fill="#595959"/>
<path d="M976.853 1324.3C987.683 1322.67 1008.09 1320.84 1018.68 1323.13C1022.43 1323.94 1025.94 1326.59 1028.17 1329.72C1030.39 1332.84 1030.96 1335.65 1030.34 1339.41C1029.45 1340.56 1028.89 1342.07 1027.67 1342.87C1025.89 1344.04 1007.62 1340.95 1004.29 1340.78C994.773 1340.26 981.743 1345.04 973.723 1349.81C960.873 1357.45 951.153 1370.78 947.993 1385.42C945.103 1399.24 947.893 1413.65 955.733 1425.4C964.393 1438.24 978.003 1446.91 993.303 1449.31C1003.96 1451.03 1018.13 1451.01 1027.09 1444.5C1030.07 1452.8 1029.35 1460.94 1029.14 1469.61C1005.49 1471.95 984.223 1475.94 961.813 1464.3C944.023 1455.06 930.603 1437.31 924.863 1418.27C918.613 1397.55 922.053 1376.86 932.573 1358.27C940.683 1343.94 954.543 1330.74 970.853 1326.58C971.193 1326.49 974.073 1325.86 974.513 1325.66C975.333 1325.29 976.073 1324.75 976.853 1324.3Z" fill="#595959"/>
<path d="M573.283 1323.67C609.703 1322.47 646.413 1323.2 682.873 1323.01L682.763 1344.16L639.533 1344.27C639.373 1372.62 639.783 1400.99 639.923 1429.33L640.033 1467.62L615.203 1467.73L615.463 1344.49L572.093 1344.79C572.053 1337.61 572.143 1330.8 573.283 1323.67Z" fill="#595959"/>
<path d="M946.664 1561.52C956.224 1561.42 966.964 1560.44 976.394 1561.85C989.414 1563.8 996.404 1570.73 1003.84 1580.94C1004.85 1590.71 1004.19 1601.04 1004.14 1610.88C1000.56 1614.01 998.084 1617.45 995.354 1621.33C991.654 1623.24 988.044 1625.92 984.534 1628.18L946.804 1628.14C946.074 1606 946.644 1583.68 946.664 1561.52ZM956.204 1619.54C968.114 1619.51 977.744 1619.4 989.034 1615.06C993.914 1607.93 997.114 1600.87 995.894 1592C994.954 1585.16 991.614 1579.64 985.994 1575.75C985.534 1575.43 985.064 1575.14 984.604 1574.81C983.234 1573.82 981.894 1572.8 980.534 1571.8H956.254L956.204 1619.54Z" fill="#595959"/>
<path d="M284.232 1611.7C288.952 1600.39 294.942 1587.07 297.232 1575.08C298.312 1569.45 299.032 1566.85 303.562 1563.06C307.362 1562.63 307.572 1562.29 310.702 1564.37C310.782 1565.59 310.892 1566.22 310.612 1567.54C308.822 1576.03 294.062 1623.1 289.272 1626.48C287.302 1627.86 285.982 1627.06 283.772 1626.73C273.192 1618.75 269.072 1599.98 264.632 1587.92C264.442 1586.7 263.572 1585.53 262.982 1584.45C253.632 1587.19 252.062 1614.77 244.392 1622.62C241.512 1625.56 239.322 1625.66 235.392 1626C230.712 1621.94 216.862 1575.15 216.432 1567.22C216.302 1564.81 216.362 1565.62 218.342 1563.64L221.592 1563.93C230.092 1571.2 233.002 1600.9 238.052 1613.17C238.372 1612.5 238.682 1611.82 239.012 1611.14C244.152 1600.7 251.012 1567.51 257.002 1562.79C259.762 1562.65 261.962 1563.05 264.652 1563.66C273.472 1572.37 278.842 1599.26 284.232 1611.7Z" fill="#595959"/>
<path d="M820.154 1561.51C821.994 1561.69 825.565 1561.54 827.165 1562.19C837.415 1566.37 858.724 1600.51 866.904 1610.45C867.014 1602.3 864.714 1569.28 869.014 1563.9C873.064 1563.32 873.984 1563.17 877.754 1564.61C879.674 1574.21 880.915 1622.23 876.615 1629.7C874.415 1629.49 871.795 1629.42 869.675 1628.76C859.665 1625.65 836.824 1585.61 830.764 1576.12C830.544 1586.57 833.715 1620.96 827.165 1627.67L823.235 1627.32C817.125 1619.78 820.214 1573.95 820.154 1561.51Z" fill="#595959"/>
<path d="M370.841 1561.04C381.971 1560.89 411.182 1557.59 419.102 1564.54L418.972 1566.96C411.092 1572.55 390.791 1570.05 380.831 1569.96L380.742 1589.96C387.362 1589.86 394.621 1589.25 401.181 1590.06C405.261 1590.57 409.741 1591.77 412.261 1595.01C405.261 1601.4 391.822 1599.72 382.982 1599.72C381.962 1599.98 381.381 1601.08 380.631 1601.82C379.901 1607.82 379.132 1613.45 382.972 1618.39C391.222 1621.21 399.861 1618.66 408.371 1618.92C412.541 1619.04 414.161 1619.65 417.001 1622.61L416.862 1625.63C405.572 1631.46 383.221 1628.56 370.441 1628.5C369.911 1606.41 368.291 1582.99 370.841 1561.04Z" fill="#595959"/>
<path d="M487.512 1561.43C498.572 1561.3 514.062 1559.14 524.632 1561.22C528.102 1561.9 528.302 1562.4 530.002 1565.23L528.972 1568.43C518.692 1572 502.722 1569.97 491.692 1570L491.622 1589.18C499.432 1589.35 508.802 1588.72 516.362 1590.55C519.902 1591.41 521.412 1592.3 523.322 1595.33L522.552 1597.73C513.482 1601.12 499.842 1596.24 492.032 1600.13C491.622 1600.34 491.282 1600.65 490.902 1600.91L491.312 1619.35C502.352 1619.37 516.462 1617.61 527.012 1620.71L528.382 1623.51L526.962 1626.42C517.082 1632.06 493.472 1628.54 481.722 1628.33C481.562 1611.68 478.522 1582.36 482.282 1567C483.162 1563.4 484.512 1563.26 487.512 1561.43Z" fill="#595959"/>
<path d="M710.853 1561.85C722.823 1561.44 737.573 1559.64 748.963 1563.63C752.203 1564.76 751.253 1563.85 752.473 1566.5C744.493 1572.76 729.823 1570.74 720.233 1570.62L720.163 1590.91C727.613 1590.7 740.963 1588.77 747.443 1592.57C749.363 1593.7 749.093 1594.67 749.633 1596.65C744.383 1605.63 727.353 1596.63 719.613 1603.19C719.413 1609.18 718.633 1613.62 722.133 1618.72C732.783 1624.54 741.453 1620.03 752.713 1620.36C755.973 1622.48 755.613 1622.56 756.493 1626.41C749.103 1632.19 720.413 1629.14 710.583 1629.06C710.443 1606.68 709.953 1584.22 710.853 1561.85Z" fill="#595959"/>
<path d="M637.823 1561.31L643.033 1562.79L643.883 1564.8C638.713 1574.76 630.283 1583.29 623.273 1592.07C632.393 1597.71 639.253 1602.9 645.263 1612.03C647.333 1615.17 647.733 1619.96 646.703 1623.64C646.163 1625.58 644.763 1625.58 643.073 1626.37C631.283 1623.67 634.163 1609.13 624.723 1603.28C620.873 1600.89 613.513 1600.5 609.373 1602.4C606.023 1603.94 604.803 1605.88 603.403 1609.11C603.523 1612.17 603.953 1615.93 603.393 1618.92C602.683 1622.69 600.553 1624.77 597.813 1627.21L596.163 1626.56C593.593 1618.86 592.443 1575.57 595.323 1567.85C596.533 1564.58 597.283 1564.46 600.243 1563.02L602.443 1564.1C604.313 1574.53 603.543 1585.7 603.453 1596.29C617.003 1586.47 626.593 1573.51 637.823 1561.31Z" fill="#595959"/>
</svg>
