<svg width="500" height="500" viewBox="0 0 500 500" fill="none" xmlns="http://www.w3.org/2000/svg">
<mask id="mask0_736_24486" style="mask-type:luminance" maskUnits="userSpaceOnUse" x="0" y="0" width="500" height="500">
<path d="M0 0H500V500H0V0Z" fill="white"/>
</mask>
<g mask="url(#mask0_736_24486)">
<path d="M248.763 0.126953C247.266 0.126953 245.833 0.444534 244.401 0.952665L7.35677 95.4649C7.29165 95.4649 7.22656 95.4649 7.16146 95.5284C7.03126 95.5919 6.90104 95.5919 6.83594 95.7189C6.57552 95.7824 6.38021 95.9095 6.11979 96.0365C5.98959 96.1 5.85938 96.1636 5.72917 96.2271C5.46877 96.3541 5.33854 96.5446 5.07812 96.6082C5.01302 96.6717 4.94793 96.7352 4.88281 96.7987C4.6224 96.9893 4.36198 97.1798 4.16667 97.3068C4.10157 97.3704 4.03645 97.4339 3.97135 97.4974C3.71094 97.6879 3.45053 97.942 3.25521 98.1961C2.99479 98.4501 2.73438 98.7042 2.47396 98.9583C2.40886 99.0853 2.34376 99.2123 2.27865 99.2758C2.08333 99.5299 1.95312 99.7205 1.82292 99.9745C1.82292 99.9745 1.82293 100.038 1.75781 100.038C1.5625 100.356 1.36719 100.673 1.17188 100.991C1.17188 101.054 1.17188 101.054 1.17188 101.118C0.976558 101.372 0.91145 101.689 0.78125 102.007C0.78125 102.071 0.716146 102.134 0.716146 102.198C0.585946 102.452 0.520821 102.833 0.325521 103.15C0.325521 103.214 0.325521 103.277 0.325521 103.277C0.260421 103.595 0.195312 103.913 0.195312 104.23C0.130212 104.357 0.130204 104.421 0.0651042 104.548C0.0651042 104.802 0 105.119 0 105.437C0 105.627 0 105.755 0 105.818C0 105.945 0 106.072 0 106.136C0 106.263 0 106.263 0 106.39V391.387C0 396.087 2.92969 400.343 7.35677 402.058L244.401 496.507C245.833 497.142 247.396 497.396 248.893 497.396C250.456 497.396 251.953 497.142 253.385 496.507L490.495 402.121C494.922 400.343 497.852 396.087 497.852 391.387V106.136C497.852 105.246 497.721 104.357 497.526 103.468C497.461 103.341 497.461 103.277 497.396 103.15C497.201 102.388 496.94 101.626 496.55 100.927C496.419 100.8 496.419 100.673 496.354 100.61C495.964 99.8475 495.508 99.2123 494.922 98.5772C494.857 98.4501 494.857 98.3866 494.857 98.3866C494.792 98.3866 494.727 98.3231 494.661 98.2596C494.076 97.6244 493.359 97.0528 492.578 96.5446C491.927 96.1 491.211 95.7824 490.495 95.4649L490.039 95.2743L253.385 0.952665C251.953 0.381022 250.326 0.126953 248.763 0.126953ZM248.893 24.1361L454.622 106.136L248.893 188.072L43.2292 106.136L248.893 24.1361ZM23.6979 123.349L237.044 208.333V468.623L23.6979 383.575V123.349Z" fill="#595959"/>
</g>
</svg>
